<?xml version="1.0" encoding="UTF-8" standalone="no"?>
<!-- Created with Inkscape (http://www.inkscape.org/) -->

<svg
   xmlns:dc="http://purl.org/dc/elements/1.1/"
   xmlns:cc="http://creativecommons.org/ns#"
   xmlns:rdf="http://www.w3.org/1999/02/22-rdf-syntax-ns#"
   xmlns:svg="http://www.w3.org/2000/svg"
   xmlns="http://www.w3.org/2000/svg"
   xmlns:xlink="http://www.w3.org/1999/xlink"
   xmlns:sodipodi="http://sodipodi.sourceforge.net/DTD/sodipodi-0.dtd"
   xmlns:inkscape="http://www.inkscape.org/namespaces/inkscape"
   width="6in"
   height="8in"
   viewBox="0 0 540 720"
   id="svg4136"
   version="1.1"
   inkscape:version="0.91 r13725"
   sodipodi:docname="penrose-1-fish-b.svg">
  <defs
     id="defs4138" />
  <sodipodi:namedview
     id="base"
     pagecolor="#ffffff"
     bordercolor="#666666"
     borderopacity="1.0"
     inkscape:pageopacity="0.0"
     inkscape:pageshadow="2"
     inkscape:zoom="0.49497475"
     inkscape:cx="-221.21025"
     inkscape:cy="468.97993"
     inkscape:document-units="px"
     inkscape:current-layer="g10663-3-4-2-5"
     showgrid="false"
     units="in"
     height="12in"
     width="8in"
     inkscape:object-paths="true"
     inkscape:snap-intersection-paths="true"
     inkscape:object-nodes="true"
     inkscape:snap-smooth-nodes="true"
     inkscape:snap-object-midpoints="true"
     inkscape:snap-center="true"
     inkscape:snap-global="true"
     inkscape:window-width="1912"
     inkscape:window-height="1057"
     inkscape:window-x="0"
     inkscape:window-y="0"
     inkscape:window-maximized="1"
     inkscape:snap-bbox="true"
     inkscape:bbox-paths="true"
     inkscape:bbox-nodes="true" />
  <metadata
     id="metadata4141">
    <rdf:RDF>
      <cc:Work
         rdf:about="">
        <dc:format>image/svg+xml</dc:format>
        <dc:type
           rdf:resource="http://purl.org/dc/dcmitype/StillImage" />
        <dc:title />
      </cc:Work>
    </rdf:RDF>
  </metadata>
  <g
     inkscape:label="Calque 1"
     inkscape:groupmode="layer"
     id="layer1"
     transform="translate(0,-332.3622)"
     style="display:inline">
    <use
       x="0"
       y="0"
       xlink:href="#g11011"
       inkscape:transform-center-x="561.91671"
       inkscape:transform-center-y="79.971077"
       id="use11642"
       transform="matrix(0.30901699,0.95105652,-0.95105652,0.30901699,825.55754,190.69458)"
       width="100%"
       height="100%"
       style="opacity:1" />
    <use
       x="0"
       y="0"
       xlink:href="#g11011"
       inkscape:transform-center-x="204.06451"
       inkscape:transform-center-y="-438.72823"
       id="use11644"
       transform="matrix(-0.809017,0.58778525,-0.58778525,-0.809017,899.30751,1034.7743)"
       width="100%"
       height="100%"
       style="opacity:1" />
    <use
       x="0"
       y="0"
       xlink:href="#g11011"
       inkscape:transform-center-x="-300.37416"
       inkscape:transform-center-y="-378.41175"
       id="use11646"
       transform="matrix(-0.80901699,-0.58778526,0.58778526,-0.80901699,119.33,1365.7497)"
       width="100%"
       height="100%"
       style="opacity:1" />
    <use
       x="0"
       y="0"
       xlink:href="#g11011"
       inkscape:transform-center-x="-532.14816"
       inkscape:transform-center-y="196.88025"
       id="use11648"
       transform="matrix(0.309017,-0.95105651,0.95105651,0.309017,-436.47259,726.22403)"
       width="100%"
       height="100%"
       style="opacity:1" />
    <g
       id="g11011"
       inkscape:label="#g11667"
       transform="matrix(1,0,0,-1,0,1340.991)"
       style="opacity:1">
      <g
         id="g10663-3-4-2"
         style="display:inline"
         transform="matrix(-0.80901699,0.58778525,0.58778525,0.80901699,-482.92203,130.55747)">
        <path
           inkscape:connector-curvature="0"
           style="color:#000000;font-style:normal;font-variant:normal;font-weight:normal;font-stretch:normal;font-size:medium;line-height:normal;font-family:sans-serif;text-indent:0;text-align:start;text-decoration:none;text-decoration-line:none;text-decoration-style:solid;text-decoration-color:#000000;letter-spacing:normal;word-spacing:normal;text-transform:none;direction:ltr;block-progression:tb;writing-mode:lr-tb;baseline-shift:baseline;text-anchor:start;white-space:normal;clip-rule:nonzero;display:inline;overflow:visible;visibility:visible;opacity:1;isolation:auto;mix-blend-mode:normal;color-interpolation:sRGB;color-interpolation-filters:linearRGB;solid-color:#000000;solid-opacity:1;fill:none;fill-opacity:1;fill-rule:evenodd;stroke:#ff0000;stroke-width:0.5;stroke-linecap:butt;stroke-linejoin:bevel;stroke-miterlimit:4;stroke-dasharray:none;stroke-dashoffset:0;stroke-opacity:1;color-rendering:auto;image-rendering:auto;shape-rendering:auto;text-rendering:auto;enable-background:accumulate"
           d="m 198.22627,721.71644 c -1.29402,1.63024 -3.46377,4.48807 -4.6492,6.24106 3.42422,0.34171 3.46507,1.74251 4.00575,4.25741 -1.4924,-1.2567 -2.62312,-2.03475 -4.48644,-2.29065 l -0.81633,-0.0104 c -1.95023,3.47384 -1.36145,5.26336 1.91699,6.94826 0.002,-1.16886 0.56102,-2.26673 1.50558,-2.95522 1.63707,-1.18845 3.92758,-0.82505 5.11639,0.81176 1.01139,1.39716 0.91183,3.31036 -0.2397,4.59456 l 3.61447,1.1835 c 1.25622,0.4115 2.16865,0.3495 2.87602,-0.122 l 1.2e-4,2e-4 c 0.10112,-0.067 0.19843,-0.143 0.29177,-0.2265 0.44664,-0.4028 0.80488,-0.9945 1.11974,-1.755 l 3.49659,-8.44558 c 0.62086,-1.49951 0.0927,-0.78968 2.55755,0.0418 1.36279,0.51819 1.94576,0.62689 2.10089,0.41979 0.27749,-0.37045 -1.61813,-2.6752 -1.79073,-3.39668 -0.17257,-0.72148 0.52312,-3.55205 0.13271,-3.79028 -0.22465,-0.13707 -0.70957,0.1927 -1.75665,1.24922 -1.77945,2.0359 -0.89717,2.44408 -2.24839,1.62118 l -8.36466,-5.09319 c -1.5156,-0.923 -3.37344,-0.55451 -4.38247,0.71675 -1.29401,1.63025 -3.46376,4.48809 -4.6492,6.24109 3.42422,0.34171 3.46507,1.7425 4.00575,4.2574 -1.4924,-1.2567 -2.62311,-2.03474 -4.48644,-2.29064 l -0.81634,-0.0104 c -1.95023,3.47384 -1.36143,5.26336 1.917,6.94825 0.002,-1.16885 0.56102,-2.26673 1.50558,-2.95522 1.63707,-1.18845 3.92757,-0.82504 5.11639,0.81177 1.01139,1.39716 0.91182,3.31045 -0.2397,4.59455 l 3.61455,1.1836 c 1.25632,0.4116 2.16875,0.3497 2.87611,-0.1219 l 1.1e-4,2e-4 c 0.0982,-0.071 0.19843,-0.1429 0.29159,-0.2267 0.44688,-0.4025 0.8049,-0.9945 1.11976,-1.755 l 3.49661,-8.44555 c 0.62085,-1.49951 0.0927,-0.7897 2.55754,0.0418 1.36277,0.51814 1.94574,0.62684 2.1009,0.4198 0.27744,-0.37054 -1.61818,-2.67529 -1.79076,-3.39674 -0.17256,-0.72145 0.52313,-3.55204 0.13272,-3.79027 -0.22466,-0.13707 -0.70957,0.1927 -1.75666,1.24922 -1.77944,2.03591 -0.89715,2.4441 -2.24839,1.62119 l -8.36465,-5.0932 c -1.5156,-0.923 -3.37345,-0.5545 -4.38248,0.71676 -1.29401,1.63025 -3.46376,4.48809 -4.64919,6.24108 3.42422,0.3417 3.46507,1.7425 4.00575,4.2574 -1.49241,-1.2567 -2.62312,-2.03474 -4.48644,-2.29064 l -0.81634,-0.0104 c -1.95023,3.47384 -1.36144,5.26335 1.91699,6.94825 0.002,-1.16885 0.56103,-2.26673 1.50558,-2.95521 1.63708,-1.18846 3.92758,-0.82505 5.11637,0.81173 1.01139,1.39715 0.91186,3.31048 -0.23968,4.59458 l 3.61445,1.1835"
           id="path25523" />
        <path
           id="path6334-4-0-3"
           style="color:#000000;font-style:normal;font-variant:normal;font-weight:normal;font-stretch:normal;font-size:medium;line-height:normal;font-family:sans-serif;text-indent:0;text-align:start;text-decoration:none;text-decoration-line:none;text-decoration-style:solid;text-decoration-color:#000000;letter-spacing:normal;word-spacing:normal;text-transform:none;direction:ltr;block-progression:tb;writing-mode:lr-tb;baseline-shift:baseline;text-anchor:start;white-space:normal;clip-rule:nonzero;display:inline;overflow:visible;visibility:visible;opacity:1;isolation:auto;mix-blend-mode:normal;color-interpolation:sRGB;color-interpolation-filters:linearRGB;solid-color:#000000;solid-opacity:1;fill:none;fill-opacity:1;fill-rule:evenodd;stroke:#ff0000;stroke-width:0.5;stroke-linecap:butt;stroke-linejoin:bevel;stroke-miterlimit:4;stroke-dasharray:none;stroke-dashoffset:0;stroke-opacity:1;color-rendering:auto;image-rendering:auto;shape-rendering:auto;text-rendering:auto;enable-background:accumulate"
           d="m 199.71091,737.47432 c -0.3329,1.0246 -1.43346,1.5853 -2.45809,1.2525 -1.02462,-0.3329 -1.58541,-1.4336 -1.25248,-2.4582 0.33294,-1.02467 1.43348,-1.58541 2.45817,-1.25243 1.02463,0.33289 1.58535,1.43344 1.2524,2.45813 -0.33289,1.0246 -1.43339,1.5854 -2.45809,1.2525 -1.02462,-0.3329 -1.58542,-1.4336 -1.25248,-2.4582 0.33293,-1.02465 1.43347,-1.5854 2.45817,-1.25243 1.02461,0.3329 1.58535,1.43344 1.2524,2.45813 -0.3329,1.0246 -1.43346,1.5853 -2.45809,1.2525 -1.02458,-0.3329 -1.58541,-1.4335 -1.25249,-2.45821 0.33297,-1.0246 1.4335,-1.58537 2.45821,-1.25238 1.02462,0.33292 1.58533,1.43342 1.25241,2.45809 -0.33294,1.0246 -1.43349,1.5854 -2.45813,1.2525"
           inkscape:connector-curvature="0"
           sodipodi:nodetypes="csscccsccccccc" />
      </g>
      <g
         id="g10524-2-1-4-6"
         style="display:inline;stroke-linejoin:bevel;opacity:1"
         transform="matrix(-0.80901699,0.58778525,-0.58778525,-0.80901699,389.2963,1307.1576)">
        <path
           id="path11163-4-0-0-8"
           style="display:inline;opacity:1;fill:none;fill-opacity:1;fill-rule:nonzero;stroke:#ff0000;stroke-width:1;stroke-linejoin:bevel;stroke-miterlimit:4;stroke-dasharray:none;stroke-opacity:1"
           d="m 229.93375,723.89423 c -0.28584,-0.87972 -1.23073,-1.36118 -2.11046,-1.07533 -0.87972,0.28582 -1.36117,1.23073 -1.07532,2.11046 0.28584,0.87976 1.23072,1.3612 2.11047,1.07533 0.87973,-0.28582 1.36115,-1.23073 1.07531,-2.11046 -0.28582,-0.87972 -1.23071,-1.3612 -2.11046,-1.07533 -0.87973,0.28583 -1.36118,1.23073 -1.07532,2.11046 0.28583,0.87975 1.23071,1.36119 2.11047,1.07532 0.87971,-0.28581 1.36115,-1.23072 1.07531,-2.11045 -0.28584,-0.87972 -1.23073,-1.36118 -2.11046,-1.07533"
           inkscape:connector-curvature="0"
           sodipodi:nodetypes="ccscccsssc" />
        <path
           id="path11163-4-0-0-8-6"
           style="display:inline;opacity:1;fill:none;fill-opacity:1;fill-rule:nonzero;stroke:#ff0000;stroke-width:1;stroke-linejoin:bevel;stroke-miterlimit:4;stroke-dasharray:none;stroke-opacity:1"
           d="m 231.87081,715.99633 c -0.58082,-1.78754 -2.50078,-2.76584 -4.28835,-2.185 -1.78753,0.58072 -2.76581,2.50077 -2.18498,4.28833 0.58081,1.78761 2.50075,2.76588 4.28835,2.18501 1.78755,-0.58073 2.76579,-2.50077 2.18498,-4.28834 -0.58079,-1.78753 -2.50074,-2.76587 -4.28835,-2.185 -1.78754,0.58073 -2.76584,2.50076 -2.18498,4.28833 0.58079,1.78759 2.50074,2.76585 4.28836,2.18498 1.78751,-0.58072 2.76578,-2.50074 2.18497,-4.28831 -0.58082,-1.78754 -2.50078,-2.76584 -4.28835,-2.185"
           inkscape:connector-curvature="0"
           sodipodi:nodetypes="ccscccsssc" />
        <path
           id="path11163-4-0-0-8-6-8"
           style="display:inline;opacity:1;fill:none;fill-opacity:1;fill-rule:nonzero;stroke:#ff0000;stroke-width:1;stroke-linejoin:bevel;stroke-miterlimit:4;stroke-dasharray:none;stroke-opacity:1"
           d="m 228.16705,708.75832 c -0.36801,-1.13261 -1.58452,-1.75246 -2.71714,-1.38444 -1.13259,0.36795 -1.75245,1.58452 -1.38443,2.71714 0.368,1.13264 1.5845,1.75248 2.71714,1.38444 1.13262,-0.36796 1.75245,-1.58451 1.38443,-2.71714 -0.36799,-1.13261 -1.58449,-1.75249 -2.71714,-1.38444 -1.1326,0.36796 -1.75247,1.58451 -1.38443,2.71714 0.36798,1.13263 1.58449,1.75247 2.71715,1.38442 1.13258,-0.36795 1.75244,-1.58449 1.38442,-2.71712 -0.36801,-1.13261 -1.58452,-1.75246 -2.71714,-1.38444"
           inkscape:connector-curvature="0"
           sodipodi:nodetypes="ccscccsssc" />
      </g>
      <use
         height="100%"
         width="100%"
         transform="translate(481.45052,-157.74184)"
         id="use10956"
         xlink:href="#g10524-2-1-4-6"
         y="0"
         x="0" />
      <use
         height="100%"
         width="100%"
         transform="matrix(0.80901699,0.58778525,-0.58778525,0.80901699,911.47829,150.59342)"
         id="use10973"
         xlink:href="#g10663-3-4-2"
         y="0"
         x="0" />
      <use
         height="100%"
         width="100%"
         transform="matrix(0.80901699,-0.58778525,0.58778525,0.80901699,-70.385542,-84.414996)"
         id="use10975"
         xlink:href="#g10663-3-4-2"
         y="0"
         x="0" />
      <use
         height="100%"
         width="100%"
         transform="matrix(-0.30901699,-0.95105651,0.95105651,-0.30901699,-597.32495,776.73884)"
         id="use10977"
         xlink:href="#g10663-3-4-2"
         y="0"
         x="0" />
      <use
         height="100%"
         width="100%"
         transform="matrix(0.80901699,0.58778525,-0.58778525,0.80901699,897.42713,107.34866)"
         id="use10987"
         xlink:href="#g10524-2-1-4-6"
         y="0"
         x="0" />
      <use
         height="100%"
         width="100%"
         transform="matrix(0.80901699,0.58778525,-0.58778525,0.80901699,911.47823,150.59346)"
         id="use10989"
         xlink:href="#g10524-2-1-4-6"
         y="0"
         x="0" />
      <use
         height="100%"
         width="100%"
         transform="matrix(0.30901699,-0.95105651,0.95105651,0.30901699,-510.5417,272.50447)"
         id="use10991"
         xlink:href="#g10663-3-4-2"
         y="0"
         x="0" />
      <use
         height="100%"
         width="100%"
         transform="matrix(-0.30901699,-0.95105651,0.95105651,-0.30901699,-670.87946,776.74029)"
         id="use10993"
         xlink:href="#g10524-2-1-4-6"
         y="0"
         x="0" />
      <use
         height="100%"
         width="100%"
         transform="matrix(-1,0,0,-1,-14.687164,1543.9984)"
         id="use10995"
         xlink:href="#g10524-2-1-4-6"
         y="0"
         x="0" />
      <use
         height="100%"
         width="100%"
         transform="matrix(-0.30901699,0.95105651,-0.95105651,-0.30901699,917.82461,1157.0321)"
         id="use11007"
         xlink:href="#g10524-2-1-4-6"
         y="0"
         x="0" />
      <use
         height="100%"
         width="100%"
         transform="matrix(0.80901699,-0.58778525,0.58778525,0.80901699,-143.95234,-84.419337)"
         id="use11009"
         xlink:href="#g10524-2-1-4-6"
         y="0"
         x="0" />
      <use
         x="0"
         y="0"
         xlink:href="#g10663-3-4-2"
         id="use11696"
         transform="matrix(0.30901699,0.95105651,-0.95105651,0.30901699,1064.0936,609.52804)"
         width="100%"
         height="100%" />
      <use
         x="0"
         y="0"
         xlink:href="#g10663-3-4-2"
         id="use11698"
         transform="matrix(0.30901699,-0.95105651,0.95105651,0.30901699,-547.3238,299.24726)"
         width="100%"
         height="100%" />
      <use
         x="0"
         y="0"
         xlink:href="#g10663-3-4-2"
         id="use11702"
         transform="matrix(0.30901699,0.95105651,-0.95105651,0.30901699,1018.6456,609.54362)"
         width="100%"
         height="100%" />
      <use
         x="0"
         y="0"
         xlink:href="#g10663-3-4-2"
         id="use11706"
         transform="matrix(-0.80901699,-0.58778525,0.58778525,-0.80901699,-467.42808,1305.6785)"
         width="100%"
         height="100%" />
      <use
         x="0"
         y="0"
         xlink:href="#g10663-3-4-2"
         id="use11720"
         transform="matrix(-0.80901699,0.58778525,-0.58778525,-0.80901699,491.71723,1470.7253)"
         width="100%"
         height="100%" />
      <use
         x="0"
         y="0"
         xlink:href="#g10524-2-1-4-6"
         id="use11722"
         transform="matrix(0.30901699,-0.95105651,0.95105651,0.30901699,-547.32558,299.24617)"
         width="100%"
         height="100%" />
      <use
         x="0"
         y="0"
         xlink:href="#g10524-2-1-4-6"
         id="use11724"
         transform="matrix(0.30901699,0.95105651,-0.95105651,0.30901699,1100.8846,722.75702)"
         width="100%"
         height="100%" />
      <use
         x="0"
         y="0"
         xlink:href="#g10663-3-4-2"
         id="use11726"
         transform="matrix(0.80901699,-0.58778525,0.58778525,0.80901699,-121.21124,-14.457256)"
         width="100%"
         height="100%" />
      <use
         x="0"
         y="0"
         xlink:href="#g10663-3-4-2"
         id="use11830"
         transform="matrix(-0.80901699,0.58778525,-0.58778525,-0.80901699,477.66766,1653.8968)"
         width="100%"
         height="100%"
         style="opacity:1" />
      <use
         x="0"
         y="0"
         xlink:href="#g10663-3-4-2-5"
         id="use17548"
         transform="translate(491.66648,-70.545853)"
         width="100%"
         height="100%" />
      <use
         x="0"
         y="0"
         xlink:href="#g10663-3-4-2-5"
         id="use17562"
         transform="matrix(0.80901699,0.58778525,-0.58778525,0.80901699,794.90888,227.14453)"
         width="100%"
         height="100%" />
      <use
         x="0"
         y="0"
         xlink:href="#g10663-3-4-2-5"
         id="use17564"
         transform="matrix(-0.30901699,0.95105651,-0.95105651,-0.30901699,831.71848,1139.7442)"
         width="100%"
         height="100%" />
      <use
         x="0"
         y="0"
         xlink:href="#g10663-3-4-2-5"
         id="use17566"
         transform="matrix(-1,0,0,-1,-24.886706,1456.7848)"
         width="100%"
         height="100%" />
      <use
         x="0"
         y="0"
         xlink:href="#g10663-3-4-2-5"
         id="use17568"
         transform="matrix(-0.30901699,-0.95105651,0.95105651,-0.30901699,-591.10251,740.1071)"
         width="100%"
         height="100%" />
      <use
         x="0"
         y="0"
         xlink:href="#g10663-3-4-2-5"
         id="use17570"
         transform="matrix(0.80901699,-0.58778525,0.58778525,0.80901699,-84.454047,-19.87548)"
         width="100%"
         height="100%" />
      <g
         id="g10663-3-4-2-5"
         style="display:inline;opacity:1"
         transform="matrix(-0.80901699,0.58778525,0.58778525,0.80901699,-493.10978,43.364737)">
        <path
           id="path9649-2-8-9-7-1-4-2"
           style="color:#000000;font-style:normal;font-variant:normal;font-weight:normal;font-stretch:normal;font-size:medium;line-height:normal;font-family:sans-serif;text-indent:0;text-align:start;text-decoration:none;text-decoration-line:none;text-decoration-style:solid;text-decoration-color:#000000;letter-spacing:normal;word-spacing:normal;text-transform:none;direction:ltr;block-progression:tb;writing-mode:lr-tb;baseline-shift:baseline;text-anchor:start;white-space:normal;clip-rule:nonzero;display:inline;overflow:visible;visibility:visible;opacity:1;isolation:auto;mix-blend-mode:normal;color-interpolation:sRGB;color-interpolation-filters:linearRGB;solid-color:#000000;solid-opacity:1;fill:none;fill-opacity:1;fill-rule:evenodd;stroke:#ff0000;stroke-width:0.5625;stroke-linecap:butt;stroke-linejoin:bevel;stroke-miterlimit:4;stroke-dasharray:none;stroke-dashoffset:0;stroke-opacity:1;color-rendering:auto;image-rendering:auto;shape-rendering:auto;text-rendering:auto;enable-background:accumulate"
           d="m 186.33928,739.83533 c -0.36873,0.11981 -0.74213,0.17699 -1.10897,0.17736 -1.10364,-2.3e-4 -2.19028,-0.5122 -2.89162,-1.47752 -0.22789,-0.31365 -0.39766,-0.65111 -0.51138,-0.9999 -0.34083,-1.04972 -0.18971,-2.24138 0.51163,-3.2067 0.22788,-0.31366 0.49636,-0.5794 0.79293,-0.79532 0.89301,-0.64852 2.07304,-0.87304 3.20784,-0.50432 0.36873,0.1198 0.70443,0.29302 1.00143,0.50835 0.89273,0.64888 1.47092,1.70178 1.47092,2.89506 0,0.38765 -0.061,0.76049 -0.17402,1.10947 -0.34126,1.04956 -1.16396,1.92481 -2.29876,2.29352 z"
           inkscape:connector-curvature="0"
           sodipodi:nodetypes="ccccccccscc" />
        <path
           style="color:#000000;font-style:normal;font-variant:normal;font-weight:normal;font-stretch:normal;font-size:medium;line-height:normal;font-family:sans-serif;text-indent:0;text-align:start;text-decoration:none;text-decoration-line:none;text-decoration-style:solid;text-decoration-color:#000000;letter-spacing:normal;word-spacing:normal;text-transform:none;direction:ltr;block-progression:tb;writing-mode:lr-tb;baseline-shift:baseline;text-anchor:start;white-space:normal;clip-rule:nonzero;display:inline;overflow:visible;visibility:visible;opacity:1;isolation:auto;mix-blend-mode:normal;color-interpolation:sRGB;color-interpolation-filters:linearRGB;solid-color:#000000;solid-opacity:1;fill:none;fill-opacity:1;fill-rule:evenodd;stroke:#ff0000;stroke-width:0.5625;stroke-linecap:butt;stroke-linejoin:bevel;stroke-miterlimit:4;stroke-dasharray:none;stroke-dashoffset:0;stroke-opacity:1;color-rendering:auto;image-rendering:auto;shape-rendering:auto;text-rendering:auto;enable-background:accumulate"
           d="m 187.34114,733.53734 c 0.89273,0.6489 1.47092,1.7018 1.47092,2.895 0,0.3877 -0.061,0.7605 -0.17402,1.1095"
           id="path9649-2-8-9-7-1-4"
           inkscape:connector-curvature="0"
           inkscape:transform-center-x="2.8406783"
           inkscape:transform-center-y="-0.895757"
           sodipodi:nodetypes="csc" />
        <path
           inkscape:connector-curvature="0"
           style="color:#000000;font-style:normal;font-variant:normal;font-weight:normal;font-stretch:normal;font-size:medium;line-height:normal;font-family:sans-serif;text-indent:0;text-align:start;text-decoration:none;text-decoration-line:none;text-decoration-style:solid;text-decoration-color:#000000;letter-spacing:normal;word-spacing:normal;text-transform:none;direction:ltr;block-progression:tb;writing-mode:lr-tb;baseline-shift:baseline;text-anchor:start;white-space:normal;clip-rule:nonzero;display:inline;overflow:visible;visibility:visible;opacity:1;isolation:auto;mix-blend-mode:normal;color-interpolation:sRGB;color-interpolation-filters:linearRGB;solid-color:#000000;solid-opacity:1;fill:none;fill-opacity:1;fill-rule:evenodd;stroke:#ff0000;stroke-width:0.5;stroke-linecap:butt;stroke-linejoin:bevel;stroke-miterlimit:4;stroke-dasharray:none;stroke-dashoffset:0;stroke-opacity:1;color-rendering:auto;image-rendering:auto;shape-rendering:auto;text-rendering:auto;enable-background:accumulate"
           d="m 198.51521,721.49116 c -1.29402,1.6303 -3.46377,4.4881 -4.64921,6.2411 3.42423,0.3417 3.46508,1.7425 4.00576,4.2574 -1.4924,-1.2567 -2.62312,-2.0348 -4.48645,-2.2906 l -0.81633,-0.01 c -1.95022,3.4738 -1.36144,5.2633 1.91699,6.9482 0.002,-1.1688 0.56103,-2.2667 1.50559,-2.9552 1.63707,-1.1885 3.92758,-0.8251 5.11639,0.8118 1.01139,1.3971 0.91183,3.3104 -0.2397,4.5945 l 3.61447,1.1835 c 1.25622,0.4115 2.16865,0.3495 2.87602,-0.122 l 1.2e-4,2e-4 c 0.10112,-0.067 0.19843,-0.1429 0.29177,-0.2265 0.44664,-0.4028 0.80488,-0.9945 1.11974,-1.755 l 3.49659,-8.4456 c 0.62086,-1.4995 0.0927,-0.7897 2.55755,0.042 1.36279,0.5182 1.94576,0.6269 2.10089,0.4198 0.27749,-0.3704 -1.61813,-2.6752 -1.79073,-3.3967 -0.17257,-0.7214 0.52312,-3.552 0.13271,-3.7902 -0.22465,-0.1371 -0.70957,0.1926 -1.75665,1.2492 -1.77945,2.0359 -0.89717,2.444 -2.24839,1.6212 l -8.36466,-5.0932 c -1.5156,-0.923 -3.37344,-0.5545 -4.38247,0.7167 -1.29401,1.6303 -3.46377,4.4881 -4.6492,6.2411 3.42422,0.3417 3.46507,1.7425 4.00575,4.2574 -1.4924,-1.2567 -2.62312,-2.0347 -4.48644,-2.2906 l -0.81634,-0.01 c -1.95023,3.4738 -1.36144,5.2633 1.91699,6.9482 0.002,-1.1688 0.56103,-2.2667 1.50559,-2.9552 1.63707,-1.1885 3.92757,-0.8251 5.11639,0.8118 1.01139,1.3971 0.91182,3.3104 -0.2397,4.5945 l 3.61455,1.1836 c 1.25632,0.4116 2.16875,0.3497 2.87611,-0.1218 l 1.1e-4,10e-5 c 0.0982,-0.071 0.19843,-0.1429 0.29159,-0.2267 0.44688,-0.4025 0.8049,-0.9945 1.11976,-1.755 l 3.49661,-8.4455 c 0.62085,-1.4995 0.0927,-0.7897 2.55754,0.042 1.36277,0.5181 1.94574,0.6268 2.1009,0.4198 0.27744,-0.3706 -1.61818,-2.6753 -1.79076,-3.3968 -0.17256,-0.7214 0.52313,-3.552 0.13272,-3.7902 -0.22466,-0.1371 -0.70957,0.1926 -1.75666,1.2492 -1.77944,2.0359 -0.89715,2.4441 -2.24839,1.6212 l -8.36465,-5.0932 c -1.5156,-0.923 -3.37345,-0.5545 -4.38248,0.7167 -1.29401,1.6303 -3.46377,4.4881 -4.64919,6.2411 3.42422,0.3417 3.46507,1.7425 4.00575,4.2574 -1.49241,-1.2567 -2.62312,-2.0347 -4.48644,-2.2906 l -0.81634,-0.01 c -1.95023,3.4738 -1.36144,5.2633 1.91698,6.9482 0.002,-1.1688 0.56104,-2.2667 1.50559,-2.9552 1.63708,-1.1885 3.92758,-0.8251 5.11637,0.8117 1.01139,1.3972 0.91186,3.3105 -0.23968,4.5946 l 3.61445,1.1835"
           id="path25523-6" />
        <path
           id="path6334-4-0-3-1"
           style="color:#000000;font-style:normal;font-variant:normal;font-weight:normal;font-stretch:normal;font-size:medium;line-height:normal;font-family:sans-serif;text-indent:0;text-align:start;text-decoration:none;text-decoration-line:none;text-decoration-style:solid;text-decoration-color:#000000;letter-spacing:normal;word-spacing:normal;text-transform:none;direction:ltr;block-progression:tb;writing-mode:lr-tb;baseline-shift:baseline;text-anchor:start;white-space:normal;clip-rule:nonzero;display:inline;overflow:visible;visibility:visible;opacity:1;isolation:auto;mix-blend-mode:normal;color-interpolation:sRGB;color-interpolation-filters:linearRGB;solid-color:#000000;solid-opacity:1;fill:none;fill-opacity:1;fill-rule:evenodd;stroke:#ff0000;stroke-width:0.5;stroke-linecap:butt;stroke-linejoin:bevel;stroke-miterlimit:4;stroke-dasharray:none;stroke-dashoffset:0;stroke-opacity:1;color-rendering:auto;image-rendering:auto;shape-rendering:auto;text-rendering:auto;enable-background:accumulate"
           d="m 199.99985,737.24906 c -0.3329,1.0246 -1.43346,1.5854 -2.45809,1.2525 -1.02462,-0.3329 -1.58541,-1.4335 -1.25248,-2.4582 0.33294,-1.0247 1.43348,-1.5854 2.45817,-1.2524 1.02463,0.3329 1.58535,1.4334 1.2524,2.4581 -0.33289,1.0246 -1.43339,1.5855 -2.45809,1.2525 -1.02462,-0.3329 -1.58542,-1.4335 -1.25248,-2.4582 0.33293,-1.0246 1.43347,-1.5854 2.45817,-1.2524 1.02461,0.3329 1.58535,1.4334 1.2524,2.4581 -0.3329,1.0246 -1.43346,1.5854 -2.45809,1.2525 -1.02458,-0.3329 -1.58541,-1.4335 -1.25249,-2.4582 0.33297,-1.0246 1.4335,-1.5854 2.45821,-1.2524 1.02462,0.3329 1.58533,1.4334 1.25241,2.4581 -0.33294,1.0246 -1.43349,1.5854 -2.45813,1.2525"
           inkscape:connector-curvature="0"
           sodipodi:nodetypes="csscccsccccccc" />
      </g>
    </g>
  </g>
</svg>
