<?xml version="1.0" encoding="UTF-8" standalone="no"?>
<!-- Created with Inkscape (http://www.inkscape.org/) -->

<svg
   xmlns:dc="http://purl.org/dc/elements/1.1/"
   xmlns:cc="http://creativecommons.org/ns#"
   xmlns:rdf="http://www.w3.org/1999/02/22-rdf-syntax-ns#"
   xmlns:svg="http://www.w3.org/2000/svg"
   xmlns="http://www.w3.org/2000/svg"
   xmlns:xlink="http://www.w3.org/1999/xlink"
   xmlns:sodipodi="http://sodipodi.sourceforge.net/DTD/sodipodi-0.dtd"
   xmlns:inkscape="http://www.inkscape.org/namespaces/inkscape"
   width="6in"
   height="8in"
   viewBox="0 0 540 720"
   id="svg4136"
   version="1.1"
   inkscape:version="0.91 r13725"
   sodipodi:docname="penrose-1-fish-c-single.svg">
  <defs
     id="defs4138" />
  <sodipodi:namedview
     id="base"
     pagecolor="#ffffff"
     bordercolor="#666666"
     borderopacity="1.0"
     inkscape:pageopacity="0.0"
     inkscape:pageshadow="2"
     inkscape:zoom="22.627417"
     inkscape:cx="-233.70881"
     inkscape:cy="465.80528"
     inkscape:document-units="px"
     inkscape:current-layer="g11011"
     showgrid="false"
     units="in"
     height="12in"
     width="8in"
     inkscape:object-paths="true"
     inkscape:snap-intersection-paths="true"
     inkscape:object-nodes="true"
     inkscape:snap-smooth-nodes="true"
     inkscape:snap-object-midpoints="true"
     inkscape:snap-center="true"
     inkscape:snap-global="true"
     inkscape:window-width="1912"
     inkscape:window-height="1057"
     inkscape:window-x="0"
     inkscape:window-y="0"
     inkscape:window-maximized="1"
     inkscape:snap-bbox="true"
     inkscape:bbox-paths="false"
     inkscape:bbox-nodes="false" />
  <metadata
     id="metadata4141">
    <rdf:RDF>
      <cc:Work
         rdf:about="">
        <dc:format>image/svg+xml</dc:format>
        <dc:type
           rdf:resource="http://purl.org/dc/dcmitype/StillImage" />
        <dc:title></dc:title>
      </cc:Work>
    </rdf:RDF>
  </metadata>
  <g
     inkscape:label="Calque 1"
     inkscape:groupmode="layer"
     id="layer1"
     transform="translate(0,-332.3622)"
     style="display:inline">
    <use
       x="0"
       y="0"
       xlink:href="#g11011"
       inkscape:transform-center-x="561.91671"
       inkscape:transform-center-y="79.971077"
       id="use11642"
       transform="matrix(0.30901699,0.95105652,-0.95105652,0.30901699,825.55754,190.69458)"
       width="100%"
       height="100%"
       style="opacity:1" />
    <use
       x="0"
       y="0"
       xlink:href="#g11011"
       inkscape:transform-center-x="204.06451"
       inkscape:transform-center-y="-438.72823"
       id="use11644"
       transform="matrix(-0.809017,0.58778525,-0.58778525,-0.809017,899.30751,1034.7743)"
       width="100%"
       height="100%"
       style="opacity:1" />
    <use
       x="0"
       y="0"
       xlink:href="#g11011"
       inkscape:transform-center-x="-300.37416"
       inkscape:transform-center-y="-378.41175"
       id="use11646"
       transform="matrix(-0.80901699,-0.58778526,0.58778526,-0.80901699,119.33,1365.7497)"
       width="100%"
       height="100%"
       style="opacity:1" />
    <use
       x="0"
       y="0"
       xlink:href="#g11011"
       inkscape:transform-center-x="-532.14816"
       inkscape:transform-center-y="196.88025"
       id="use11648"
       transform="matrix(0.309017,-0.95105651,0.95105651,0.309017,-436.47259,726.22403)"
       width="100%"
       height="100%"
       style="opacity:1" />
    <g
       id="g11011"
       inkscape:label="#g11667"
       transform="matrix(1,0,0,-1,0,1340.991)"
       style="opacity:1">
      <g
         id="g10663-3-4-2"
         style="display:inline"
         transform="matrix(-0.80901699,0.58778525,0.58778525,0.80901699,-482.92203,130.55747)">
        <g
           transform="translate(-1.0868956e-4,3.0937872e-7)"
           style="display:inline;opacity:1"
           id="g36971">
          <path
             id="path36973"
             style="color:#000000;font-style:normal;font-variant:normal;font-weight:normal;font-stretch:normal;font-size:medium;line-height:normal;font-family:sans-serif;text-indent:0;text-align:start;text-decoration:none;text-decoration-line:none;text-decoration-style:solid;text-decoration-color:#000000;letter-spacing:normal;word-spacing:normal;text-transform:none;direction:ltr;block-progression:tb;writing-mode:lr-tb;baseline-shift:baseline;text-anchor:start;white-space:normal;clip-rule:nonzero;display:inline;overflow:visible;visibility:visible;opacity:1;isolation:auto;mix-blend-mode:normal;color-interpolation:sRGB;color-interpolation-filters:linearRGB;solid-color:#000000;solid-opacity:1;fill:none;fill-opacity:1;fill-rule:evenodd;stroke:#ff0000;stroke-width:0.5;stroke-linecap:butt;stroke-linejoin:bevel;stroke-miterlimit:4;stroke-dasharray:none;stroke-dashoffset:0;stroke-opacity:1;color-rendering:auto;image-rendering:auto;shape-rendering:auto;text-rendering:auto;enable-background:accumulate"
             d="m 196.99967,739.50538 c -1.45498,-0.47272 -2.2513,-2.03557 -1.77854,-3.4906 0.47279,-1.45508 2.03556,-2.25127 3.49062,-1.77841 1.45497,0.47272 2.25118,2.03543 1.77839,3.49046 -0.47272,1.45493 -2.0355,2.25127 -3.49047,1.77855 z"
             inkscape:connector-curvature="0"
             sodipodi:nodetypes="ssccs" />
          <path
             style="color:#000000;font-style:normal;font-variant:normal;font-weight:normal;font-stretch:normal;font-size:medium;line-height:normal;font-family:sans-serif;text-indent:0;text-align:start;text-decoration:none;text-decoration-line:none;text-decoration-style:solid;text-decoration-color:#000000;letter-spacing:normal;word-spacing:normal;text-transform:none;direction:ltr;block-progression:tb;writing-mode:lr-tb;baseline-shift:baseline;text-anchor:start;white-space:normal;clip-rule:nonzero;display:inline;overflow:visible;visibility:visible;opacity:1;isolation:auto;mix-blend-mode:normal;color-interpolation:sRGB;color-interpolation-filters:linearRGB;solid-color:#000000;solid-opacity:1;fill:none;fill-opacity:1;fill-rule:evenodd;stroke:#ff0000;stroke-width:0.5;stroke-linecap:butt;stroke-linejoin:bevel;stroke-miterlimit:4;stroke-dasharray:none;stroke-dashoffset:0;stroke-opacity:1;color-rendering:auto;image-rendering:auto;shape-rendering:auto;text-rendering:auto;enable-background:accumulate"
             d="m -217.57011,158.15592 -7.79294,4.77728 c -1.38366,0.84819 -0.53917,0.58439 -2.0444,-1.53727 -0.79798,-1.22016 -1.20572,-1.65077 -1.45292,-1.57451 -0.44228,0.13676 -0.26336,3.11552 -0.54784,3.80066 -0.28442,0.68505 -2.51103,2.56614 -2.33519,2.98832 0.10117,0.24297 0.68726,0.26126 2.15543,0.0219 2.63626,-0.60115 2.16241,-1.44999 2.77191,0.01 l 3.77342,9.0371 c 0.68363,1.63757 2.40326,2.43147 3.96677,1.99614 2.00514,-0.55834 5.79877,-1.72858 7.10203,-2.2012 -1.68323,-1.49963 -0.81108,-2.61452 0.2124,-4.04191 0.30706,1.24071 0.60676,2.08844 1.49576,2.94156 l 0.4288,0.31963 c 2.13516,-0.98159 4.42246,-3.27855 3.3343,-5.98504 -0.20389,0.22278 -0.43308,0.42851 -0.68694,0.6129 -2.03671,1.47958 -4.88737,1.02819 -6.36713,-1.00872 -1.47972,-2.03658 -1.02819,-4.88708 1.00849,-6.36686 0.42184,-0.30646 0.8786,-0.53008 1.35084,-0.67395 l -1.66759,-2.29774 c -0.77464,-1.07126 -1.54919,-1.5575 -2.3986,-1.59182 l 0,0 -3e-5,-1.5e-4 c -0.12118,-2.8e-4 -0.24452,-0.001 -0.60586,0.037 -0.36134,0.038 -0.99901,0.30651 -1.70071,0.73666 z"
             id="path36975"
             transform="matrix(-0.809017,0.58778526,-0.58778526,-0.809017,125.42525,994.22908)"
             inkscape:connector-curvature="0"
             sodipodi:nodetypes="scccccccccccccccccccccccs" />
        </g>
      </g>
      <g
         id="g10524-2-1-4-6"
         style="display:inline;stroke-linejoin:bevel;opacity:1"
         transform="matrix(-0.80901699,0.58778525,-0.58778525,-0.80901699,389.2963,1307.1576)">
        <path
           sodipodi:nodetypes="csccc"
           inkscape:connector-curvature="0"
           d="m 227.47729,713.48766 c -1.96628,0.63879 -3.04239,2.75085 -2.40348,4.71717 0.6389,1.96637 2.75083,3.04246 4.71719,2.40351 1.9663,-0.63881 3.04237,-2.75085 2.40348,-4.71718 -0.6389,-1.96629 -2.75086,-3.04242 -4.71719,-2.4035 z"
           style="display:inline;opacity:1;fill:none;fill-opacity:1;fill-rule:nonzero;stroke:#ff0000;stroke-width:1.10000002;stroke-linejoin:bevel;stroke-miterlimit:4;stroke-dasharray:none;stroke-opacity:1"
           id="path26430" />
        <path
           sodipodi:nodetypes="csccc"
           inkscape:connector-curvature="0"
           d="m 224.6542,705.82494 c -1.60878,0.52265 -2.48923,2.25069 -1.96648,3.85949 0.52272,1.60885 2.25067,2.4893 3.85951,1.96651 1.6088,-0.52265 2.48921,-2.25069 1.96648,-3.8595 -0.52274,-1.60879 -2.2507,-2.48926 -3.85951,-1.9665 z"
           style="display:inline;opacity:1;fill:none;fill-opacity:1;fill-rule:nonzero;stroke:#ff0000;stroke-width:0.89999998;stroke-linejoin:bevel;stroke-miterlimit:4;stroke-dasharray:none;stroke-opacity:1"
           id="path26430-5" />
        <path
           sodipodi:nodetypes="csscc"
           inkscape:connector-curvature="0"
           d="m 227.79178,723.49999 c -1.44791,0.47039 -2.24033,2.02561 -1.76983,3.47354 0.47044,1.44796 2.02559,2.24034 3.47357,1.76984 1.44788,-0.47038 2.24028,-2.0256 1.76982,-3.47353 -0.47044,-1.4479 -2.02559,-2.24036 -3.47356,-1.76985 z"
           style="display:inline;opacity:1;fill:none;fill-opacity:1;fill-rule:nonzero;stroke:#ff0000;stroke-width:0.81;stroke-linejoin:bevel;stroke-miterlimit:4;stroke-dasharray:none;stroke-opacity:1"
           id="path26430-5-3" />
      </g>
      <use
         height="100%"
         width="100%"
         transform="translate(481.45052,-157.74184)"
         id="use10956"
         xlink:href="#g10524-2-1-4-6"
         y="0"
         x="0" />
      <use
         height="100%"
         width="100%"
         transform="matrix(0.80901699,0.58778525,-0.58778525,0.80901699,911.47829,150.59342)"
         id="use10973"
         xlink:href="#g10663-3-4-2"
         y="0"
         x="0" />
      <use
         height="100%"
         width="100%"
         transform="matrix(0.80901699,-0.58778525,0.58778525,0.80901699,-70.385542,-84.414996)"
         id="use10975"
         xlink:href="#g10663-3-4-2"
         y="0"
         x="0" />
      <use
         height="100%"
         width="100%"
         transform="matrix(-0.30901699,-0.95105651,0.95105651,-0.30901699,-597.32495,776.73884)"
         id="use10977"
         xlink:href="#g10663-3-4-2"
         y="0"
         x="0" />
      <use
         height="100%"
         width="100%"
         transform="matrix(0.80901699,0.58778525,-0.58778525,0.80901699,897.42713,107.34866)"
         id="use10987"
         xlink:href="#g10524-2-1-4-6"
         y="0"
         x="0" />
      <use
         height="100%"
         width="100%"
         transform="matrix(0.80901699,0.58778525,-0.58778525,0.80901699,911.47823,150.59346)"
         id="use10989"
         xlink:href="#g10524-2-1-4-6"
         y="0"
         x="0" />
      <use
         height="100%"
         width="100%"
         transform="matrix(0.30901699,-0.95105651,0.95105651,0.30901699,-510.5417,272.50447)"
         id="use10991"
         xlink:href="#g10663-3-4-2"
         y="0"
         x="0" />
      <use
         height="100%"
         width="100%"
         transform="matrix(-0.30901699,-0.95105651,0.95105651,-0.30901699,-670.87946,776.74029)"
         id="use10993"
         xlink:href="#g10524-2-1-4-6"
         y="0"
         x="0" />
      <use
         height="100%"
         width="100%"
         transform="matrix(-1,0,0,-1,-14.687164,1543.9984)"
         id="use10995"
         xlink:href="#g10524-2-1-4-6"
         y="0"
         x="0" />
      <use
         height="100%"
         width="100%"
         transform="matrix(-0.30901699,0.95105651,-0.95105651,-0.30901699,917.82461,1157.0321)"
         id="use11007"
         xlink:href="#g10524-2-1-4-6"
         y="0"
         x="0" />
      <use
         height="100%"
         width="100%"
         transform="matrix(0.80901699,-0.58778525,0.58778525,0.80901699,-143.95234,-84.419337)"
         id="use11009"
         xlink:href="#g10524-2-1-4-6"
         y="0"
         x="0" />
      <use
         x="0"
         y="0"
         xlink:href="#g10663-3-4-2"
         id="use11696"
         transform="matrix(0.30901699,0.95105651,-0.95105651,0.30901699,1064.0936,609.52804)"
         width="100%"
         height="100%" />
      <use
         x="0"
         y="0"
         xlink:href="#g10663-3-4-2"
         id="use11698"
         transform="matrix(0.30901699,-0.95105651,0.95105651,0.30901699,-547.3238,299.24726)"
         width="100%"
         height="100%" />
      <use
         x="0"
         y="0"
         xlink:href="#g10663-3-4-2"
         id="use11702"
         transform="matrix(0.30901699,0.95105651,-0.95105651,0.30901699,1018.6456,609.54362)"
         width="100%"
         height="100%" />
      <use
         x="0"
         y="0"
         xlink:href="#g10663-3-4-2"
         id="use11706"
         transform="matrix(-0.80901699,-0.58778525,0.58778525,-0.80901699,-467.42808,1305.6785)"
         width="100%"
         height="100%" />
      <use
         x="0"
         y="0"
         xlink:href="#g10663-3-4-2"
         id="use11720"
         transform="matrix(-0.80901699,0.58778525,-0.58778525,-0.80901699,491.71723,1470.7253)"
         width="100%"
         height="100%" />
      <use
         x="0"
         y="0"
         xlink:href="#g10524-2-1-4-6"
         id="use11722"
         transform="matrix(0.30901699,-0.95105651,0.95105651,0.30901699,-547.32558,299.24617)"
         width="100%"
         height="100%" />
      <use
         x="0"
         y="0"
         xlink:href="#g10524-2-1-4-6"
         id="use11724"
         transform="matrix(0.30901699,0.95105651,-0.95105651,0.30901699,1100.8846,722.75702)"
         width="100%"
         height="100%" />
      <use
         x="0"
         y="0"
         xlink:href="#g10663-3-4-2"
         id="use11726"
         transform="matrix(0.80901699,-0.58778525,0.58778525,0.80901699,-121.21124,-14.457256)"
         width="100%"
         height="100%" />
      <use
         x="0"
         y="0"
         xlink:href="#g10663-3-4-2"
         id="use11830"
         transform="matrix(-0.80901699,0.58778525,-0.58778525,-0.80901699,477.66766,1653.8968)"
         width="100%"
         height="100%"
         style="opacity:1" />
      <use
         x="0"
         y="0"
         xlink:href="#g10663-3-4-2-5"
         id="use17548"
         transform="translate(491.66648,-70.545853)"
         width="100%"
         height="100%" />
      <use
         x="0"
         y="0"
         xlink:href="#g10663-3-4-2-5"
         id="use17570"
         transform="matrix(0.80901699,-0.58778525,0.58778525,0.80901699,-84.454047,-19.87548)"
         width="100%"
         height="100%" />
      <g
         id="g10663-3-4-2-5"
         style="display:inline;opacity:1"
         transform="matrix(-0.80901699,0.58778525,0.58778525,0.80901699,-493.10978,43.364737)">
        <path
           sodipodi:nodetypes="ccccccccscc"
           inkscape:connector-curvature="0"
           d="m 186.33927,739.83656 c -0.36872,0.1198 -0.74213,0.177 -1.10897,0.1773 -1.10363,-2e-4 -2.19028,-0.5122 -2.89162,-1.4775 -0.22788,-0.3136 -0.39765,-0.6511 -0.51137,-0.9999 -0.34084,-1.0497 -0.18972,-2.2414 0.51163,-3.2067 0.22787,-0.3136 0.49635,-0.5794 0.79293,-0.7953 0.893,-0.6485 2.07303,-0.873 3.20783,-0.5043 0.36874,0.1198 0.70444,0.293 1.00143,0.5083 0.89273,0.6489 1.47093,1.7018 1.47093,2.8951 0,0.3876 -0.061,0.7605 -0.17403,1.1095 -0.34126,1.0495 -1.16396,1.9248 -2.29876,2.2935 z"
           style="color:#000000;font-style:normal;font-variant:normal;font-weight:normal;font-stretch:normal;font-size:medium;line-height:normal;font-family:sans-serif;text-indent:0;text-align:start;text-decoration:none;text-decoration-line:none;text-decoration-style:solid;text-decoration-color:#000000;letter-spacing:normal;word-spacing:normal;text-transform:none;direction:ltr;block-progression:tb;writing-mode:lr-tb;baseline-shift:baseline;text-anchor:start;white-space:normal;clip-rule:nonzero;display:inline;overflow:visible;visibility:visible;opacity:1;isolation:auto;mix-blend-mode:normal;color-interpolation:sRGB;color-interpolation-filters:linearRGB;solid-color:#000000;solid-opacity:1;fill:none;fill-opacity:1;fill-rule:evenodd;stroke:#ff0000;stroke-width:0.5625;stroke-linecap:butt;stroke-linejoin:bevel;stroke-miterlimit:4;stroke-dasharray:none;stroke-dashoffset:0;stroke-opacity:1;color-rendering:auto;image-rendering:auto;shape-rendering:auto;text-rendering:auto;enable-background:accumulate"
           id="path26460" />
        <path
           id="path26466-6-8-2"
           style="color:#000000;font-style:normal;font-variant:normal;font-weight:normal;font-stretch:normal;font-size:medium;line-height:normal;font-family:sans-serif;text-indent:0;text-align:start;text-decoration:none;text-decoration-line:none;text-decoration-style:solid;text-decoration-color:#000000;letter-spacing:normal;word-spacing:normal;text-transform:none;direction:ltr;block-progression:tb;writing-mode:lr-tb;baseline-shift:baseline;text-anchor:start;white-space:normal;clip-rule:nonzero;display:inline;overflow:visible;visibility:visible;opacity:1;isolation:auto;mix-blend-mode:normal;color-interpolation:sRGB;color-interpolation-filters:linearRGB;solid-color:#000000;solid-opacity:1;fill:none;fill-opacity:1;fill-rule:evenodd;stroke:#ff0000;stroke-width:0.5;stroke-linecap:butt;stroke-linejoin:bevel;stroke-miterlimit:4;stroke-dasharray:none;stroke-dashoffset:0;stroke-opacity:1;color-rendering:auto;image-rendering:auto;shape-rendering:auto;text-rendering:auto;enable-background:accumulate"
           d="m 197.29065,739.28437 c -1.45498,-0.47272 -2.2513,-2.03557 -1.77854,-3.4906 0.47279,-1.45508 2.03556,-2.25127 3.49062,-1.77841 1.45497,0.47272 2.25118,2.03543 1.77839,3.49046 -0.47272,1.45493 -2.0355,2.25127 -3.49047,1.77855 z"
           inkscape:connector-curvature="0"
           sodipodi:nodetypes="ssccs" />
        <path
           style="color:#000000;font-style:normal;font-variant:normal;font-weight:normal;font-stretch:normal;font-size:medium;line-height:normal;font-family:sans-serif;text-indent:0;text-align:start;text-decoration:none;text-decoration-line:none;text-decoration-style:solid;text-decoration-color:#000000;letter-spacing:normal;word-spacing:normal;text-transform:none;direction:ltr;block-progression:tb;writing-mode:lr-tb;baseline-shift:baseline;text-anchor:start;white-space:normal;clip-rule:nonzero;display:inline;overflow:visible;visibility:visible;opacity:1;isolation:auto;mix-blend-mode:normal;color-interpolation:sRGB;color-interpolation-filters:linearRGB;solid-color:#000000;solid-opacity:1;fill:none;fill-opacity:1;fill-rule:evenodd;stroke:#ff0000;stroke-width:0.5;stroke-linecap:butt;stroke-linejoin:bevel;stroke-miterlimit:4;stroke-dasharray:none;stroke-dashoffset:0;stroke-opacity:1;color-rendering:auto;image-rendering:auto;shape-rendering:auto;text-rendering:auto;enable-background:accumulate"
           d="m 194.06544,727.45124 c 2.24322,0.22385 2.19295,1.63845 2.20394,3.39482 -0.97769,-0.82327 -1.71843,-1.33294 -2.9391,-1.50059 l -0.53478,-0.007 c -1.15042,2.04914 -1.65076,5.25186 0.82041,6.80185 0.034,-0.30008 0.0985,-0.60123 0.19549,-0.89962 0.77806,-2.39416 3.34961,-3.70455 5.74403,-2.92644 2.39419,0.77788 3.70438,3.34938 2.92646,5.74368 -0.16114,0.49588 -0.39923,0.94527 -0.69671,1.33924 l 2.69968,0.87873 c 1.25637,0.41134 2.1688,0.34945 2.87616,-0.12206 l 0,0 1.1e-4,1.1e-4 c 0.0982,-0.071 0.19841,-0.14292 0.29161,-0.2267 0.44684,-0.40252 0.80491,-0.99455 1.11976,-1.75499 l 3.49661,-8.44548 c 0.62085,-1.4995 0.0927,-0.7897 2.55754,0.042 1.36277,0.51809 1.94574,0.6268 2.10091,0.4198 0.27742,-0.37061 -1.6182,-2.67531 -1.79076,-3.39681 -0.17256,-0.7214 0.52312,-3.552 0.13272,-3.79019 -0.22467,-0.1371 -0.70957,0.19259 -1.75666,1.24921 -1.77943,2.03589 -0.89714,2.4441 -2.2484,1.6212 l -8.36463,-5.09321 c -1.51561,-0.92299 -3.37346,-0.5545 -4.52502,0.89649 -1.15155,1.45098 -3.53281,4.62756 -4.30937,5.77596 z"
           id="path36574-7-3"
           inkscape:connector-curvature="0"
           sodipodi:nodetypes="ccccccccccccccscccccccccc" />
      </g>
      <use
         style="display:inline;opacity:1"
         x="0"
         y="0"
         xlink:href="#g10663-3-4-2"
         id="use11726-9"
         transform="matrix(-0.30901699,-0.95105651,0.95105651,-0.30901699,-670.77675,777.09035)"
         width="100%"
         height="100%" />
      <use
         style="display:inline;opacity:1"
         x="0"
         y="0"
         xlink:href="#g10663-3-4-2"
         id="use11726-9-2"
         transform="matrix(-0.99999999,0,0,-0.99999999,-14.333533,1543.989)"
         width="100%"
         height="100%" />
      <use
         style="display:inline;opacity:1"
         x="0"
         y="0"
         xlink:href="#g10663-3-4-2"
         id="use11726-9-2-7"
         transform="matrix(-0.30901699,0.95105651,-0.95105651,-0.30901699,917.91566,1156.6551)"
         width="100%"
         height="100%" />
      <use
         style="display:inline;opacity:1"
         x="0"
         y="0"
         xlink:href="#g10663-3-4-2"
         id="use11726-9-2-7-0"
         transform="matrix(0.80901699,0.58778525,-0.58778525,0.80901699,837.62853,150.39191)"
         width="100%"
         height="100%" />
    </g>
  </g>
</svg>
