<?xml version="1.0" encoding="UTF-8"?>

<svg xmlns="http://www.w3.org/2000/svg" version="1.1"
	width="210mm"
	height="297mm"
	viewBox="0 0 210 297">
	<!-- Working space 0 0 210 297 -->
	<defs>
		<radialGradient
			id="radialGradient3661"
			gradientUnits="userSpaceOnUse"
			cy="29.149"
			cx="282.65"
			gradientTransform="matrix(.14777 .23089 -.24680 .15795 -26.318 -62.617)"
			r="19.571">
				<stop stop-color="#71b2f8" offset="0"/>
				<stop stop-color="#002795" offset="1"/>
		</radialGradient>
		<radialGradient
			id="radialGradient3817"
			gradientUnits="userSpaceOnUse"
			cy="33.9"
			cx="270.58"
			gradientTransform="matrix(.26631 .065024 -.17931 .73438 -60.668 -36.938)"
			r="19.571">
				<stop stop-color="#ff6d0f" offset="0"/>
				<stop stop-color="#ff1000" offset="1"/>
		</radialGradient>
	</defs>
	<!-- Set display:none to hide FreeCAD Logo -->
	<g
		style="display:inline"
		id="freecad-logo"
		transform="translate(184, 272) scale(1)"
		fill-rule="evenodd"
		stroke-width=".45621">
		<path d="m0.22811 0.22835v13.256h2.9558v-5.1876h2.09v-2.0452h-2.09v-2.2075h5.1486v-3.8087l-8.1044-0.0075z"
			stroke="#370700"
			fill="url(#radialGradient3817)"/>
		<path d="m13.386 4.1792-1.7193 0.98645-0.75925-0.26348-0.72439-1.8513-1.1395 0.05988-0.51976 1.9144-0.72743 0.34835-1.8143-0.79367-0.76632 0.85156 0.98645 1.7193-0.26957 0.75702-1.8513 0.72439 0.065967 1.1417 1.9144 0.51976 0.34835 0.72743-0.79976 1.8121 0.85156 0.76632 1.7193-0.98645 0.76311 0.27179 0.7183 1.8491 1.1478-0.06375 0.51367-1.9166 0.72743-0.34835 1.8182 0.80198 0.76632-0.85156-0.98645-1.7193 0.2657-0.76533 1.8491-0.7183-0.05766-1.1456-1.9166-0.51367-0.34835-0.72743 0.7959-1.8204-0.85156-0.76632zm-2.5751 2.8195 0.35295 0.20478 0.30579 0.27725 0.24481 0.33087 0.17611 0.36787 0.10354 0.39656 0.01715 0.4064-0.0587 0.4063-0.13396 0.38571-0.2131 0.35681-0.26894 0.30192-0.33087 0.24481-0.36787 0.17611-0.39656 0.10354-0.40863 0.02325-0.4063-0.0587-0.38571-0.13396-0.35681-0.2131-0.2997-0.27503-0.24703-0.32478-0.17611-0.36787-0.10132-0.40264-0.02324-0.40863 0.05869-0.4063 0.13396-0.38571 0.21087-0.35072 0.27116-0.30801 0.33087-0.24481 0.36787-0.17611 0.40264-0.10132 0.40641-0.01715 0.4063 0.05869 0.38571 0.13396z" 
		stroke="#000137"
		fill="url(#radialGradient3661)"/>
	</g>
<g id="ViewEdge067" transform="rotate(0.0,0.0,0.0) translate(0.0,0.0) scale(1.0,-1.0)"><path id="Edge067_nwe0000"  d="M 47.1382267983 -229.863820917 A 2.91698217536 2.91698217536 0 0 1 43.2617732017 -225.98736732 " stroke="#191919" stroke-width="0.35 px" style="stroke-width:0.35;stroke-miterlimit:4;stroke-dasharray:none;fill:none;fill-rule: evenodd "/>
</g>


<g id="ViewEdge066" transform="rotate(0.0,0.0,0.0) translate(0.0,0.0) scale(1.0,-1.0)"><path id="Edge066_nwe0000"  d="M 43.2617732017 -215.41263268 A 5.83396435072 5.83396435072 0 1 1 43.2617732017 -225.98736732 " stroke="#191919" stroke-width="0.35 px" style="stroke-width:0.35;stroke-miterlimit:4;stroke-dasharray:none;fill:none;fill-rule: evenodd "/>
</g>


<g id="ViewEdge065" transform="rotate(0.0,0.0,0.0) translate(0.0,0.0) scale(1.0,-1.0)"><path id="Edge065_nwe0000"  d="M 43.2617732017 -215.41263268 A 2.91698217536 2.91698217536 0 0 1 47.1382267983 -211.536179083 " stroke="#191919" stroke-width="0.35 px" style="stroke-width:0.35;stroke-miterlimit:4;stroke-dasharray:none;fill:none;fill-rule: evenodd "/>
</g>


<g id="ViewEdge064" transform="rotate(0.0,0.0,0.0) translate(0.0,0.0) scale(1.0,-1.0)"><path id="Edge064_nwe0000"  d="M 40.0907334006 -275.374029336 A 2.91698217536 2.91698217536 0 0 1 40.0907334006 -269.891896085 " stroke="#191919" stroke-width="0.35 px" style="stroke-width:0.35;stroke-miterlimit:4;stroke-dasharray:none;fill:none;fill-rule: evenodd "/>
</g>


<g id="ViewEdge063" transform="rotate(0.0,0.0,0.0) translate(0.0,0.0) scale(1.0,-1.0)"><path id="Edge063_nwe0000"  d="M 47.5681999743 -262.414429512 A 5.83396435072 5.83396435072 0 1 1 40.0907334006 -269.891896085 " stroke="#191919" stroke-width="0.35 px" style="stroke-width:0.35;stroke-miterlimit:4;stroke-dasharray:none;fill:none;fill-rule: evenodd "/>
</g>


<g id="ViewEdge062" transform="rotate(0.0,0.0,0.0) translate(0.0,0.0) scale(1.0,-1.0)"><path id="Edge062_nwe0000"  d="M 47.5681999743 -262.414429512 A 2.91698217536 2.91698217536 0 0 1 53.0503332246 -262.414429512 " stroke="#191919" stroke-width="0.35 px" style="stroke-width:0.35;stroke-miterlimit:4;stroke-dasharray:none;fill:none;fill-rule: evenodd "/>
</g>


<g id="ViewEdge061" transform="rotate(0.0,0.0,0.0) translate(0.0,0.0) scale(1.0,-1.0)"><path id="Edge061_nwe0000"  d="M 53.0503332246 -178.985570488 A 2.91698217536 2.91698217536 0 0 1 47.5681999743 -178.985570488 " stroke="#191919" stroke-width="0.35 px" style="stroke-width:0.35;stroke-miterlimit:4;stroke-dasharray:none;fill:none;fill-rule: evenodd "/>
</g>


<g id="ViewEdge060" transform="rotate(0.0,0.0,0.0) translate(0.0,0.0) scale(1.0,-1.0)"><path id="Edge060_nwe0000"  d="M 40.0907334006 -171.508103915 A 5.83396435072 5.83396435072 0 1 1 47.5681999743 -178.985570488 " stroke="#191919" stroke-width="0.35 px" style="stroke-width:0.35;stroke-miterlimit:4;stroke-dasharray:none;fill:none;fill-rule: evenodd "/>
</g>


<g id="ViewEdge059" transform="rotate(0.0,0.0,0.0) translate(0.0,0.0) scale(1.0,-1.0)"><path id="Edge059_nwe0000"  d="M 40.0907334006 -171.508103915 A 2.91698217536 2.91698217536 0 0 1 40.0907334006 -166.025970664 " stroke="#191919" stroke-width="0.35 px" style="stroke-width:0.35;stroke-miterlimit:4;stroke-dasharray:none;fill:none;fill-rule: evenodd "/>
</g>


<g id="ViewEdge058" transform="rotate(0.0,0.0,0.0) translate(0.0,0.0) scale(1.0,-1.0)"><path id="Edge058_nwe0000"  d="M 161.6 -296.9 L 165.6 -292.9 " stroke="#191919" stroke-width="0.35 px" style="stroke-width:0.35;stroke-miterlimit:4;stroke-dasharray:none;fill:none;fill-rule: evenodd "/>
</g>


<g id="ViewEdge057" transform="rotate(0.0,0.0,0.0) translate(0.0,0.0) scale(1.0,-1.0)"><path id="Edge057_nwe0000"  d="M 60.2 -296.9 L 56.2 -292.9 " stroke="#191919" stroke-width="0.35 px" style="stroke-width:0.35;stroke-miterlimit:4;stroke-dasharray:none;fill:none;fill-rule: evenodd "/>
</g>


<g id="ViewEdge055" transform="rotate(0.0,0.0,0.0) translate(0.0,0.0) scale(1.0,-1.0)"><path id="Edge055_nwe0000"  d="M 133.133333333 -296.9 L 129.133333333 -292.9 " stroke="#191919" stroke-width="0.35 px" style="stroke-width:0.35;stroke-miterlimit:4;stroke-dasharray:none;fill:none;fill-rule: evenodd "/>
</g>


<g id="ViewEdge054" transform="rotate(0.0,0.0,0.0) translate(0.0,0.0) scale(1.0,-1.0)"><path id="Edge054_nwe0000"  d="M 203.1 -115.0 L 199.1 -119.0 " stroke="#191919" stroke-width="0.35 px" style="stroke-width:0.35;stroke-miterlimit:4;stroke-dasharray:none;fill:none;fill-rule: evenodd "/>
</g>


<g id="ViewEdge056" transform="rotate(0.0,0.0,0.0) translate(0.0,0.0) scale(1.0,-1.0)"><path id="Edge056_nwe0000"  d="M 88.6666666667 -296.9 L 92.6666666667 -292.9 " stroke="#191919" stroke-width="0.35 px" style="stroke-width:0.35;stroke-miterlimit:4;stroke-dasharray:none;fill:none;fill-rule: evenodd "/>
</g>


<g id="ViewEdge053" transform="rotate(0.0,0.0,0.0) translate(0.0,0.0) scale(1.0,-1.0)"><path id="Edge053_nwe0000"  d="M 199.1 -90.5333333333 L 203.1 -94.5333333333 " stroke="#191919" stroke-width="0.35 px" style="stroke-width:0.35;stroke-miterlimit:4;stroke-dasharray:none;fill:none;fill-rule: evenodd "/>
</g>


<g id="ViewEdge052" transform="rotate(0.0,0.0,0.0) translate(0.0,0.0) scale(1.0,-1.0)"><path id="Edge052_nwe0000"  d="M 199.1 -263.4 L 203.1 -267.4 " stroke="#191919" stroke-width="0.35 px" style="stroke-width:0.35;stroke-miterlimit:4;stroke-dasharray:none;fill:none;fill-rule: evenodd "/>
</g>


<g id="ViewEdge051" transform="rotate(0.0,0.0,0.0) translate(0.0,0.0) scale(1.0,-1.0)"><path id="Edge051_nwe0000"  d="M 203.1 -230.933333333 L 199.1 -234.933333333 " stroke="#191919" stroke-width="0.35 px" style="stroke-width:0.35;stroke-miterlimit:4;stroke-dasharray:none;fill:none;fill-rule: evenodd "/>
</g>


<g id="ViewEdge050" transform="rotate(0.0,0.0,0.0) translate(0.0,0.0) scale(1.0,-1.0)"><path id="Edge050_nwe0000"  d="M 199.1 -206.466666667 L 203.1 -210.466666667 " stroke="#191919" stroke-width="0.35 px" style="stroke-width:0.35;stroke-miterlimit:4;stroke-dasharray:none;fill:none;fill-rule: evenodd "/>
</g>


<g id="ViewEdge049" transform="rotate(0.0,0.0,0.0) translate(0.0,0.0) scale(1.0,-1.0)"><path id="Edge049_nwe0000"  d="M 203.1 -174.0 L 199.1 -178.0 " stroke="#191919" stroke-width="0.35 px" style="stroke-width:0.35;stroke-miterlimit:4;stroke-dasharray:none;fill:none;fill-rule: evenodd "/>
</g>


<g id="ViewEdge048" transform="rotate(0.0,0.0,0.0) translate(0.0,0.0) scale(1.0,-1.0)"><path id="Edge048_nwe0000"  d="M 199.1 -62.0666666667 L 203.1 -58.0666666667 " stroke="#191919" stroke-width="0.35 px" style="stroke-width:0.35;stroke-miterlimit:4;stroke-dasharray:none;fill:none;fill-rule: evenodd "/>
</g>


<g id="ViewEdge047" transform="rotate(0.0,0.0,0.0) translate(0.0,0.0) scale(1.0,-1.0)"><path id="Edge047_nwe0000"  d="M 199.1 -33.6 L 203.1 -37.6 " stroke="#191919" stroke-width="0.35 px" style="stroke-width:0.35;stroke-miterlimit:4;stroke-dasharray:none;fill:none;fill-rule: evenodd "/>
</g>


<g id="ViewEdge046" transform="rotate(0.0,0.0,0.0) translate(0.0,0.0) scale(1.0,-1.0)"><path id="Edge046_nwe0000"  d="M 203.1 -11.6 L 203.1 -141.0 " stroke="#191919" stroke-width="0.35 px" style="stroke-width:0.35;stroke-miterlimit:4;stroke-dasharray:none;fill:none;fill-rule: evenodd "/>
</g>


<g id="ViewEdge045" transform="rotate(0.0,0.0,0.0) translate(0.0,0.0) scale(1.0,-1.0)"><path id="Edge045_nwe0000"  d="M 191.6 -141.0 L 203.1 -141.0 " stroke="#191919" stroke-width="0.35 px" style="stroke-width:0.35;stroke-miterlimit:4;stroke-dasharray:none;fill:none;fill-rule: evenodd "/>
</g>


<g id="ViewEdge044" transform="rotate(0.0,0.0,0.0) translate(0.0,0.0) scale(1.0,-1.0)"><path id="Edge044_nwe0000"  d="M 30.2 -141.0 L 191.6 -141.0 " stroke="#191919" stroke-width="0.35 px" style="stroke-width:0.35;stroke-miterlimit:4;stroke-dasharray:none;fill:none;fill-rule: evenodd "/>
</g>


<g id="ViewEdge043" transform="rotate(0.0,0.0,0.0) translate(0.0,0.0) scale(1.0,-1.0)"><path id="Edge043_nwe0000"  d="M 30.2 -156.0 L 191.6 -156.0 " stroke="#191919" stroke-width="0.35 px" style="stroke-width:0.35;stroke-miterlimit:4;stroke-dasharray:none;fill:none;fill-rule: evenodd "/>
</g>


<g id="ViewEdge042" transform="rotate(0.0,0.0,0.0) translate(0.0,0.0) scale(1.0,-1.0)"><path id="Edge042_nwe0000"  d="M 203.1 -156.0 A 6.09879598773 6.09879598773 0 0 1 191.6 -156.0 " stroke="#191919" stroke-width="0.35 px" style="stroke-width:0.35;stroke-miterlimit:4;stroke-dasharray:none;fill:none;fill-rule: evenodd "/>
</g>


<g id="ViewEdge041" transform="rotate(0.0,0.0,0.0) translate(0.0,0.0) scale(1.0,-1.0)"><path id="Edge041_nwe0000"  d="M 191.6 -156.0 L 203.1 -156.0 " stroke="#191919" stroke-width="0.35 px" style="stroke-width:0.35;stroke-miterlimit:4;stroke-dasharray:none;fill:none;fill-rule: evenodd "/>
</g>


<g id="ViewEdge040" transform="rotate(0.0,0.0,0.0) translate(0.0,0.0) scale(1.0,-1.0)"><path id="Edge040_nwe0000"  d="M 203.1 -156.0 L 203.1 -285.4 " stroke="#191919" stroke-width="0.35 px" style="stroke-width:0.35;stroke-miterlimit:4;stroke-dasharray:none;fill:none;fill-rule: evenodd "/>
</g>


<g id="ViewEdge039" transform="rotate(0.0,0.0,0.0) translate(0.0,0.0) scale(1.0,-1.0)"><path id="Edge039_nwe0000"  d="M 191.6 -285.4 L 203.1 -285.4 " stroke="#191919" stroke-width="0.35 px" style="stroke-width:0.35;stroke-miterlimit:4;stroke-dasharray:none;fill:none;fill-rule: evenodd "/>
</g>


<g id="ViewEdge037" transform="rotate(0.0,0.0,0.0) translate(0.0,0.0) scale(1.0,-1.0)"><path id="Edge037_nwe0000"  d="M 191.6 -296.9 L 30.2 -296.9 " stroke="#191919" stroke-width="0.35 px" style="stroke-width:0.35;stroke-miterlimit:4;stroke-dasharray:none;fill:none;fill-rule: evenodd "/>
</g>


<g id="ViewEdge036" transform="rotate(0.0,0.0,0.0) translate(0.0,0.0) scale(1.0,-1.0)"><path id="Edge036_nwe0000"  d="M 30.2 -285.4 L 30.2 -296.9 " stroke="#191919" stroke-width="0.35 px" style="stroke-width:0.35;stroke-miterlimit:4;stroke-dasharray:none;fill:none;fill-rule: evenodd "/>
</g>


<g id="ViewEdge035" transform="rotate(0.0,0.0,0.0) translate(0.0,0.0) scale(1.0,-1.0)"><path id="Edge035_nwe0000"  d="M 191.6 -285.4 A 6.09879598773 6.09879598773 0 0 1 203.1 -285.4 " stroke="#191919" stroke-width="0.35 px" style="stroke-width:0.35;stroke-miterlimit:4;stroke-dasharray:none;fill:none;fill-rule: evenodd "/>
</g>


<g id="ViewEdge034" transform="rotate(0.0,0.0,0.0) translate(0.0,0.0) scale(1.0,-1.0)"><path id="Edge034_nwe0000"  d="M 191.6 -141.0 A 6.09879598773 6.09879598773 0 0 1 203.1 -141.0 " stroke="#191919" stroke-width="0.35 px" style="stroke-width:0.35;stroke-miterlimit:4;stroke-dasharray:none;fill:none;fill-rule: evenodd "/>
</g>


<g id="ViewEdge038" transform="rotate(0.0,0.0,0.0) translate(0.0,0.0) scale(1.0,-1.0)"><path id="Edge038_nwe0000"  d="M 191.6 -285.4 L 191.6 -296.9 " stroke="#191919" stroke-width="0.35 px" style="stroke-width:0.35;stroke-miterlimit:4;stroke-dasharray:none;fill:none;fill-rule: evenodd "/>
</g>


<g id="ViewEdge033" transform="rotate(0.0,0.0,0.0) translate(0.0,0.0) scale(1.0,-1.0)"><path id="Edge033_nwe0000"  d="M 30.1 -11.6 L 30.1 -0.1 " stroke="#191919" stroke-width="0.35 px" style="stroke-width:0.35;stroke-miterlimit:4;stroke-dasharray:none;fill:none;fill-rule: evenodd "/>
</g>


<g id="ViewEdge032" transform="rotate(0.0,0.0,0.0) translate(0.0,0.0) scale(1.0,-1.0)"><path id="Edge032_nwe0000"  d="M 0.1 -0.1 L 30.2 -0.1 " stroke="#191919" stroke-width="0.35 px" style="stroke-width:0.35;stroke-miterlimit:4;stroke-dasharray:none;fill:none;fill-rule: evenodd "/>
</g>


<g id="ViewEdge031" transform="rotate(0.0,0.0,0.0) translate(0.0,0.0) scale(1.0,-1.0)"><path id="Edge031_nwe0000"  d="M 0.1 -0.1 L 11.6 -11.6 " stroke="#191919" stroke-width="0.35 px" style="stroke-width:0.35;stroke-miterlimit:4;stroke-dasharray:none;fill:none;fill-rule: evenodd "/>
</g>


<g id="ViewEdge030" transform="rotate(0.0,0.0,0.0) translate(0.0,0.0) scale(1.0,-1.0)"><path id="Edge030_nwe0000"  d="M 11.6 -11.6 L 15.1 -11.6 " stroke="#191919" stroke-width="0.35 px" style="stroke-width:0.35;stroke-miterlimit:4;stroke-dasharray:none;fill:none;fill-rule: evenodd "/>
</g>


<g id="ViewEdge029" transform="rotate(0.0,0.0,0.0) translate(0.0,0.0) scale(1.0,-1.0)"><path id="Edge029_nwe0000"  d="M 0.1 -29.4763038889 A 17.8763038889 15.0 90.0 0 1 15.1 -11.6 " stroke="#191919" stroke-width="0.35 px" style="stroke-width:0.35;stroke-miterlimit:4;stroke-dasharray:none;fill:none;fill-rule: evenodd "/>
</g>


<g id="ViewEdge028" transform="rotate(0.0,0.0,0.0) translate(0.0,0.0) scale(1.0,-1.0)"><path id="Edge028_nwe0000"  d="M 0.1 -123.123696111 L 0.1 -29.4763038889 " stroke="#191919" stroke-width="0.35 px" style="stroke-width:0.35;stroke-miterlimit:4;stroke-dasharray:none;fill:none;fill-rule: evenodd "/>
</g>


<g id="ViewEdge027" transform="rotate(0.0,0.0,0.0) translate(0.0,0.0) scale(1.0,-1.0)"><path id="Edge027_nwe0000"  d="M 15.1 -141.0 A 17.8763038889 15.0 90.0 0 1 0.1 -123.123696111 " stroke="#191919" stroke-width="0.35 px" style="stroke-width:0.35;stroke-miterlimit:4;stroke-dasharray:none;fill:none;fill-rule: evenodd "/>
</g>


<g id="ViewEdge026" transform="rotate(0.0,0.0,0.0) translate(0.0,0.0) scale(1.0,-1.0)"><path id="Edge026_nwe0000"  d="M 30.2 -141.0 L 15.1 -141.0 " stroke="#191919" stroke-width="0.35 px" style="stroke-width:0.35;stroke-miterlimit:4;stroke-dasharray:none;fill:none;fill-rule: evenodd "/>
</g>


<g id="ViewEdge025" transform="rotate(0.0,0.0,0.0) translate(0.0,0.0) scale(1.0,-1.0)"><path id="Edge025_nwe0000"  d="M 30.2 -141.0 L 30.2 -11.6 " stroke="#191919" stroke-width="0.35 px" style="stroke-width:0.35;stroke-miterlimit:4;stroke-dasharray:none;fill:none;fill-rule: evenodd "/>
</g>


<g id="ViewEdge024" transform="rotate(0.0,0.0,0.0) translate(0.0,0.0) scale(1.0,-1.0)"><path id="Edge024_nwe0000"  d="M 30.1 -11.6 L 30.2 -11.6 " stroke="#191919" stroke-width="0.35 px" style="stroke-width:0.35;stroke-miterlimit:4;stroke-dasharray:none;fill:none;fill-rule: evenodd "/>
</g>


<g id="ViewEdge023" transform="rotate(0.0,0.0,0.0) translate(0.0,0.0) scale(1.0,-1.0)"><path id="Edge023_nwe0000"  d="M 15.1 -11.6 L 30.1 -11.6 " stroke="#191919" stroke-width="0.35 px" style="stroke-width:0.35;stroke-miterlimit:4;stroke-dasharray:none;fill:none;fill-rule: evenodd "/>
</g>


<g id="ViewEdge022" transform="rotate(0.0,0.0,0.0) translate(0.0,0.0) scale(1.0,-1.0)"><path id="Edge022_nwe0000"  d="M 15.1 -11.6 L 15.1 -141.0 " stroke="#191919" stroke-width="0.35 px" style="stroke-width:0.35;stroke-miterlimit:4;stroke-dasharray:none;fill:none;fill-rule: evenodd "/>
</g>


<g id="ViewEdge021" transform="rotate(0.0,0.0,0.0) translate(0.0,0.0) scale(1.0,-1.0)"><path id="Edge021_nwe0000"  d="M 30.2 -141.0 L 30.2 -148.5 " stroke="#191919" stroke-width="0.35 px" style="stroke-width:0.35;stroke-miterlimit:4;stroke-dasharray:none;fill:none;fill-rule: evenodd "/>
</g>


<g id="ViewEdge020" transform="rotate(0.0,0.0,0.0) translate(0.0,0.0) scale(1.0,-1.0)"><path id="Edge020_nwe0000"  d="M 30.2 -148.5 L 30.2 -156.0 " stroke="#191919" stroke-width="0.35 px" style="stroke-width:0.35;stroke-miterlimit:4;stroke-dasharray:none;fill:none;fill-rule: evenodd "/>
</g>


<g id="ViewEdge019" transform="rotate(0.0,0.0,0.0) translate(0.0,0.0) scale(1.0,-1.0)"><path id="Edge019_nwe0000"  d="M 30.2 -156.0 L 30.2 -285.4 " stroke="#191919" stroke-width="0.35 px" style="stroke-width:0.35;stroke-miterlimit:4;stroke-dasharray:none;fill:none;fill-rule: evenodd "/>
</g>


<g id="ViewEdge012" transform="rotate(0.0,0.0,0.0) translate(0.0,0.0) scale(1.0,-1.0)"><path id="Edge012_nwe0000"  d="M 169.6 -0.1 L 191.6 -0.1 " stroke="#191919" stroke-width="0.35 px" style="stroke-width:0.35;stroke-miterlimit:4;stroke-dasharray:none;fill:none;fill-rule: evenodd "/>
</g>


<g id="ViewEdge011" transform="rotate(0.0,0.0,0.0) translate(0.0,0.0) scale(1.0,-1.0)"><path id="Edge011_nwe0000"  d="M 165.6 -4.1 L 169.6 -0.1 " stroke="#191919" stroke-width="0.35 px" style="stroke-width:0.35;stroke-miterlimit:4;stroke-dasharray:none;fill:none;fill-rule: evenodd "/>
</g>


<g id="ViewEdge014" transform="rotate(0.0,0.0,0.0) translate(0.0,0.0) scale(1.0,-1.0)"><path id="Edge014_nwe0000"  d="M 191.6 -141.0 L 191.6 -11.6 " stroke="#191919" stroke-width="0.35 px" style="stroke-width:0.35;stroke-miterlimit:4;stroke-dasharray:none;fill:none;fill-rule: evenodd "/>
</g>


<g id="ViewEdge013" transform="rotate(0.0,0.0,0.0) translate(0.0,0.0) scale(1.0,-1.0)"><path id="Edge013_nwe0000"  d="M 191.6 -0.1 L 191.6 -11.6 " stroke="#191919" stroke-width="0.35 px" style="stroke-width:0.35;stroke-miterlimit:4;stroke-dasharray:none;fill:none;fill-rule: evenodd "/>
</g>


<g id="ViewEdge008" transform="rotate(0.0,0.0,0.0) translate(0.0,0.0) scale(1.0,-1.0)"><path id="Edge008_nwe0000"  d="M 96.6666666667 -0.1 L 125.133333333 -0.1 " stroke="#191919" stroke-width="0.35 px" style="stroke-width:0.35;stroke-miterlimit:4;stroke-dasharray:none;fill:none;fill-rule: evenodd "/>
</g>


<g id="ViewEdge010" transform="rotate(0.0,0.0,0.0) translate(0.0,0.0) scale(1.0,-1.0)"><path id="Edge010_nwe0000"  d="M 125.133333333 -0.1 L 169.6 -0.1 " stroke="#191919" stroke-width="0.35 px" style="stroke-width:0.35;stroke-miterlimit:4;stroke-dasharray:none;fill:none;fill-rule: evenodd "/>
</g>


<g id="ViewEdge009" transform="rotate(0.0,0.0,0.0) translate(0.0,0.0) scale(1.0,-1.0)"><path id="Edge009_nwe0000"  d="M 125.133333333 -0.1 L 129.133333333 -4.1 " stroke="#191919" stroke-width="0.35 px" style="stroke-width:0.35;stroke-miterlimit:4;stroke-dasharray:none;fill:none;fill-rule: evenodd "/>
</g>


<g id="ViewEdge004" transform="rotate(0.0,0.0,0.0) translate(0.0,0.0) scale(1.0,-1.0)"><path id="Edge004_nwe0000"  d="M 30.2 -0.1 L 52.2 -0.1 " stroke="#191919" stroke-width="0.35 px" style="stroke-width:0.35;stroke-miterlimit:4;stroke-dasharray:none;fill:none;fill-rule: evenodd "/>
</g>


<g id="ViewEdge007" transform="rotate(0.0,0.0,0.0) translate(0.0,0.0) scale(1.0,-1.0)"><path id="Edge007_nwe0000"  d="M 96.6666666667 -0.1 L 92.6666666667 -4.1 " stroke="#191919" stroke-width="0.35 px" style="stroke-width:0.35;stroke-miterlimit:4;stroke-dasharray:none;fill:none;fill-rule: evenodd "/>
</g>


<g id="ViewEdge006" transform="rotate(0.0,0.0,0.0) translate(0.0,0.0) scale(1.0,-1.0)"><path id="Edge006_nwe0000"  d="M 52.2 -0.1 L 96.6666666667 -0.1 " stroke="#191919" stroke-width="0.35 px" style="stroke-width:0.35;stroke-miterlimit:4;stroke-dasharray:none;fill:none;fill-rule: evenodd "/>
</g>


<g id="ViewEdge003" transform="rotate(0.0,0.0,0.0) translate(0.0,0.0) scale(1.0,-1.0)"><path id="Edge003_nwe0000"  d="M 30.2 -11.6 L 30.2 -0.1 " stroke="#191919" stroke-width="0.35 px" style="stroke-width:0.35;stroke-miterlimit:4;stroke-dasharray:none;fill:none;fill-rule: evenodd "/>
</g>


<g id="ViewEdge005" transform="rotate(0.0,0.0,0.0) translate(0.0,0.0) scale(1.0,-1.0)"><path id="Edge005_nwe0000"  d="M 52.2 -0.1 L 56.2 -4.1 " stroke="#191919" stroke-width="0.35 px" style="stroke-width:0.35;stroke-miterlimit:4;stroke-dasharray:none;fill:none;fill-rule: evenodd "/>
</g>


<g id="ViewEdge001" transform="rotate(0.0,0.0,0.0) translate(0.0,0.0) scale(1.0,-1.0)"><path id="Edge001_nwe0000"  d="M 203.1 -11.6 A 6.09879598773 6.09879598773 0 0 1 191.6 -11.6 " stroke="#191919" stroke-width="0.35 px" style="stroke-width:0.35;stroke-miterlimit:4;stroke-dasharray:none;fill:none;fill-rule: evenodd "/>
</g>


<g id="ViewEdge002" transform="rotate(0.0,0.0,0.0) translate(0.0,0.0) scale(1.0,-1.0)"><path id="Edge002_nwe0000"  d="M 191.6 -11.6 L 30.2 -11.6 " stroke="#191919" stroke-width="0.35 px" style="stroke-width:0.35;stroke-miterlimit:4;stroke-dasharray:none;fill:none;fill-rule: evenodd "/>
</g>


<g id="ViewEdge018" transform="rotate(0.0,0.0,0.0) translate(0.0,0.0) scale(1.0,-1.0)"><path id="Edge018_nwe0000"  d="M 191.6 -285.4 L 30.2 -285.4 " stroke="#191919" stroke-width="0.35 px" style="stroke-width:0.35;stroke-miterlimit:4;stroke-dasharray:none;fill:none;fill-rule: evenodd "/>
</g>


<g id="ViewEdge017" transform="rotate(0.0,0.0,0.0) translate(0.0,0.0) scale(1.0,-1.0)"><path id="Edge017_nwe0000"  d="M 191.6 -156.0 L 191.6 -285.4 " stroke="#191919" stroke-width="0.35 px" style="stroke-width:0.35;stroke-miterlimit:4;stroke-dasharray:none;fill:none;fill-rule: evenodd "/>
</g>


<g id="ViewEdge016" transform="rotate(0.0,0.0,0.0) translate(0.0,0.0) scale(1.0,-1.0)"><path id="Edge016_nwe0000"  d="M 191.6 -148.5 L 191.6 -156.0 " stroke="#191919" stroke-width="0.35 px" style="stroke-width:0.35;stroke-miterlimit:4;stroke-dasharray:none;fill:none;fill-rule: evenodd "/>
</g>


<g id="ViewEdge015" transform="rotate(0.0,0.0,0.0) translate(0.0,0.0) scale(1.0,-1.0)"><path id="Edge015_nwe0000"  d="M 191.6 -141.0 L 191.6 -148.5 " stroke="#191919" stroke-width="0.35 px" style="stroke-width:0.35;stroke-miterlimit:4;stroke-dasharray:none;fill:none;fill-rule: evenodd "/>
</g>


<g id="ViewEdge" transform="rotate(0.0,0.0,0.0) translate(0.0,0.0) scale(1.0,-1.0)"><path id="Edge_nwe0000"  d="M 191.6 -11.6 L 203.1 -11.6 " stroke="#191919" stroke-width="0.35 px" style="stroke-width:0.35;stroke-miterlimit:4;stroke-dasharray:none;fill:none;fill-rule: evenodd "/>
</g>


</svg>

