<?xml version="1.0"?>
<!DOCTYPE svg PUBLIC "-//W3C//DTD SVG 1.1//EN" "http://www.w3.org/Graphics/SVG/1.1/DTD/svg11.dtd">
<svg width="207.264mm" height="300.864mm" viewBox="0 0 207.264 300.864" xmlns="http://www.w3.org/2000/svg" version="1.1">
<g id="Sketch" transform="translate(1.932000,298.932000) scale(1,-1)">
<path id="Sketch_w0000"  d="M 0.1 267.64287147 L 0.1 173.67273645 A 17.6727364496 15.0 -90.0 0 0 15.1 156.0 L 30.1 156.0 L 30.1 148.5 L 30.1 141.0 L 30.1 11.6 L 30.1 0.1 L 191.8 0.1 L 191.8 11.6 A 6.09879598773 6.09879598773 0 0 1 203.3 11.6 L 203.3 141.0 A 6.09879598773 6.09879598773 0 0 1 191.8 141.0 L 191.8 148.5 L 191.8 156.0 A 6.09879598773 6.09879598773 0 0 1 203.3 156.0 L 203.3 285.4 A 6.09879598773 6.09879598773 0 0 1 191.8 285.4 L 191.8 296.9 L 169.9 296.9 L 125.266666667 296.9 L 96.6333333333 296.9 L 52.0 296.9 L 30.1 296.9 L 0.1 296.9 L 11.6 285.4 L 15.0 285.4 A 17.7571285296 14.9 -90.0 0 0 0.1 267.64287147 " stroke="#000000" stroke-width="0.35 px" style="stroke-width:0.35;stroke-miterlimit:4;stroke-dasharray:none;fill:none;fill-rule: evenodd "/>
<path id="Sketch_w0001"  d="M 39.9247951779 125.595283445 A 5.79507125505 5.79507125505 0 1 1 47.3524119744 118.167666648 A 2.89753562753 2.89753562753 0 0 0 52.7979976697 118.167666648 L 52.7979976697 131.04086914 L 39.9247951779 131.04086914 A 2.89753562753 2.89753562753 0 0 0 39.9247951779 125.595283445 " stroke="#000000" stroke-width="0.35 px" style="stroke-width:0.35;stroke-miterlimit:4;stroke-dasharray:none;fill:none;fill-rule: evenodd "/>
<path id="Sketch_w0002"  d="M 39.9247951779 21.5591308599 A 2.89753562753 2.89753562753 0 0 1 39.9247951779 27.0047165552 A 5.79507125505 5.79507125505 0 1 0 47.3524119744 34.4323333517 A 2.89753562753 2.89753562753 0 0 1 52.7979976697 34.4323333517 L 52.7979976697 21.5591308599 L 39.9247951779 21.5591308599 " stroke="#000000" stroke-width="0.35 px" style="stroke-width:0.35;stroke-miterlimit:4;stroke-dasharray:none;fill:none;fill-rule: evenodd "/>
<path id="Sketch_w0003"  d="M 43.0746947137 81.5521182049 A 5.79507125505 5.79507125505 0 1 1 43.0746947137 71.0478817951 A 2.89753562753 2.89753562753 0 0 0 46.9253052863 67.1972712224 L 56.0280340639 76.3 L 46.9253052863 85.4027287776 A 2.89753562753 2.89753562753 0 0 0 43.0746947137 81.5521182049 " stroke="#000000" stroke-width="0.35 px" style="stroke-width:0.35;stroke-miterlimit:4;stroke-dasharray:none;fill:none;fill-rule: evenodd "/>
<title>Sketch</title>
</g>
</svg>