  0
SECTION
  2
HEADER
  9
$ACADVER
  1
AC1009
  9
$INSBASE
 10
0.0
 20
0.0
 30
0.0
  9
$EXTMIN
 10
0.0
 20
0.0
 30
0.0
  9
$EXTMAX
 10
0.0
 20
0.0
 30
0.0
  0
ENDSEC
  0
SECTION
  2
TABLES
  0
TABLE
  2
VPORT
 70
0
  0
ENDTAB
  0
TABLE
  2
LTYPE
 70
1
  0
LTYPE
  2
CONTINUOUS
 70
0
  3
Solid line
 72
65
 73
0
 40
0.0
  0
ENDTAB
  0
TABLE
  2
LAYER
 70
1
  0
LAYER
  2
0
 70
64
 62
7
  6
continuous
  0
ENDTAB
  0
TABLE
  2
STYLE
 70
1
  0
STYLE
  2
STANDARD
 70
0
 40
0
 41
1.0
 50
0.0
 71
0
 42
1
 3
ARIAL.TTF
 4

  0
ENDTAB
  0
TABLE
  2
VIEW
 70
0
  0
ENDTAB
  0
ENDSEC
  0
SECTION
  2
BLOCKS
  0
BLOCK
  8
0
  2
SKETCH
 70
0
 10
0.0
 20
0.0
 30
0.0
  3
SKETCH
  0
POLYLINE
  8
0
 62
7
 70
0
 66
1
 10
0.0
 20
0.0
 30
0.0
  0
VERTEX
  8
0
 10
191.8
 20
285.4
 30
0.0
  0
VERTEX
  8
0
 10
203.3
 20
285.4
 30
0.0
 42
0.707106781187
  0
VERTEX
  8
0
 10
191.8
 20
285.4
 30
0.0
  0
SEQEND
  8
0
  0
POLYLINE
  8
0
 62
7
 70
0
 66
1
 10
0.0
 20
0.0
 30
0.0
  0
VERTEX
  8
0
 10
199.3
 20
263.5
 30
0.0
  0
VERTEX
  8
0
 10
203.3
 20
259.5
 30
0.0
  0
SEQEND
  8
0
  0
POLYLINE
  8
0
 62
7
 70
0
 66
1
 10
0.0
 20
0.0
 30
0.0
  0
VERTEX
  8
0
 10
199.3
 20
234.966666667
 30
0.0
  0
VERTEX
  8
0
 10
203.3
 20
238.966666667
 30
0.0
  0
SEQEND
  8
0
  0
POLYLINE
  8
0
 62
7
 70
0
 66
1
 10
0.0
 20
0.0
 30
0.0
  0
VERTEX
  8
0
 10
203.3
 20
123.1
 30
0.0
  0
VERTEX
  8
0
 10
199.3
 20
119.1
 30
0.0
  0
SEQEND
  8
0
  0
POLYLINE
  8
0
 62
7
 70
0
 66
1
 10
0.0
 20
0.0
 30
0.0
  0
VERTEX
  8
0
 10
199.3
 20
90.5666666667
 30
0.0
  0
VERTEX
  8
0
 10
203.3
 20
86.5666666667
 30
0.0
  0
SEQEND
  8
0
  0
POLYLINE
  8
0
 62
7
 70
0
 66
1
 10
0.0
 20
0.0
 30
0.0
  0
VERTEX
  8
0
 10
203.3
 20
66.0333333333
 30
0.0
  0
VERTEX
  8
0
 10
199.3
 20
62.0333333333
 30
0.0
  0
SEQEND
  8
0
  0
POLYLINE
  8
0
 62
7
 70
0
 66
1
 10
0.0
 20
0.0
 30
0.0
  0
VERTEX
  8
0
 10
199.3
 20
33.5
 30
0.0
  0
VERTEX
  8
0
 10
203.3
 20
29.5
 30
0.0
  0
SEQEND
  8
0
  0
POLYLINE
  8
0
 62
7
 70
0
 66
1
 10
0.0
 20
0.0
 30
0.0
  0
VERTEX
  8
0
 10
199.3
 20
206.433333333
 30
0.0
  0
VERTEX
  8
0
 10
203.3
 20
202.433333333
 30
0.0
  0
SEQEND
  8
0
  0
POLYLINE
  8
0
 62
7
 70
0
 66
1
 10
0.0
 20
0.0
 30
0.0
  0
VERTEX
  8
0
 10
203.3
 20
181.9
 30
0.0
  0
VERTEX
  8
0
 10
199.3
 20
177.9
 30
0.0
  0
SEQEND
  8
0
  0
POLYLINE
  8
0
 62
7
 70
0
 66
1
 10
0.0
 20
0.0
 30
0.0
  0
VERTEX
  8
0
 10
133.266666667
 20
0.1
 30
0.0
  0
VERTEX
  8
0
 10
129.266666667
 20
4.1
 30
0.0
  0
SEQEND
  8
0
  0
POLYLINE
  8
0
 62
7
 70
0
 66
1
 10
0.0
 20
0.0
 30
0.0
  0
VERTEX
  8
0
 10
88.6333333333
 20
0.1
 30
0.0
  0
VERTEX
  8
0
 10
92.6333333333
 20
4.1
 30
0.0
  0
SEQEND
  8
0
  0
POLYLINE
  8
0
 62
7
 70
0
 66
1
 10
0.0
 20
0.0
 30
0.0
  0
VERTEX
  8
0
 10
60.0
 20
0.1
 30
0.0
  0
VERTEX
  8
0
 10
56.0
 20
4.1
 30
0.0
  0
SEQEND
  8
0
  0
POLYLINE
  8
0
 62
7
 70
0
 66
1
 10
0.0
 20
0.0
 30
0.0
  0
VERTEX
  8
0
 10
161.9
 20
0.1
 30
0.0
  0
VERTEX
  8
0
 10
165.9
 20
4.1
 30
0.0
  0
SEQEND
  8
0
  0
POLYLINE
  8
0
 62
7
 70
0
 66
1
 10
0.0
 20
0.0
 30
0.0
  0
VERTEX
  8
0
 10
52.7979976697
 20
118.167666648
 30
0.0
 42
0.70020753821
  0
VERTEX
  8
0
 10
47.3524119744
 20
118.167666648
 30
0.0
 42
-1.56968557712
  0
VERTEX
  8
0
 10
39.9247951779
 20
125.595283445
 30
0.0
 42
0.70020753821
  0
VERTEX
  8
0
 10
39.9247951779
 20
131.04086914
 30
0.0
  0
SEQEND
  8
0
  0
POLYLINE
  8
0
 62
7
 70
0
 66
1
 10
0.0
 20
0.0
 30
0.0
  0
VERTEX
  8
0
 10
39.9247951779
 20
21.5591308599
 30
0.0
 42
0.70020753821
  0
VERTEX
  8
0
 10
39.9247951779
 20
27.0047165552
 30
0.0
 42
-1.56968557712
  0
VERTEX
  8
0
 10
47.3524119744
 20
34.4323333517
 30
0.0
 42
0.70020753821
  0
VERTEX
  8
0
 10
52.7979976697
 20
34.4323333517
 30
0.0
  0
SEQEND
  8
0
  0
POLYLINE
  8
0
 62
7
 70
0
 66
1
 10
0.0
 20
0.0
 30
0.0
  0
VERTEX
  8
0
 10
46.9253052863
 20
67.1972712224
 30
0.0
 42
0.70020753821
  0
VERTEX
  8
0
 10
43.0746947137
 20
71.0478817951
 30
0.0
 42
-1.56968557712
  0
VERTEX
  8
0
 10
43.0746947137
 20
81.5521182049
 30
0.0
 42
0.70020753821
  0
VERTEX
  8
0
 10
46.9253052863
 20
85.4027287776
 30
0.0
  0
SEQEND
  8
0
  0
ENDBLK
  0
ENDSEC
  0
SECTION
  2
ENTITIES
  0
INSERT
  2
SKETCH
  8
0
 62
7
 10
0.0
 20
0.0
 30
0.0
  0
ENDSEC
  0
EOF
