<?xml version="1.0" encoding="UTF-8" standalone="no"?>
<svg
   xmlns:dc="http://purl.org/dc/elements/1.1/"
   xmlns:cc="http://creativecommons.org/ns#"
   xmlns:rdf="http://www.w3.org/1999/02/22-rdf-syntax-ns#"
   xmlns:svg="http://www.w3.org/2000/svg"
   xmlns="http://www.w3.org/2000/svg"
   xmlns:sodipodi="http://sodipodi.sourceforge.net/DTD/sodipodi-0.dtd"
   xmlns:inkscape="http://www.inkscape.org/namespaces/inkscape"
   width="203.2mm"
   height="297mm"
   viewBox="0 0 203.2 296.99999"
   version="1.1"
   id="svg31197"
   inkscape:version="0.91 r13725"
   sodipodi:docname="box9.svg">
  <metadata
     id="metadata31459">
    <rdf:RDF>
      <cc:Work
         rdf:about="">
        <dc:format>image/svg+xml</dc:format>
        <dc:type
           rdf:resource="http://purl.org/dc/dcmitype/StillImage" />
        <dc:title></dc:title>
      </cc:Work>
    </rdf:RDF>
  </metadata>
  <defs
     id="defs31457" />
  <sodipodi:namedview
     pagecolor="#ffffff"
     bordercolor="#666666"
     borderopacity="1"
     objecttolerance="10"
     gridtolerance="10"
     guidetolerance="10"
     inkscape:pageopacity="0"
     inkscape:pageshadow="2"
     inkscape:window-width="1920"
     inkscape:window-height="1080"
     id="namedview31455"
     showgrid="false"
     units="mm"
     inkscape:zoom="0.62614939"
     inkscape:cx="11.971034"
     inkscape:cy="482.00813"
     inkscape:window-x="0"
     inkscape:window-y="0"
     inkscape:window-maximized="0"
     inkscape:current-layer="svg31197" />
  <g
     id="Edge"
     transform="matrix(1,0,0,-1,1.932,295.06798)"
     style="fill:none;stroke:#ff0000;stroke-opacity:1">
    <title
       id="title31201">Edge</title>
  </g>
  <g
     id="Edge001"
     transform="matrix(1,0,0,-1,1.932,295.06798)"
     style="fill:none;stroke:#ff0000;stroke-opacity:1">
    <title
       id="title31205">Edge001</title>
  </g>
  <g
     id="Edge002"
     transform="matrix(1,0,0,-1,1.932,295.06798)"
     style="fill:none;stroke:#ff0000;stroke-opacity:1">
    <title
       id="title31209">Edge002</title>
  </g>
  <g
     id="Edge003"
     transform="matrix(1,0,0,-1,1.932,295.06798)"
     style="fill:none;stroke:#ff0000;stroke-opacity:1">
    <title
       id="title31213">Edge003</title>
  </g>
  <g
     id="Edge004"
     transform="matrix(1,0,0,-1,1.932,295.06798)"
     style="fill:none;stroke:#ff0000;stroke-opacity:1">
    <title
       id="title31217">Edge004</title>
  </g>
  <g
     id="Edge005"
     transform="matrix(1,0,0,-1,1.932,295.06798)"
     style="fill:none;stroke:#ff0000;stroke-opacity:1">
    <title
       id="title31221">Edge005</title>
  </g>
  <g
     id="Edge006"
     transform="matrix(1,0,0,-1,1.932,295.06798)"
     style="fill:none;stroke:#ff0000;stroke-opacity:1">
    <title
       id="title31225">Edge006</title>
  </g>
  <g
     id="Edge007"
     transform="matrix(1,0,0,-1,1.932,295.06798)"
     style="fill:none;stroke:#ff0000;stroke-opacity:1">
    <title
       id="title31229">Edge007</title>
  </g>
  <g
     id="Edge008"
     transform="matrix(1,0,0,-1,1.932,295.06798)"
     style="fill:none;stroke:#ff0000;stroke-opacity:1">
    <title
       id="title31233">Edge008</title>
  </g>
  <g
     id="Edge009"
     transform="matrix(1,0,0,-1,1.932,295.06798)"
     style="fill:none;stroke:#ff0000;stroke-opacity:1">
    <title
       id="title31237">Edge009</title>
  </g>
  <g
     id="Edge010"
     transform="matrix(1,0,0,-1,1.932,295.06798)"
     style="fill:none;stroke:#ff0000;stroke-opacity:1">
    <title
       id="title31241">Edge010</title>
  </g>
  <g
     id="Edge011"
     transform="matrix(1,0,0,-1,1.932,295.06798)"
     style="fill:none;stroke:#ff0000;stroke-opacity:1">
    <title
       id="title31245">Edge011</title>
  </g>
  <g
     id="Edge012"
     transform="matrix(1,0,0,-1,1.932,295.06798)"
     style="fill:none;stroke:#ff0000;stroke-opacity:1">
    <title
       id="title31249">Edge012</title>
  </g>
  <g
     id="Edge013"
     transform="matrix(1,0,0,-1,1.932,295.06798)"
     style="fill:none;stroke:#ff0000;stroke-opacity:1">
    <title
       id="title31253">Edge013</title>
  </g>
  <g
     id="Edge014"
     transform="matrix(1,0,0,-1,1.932,295.06798)"
     style="fill:none;stroke:#ff0000;stroke-opacity:1">
    <title
       id="title31257">Edge014</title>
  </g>
  <g
     id="Edge015"
     transform="matrix(1,0,0,-1,1.932,295.06798)"
     style="fill:none;stroke:#ff0000;stroke-opacity:1">
    <title
       id="title31261">Edge015</title>
  </g>
  <g
     id="Edge016"
     transform="matrix(1,0,0,-1,1.932,295.06798)"
     style="fill:none;stroke:#ff0000;stroke-opacity:1">
    <title
       id="title31265">Edge016</title>
  </g>
  <g
     id="Edge017"
     transform="matrix(1,0,0,-1,1.932,295.06798)"
     style="fill:none;stroke:#ff0000;stroke-opacity:1">
    <title
       id="title31269">Edge017</title>
  </g>
  <g
     id="Edge018"
     transform="matrix(1,0,0,-1,1.932,295.06798)"
     style="fill:none;stroke:#ff0000;stroke-opacity:1">
    <title
       id="title31273">Edge018</title>
  </g>
  <g
     id="Edge019"
     transform="matrix(1,0,0,-1,1.932,295.06798)"
     style="fill:none;stroke:#ff0000;stroke-opacity:1">
    <title
       id="title31277">Edge019</title>
  </g>
  <g
     id="Edge020"
     transform="matrix(1,0,0,-1,1.932,295.06798)"
     style="fill:none;stroke:#ff0000;stroke-opacity:1">
    <title
       id="title31281">Edge020</title>
  </g>
  <g
     id="Edge021"
     transform="matrix(1,0,0,-1,1.932,295.06798)"
     style="fill:none;stroke:#ff0000;stroke-opacity:1">
    <title
       id="title31285">Edge021</title>
  </g>
  <g
     id="Edge022"
     transform="matrix(1,0,0,-1,1.932,295.06798)"
     style="fill:none;stroke:#ff0000;stroke-opacity:1">
    <title
       id="title31289">Edge022</title>
  </g>
  <g
     id="Edge023"
     transform="matrix(1,0,0,-1,1.932,295.06798)"
     style="fill:none;stroke:#ff0000;stroke-opacity:1">
    <title
       id="title31293">Edge023</title>
  </g>
  <g
     id="Edge024"
     transform="matrix(1,0,0,-1,1.932,295.06798)"
     style="fill:none;stroke:#ff0000;stroke-opacity:1">
    <title
       id="title31297">Edge024</title>
  </g>
  <g
     id="Edge025"
     transform="matrix(1,0,0,-1,1.932,295.06798)"
     style="fill:none;stroke:#ff0000;stroke-opacity:1">
    <title
       id="title31301">Edge025</title>
  </g>
  <g
     id="Edge026"
     transform="matrix(1,0,0,-1,1.932,295.06798)"
     style="fill:none;stroke:#ff0000;stroke-opacity:1">
    <title
       id="title31305">Edge026</title>
  </g>
  <g
     id="Edge027"
     transform="matrix(1,0,0,-1,1.932,295.06798)"
     style="fill:none;stroke:#ff0000;stroke-opacity:1">
    <title
       id="title31309">Edge027</title>
  </g>
  <g
     id="Edge028"
     transform="matrix(1,0,0,-1,1.932,295.06798)"
     style="fill:none;stroke:#ff0000;stroke-opacity:1">
    <title
       id="title31313">Edge028</title>
  </g>
  <g
     id="Edge029"
     transform="matrix(1,0,0,-1,1.932,295.06798)"
     style="fill:none;stroke:#ff0000;stroke-opacity:1">
    <title
       id="title31317">Edge029</title>
  </g>
  <g
     id="Edge030"
     transform="matrix(1,0,0,-1,1.932,295.06798)"
     style="fill:none;stroke:#ff0000;stroke-opacity:1">
    <title
       id="title31321">Edge030</title>
  </g>
  <g
     id="Edge031"
     transform="matrix(1,0,0,-1,1.932,295.06798)"
     style="fill:none;stroke:#ff0000;stroke-opacity:1">
    <title
       id="title31325">Edge031</title>
  </g>
  <g
     id="Edge032"
     transform="matrix(1,0,0,-1,1.932,295.06798)"
     style="fill:none;stroke:#ff0000;stroke-opacity:1">
    <title
       id="title31329">Edge032</title>
  </g>
  <g
     id="Edge033"
     transform="matrix(1,0,0,-1,1.932,295.06798)"
     style="fill:none;stroke:#ff0000;stroke-opacity:1">
    <title
       id="title31333">Edge033</title>
  </g>
  <g
     id="Edge034"
     transform="matrix(1,0,0,-1,1.932,295.06798)"
     style="fill:none;stroke:#ff0000;stroke-opacity:1">
    <title
       id="title31337">Edge034</title>
  </g>
  <g
     id="Edge035"
     transform="matrix(1,0,0,-1,1.932,295.06798)"
     style="fill:none;stroke:#ff0000;stroke-opacity:1">
    <title
       id="title31341">Edge035</title>
  </g>
  <g
     id="Edge036"
     transform="matrix(1,0,0,-1,1.932,295.06798)"
     style="fill:none;stroke:#ff0000;stroke-opacity:1">
    <title
       id="title31345">Edge036</title>
  </g>
  <g
     id="Edge037"
     transform="matrix(1,0,0,-1,1.932,295.06798)"
     style="fill:none;stroke:#ff0000;stroke-opacity:1">
    <title
       id="title31349">Edge037</title>
  </g>
  <g
     id="Edge038"
     transform="matrix(1,0,0,-1,1.932,295.06798)"
     style="fill:none;stroke:#ff0000;stroke-opacity:1">
    <title
       id="title31353">Edge038</title>
  </g>
  <g
     id="Edge039"
     transform="matrix(1,0,0,-1,1.932,295.06798)"
     style="fill:none;stroke:#ff0000;stroke-opacity:1">
    <title
       id="title31357">Edge039</title>
  </g>
  <g
     id="Edge040"
     transform="matrix(1,0,0,-1,1.932,295.06798)"
     style="fill:none;stroke:#ff0000;stroke-opacity:1">
    <title
       id="title31361">Edge040</title>
  </g>
  <g
     id="Edge041"
     transform="matrix(1,0,0,-1,1.932,295.06798)"
     style="fill:none;stroke:#ff0000;stroke-opacity:1">
    <title
       id="title31365">Edge041</title>
  </g>
  <g
     id="Edge042"
     transform="matrix(1,0,0,-1,1.932,295.06798)"
     style="fill:none;stroke:#ff0000;stroke-opacity:1">
    <title
       id="title31369">Edge042</title>
  </g>
  <g
     id="Edge043"
     transform="matrix(1,0,0,-1,1.932,295.06798)"
     style="fill:none;stroke:#ff0000;stroke-opacity:1">
    <title
       id="title31373">Edge043</title>
  </g>
  <g
     id="Edge044"
     transform="matrix(1,0,0,-1,1.932,295.06798)"
     style="fill:none;stroke:#ff0000;stroke-opacity:1">
    <title
       id="title31377">Edge044</title>
  </g>
  <g
     id="Edge045"
     transform="matrix(1,0,0,-1,1.932,295.06798)"
     style="fill:none;stroke:#ff0000;stroke-opacity:1">
    <title
       id="title31381">Edge045</title>
  </g>
  <g
     id="Edge046"
     transform="matrix(1,0,0,-1,1.932,295.06798)"
     style="fill:none;stroke:#ff0000;stroke-opacity:1">
    <title
       id="title31385">Edge046</title>
  </g>
  <g
     id="Edge047"
     transform="matrix(1,0,0,-1,1.932,295.06798)"
     style="fill:none;stroke:#ff0000;stroke-opacity:1">
    <title
       id="title31389">Edge047</title>
  </g>
  <g
     id="Edge048"
     transform="matrix(1,0,0,-1,1.932,295.06798)"
     style="fill:none;stroke:#ff0000;stroke-opacity:1">
    <title
       id="title31393">Edge048</title>
  </g>
  <g
     id="Edge049"
     transform="matrix(1,0,0,-1,1.932,295.06798)"
     style="fill:none;stroke:#ff0000;stroke-opacity:1">
    <title
       id="title31397">Edge049</title>
  </g>
  <g
     id="Edge050"
     transform="matrix(1,0,0,-1,1.932,295.06798)"
     style="fill:none;stroke:#ff0000;stroke-opacity:1">
    <title
       id="title31401">Edge050</title>
  </g>
  <g
     id="Edge051"
     transform="matrix(1,0,0,-1,1.932,295.06798)"
     style="fill:none;stroke:#ff0000;stroke-opacity:1">
    <title
       id="title31405">Edge051</title>
  </g>
  <g
     id="Edge052"
     transform="matrix(1,0,0,-1,1.932,295.06798)"
     style="fill:none;stroke:#ff0000;stroke-opacity:1">
    <title
       id="title31409">Edge052</title>
  </g>
  <g
     id="Edge053"
     transform="matrix(1,0,0,-1,1.932,295.06798)"
     style="fill:none;stroke:#ff0000;stroke-opacity:1">
    <title
       id="title31413">Edge053</title>
  </g>
  <g
     id="Edge054"
     transform="matrix(1,0,0,-1,1.932,295.06798)"
     style="fill:none;stroke:#ff0000;stroke-opacity:1">
    <title
       id="title31417">Edge054</title>
  </g>
  <g
     id="Edge055"
     transform="matrix(1,0,0,-1,1.932,295.06798)"
     style="fill:none;stroke:#ff0000;stroke-opacity:1">
    <title
       id="title31421">Edge055</title>
  </g>
  <g
     id="Edge056"
     transform="matrix(1,0,0,-1,1.932,295.06798)"
     style="fill:none;stroke:#ff0000;stroke-opacity:1">
    <title
       id="title31425">Edge056</title>
  </g>
  <g
     id="Edge057"
     transform="matrix(1,0,0,-1,1.932,295.06798)"
     style="fill:none;stroke:#ff0000;stroke-opacity:1">
    <title
       id="title31429">Edge057</title>
  </g>
  <g
     id="Edge058"
     transform="matrix(1,0,0,-1,1.932,295.06798)"
     style="fill:none;stroke:#ff0000;stroke-opacity:1">
    <title
       id="title31433">Edge058</title>
  </g>
  <g
     id="Edge059"
     transform="matrix(1,0,0,-1,1.932,295.06798)"
     style="fill:none;stroke:#ff0000;stroke-opacity:1">
    <title
       id="title31437">Edge059</title>
  </g>
  <g
     id="Edge060"
     transform="matrix(1,0,0,-1,1.932,295.06798)"
     style="fill:none;stroke:#ff0000;stroke-opacity:1">
    <title
       id="title31441">Edge060</title>
  </g>
  <g
     id="Edge061"
     transform="matrix(1,0,0,-1,1.932,295.06798)"
     style="fill:none;stroke:#ff0000;stroke-opacity:1">
    <title
       id="title31445">Edge061</title>
  </g>
  <g
     id="Edge062"
     transform="matrix(1,0,0,-1,1.932,295.06798)"
     style="fill:none;stroke:#ff0000;stroke-opacity:1">
    <title
       id="title31449">Edge062</title>
  </g>
  <g
     id="Edge063"
     transform="matrix(1,0,0,-1,0.075,296.92498)"
     style="fill:none;stroke:#ff0000;stroke-opacity:1">
    <path
       id="Edge063_nwe0000"
       style="fill:none;fill-rule:evenodd;stroke:#ff0000;stroke-width:0.34999999;stroke-miterlimit:4;stroke-dasharray:none;stroke-opacity:1"
       d="m 46.925305,67.197271 a 2.8975356,2.8975356 0 0 1 -3.85061,3.850611 m 0,10.504236 a 5.7950713,5.7950713 0 1 1 0,-10.504236 m 0,10.504236 a 2.8975356,2.8975356 0 0 1 3.85061,3.850611 m -7.00051,-63.843598 a 2.8975356,2.8975356 0 0 1 0,5.445586 m 7.427617,7.427616 a 5.7950713,5.7950713 0 1 1 -7.427617,-7.427616 m 7.427617,7.427616 a 2.8975356,2.8975356 0 0 1 5.445586,0 m 0,83.735337 a 2.8975356,2.8975356 0 0 1 -5.445586,0 m -7.427617,7.42761 a 5.7950713,5.7950713 0 1 1 7.427617,-7.42761 m -7.427617,7.42761 a 2.8975356,2.8975356 0 0 1 0,5.44559 M 161.9,0.1 l 4,4 M 60,0.1 l -4,4 m 32.633333,-4 4,4 m 40.633337,-4 -4,4 M 203.3,181.9 l -4,-4 m 0,28.53333 4,-4 M 199.3,33.5 l 4,-4 m 0,36.533333 -4,-4 m 0,28.533334 4,-4 m 0,36.533333 -4,-4 m 0,115.86667 4,4 m -4,24.53333 4,-4 m 0,25.9 0,-129.4 m -11.5,0 11.5,0 m -11.5,0 0,-7.5 m 0,0 0,-7.5 m -161.7,0 161.7,0 m 0,-129.4 -161.7,0 m 161.7,129.4 0,-129.4 m 0,129.4 11.5,0 m 0,0 0,-129.4 m -11.5,0 11.5,0 m -11.5,0 0,-11.5 m 0,0 -161.7,0 m 0,11.5 0,-11.5 m 0,140.9 0,-129.4 m 0,136.9 0,-7.5 m 0,15 0,-7.5 m 0,7.5 161.7,0 m 0,0 0,129.4 m 0,11.5 0,-11.5 m -21.9,11.5 21.9,0 m -25.9,-4 4,4 m -44.63333,0 44.63333,0 m -44.63333,0 4,-4 m -32.633337,4 28.633337,0 m -28.633337,0 -4,-4 M 52,296.9 l 44.633333,0 M 52,296.9 l 4,-4 m -25.9,4 21.9,0 m -21.9,-11.5 0,11.5 m -0.1,-11.5 0.1,0 m -15.1,0 15,0 m 0,0 0,11.5 m -29.9,0 30,0 m -30,0 11.5,-11.5 m 0,0 3.4,0 M 0.1,267.64287 A 14.9,17.757129 0 0 1 15,285.4 M 0.1,173.67274 l 0,93.97013 M 15.1,156 a 15,17.672736 0 0 1 -15,17.67274 M 30.1,156 l -15,0 m 15,0 0,129.4 m 161.7,0 -161.7,0 m 173.2,0 a 6.098796,6.098796 0 0 1 -11.5,0 m 0,0 11.5,0"
       inkscape:connector-curvature="0" />
    <title
       id="title31453">Edge063</title>
  </g>
</svg>
