<?xml version="1.0" encoding="UTF-8" standalone="no"?>
<!-- Created with Inkscape (http://www.inkscape.org/) -->

<svg
   xmlns:dc="http://purl.org/dc/elements/1.1/"
   xmlns:cc="http://creativecommons.org/ns#"
   xmlns:rdf="http://www.w3.org/1999/02/22-rdf-syntax-ns#"
   xmlns:svg="http://www.w3.org/2000/svg"
   xmlns="http://www.w3.org/2000/svg"
   xmlns:sodipodi="http://sodipodi.sourceforge.net/DTD/sodipodi-0.dtd"
   xmlns:inkscape="http://www.inkscape.org/namespaces/inkscape"
   width="7.9499998in"
   height="12in"
   viewBox="0 0 715.49999 1080"
   id="svg3398"
   version="1.1"
   inkscape:version="0.91 r13725"
   sodipodi:docname="box4.svg">
  <defs
     id="defs3400" />
  <sodipodi:namedview
     id="base"
     pagecolor="#ffffff"
     bordercolor="#666666"
     borderopacity="1.0"
     inkscape:pageopacity="0.0"
     inkscape:pageshadow="2"
     inkscape:zoom="5.2931712"
     inkscape:cx="575.30424"
     inkscape:cy="197.60637"
     inkscape:document-units="in"
     inkscape:current-layer="layer1"
     showgrid="false"
     units="in"
     inkscape:window-width="1912"
     inkscape:window-height="1057"
     inkscape:window-x="0"
     inkscape:window-y="0"
     inkscape:window-maximized="1"
     showguides="true"
     inkscape:guide-bbox="true"
     inkscape:snap-page="true"
     inkscape:object-paths="true"
     inkscape:object-nodes="true"
     inkscape:snap-intersection-paths="true"
     inkscape:snap-smooth-nodes="true"
     inkscape:snap-object-midpoints="true"
     inkscape:snap-center="true"
     inkscape:snap-midpoints="true"
     inkscape:snap-global="false">
    <sodipodi:guide
       position="359.99999,1044"
       orientation="0,1"
       id="guide3436"
       inkscape:label=""
       inkscape:color="rgb(0,0,255)" />
    <sodipodi:guide
       position="359.99999,36"
       orientation="0,1"
       id="guide3438"
       inkscape:label=""
       inkscape:color="rgb(0,0,255)" />
    <sodipodi:guide
       position="359.99999,522"
       orientation="0,1"
       id="guide3440"
       inkscape:label=""
       inkscape:color="rgb(0,0,255)" />
    <sodipodi:guide
       position="71.999999,540"
       orientation="1,0"
       id="guide3442"
       inkscape:label=""
       inkscape:color="rgb(0,0,255)" />
    <sodipodi:guide
       position="683.99999,531"
       orientation="1,0"
       id="guide3444"
       inkscape:label=""
       inkscape:color="rgb(0,0,255)" />
    <sodipodi:guide
       position="359.99999,558"
       orientation="0,1"
       id="guide3448"
       inkscape:label=""
       inkscape:color="rgb(0,0,255)" />
    <sodipodi:guide
       position="701.54999,531"
       orientation="1,0"
       id="guide3450"
       inkscape:label=""
       inkscape:color="rgb(0,0,255)" />
    <sodipodi:guide
       position="359.99999,1062"
       orientation="0,1"
       id="guide3452"
       inkscape:label=""
       inkscape:color="rgb(0,0,255)" />
    <sodipodi:guide
       position="359.99999,18"
       orientation="0,1"
       id="guide3454"
       inkscape:label=""
       inkscape:color="rgb(0,0,255)" />
    <sodipodi:guide
       position="377.99999,1062"
       orientation="1,0"
       id="guide4868"
       inkscape:label=""
       inkscape:color="rgb(0,0,255)" />
    <sodipodi:guide
       position="108,1062"
       orientation="1,0"
       id="guide4870"
       inkscape:label=""
       inkscape:color="rgb(0,0,255)" />
    <sodipodi:guide
       position="647.99999,1062"
       orientation="1,0"
       id="guide4872" />
    <sodipodi:guide
       position="715.49997,1008"
       orientation="0,1"
       id="guide5431"
       inkscape:label=""
       inkscape:color="rgb(0,0,255)" />
    <sodipodi:guide
       position="359.99999,801"
       orientation="0,1"
       id="guide5463"
       inkscape:label=""
       inkscape:color="rgb(0,0,255)" />
    <sodipodi:guide
       position="701.54999,594"
       orientation="0,1"
       id="guide5465"
       inkscape:label=""
       inkscape:color="rgb(0,0,255)" />
    <sodipodi:guide
       position="701.54999,486"
       orientation="0,1"
       id="guide5491"
       inkscape:label=""
       inkscape:color="rgb(0,0,255)" />
    <sodipodi:guide
       position="701.54999,72"
       orientation="0,1"
       id="guide5493"
       inkscape:label=""
       inkscape:color="rgb(0,0,255)" />
    <sodipodi:guide
       position="701.54999,279"
       orientation="0,1"
       id="guide5495"
       inkscape:label=""
       inkscape:color="rgb(0,0,255)" />
    <sodipodi:guide
       position="35.1,1080"
       orientation="1,0"
       id="guide5614"
       inkscape:label=""
       inkscape:color="rgb(0,0,255)" />
    <sodipodi:guide
       position="191.6339,361.38177"
       orientation="0,1"
       id="guide6062" />
    <sodipodi:guide
       position="191.6339,339.50677"
       orientation="0,1"
       id="guide6064" />
    <sodipodi:guide
       position="428.96092,178.75"
       orientation="0,1"
       id="guide6293" />
    <sodipodi:guide
       position="428.96092,209.14062"
       orientation="0,1"
       id="guide6295" />
    <sodipodi:guide
       position="450.82615,199.11132"
       orientation="0,1"
       id="guide6297" />
  </sodipodi:namedview>
  <metadata
     id="metadata3403">
    <rdf:RDF>
      <cc:Work
         rdf:about="">
        <dc:format>image/svg+xml</dc:format>
        <dc:type
           rdf:resource="http://purl.org/dc/dcmitype/StillImage" />
        <dc:title></dc:title>
      </cc:Work>
    </rdf:RDF>
  </metadata>
  <g
     inkscape:label="Calque 1"
     inkscape:groupmode="layer"
     id="layer1"
     transform="translate(0,27.63782)">
    <path
       style="fill:none;fill-rule:evenodd;stroke:#ff0000;stroke-width:3;stroke-linecap:butt;stroke-linejoin:bevel;stroke-miterlimit:4;stroke-dasharray:none;stroke-opacity:1"
       d="m 394,1050.3622 -16,-16"
       id="path3702-3-3"
       inkscape:connector-curvature="0"
       sodipodi:nodetypes="cc" />
    <path
       inkscape:connector-curvature="0"
       style="fill:none;fill-rule:evenodd;stroke:#ff0000;stroke-width:3;stroke-linecap:butt;stroke-linejoin:bevel;stroke-miterlimit:4;stroke-dasharray:none;stroke-opacity:1"
       d="m 124,1050.3622 -16,-16"
       id="path3702-3-3-9"
       sodipodi:nodetypes="cc" />
    <path
       inkscape:connector-curvature="0"
       style="fill:none;fill-rule:evenodd;stroke:#ff0000;stroke-width:3;stroke-linecap:butt;stroke-linejoin:bevel;stroke-miterlimit:4;stroke-dasharray:none;stroke-opacity:1"
       d="m 108,-9.63782 -15.999998,-16"
       id="path3702-3-3-9-3"
       sodipodi:nodetypes="cc" />
    <path
       inkscape:connector-curvature="0"
       style="fill:none;fill-rule:evenodd;stroke:#ff0000;stroke-width:3;stroke-linecap:butt;stroke-linejoin:bevel;stroke-miterlimit:4;stroke-dasharray:none;stroke-opacity:1"
       d="m 632,1050.3622 16,-16"
       id="path3702-3-3-9-6"
       sodipodi:nodetypes="cc" />
    <path
       id="path4836-6"
       d="m 648,-9.63782 16,-16"
       style="fill:none;fill-rule:evenodd;stroke:#ff0000;stroke-width:3;stroke-linecap:butt;stroke-linejoin:bevel;stroke-miterlimit:4;stroke-dasharray:none;stroke-opacity:1"
       inkscape:connector-curvature="0"
       sodipodi:nodetypes="cc" />
    <path
       id="path4836-6-2"
       d="m 378,-9.63782 -16,-16"
       style="fill:none;fill-rule:evenodd;stroke:#ff0000;stroke-width:3;stroke-linecap:butt;stroke-linejoin:bevel;stroke-miterlimit:4;stroke-dasharray:none;stroke-opacity:1"
       inkscape:connector-curvature="0"
       sodipodi:nodetypes="cc" />
    <path
       id="path4836-6-6-1"
       d="m 701.55,44.36218 13.94998,13.949983"
       style="fill:none;fill-rule:evenodd;stroke:#ff0000;stroke-width:3;stroke-linecap:butt;stroke-linejoin:bevel;stroke-miterlimit:4;stroke-dasharray:none;stroke-opacity:1"
       inkscape:connector-curvature="0"
       sodipodi:nodetypes="cc" />
    <path
       id="path4836-6-6-1-8"
       d="m 701.55,273.86218 13.94998,13.94998"
       style="fill:none;fill-rule:evenodd;stroke:#ff0000;stroke-width:3;stroke-linecap:butt;stroke-linejoin:bevel;stroke-miterlimit:4;stroke-dasharray:none;stroke-opacity:1"
       inkscape:connector-curvature="0"
       sodipodi:nodetypes="cc" />
    <path
       id="path4836-6-6-1-8-7"
       d="M 701.55,458.36218 715.49998,444.4122"
       style="fill:none;fill-rule:evenodd;stroke:#ff0000;stroke-width:3;stroke-linecap:butt;stroke-linejoin:bevel;stroke-miterlimit:4;stroke-dasharray:none;stroke-opacity:1"
       inkscape:connector-curvature="0"
       sodipodi:nodetypes="cc" />
    <path
       id="path4836-6-6-1-8-7-9"
       d="M 715.49998,566.36218 701.55,580.31216"
       style="fill:none;fill-rule:evenodd;stroke:#ff0000;stroke-width:3;stroke-linecap:butt;stroke-linejoin:bevel;stroke-miterlimit:4;stroke-dasharray:none;stroke-opacity:1"
       inkscape:connector-curvature="0"
       sodipodi:nodetypes="cc" />
    <path
       id="path4836-6-6-1-8-7-9-2"
       d="M 715.49998,791.81216 701.55,777.86218"
       style="fill:none;fill-rule:evenodd;stroke:#ff0000;stroke-width:3;stroke-linecap:butt;stroke-linejoin:bevel;stroke-miterlimit:4;stroke-dasharray:none;stroke-opacity:1"
       inkscape:connector-curvature="0"
       sodipodi:nodetypes="cc" />
    <path
       id="path4836-6-6-1-8-7-9-2-0"
       d="M 715.49998,994.31218 701.55,980.36218"
       style="fill:none;fill-rule:evenodd;stroke:#ff0000;stroke-width:3;stroke-linecap:butt;stroke-linejoin:bevel;stroke-miterlimit:4;stroke-dasharray:none;stroke-opacity:1"
       inkscape:connector-curvature="0"
       sodipodi:nodetypes="cc" />
    <path
       style="fill:none;fill-rule:evenodd;stroke:#008000;stroke-width:3;stroke-linecap:butt;stroke-linejoin:bevel;stroke-miterlimit:4;stroke-dasharray:none;stroke-opacity:1"
       d="m 684,494.36218 31.71429,0"
       id="path5560"
       inkscape:connector-curvature="0"
       sodipodi:nodetypes="cc" />
    <path
       style="fill:none;fill-rule:evenodd;stroke:#008000;stroke-width:3;stroke-linecap:butt;stroke-linejoin:bevel;stroke-miterlimit:4;stroke-dasharray:none;stroke-opacity:1"
       d="m 684,530.36218 31.49998,0"
       id="path5562"
       inkscape:connector-curvature="0"
       sodipodi:nodetypes="cc" />
    <path
       style="fill:none;fill-rule:evenodd;stroke:#008000;stroke-width:3;stroke-linecap:butt;stroke-linejoin:bevel;stroke-miterlimit:4;stroke-dasharray:none;stroke-opacity:1"
       d="m 684,8.36218 0,486 -612,0 0,-486 z"
       id="path5564"
       inkscape:connector-curvature="0"
       sodipodi:nodetypes="ccccc" />
    <path
       style="fill:none;fill-rule:evenodd;stroke:#008000;stroke-width:3;stroke-linecap:butt;stroke-linejoin:bevel;stroke-miterlimit:4;stroke-dasharray:none;stroke-opacity:1"
       d="m 72,530.36218 612,0 0,486.00002 -612,0"
       id="path5566"
       inkscape:connector-curvature="0"
       sodipodi:nodetypes="cccc" />
    <path
       style="fill:none;fill-rule:evenodd;stroke:#008000;stroke-width:3;stroke-linecap:butt;stroke-linejoin:miter;stroke-miterlimit:4;stroke-dasharray:none;stroke-opacity:1"
       d="m 684,1016.3622 31.49998,0"
       id="path5574"
       inkscape:connector-curvature="0"
       sodipodi:nodetypes="cc" />
    <path
       style="fill:none;fill-rule:evenodd;stroke:#008000;stroke-width:3;stroke-linecap:butt;stroke-linejoin:miter;stroke-miterlimit:4;stroke-dasharray:none;stroke-opacity:1"
       d="m 684,8.36218 31.49998,0"
       id="path5574-2"
       inkscape:connector-curvature="0"
       sodipodi:nodetypes="cc" />
    <path
       style="fill:none;fill-rule:evenodd;stroke:#ff0000;stroke-width:3;stroke-linecap:butt;stroke-linejoin:miter;stroke-miterlimit:4;stroke-dasharray:none;stroke-opacity:1"
       d="m 72,494.36218 -36.9,0 c 0,-18 -16.55,-36 -34.0999998,-36 l -4.5e-7,-414 C 18.55,44.36218 35.1,26.36218 35.1,8.36218 l 36.9,0 0,-34 612,0 0,34 c 16.74264,-17.1719382 17.13933,-21.770643 31.49998,0 l 0,486 c -15.14132,19.53722 -14.39507,19.40042 -31.49998,0 l 0,36 c 16.74264,-17.17194 17.13933,-21.77064 31.49998,0 l 0,486.00002 c -15.14132,19.5372 -14.39507,19.4004 -31.49998,0 l 0,34 -612,0 z"
       id="path5593"
       inkscape:connector-curvature="0"
       sodipodi:nodetypes="ccccccccccccccccccc" />
    <path
       style="fill:none;fill-rule:evenodd;stroke:#000000;stroke-width:1px;stroke-linecap:butt;stroke-linejoin:miter;stroke-opacity:1"
       d="m 108,566.36218 -9,0 -9,0 -9,0 -9,0"
       id="path5677"
       inkscape:connector-curvature="0"
       sodipodi:nodetypes="ccccc" />
    <path
       id="path5675"
       transform="translate(0,-27.63782)"
       style="opacity:1;fill:none;fill-opacity:0.25899281;fill-rule:evenodd;stroke:#ff0000;stroke-width:1.5;stroke-linejoin:bevel;stroke-miterlimit:4;stroke-dasharray:none;stroke-opacity:1"
       d="m 129.97302,598.74431 c -3.51472,-3.51472 -9.2132,-3.51472 -12.72792,0 -0.76913,0.76913 -1.39246,1.67131 -1.83907,2.66124 -0.89388,1.98077 -2.14029,3.78455 -3.67811,5.32237 -7.02944,7.02944 -18.426405,7.02944 -25.455842,0 -7.029435,-7.02944 -7.029435,-18.4264 0,-25.45584 1.539292,-1.53929 3.345038,-2.78659 5.324016,-3.67885 0.986862,-0.44489 1.88986,-1.0686 2.659599,-1.83834 3.514717,-3.51472 3.514717,-9.2132 0,-12.72792 l 0,0"
       inkscape:connector-curvature="0"
       sodipodi:nodetypes="cscssscscc" />
    <path
       id="path5675-1"
       style="opacity:1;fill:none;fill-opacity:0.25899281;fill-rule:evenodd;stroke:#ff0000;stroke-width:1.5;stroke-linejoin:bevel;stroke-miterlimit:4;stroke-dasharray:none;stroke-opacity:1"
       d="m 129.97302,975.61787 c -3.51472,3.51472 -9.2132,3.51472 -12.72792,0 -0.76913,-0.76913 -1.39246,-1.67131 -1.83907,-2.66124 -0.89388,-1.98077 -2.14029,-3.78455 -3.67811,-5.32237 -7.02944,-7.02944 -18.42641,-7.02944 -25.45585,0 -7.02943,7.02944 -7.02943,18.4264 0,25.45584 1.5393,1.53929 3.34504,2.78659 5.32402,3.67885 0.98686,0.44489 1.88986,1.0686 2.6596,1.83834 3.51472,3.51471 3.51472,9.21321 0,12.72791 l 0,0"
       inkscape:connector-curvature="0"
       sodipodi:nodetypes="cscssscscc" />
    <path
       id="path5675-4"
       style="opacity:1;fill:none;fill-opacity:0.25899281;fill-rule:evenodd;stroke:#ff0000;stroke-width:1.5;stroke-linejoin:bevel;stroke-miterlimit:4;stroke-dasharray:none;stroke-opacity:1"
       d="m 124.54649,748.10622 c 0,4.97055 -4.02943,9 -9,9 -1.08771,0 -2.16641,-0.19718 -3.1822,-0.58138 -2.03268,-0.76853 -4.18949,-1.16265 -6.3643,-1.16265 -9.94113,0 -17.99999,8.05886 -17.99999,17.99999 0,9.94113 8.05887,17.99998 17.99999,18 2.17689,0 4.33572,-0.39488 6.36599,-1.16331 1.0124,-0.38323 2.09195,-0.58073 3.18053,-0.58072 4.97055,10e-6 8.99999,4.02943 9,9 l 0,0"
       inkscape:connector-curvature="0"
       sodipodi:nodetypes="cscssscscc" />
    <text
       xml:space="preserve"
       style="font-style:normal;font-weight:normal;font-size:10px;line-height:125%;font-family:sans-serif;letter-spacing:0px;word-spacing:0px;fill:#000000;fill-opacity:1;stroke:none;stroke-width:1px;stroke-linecap:butt;stroke-linejoin:miter;stroke-opacity:1"
       x="213.86044"
       y="679.8067"
       id="text5914"
       sodipodi:linespacing="125%"><tspan
         sodipodi:role="line"
         id="tspan5916"
         x="213.86044"
         y="679.8067"
         style="font-style:normal;font-variant:normal;font-weight:normal;font-stretch:normal;font-family:Arial;-inkscape-font-specification:Arial" /></text>
    <path
       sodipodi:nodetypes="csccsscccscc"
       inkscape:connector-curvature="0"
       id="path5941"
       style="font-style:normal;font-variant:normal;font-weight:bold;font-stretch:normal;font-size:40px;line-height:125%;font-family:sans-serif;-inkscape-font-specification:'sans-serif Bold';letter-spacing:0px;word-spacing:0px;fill:#000000;fill-opacity:1;stroke:none;stroke-width:1px;stroke-linecap:butt;stroke-linejoin:miter;stroke-opacity:1"
       d="m 128.15733,683.69525 7.92969,0 c 4.42709,0 7.72136,0.31901 9.88281,0.95703 2.17448,0.625 4.03646,1.69271 5.58594,3.20313 1.36719,1.3151 2.38281,2.83203 3.04688,4.55078 0.66406,1.71875 0.99609,3.66536 0.99609,5.83984 0,2.20052 -0.33203,4.16667 -0.99609,5.89844 -0.66407,1.71875 -1.67969,3.23568 -3.04688,4.55078 -1.5625,1.51042 -3.4375,2.58464 -5.625,3.22266 -2.1875,0.625 -5.46875,0.9375 -9.84375,0.9375 l -7.92969,0 z" />
    <path
       sodipodi:nodetypes="ccccc"
       inkscape:connector-curvature="0"
       id="path5943"
       style="font-style:normal;font-variant:normal;font-weight:bold;font-stretch:normal;font-size:40px;line-height:125%;font-family:sans-serif;-inkscape-font-specification:'sans-serif Bold';letter-spacing:0px;word-spacing:0px;fill:#000000;fill-opacity:1;stroke:none;stroke-width:1px;stroke-linecap:butt;stroke-linejoin:miter;stroke-opacity:1"
       d="m 168.04015,712.85541 -6.99219,0 0,-21.875 6.99219,0 z" />
    <circle
       style="opacity:1;fill:#000000;fill-opacity:1;fill-rule:evenodd;stroke:none;stroke-width:2.97000003;stroke-linejoin:bevel;stroke-miterlimit:4;stroke-dasharray:none;stroke-opacity:1"
       id="path5959"
       cx="172.55"
       cy="694.49042"
       r="3.51" />
    <path
       sodipodi:nodetypes="ccccc"
       inkscape:connector-curvature="0"
       id="path5943-7"
       style="font-style:normal;font-variant:normal;font-weight:bold;font-stretch:normal;font-size:40px;line-height:125%;font-family:sans-serif;-inkscape-font-specification:'sans-serif Bold';letter-spacing:0px;word-spacing:0px;fill:#000000;fill-opacity:1;stroke:none;stroke-width:1px;stroke-linecap:butt;stroke-linejoin:miter;stroke-opacity:1"
       d="m 184.19249,712.85541 -3.49609,0 0,-21.875 3.49609,0 z" />
    <path
       sodipodi:nodetypes="ccccc"
       inkscape:connector-curvature="0"
       id="path5943-7-1"
       style="font-style:normal;font-variant:normal;font-weight:bold;font-stretch:normal;font-size:40px;line-height:125%;font-family:sans-serif;-inkscape-font-specification:'sans-serif Bold';letter-spacing:0px;word-spacing:0px;fill:#000000;fill-opacity:1;stroke:none;stroke-width:1px;stroke-linecap:butt;stroke-linejoin:miter;stroke-opacity:1"
       d="m 191.6339,690.98041 -1e-5,3.4961 -10.9375,0 1e-5,-3.4961 z" />
    <path
       sodipodi:nodetypes="ccccc"
       inkscape:connector-curvature="0"
       id="path5943-7-1-7"
       style="font-style:normal;font-variant:normal;font-weight:bold;font-stretch:normal;font-size:40px;line-height:125%;font-family:sans-serif;-inkscape-font-specification:'sans-serif Bold';letter-spacing:0px;word-spacing:0px;fill:#000000;fill-opacity:1;stroke:none;stroke-width:1px;stroke-linecap:butt;stroke-linejoin:miter;stroke-opacity:1"
       d="m 191.63391,709.35931 -10e-6,3.4961 -10.9375,0 10e-6,-3.4961 z" />
    <path
       sodipodi:nodetypes="ccccc"
       inkscape:connector-curvature="0"
       id="path5943-7-1-7-0"
       style="font-style:normal;font-variant:normal;font-weight:bold;font-stretch:normal;font-size:40px;line-height:125%;font-family:sans-serif;-inkscape-font-specification:'sans-serif Bold';letter-spacing:0px;word-spacing:0px;fill:#000000;fill-opacity:1;stroke:none;stroke-width:1px;stroke-linecap:butt;stroke-linejoin:miter;stroke-opacity:1"
       d="m 188.86751,700.20608 -1e-5,3.4961 -6.9375,0 1e-5,-3.4961 z" />
    <path
       style="fill:#000000;fill-opacity:1;fill-rule:evenodd;stroke:none;stroke-width:1px;stroke-linecap:butt;stroke-linejoin:miter;stroke-opacity:1"
       d="m 205.14512,690.98041 12.62954,21.875 0,0 c -12.62954,-21.875 -21.16468,-8.36851 -21.14061,-8.33064 0.0111,0.0175 2.38597,-2.8783 8.51107,-13.54436 z"
       id="path6068"
       inkscape:connector-curvature="0"
       sodipodi:nodetypes="cccsc" />
    <g
       id="g6152"
       transform="translate(2.13796,0)">
      <path
         d="m 224.13313,712.85541 -3.49609,0 0,-21.875 3.49609,0 z"
         style="font-style:normal;font-variant:normal;font-weight:bold;font-stretch:normal;font-size:40px;line-height:125%;font-family:sans-serif;-inkscape-font-specification:'sans-serif Bold';letter-spacing:0px;word-spacing:0px;fill:#000000;fill-opacity:1;stroke:none;stroke-width:1px;stroke-linecap:butt;stroke-linejoin:miter;stroke-opacity:1"
         id="path5943-7-4"
         inkscape:connector-curvature="0"
         sodipodi:nodetypes="ccccc" />
      <path
         d="m 240.98405,712.85541 -3.49609,0 0,-21.875 3.49609,0 z"
         style="font-style:normal;font-variant:normal;font-weight:bold;font-stretch:normal;font-size:40px;line-height:125%;font-family:sans-serif;-inkscape-font-specification:'sans-serif Bold';letter-spacing:0px;word-spacing:0px;fill:#000000;fill-opacity:1;stroke:none;stroke-width:1px;stroke-linecap:butt;stroke-linejoin:miter;stroke-opacity:1"
         id="path5943-7-4-3"
         inkscape:connector-curvature="0"
         sodipodi:nodetypes="ccccc" />
      <path
         style="font-style:normal;font-variant:normal;font-weight:bold;font-stretch:normal;font-size:40px;line-height:125%;font-family:sans-serif;-inkscape-font-specification:'sans-serif Bold';letter-spacing:0px;word-spacing:0px;fill:#000000;fill-opacity:1;stroke:none;stroke-width:1px;stroke-linecap:butt;stroke-linejoin:miter;stroke-opacity:1"
         d="m 229.06321,690.98041 -8.08984,8.08789 1.23437,1.23633 1.95313,0.52149 4.90234,-4.90039 0,-4.94532 z"
         id="path5943-7-4-0"
         inkscape:connector-curvature="0" />
      <path
         d="m 232.5593,712.85541 -3.49609,0 0,-21.875 3.49609,0 z"
         style="font-style:normal;font-variant:normal;font-weight:bold;font-stretch:normal;font-size:40px;line-height:125%;font-family:sans-serif;-inkscape-font-specification:'sans-serif Bold';letter-spacing:0px;word-spacing:0px;fill:#000000;fill-opacity:1;stroke:none;stroke-width:1px;stroke-linecap:butt;stroke-linejoin:miter;stroke-opacity:1"
         id="path5943-7-4-4"
         inkscape:connector-curvature="0"
         sodipodi:nodetypes="ccccc" />
      <path
         style="font-style:normal;font-variant:normal;font-weight:bold;font-stretch:normal;font-size:40px;line-height:125%;font-family:sans-serif;-inkscape-font-specification:'sans-serif Bold';letter-spacing:0px;word-spacing:0px;fill:#000000;fill-opacity:1;stroke:none;stroke-width:1px;stroke-linecap:butt;stroke-linejoin:miter;stroke-opacity:1"
         d="m 237.48938,690.98041 -8.08984,8.08789 1.23437,1.23633 1.95313,0.52149 4.90234,-4.90039 0,-4.94532 z"
         id="path5943-7-4-0-3"
         inkscape:connector-curvature="0" />
    </g>
    <g
       id="g6185"
       transform="translate(1.90081,0)">
      <path
         d="m 254.22138,690.98041 -6.99219,0 0,21.875 6.99219,0 z"
         style="font-style:normal;font-variant:normal;font-weight:bold;font-stretch:normal;font-size:40px;line-height:125%;font-family:sans-serif;-inkscape-font-specification:'sans-serif Bold';letter-spacing:0px;word-spacing:0px;fill:#000000;fill-opacity:1;stroke:none;stroke-width:1px;stroke-linecap:butt;stroke-linejoin:miter;stroke-opacity:1"
         id="path5943-0"
         inkscape:connector-curvature="0"
         sodipodi:nodetypes="ccccc" />
      <circle
         transform="scale(1,-1)"
         r="3.51"
         cy="-709.3454"
         cx="258.73123"
         id="path5959-9"
         style="opacity:1;fill:#000000;fill-opacity:1;fill-rule:evenodd;stroke:none;stroke-width:2.97000003;stroke-linejoin:bevel;stroke-miterlimit:4;stroke-dasharray:none;stroke-opacity:1" />
    </g>
    <g
       id="g6258"
       transform="translate(3.008,0)">
      <path
         d="m 272.1631,712.85541 -6.99219,0 0,-21.875 6.99219,0 z"
         style="font-style:normal;font-variant:normal;font-weight:bold;font-stretch:normal;font-size:40px;line-height:125%;font-family:sans-serif;-inkscape-font-specification:'sans-serif Bold';letter-spacing:0px;word-spacing:0px;fill:#000000;fill-opacity:1;stroke:none;stroke-width:1px;stroke-linecap:butt;stroke-linejoin:miter;stroke-opacity:1"
         id="path5943-3"
         inkscape:connector-curvature="0"
         sodipodi:nodetypes="ccccc" />
      <circle
         transform="matrix(0,-1,1,0,0,0)"
         inkscape:transform-center-y="-8.0059851"
         inkscape:transform-center-x="-0.013903203"
         r="3.51"
         cy="268.68091"
         cx="-686.47052"
         id="path5959-5"
         style="opacity:1;fill:#000000;fill-opacity:1;fill-rule:evenodd;stroke:none;stroke-width:2.97000003;stroke-linejoin:bevel;stroke-miterlimit:4;stroke-dasharray:none;stroke-opacity:1" />
    </g>
    <g
       id="g6254"
       transform="translate(3.008,0)">
      <path
         d="m 284.15519,712.85541 -6.99219,0 0,-21.875 6.99219,0 z"
         style="font-style:normal;font-variant:normal;font-weight:bold;font-stretch:normal;font-size:40px;line-height:125%;font-family:sans-serif;-inkscape-font-specification:'sans-serif Bold';letter-spacing:0px;word-spacing:0px;fill:#000000;fill-opacity:1;stroke:none;stroke-width:1px;stroke-linecap:butt;stroke-linejoin:miter;stroke-opacity:1"
         id="path5943-6"
         inkscape:connector-curvature="0"
         sodipodi:nodetypes="ccccc" />
      <circle
         r="3.51"
         cy="694.49042"
         cx="288.66504"
         id="path5959-4"
         style="opacity:1;fill:#000000;fill-opacity:1;fill-rule:evenodd;stroke:none;stroke-width:2.97000003;stroke-linejoin:bevel;stroke-miterlimit:4;stroke-dasharray:none;stroke-opacity:1" />
    </g>
    <g
       id="g6250"
       transform="translate(4.4060737,0)">
      <path
         d="m 299.79676,690.98041 6.99219,0 0,21.875 -6.99219,0 z"
         style="font-style:normal;font-variant:normal;font-weight:bold;font-stretch:normal;font-size:40px;line-height:125%;font-family:sans-serif;-inkscape-font-specification:'sans-serif Bold';letter-spacing:0px;word-spacing:0px;fill:#000000;fill-opacity:1;stroke:none;stroke-width:1px;stroke-linecap:butt;stroke-linejoin:miter;stroke-opacity:1"
         id="path5943-6-3"
         inkscape:connector-curvature="0"
         sodipodi:nodetypes="ccccc" />
      <circle
         transform="scale(-1,-1)"
         r="3.51"
         cy="-709.3454"
         cx="-295.28693"
         id="path5959-4-1"
         style="opacity:1;fill:#000000;fill-opacity:1;fill-rule:evenodd;stroke:none;stroke-width:2.97000003;stroke-linejoin:bevel;stroke-miterlimit:4;stroke-dasharray:none;stroke-opacity:1" />
    </g>
    <path
       style="fill:none;fill-rule:evenodd;stroke:#000000;stroke-width:2;stroke-linecap:butt;stroke-linejoin:miter;stroke-opacity:1;stroke-miterlimit:4;stroke-dasharray:none"
       d="m 432.96093,843.22156 c -2.96171,9.90186 -4,20.18167 -4,30.39062"
       id="path6289"
       inkscape:connector-curvature="0"
       sodipodi:nodetypes="cc" />
    <path
       style="fill:none;fill-rule:evenodd;stroke:#000000;stroke-width:2;stroke-linecap:butt;stroke-linejoin:miter;stroke-miterlimit:4;stroke-dasharray:none;stroke-opacity:1"
       d="m 428.96093,873.61218 c 0,-2.69313 0.38739,-9.86808 0,-12.25 -2.72986,-16.78479 -16.88001,-3.46264 -15.96093,6.81164 0.28043,9.00999 10.75883,4.95944 11.04173,-5.37503"
       id="path6291"
       inkscape:connector-curvature="0"
       sodipodi:nodetypes="cscc" />
    <path
       style="color:#000000;font-style:normal;font-variant:normal;font-weight:normal;font-stretch:normal;font-size:medium;line-height:normal;font-family:sans-serif;text-indent:0;text-align:start;text-decoration:none;text-decoration-line:none;text-decoration-style:solid;text-decoration-color:#000000;letter-spacing:normal;word-spacing:normal;text-transform:none;direction:ltr;block-progression:tb;writing-mode:lr-tb;baseline-shift:baseline;text-anchor:start;white-space:normal;clip-rule:nonzero;display:inline;overflow:visible;visibility:visible;opacity:1;isolation:auto;mix-blend-mode:normal;color-interpolation:sRGB;color-interpolation-filters:linearRGB;solid-color:#000000;solid-opacity:1;fill:#000000;fill-opacity:1;fill-rule:evenodd;stroke:none;stroke-width:2;stroke-linecap:butt;stroke-linejoin:miter;stroke-miterlimit:4;stroke-dasharray:none;stroke-dashoffset:0;stroke-opacity:1;color-rendering:auto;image-rendering:auto;shape-rendering:auto;text-rendering:auto;enable-background:accumulate"
       d="m 446.19616,851.27788 c -0.76829,-0.11564 -1.58445,-0.0693 -2.39607,0.14817 -1.32096,0.35395 -2.31971,1.40156 -3.11548,2.7626 -0.52879,0.90444 -0.88227,2.1858 -1.27113,3.39037 -0.11465,-1.30927 -0.38765,-4.40151 -0.30057,-6.12405 l -2.06271,0.56775 c 0.80306,7.30332 0.40898,15.21969 0.36687,21.58946 l 1.99641,0 c -0.091,-5.05478 0.36841,-10.07501 1.29649,-13.84379 0.46403,-1.8844 1.05042,-3.46601 1.69811,-4.57379 0.64768,-1.10778 1.32771,-1.68476 1.90866,-1.84043 1.11914,-0.29987 2.14216,-0.10505 2.83474,0.38407 0.55076,0.38897 0.99561,1.07456 1.0391,1.74673 0.0376,0.58135 -0.34987,1.47766 -1.09682,1.20041 -0.19647,-0.081 -0.54778,-0.41868 -0.54778,-0.94089 l -0.7464,0 c 0,0.6862 0.18207,1.26198 0.43843,1.75999 0.21262,0.41303 0.64419,0.72085 1.21176,0.84034 1.61564,0.19363 2.33387,-1.44847 2.33387,-2.5974 0,-1.29703 -0.42129,-2.20136 -1.0462,-2.98536 -0.57533,-0.72179 -1.34329,-1.29371 -2.54128,-1.48414 z"
       id="path6299"
       inkscape:connector-curvature="0"
       sodipodi:nodetypes="ccscccccssssscccscsscc" />
    <path
       style="fill:none;fill-rule:evenodd;stroke:#000000;stroke-width:2;stroke-linecap:butt;stroke-linejoin:miter;stroke-miterlimit:4;stroke-dasharray:none;stroke-opacity:1"
       d="m 439.98224,747.9364 0,21.875 m 0,0 c -0.1849,-10.27089 1.84211,-20.21829 5.65282,-21.23937 2.74734,-0.73615 5.34201,0.87796 5.1335,3.84375 -0.1542,2.1934 -3.01562,1.66271 -3.01562,-0.48437"
       id="path6299-9"
       inkscape:connector-curvature="0"
       sodipodi:nodetypes="cccssc" />
    <path
       style="color:#000000;font-style:normal;font-variant:normal;font-weight:normal;font-stretch:normal;font-size:medium;line-height:normal;font-family:sans-serif;text-indent:0;text-align:start;text-decoration:none;text-decoration-line:none;text-decoration-style:solid;text-decoration-color:#000000;letter-spacing:normal;word-spacing:normal;text-transform:none;direction:ltr;block-progression:tb;writing-mode:lr-tb;baseline-shift:baseline;text-anchor:start;white-space:normal;clip-rule:nonzero;display:inline;overflow:visible;visibility:visible;opacity:1;isolation:auto;mix-blend-mode:normal;color-interpolation:sRGB;color-interpolation-filters:linearRGB;solid-color:#000000;solid-opacity:1;fill:#000000;fill-opacity:1;fill-rule:evenodd;stroke:none;stroke-width:2;stroke-linecap:butt;stroke-linejoin:miter;stroke-miterlimit:4;stroke-dasharray:none;stroke-dashoffset:0;stroke-opacity:1;color-rendering:auto;image-rendering:auto;shape-rendering:auto;text-rendering:auto;enable-background:accumulate"
       d="m 462.66797,852.25 c -3.9651,5e-5 -6.60768,1.61729 -8.08985,3.79102 -1.48216,2.17372 -1.87123,4.78635 -1.85742,6.91406 0.0112,1.72275 0.20666,5.62394 2.83203,8.42969 1.31269,1.40287 3.25056,2.47052 5.88477,2.74414 2.63421,0.27361 5.95613,-0.20811 10.21094,-1.77149 l -0.69141,-1.87695 c -4.06171,1.49243 -7.09412,1.88862 -9.3125,1.6582 -2.21837,-0.23042 -3.63187,-1.04944 -4.63281,-2.11914 -2.00188,-2.1394 -2.28096,-5.52938 -2.29102,-7.07812 -0.0121,-1.86141 0.36587,-4.09777 1.50977,-5.77539 1.1439,-1.67763 2.98545,-2.91597 6.4375,-2.91602 3.47521,-5e-5 5.63171,1.19406 6.74219,2.64648 1.11047,1.45243 1.226,3.18981 0.45898,4.61719 -0.69978,1.30225 -1.87246,1.90587 -3.24414,2.09766 -1.37168,0.19179 -3.03375,0.14206 -3.96601,-0.4586 -0.85631,-0.55172 -1.19121,-1.3402 -1.17767,-2.19594 0.006,-0.38694 0.11389,-0.75123 0.32362,-1.09501 l -0.63577,-0.57597 c -0.63971,0.63742 -0.86777,1.84126 -0.81702,2.49176 0.10014,1.28344 0.7669,2.32406 1.59232,2.85095 1.27224,0.8121 3.1282,1.15281 4.95787,0.89699 1.82968,-0.25583 3.69473,-1.14074 4.72852,-3.06457 1.13728,-2.11642 0.92105,-4.74754 -0.63086,-6.77735 -1.55191,-2.0298 -4.39009,-3.43364 -8.33203,-3.43359 z"
       id="path6320"
       inkscape:connector-curvature="0"
       sodipodi:nodetypes="sscssccssssssssssccssssss" />
    <path
       style="color:#000000;font-style:normal;font-variant:normal;font-weight:normal;font-stretch:normal;font-size:medium;line-height:normal;font-family:sans-serif;text-indent:0;text-align:start;text-decoration:none;text-decoration-line:none;text-decoration-style:solid;text-decoration-color:#000000;letter-spacing:normal;word-spacing:normal;text-transform:none;direction:ltr;block-progression:tb;writing-mode:lr-tb;baseline-shift:baseline;text-anchor:start;white-space:normal;clip-rule:nonzero;display:inline;overflow:visible;visibility:visible;opacity:1;isolation:auto;mix-blend-mode:normal;color-interpolation:sRGB;color-interpolation-filters:linearRGB;solid-color:#000000;solid-opacity:1;fill:#000000;fill-opacity:1;fill-rule:evenodd;stroke:none;stroke-width:2;stroke-linecap:butt;stroke-linejoin:miter;stroke-miterlimit:4;stroke-dasharray:none;stroke-dashoffset:0;stroke-opacity:1;color-rendering:auto;image-rendering:auto;shape-rendering:auto;text-rendering:auto;enable-background:accumulate"
       d="m 483.00667,739.86725 c -1.99533,0.35961 -3.88088,1.12764 -5.80449,1.74254 -1.07501,0.38244 -2.21116,0.61286 -3.35566,0.57778 -0.58197,-0.009 -1.14972,-0.13933 -1.71485,-0.26563 l -0.47656,1.39453 c 1.10886,0.42155 2.68038,0.78125 3.77394,0.67581 1.22328,-0.0652 2.40199,-0.42384 3.568,-0.77345 1.19896,-0.35772 2.39964,-0.71156 3.61704,-1.00197 0.95199,-0.13192 1.93438,-0.15374 2.86964,0.0971 0.90929,0.23742 1.71071,0.76318 2.4516,1.32474 0.77416,0.61854 1.51274,1.33642 1.90818,2.26213 0.43826,0.98053 0.60228,2.05779 0.69246,3.12069 0.0968,1.39191 0.0912,2.78884 0.0156,4.18164 -0.0954,1.06704 -0.3362,2.12085 -0.73425,3.11618 -0.3584,0.83709 -0.83213,1.63383 -1.45325,2.30374 -0.93715,0.98151 -2.22136,1.60006 -3.55734,1.80167 -1.13841,0.21366 -2.30725,0.25026 -3.45866,0.13026 -0.95805,-0.10321 -1.8999,-0.33358 -2.8004,-0.67607 -1.11102,-0.43646 -2.1368,-1.16344 -2.78212,-2.18201 -0.66177,-0.99482 -0.89584,-2.29352 -0.52565,-3.44004 0.31214,-1.07439 1.11253,-2.01213 2.15584,-2.43349 1.04985,-0.42567 2.21083,-0.46544 3.32987,-0.44895 1.07989,0.0527 2.23414,0.13941 3.16492,0.74358 0.73456,0.47 1.20742,1.42033 0.92472,2.28044 -0.0952,0.27431 -0.20624,0.54213 -0.33008,0.80469 0.20333,0.11894 0.35655,0.30083 0.52734,0.45899 0.72042,-0.69579 1.1725,-1.73681 0.95875,-2.74223 -0.18579,-0.99926 -0.89934,-1.84057 -1.77515,-2.32613 -0.87943,-0.47503 -1.85432,-0.74953 -2.8339,-0.92556 -1.0933,-0.18106 -2.22178,-0.17489 -3.30766,0.0541 -0.89342,0.17218 -1.77686,0.46877 -2.53694,0.9782 -1.07342,0.71803 -1.84354,1.84833 -2.20627,3.08078 -0.42286,1.42356 -0.23785,2.99107 0.41287,4.31638 0.59335,1.19972 1.56581,2.19121 2.70022,2.89033 1.04415,0.67911 2.23716,1.10947 3.45332,1.35969 1.15795,0.21569 2.33977,0.3117 3.51668,0.24248 0.97263,-0.0439 1.94704,-0.19479 2.87146,-0.50569 0.92252,-0.2902 1.79728,-0.7363 2.56773,-1.3209 0.76109,-0.5601 1.43193,-1.24651 1.93444,-2.04915 0.56318,-0.83838 0.99141,-1.76866 1.26385,-2.74144 0.3227,-1.09139 0.47795,-2.22829 0.50838,-3.36469 0.0544,-1.17955 0.0786,-2.36197 0.023,-3.54186 -0.0796,-1.004 -0.21795,-2.01021 -0.53392,-2.96973 -0.29391,-0.88766 -0.70093,-1.74998 -1.28921,-2.48223 -0.58987,-0.75611 -1.28064,-1.43756 -2.04865,-2.0126 -0.74194,-0.56585 -1.56488,-1.03792 -2.44658,-1.34794 -1.04258,-0.33849 -2.14888,-0.41454 -3.23828,-0.38672 z"
       id="path6320-0-9"
       inkscape:connector-curvature="0"
       sodipodi:nodetypes="ccccccssssccsssssssccccccccccccccccccccccccccccc" />
    <path
       id="path6320-0-4"
       style="color:#000000;font-style:normal;font-variant:normal;font-weight:normal;font-stretch:normal;font-size:medium;line-height:normal;font-family:sans-serif;text-indent:0;text-align:start;text-decoration:none;text-decoration-line:none;text-decoration-style:solid;text-decoration-color:#000000;letter-spacing:normal;word-spacing:normal;text-transform:none;direction:ltr;block-progression:tb;writing-mode:lr-tb;baseline-shift:baseline;text-anchor:start;white-space:normal;clip-rule:nonzero;display:inline;overflow:visible;visibility:visible;opacity:1;isolation:auto;mix-blend-mode:normal;color-interpolation:sRGB;color-interpolation-filters:linearRGB;solid-color:#000000;solid-opacity:1;fill:#000000;fill-opacity:1;fill-rule:evenodd;stroke:none;stroke-width:0.1;stroke-linecap:butt;stroke-linejoin:miter;stroke-miterlimit:4;stroke-dasharray:none;stroke-dashoffset:0;stroke-opacity:1;color-rendering:auto;image-rendering:auto;shape-rendering:auto;text-rendering:auto;enable-background:accumulate"
       d="m 496.81995,859.87777 c -0.14366,-1.11363 -0.38334,-2.22702 -0.86104,-3.24869 -0.4475,-0.9236 -1.03795,-1.77931 -1.7816,-2.48997 -0.7193,-0.74008 -1.57048,-1.3452 -2.47987,-1.82965 -0.98128,-0.50299 -2.08507,-0.75019 -3.18605,-0.7485 -0.27857,-0.0152 -0.55712,0.007 -0.83568,0.0115 -1.67686,0.28554 -3.27374,0.8923 -4.90209,1.36513 -1.1498,0.34211 -2.31207,0.71575 -3.52164,0.74737 -0.75619,0.0613 -1.51863,-0.0952 -2.22846,-0.21617 l -0.42774,1.39648 c 0.94444,0.30993 1.9085,0.58774 2.90414,0.66202 0.98404,0.0547 1.96164,-0.12233 2.91035,-0.37007 1.53394,-0.44526 3.06767,-0.89131 4.60153,-1.33687 0.94914,-0.12705 1.93292,-0.23173 2.8725,0.0137 1.00913,0.24337 1.88495,0.85041 2.67592,1.50038 1.68576,1.44268 2.24991,3.2792 2.41618,5.28813 0.0898,1.14607 0.0226,2.30509 -0.015,3.45248 -0.032,0.97855 -0.18431,1.95815 -0.49,2.88999 -0.28979,0.9651 -0.74215,1.88549 -1.35292,2.68826 -0.63306,0.85162 -1.51074,1.51359 -2.50315,1.88893 -0.95921,0.3739 -1.99674,0.48219 -3.01657,0.55089 -0.99156,0.033 -1.99182,-0.0402 -2.95898,-0.26775 -0.94696,-0.23239 -1.9032,-0.53447 -2.71275,-1.09318 -0.8553,-0.57503 -1.52062,-1.43162 -1.83523,-2.41578 -0.38976,-1.2207 -0.13355,-2.60129 0.60569,-3.63845 0.54022,-0.76838 1.37702,-1.311 2.29053,-1.51867 1.17953,-0.2611 2.40261,-0.25857 3.59987,-0.13584 0.94399,0.097 1.95167,0.41692 2.50781,1.24218 0.56564,0.77713 0.28968,1.75682 -0.043,2.5625 0.20443,0.0503 0.33525,0.22432 0.48632,0.35547 0.69974,-0.72365 1.13639,-1.76417 0.93693,-2.77572 -0.17726,-1.04363 -0.93165,-1.92898 -1.87833,-2.37467 -0.89441,-0.43432 -1.86757,-0.70307 -2.85135,-0.83447 -1.06497,-0.11982 -2.15912,-0.0714 -3.19563,0.21244 -0.93737,0.25238 -1.87781,0.62108 -2.60753,1.2796 -0.73678,0.65249 -1.26758,1.50957 -1.63456,2.41665 -0.32192,0.9253 -0.43101,1.92387 -0.29948,2.89555 0.11424,0.85533 0.42706,1.67874 0.89128,2.40523 0.54341,0.8278 1.27006,1.52157 2.0957,2.06445 0.9661,0.6322 2.04971,1.07474 3.18064,1.3062 1.12364,0.24551 2.28018,0.33792 3.42883,0.30036 0.9197,-0.0296 1.84078,-0.15367 2.72308,-0.41935 0.96701,-0.27292 1.87372,-0.72955 2.70456,-1.29072 0.85532,-0.63888 1.6098,-1.41563 2.18272,-2.31875 0.62222,-0.96508 1.05329,-2.04523 1.31574,-3.16147 0.38472,-1.57005 0.39886,-3.1983 0.41838,-4.80567 0.005,-0.73629 -0.0353,-1.47379 -0.13008,-2.20548 z"
       inkscape:connector-curvature="0"
       sodipodi:nodetypes="ccccccccccccccccsccccccccccccccccccccccccccccccc" />
    <path
       style="color:#000000;font-style:normal;font-variant:normal;font-weight:normal;font-stretch:normal;font-size:medium;line-height:normal;font-family:sans-serif;text-indent:0;text-align:start;text-decoration:none;text-decoration-line:none;text-decoration-style:solid;text-decoration-color:#000000;letter-spacing:normal;word-spacing:normal;text-transform:none;direction:ltr;block-progression:tb;writing-mode:lr-tb;baseline-shift:baseline;text-anchor:start;white-space:normal;clip-rule:nonzero;display:inline;overflow:visible;visibility:visible;opacity:1;isolation:auto;mix-blend-mode:normal;color-interpolation:sRGB;color-interpolation-filters:linearRGB;solid-color:#000000;solid-opacity:1;fill:#000000;fill-opacity:1;fill-rule:evenodd;stroke:none;stroke-width:2;stroke-linecap:butt;stroke-linejoin:miter;stroke-miterlimit:4;stroke-dasharray:none;stroke-dashoffset:0;stroke-opacity:1;color-rendering:auto;image-rendering:auto;shape-rendering:auto;text-rendering:auto;enable-background:accumulate"
       d="m 513.53516,850.20898 -0.0156,0.002 -0.0176,0 c -2.49929,0.10526 -4.60168,1.27014 -5.96289,3.20312 -0.59182,0.84041 -0.99296,1.86855 -1.32422,2.95703 -0.21487,-0.64462 -0.43407,-1.29941 -0.73632,-1.83789 -0.55569,-0.99001 -1.75847,-1.71866 -2.59766,-1.90738 l -0.29901,1.05745 c 1.5571,0.96945 1.91177,3.26378 2.24627,4.72103 0.53771,2.38651 0.7543,5.40985 0.8086,8.11132 0.0771,3.83903 -0.16016,7.02149 -0.16016,7.02149 l 1.9961,0.14844 c 0,0 0.24331,-3.26759 0.16406,-7.21094 -0.0557,-2.21331 -0.18778,-5.23755 -0.11962,-6.68695 0.0715,-1.52114 0.619,-3.74504 1.65861,-5.22134 1.03696,-1.47254 2.44601,-2.26695 4.39453,-2.35352 1.63143,-0.0111 3.02345,0.69455 4.10157,2.80273 1.08182,2.11545 1.70602,5.70567 1.26367,11.10547 -0.17553,2.14275 -0.51621,4.56903 -1.05078,7.29883 l 1.96289,0.38477 c 0.54676,-2.79204 0.89937,-5.28978 1.08203,-7.51953 0.44386,-5.42944 1.44206,-8.91386 2.60351,-10.91602 1.16146,-2.00216 2.32165,-2.52829 3.55078,-2.48828 1.23774,0.0403 2.33376,0.49155 3.28907,1.77734 0.95531,1.2858 1.73396,3.48938 1.93554,6.9668 0.17986,3.10261 -0.24197,5.35922 -0.54492,7.39062 -0.30295,2.03141 -0.57988,3.92995 0.16184,5.97974 l 2.51705,-0.9977 c -0.93987,-1.47492 -0.99474,-2.71325 -0.70037,-4.68711 0.29437,-1.97386 0.7562,-4.45927 0.5625,-7.80078 -0.21571,-3.72121 -1.03801,-6.31113 -2.32617,-8.04493 -1.28817,-1.73379 -3.07792,-2.52699 -4.82813,-2.58398 -1.95955,-0.0638 -3.93918,1.05639 -5.34766,3.48437 -0.51264,0.88372 -0.90471,2.15815 -1.30273,3.41407 -0.27629,-1.34698 -0.55055,-2.70144 -1.04883,-3.67578 -1.34809,-2.63611 -3.59607,-3.91727 -5.91601,-3.89454 z"
       id="path6521"
       inkscape:connector-curvature="0"
       sodipodi:nodetypes="cccscscccccccsscsscccsssssccssssscscc" />
    <g
       id="g6553"
       transform="translate(-2.8284271,-81.210155)">
      <path
         sodipodi:nodetypes="csc"
         inkscape:connector-curvature="0"
         id="path6503-2"
         d="m 507.31267,827.03806 c 2.92486,0.97376 3.66482,7.76785 3.77489,13.24422 0.0782,3.89119 -0.16161,7.1171 -0.16161,7.1171"
         style="font-style:normal;font-weight:normal;font-size:10px;line-height:125%;font-family:sans-serif;letter-spacing:0px;word-spacing:0px;opacity:1;fill:none;fill-opacity:1;fill-rule:evenodd;stroke:#000000;stroke-width:1px;stroke-linecap:butt;stroke-linejoin:miter;stroke-opacity:1" />
      <path
         sodipodi:nodetypes="csccsc"
         inkscape:connector-curvature="0"
         d="m 523.31817,847.39938 c 0.54067,-2.76092 0.88647,-5.22297 1.06556,-7.40922 0.90266,-11.01888 -2.42918,-15.03193 -6.38783,-14.99313 -4.45712,0.18772 -7.03125,3.92578 -7.03125,9.90208 0,0 0.0128,-0.0932 0.12291,5.38317 0.0782,3.89119 -0.16161,7.1171 -0.16161,7.1171"
         style="font-style:normal;font-weight:normal;font-size:10px;line-height:125%;font-family:sans-serif;letter-spacing:0px;word-spacing:0px;opacity:1;fill:none;fill-opacity:1;fill-rule:nonzero;stroke:#000000;stroke-width:1px;stroke-linecap:butt;stroke-linejoin:miter;stroke-opacity:1"
         id="path6503-6-5" />
      <path
         sodipodi:nodetypes="cssc"
         inkscape:connector-curvature="0"
         id="path6521-9"
         d="m 524.38373,839.99016 c 0.9015,-11.02748 3.99628,-14.42592 7.18497,-14.32212 2.98795,0.0973 5.77228,2.48851 6.18957,9.68714 0.37356,6.44412 -1.77131,9.48128 -0.2444,12.98391"
         style="fill:none;fill-rule:evenodd;stroke:#000000;stroke-width:1px;stroke-linecap:butt;stroke-linejoin:miter;stroke-opacity:1" />
    </g>
    <path
       style="fill:none;fill-rule:evenodd;stroke:#000000;stroke-width:2;stroke-linecap:butt;stroke-linejoin:miter;stroke-miterlimit:4;stroke-dasharray:none;stroke-opacity:1"
       d="m 542.02741,843.22156 c 0.52361,7.42627 1.16275,14.92003 1.45925,22.45426"
       id="path6289-1"
       inkscape:connector-curvature="0"
       sodipodi:nodetypes="cc" />
    <path
       style="fill:none;fill-rule:evenodd;stroke:#000000;stroke-width:2;stroke-linecap:butt;stroke-linejoin:miter;stroke-miterlimit:4;stroke-dasharray:none;stroke-opacity:1"
       d="m 543.65241,873.61218 c 0,-1.95797 -0.2049,-5.42661 -0.16782,-7.98117 0.0139,-0.95916 0.0619,-1.81749 0.16768,-2.46769 1.90999,-11.74382 16.58939,-5.4845 15.96092,4.81164 -0.59488,9.74585 -15.9819,7.2686 -10.66673,-1.93753"
       id="path6291-7"
       inkscape:connector-curvature="0"
       sodipodi:nodetypes="csssc" />
    <path
       style="color:#000000;font-style:normal;font-variant:normal;font-weight:normal;font-stretch:normal;font-size:medium;line-height:normal;font-family:sans-serif;text-indent:0;text-align:start;text-decoration:none;text-decoration-line:none;text-decoration-style:solid;text-decoration-color:#000000;letter-spacing:normal;word-spacing:normal;text-transform:none;direction:ltr;block-progression:tb;writing-mode:lr-tb;baseline-shift:baseline;text-anchor:start;white-space:normal;clip-rule:nonzero;display:inline;overflow:visible;visibility:visible;opacity:1;isolation:auto;mix-blend-mode:normal;color-interpolation:sRGB;color-interpolation-filters:linearRGB;solid-color:#000000;solid-opacity:1;fill:#000000;fill-opacity:1;fill-rule:evenodd;stroke:none;stroke-width:2;stroke-linecap:butt;stroke-linejoin:miter;stroke-miterlimit:4;stroke-dasharray:none;stroke-dashoffset:0;stroke-opacity:1;color-rendering:auto;image-rendering:auto;shape-rendering:auto;text-rendering:auto;enable-background:accumulate"
       d="m 582.68963,851.29887 c -0.76829,-0.11564 -1.58445,-0.0693 -2.39607,0.14817 -1.32096,0.35395 -2.31971,1.40156 -3.11548,2.7626 -0.52879,0.90444 -0.88227,2.1858 -1.27113,3.39037 -0.0945,-1.50915 -0.17117,-2.49573 -0.21287,-3.28337 -0.0519,-0.98047 -0.13309,-1.87811 0.0403,-2.6409 l -2.7789,1.06242 c 0.75888,1.07231 1.12423,3.45117 1.25563,5.33376 0.3506,5.02309 0.14769,10.43581 -0.43372,15.54026 l 2.28029,0 c -0.26316,-4.65853 0.0114,-9.50364 1.06271,-13.8395 0.45729,-1.88605 1.13391,-3.44931 1.7816,-4.55709 0.64768,-1.10778 1.32771,-1.68476 1.90866,-1.84043 1.11914,-0.29987 2.14216,-0.10505 2.83474,0.38407 0.55076,0.38897 0.99561,1.07456 1.0391,1.74673 0.0376,0.58135 -0.34987,1.47766 -1.09682,1.20041 -0.19647,-0.081 -0.54778,-0.41868 -0.54778,-0.94089 l -0.7464,0 c 0,0.6862 0.18207,1.26198 0.43843,1.75999 0.21262,0.41303 0.64419,0.72085 1.21176,0.84034 1.61564,0.19363 2.33387,-1.44847 2.33387,-2.5974 0,-1.29703 -0.42129,-2.20136 -1.0462,-2.98536 -0.57533,-0.72179 -1.34329,-1.29371 -2.54128,-1.48414 z"
       id="path6299-7"
       inkscape:connector-curvature="0"
       sodipodi:nodetypes="scscsccsccssssssscccscss" />
    <path
       style="fill:none;fill-rule:evenodd;stroke:#000000;stroke-width:2;stroke-linecap:butt;stroke-linejoin:miter;stroke-miterlimit:4;stroke-dasharray:none;stroke-opacity:1"
       d="m 609.58664,843.22156 c -2.12676,7.11039 -3.26172,14.41567 -3.73261,21.74965 -0.18487,2.87925 -0.26739,5.76293 -0.26739,8.64097"
       id="path6289-4"
       inkscape:connector-curvature="0"
       sodipodi:nodetypes="csc" />
    <path
       style="fill:none;fill-rule:evenodd;stroke:#000000;stroke-width:2;stroke-linecap:butt;stroke-linejoin:miter;stroke-miterlimit:4;stroke-dasharray:none;stroke-opacity:1"
       d="m 605.85776,864.97163 c 0.0968,-2.14467 -0.68898,-3.40821 -1.34766,-4.29671 -4.4797,-5.97029 -17.54318,0.78316 -14.88439,9.0457 1.58063,4.91202 9.00818,4.8184 10.38443,-1.43825 0.26592,-1.20893 -0.0605,-4.30476 -3.67426,-2.84395"
       id="path6291-1"
       inkscape:connector-curvature="0"
       sodipodi:nodetypes="ccssc" />
    <path
       id="path6625"
       style="opacity:1;fill:#000000;fill-opacity:1;fill-rule:nonzero;stroke:#009800;stroke-width:0;stroke-linejoin:bevel;stroke-miterlimit:4;stroke-dasharray:none;stroke-opacity:1"
       d="m 563.17196,847.41356 c -1.0854,0.30612 -1.06648,2.14287 -0.0337,2.6214 0.75861,0.47054 1.94873,-0.0679 1.93022,-1.01074 0.0739,-0.89271 -0.98967,-1.87179 -1.89655,-1.61066 z m 2.55509,5.62286 -1.11719,0.42888 c 0.59325,2.81309 0.87577,6.3075 0.95351,8.55813 0.13839,4.00644 -0.10078,7.44139 -0.55118,11.58875 l 2.80725,0 c 0.13677,-3.95054 -0.0373,-8.10046 -0.41467,-11.64746 -0.42263,-3.97251 -1.28282,-7.89782 -1.67772,-8.9283 z"
       inkscape:connector-curvature="0" />
  </g>
</svg>
