<?xml version="1.0" encoding="UTF-8" standalone="no"?>
<!-- Created with Inkscape (http://www.inkscape.org/) -->

<svg
   xmlns:dc="http://purl.org/dc/elements/1.1/"
   xmlns:cc="http://creativecommons.org/ns#"
   xmlns:rdf="http://www.w3.org/1999/02/22-rdf-syntax-ns#"
   xmlns:svg="http://www.w3.org/2000/svg"
   xmlns="http://www.w3.org/2000/svg"
   xmlns:sodipodi="http://sodipodi.sourceforge.net/DTD/sodipodi-0.dtd"
   xmlns:inkscape="http://www.inkscape.org/namespaces/inkscape"
   width="7.9499998in"
   height="12in"
   viewBox="0 0 715.49999 1080"
   id="svg3398"
   version="1.1"
   inkscape:version="0.91 r13725"
   sodipodi:docname="box7-dreambird-changes.svg">
  <defs
     id="defs3400" />
  <sodipodi:namedview
     id="base"
     pagecolor="#ffffff"
     bordercolor="#666666"
     borderopacity="1.0"
     inkscape:pageopacity="0.0"
     inkscape:pageshadow="2"
     inkscape:zoom="1"
     inkscape:cx="642.41324"
     inkscape:cy="489.0289"
     inkscape:document-units="in"
     inkscape:current-layer="layer1"
     showgrid="false"
     units="in"
     inkscape:window-width="1912"
     inkscape:window-height="1057"
     inkscape:window-x="0"
     inkscape:window-y="0"
     inkscape:window-maximized="1"
     showguides="true"
     inkscape:guide-bbox="true"
     inkscape:snap-page="true"
     inkscape:object-paths="true"
     inkscape:object-nodes="true"
     inkscape:snap-intersection-paths="true"
     inkscape:snap-smooth-nodes="true"
     inkscape:snap-object-midpoints="true"
     inkscape:snap-center="true"
     inkscape:snap-midpoints="true"
     inkscape:snap-global="false">
    <sodipodi:guide
       position="359.99999,1044"
       orientation="0,1"
       id="guide3436"
       inkscape:label=""
       inkscape:color="rgb(0,0,255)" />
    <sodipodi:guide
       position="359.99999,36"
       orientation="0,1"
       id="guide3438"
       inkscape:label=""
       inkscape:color="rgb(0,0,255)" />
    <sodipodi:guide
       position="359.99999,522"
       orientation="0,1"
       id="guide3440"
       inkscape:label=""
       inkscape:color="rgb(0,0,255)" />
    <sodipodi:guide
       position="71.999999,540"
       orientation="1,0"
       id="guide3442"
       inkscape:label=""
       inkscape:color="rgb(0,0,255)" />
    <sodipodi:guide
       position="683.99999,531"
       orientation="1,0"
       id="guide3444"
       inkscape:label=""
       inkscape:color="rgb(0,0,255)" />
    <sodipodi:guide
       position="359.99999,558"
       orientation="0,1"
       id="guide3448"
       inkscape:label=""
       inkscape:color="rgb(0,0,255)" />
    <sodipodi:guide
       position="701.54999,531"
       orientation="1,0"
       id="guide3450"
       inkscape:label=""
       inkscape:color="rgb(0,0,255)" />
    <sodipodi:guide
       position="359.99999,1062"
       orientation="0,1"
       id="guide3452"
       inkscape:label=""
       inkscape:color="rgb(0,0,255)" />
    <sodipodi:guide
       position="359.99999,18"
       orientation="0,1"
       id="guide3454"
       inkscape:label=""
       inkscape:color="rgb(0,0,255)" />
    <sodipodi:guide
       position="377.99999,1062"
       orientation="1,0"
       id="guide4868"
       inkscape:label=""
       inkscape:color="rgb(0,0,255)" />
    <sodipodi:guide
       position="108,1062"
       orientation="1,0"
       id="guide4870"
       inkscape:label=""
       inkscape:color="rgb(0,0,255)" />
    <sodipodi:guide
       position="647.99999,1062"
       orientation="1,0"
       id="guide4872" />
    <sodipodi:guide
       position="715.49997,1008"
       orientation="0,1"
       id="guide5431"
       inkscape:label=""
       inkscape:color="rgb(0,0,255)" />
    <sodipodi:guide
       position="359.99999,801"
       orientation="0,1"
       id="guide5463"
       inkscape:label=""
       inkscape:color="rgb(0,0,255)" />
    <sodipodi:guide
       position="701.54999,594"
       orientation="0,1"
       id="guide5465"
       inkscape:label=""
       inkscape:color="rgb(0,0,255)" />
    <sodipodi:guide
       position="701.54999,486"
       orientation="0,1"
       id="guide5491"
       inkscape:label=""
       inkscape:color="rgb(0,0,255)" />
    <sodipodi:guide
       position="701.54999,72"
       orientation="0,1"
       id="guide5493"
       inkscape:label=""
       inkscape:color="rgb(0,0,255)" />
    <sodipodi:guide
       position="35.1,1080"
       orientation="1,0"
       id="guide5614"
       inkscape:label=""
       inkscape:color="rgb(0,0,255)" />
    <sodipodi:guide
       position="701.54999,279"
       orientation="0,1"
       id="guide7022"
       inkscape:label=""
       inkscape:color="rgb(0,0,255)" />
    <sodipodi:guide
       position="575.99999,279"
       orientation="1,0"
       id="guide7028"
       inkscape:label=""
       inkscape:color="rgb(0,0,255)" />
  </sodipodi:namedview>
  <metadata
     id="metadata3403">
    <rdf:RDF>
      <cc:Work
         rdf:about="">
        <dc:format>image/svg+xml</dc:format>
        <dc:type
           rdf:resource="http://purl.org/dc/dcmitype/StillImage" />
        <dc:title></dc:title>
      </cc:Work>
    </rdf:RDF>
  </metadata>
  <g
     inkscape:label="Calque 1"
     inkscape:groupmode="layer"
     id="layer1"
     transform="translate(0,27.63782)">
    <path
       style="fill:none;fill-rule:evenodd;stroke:#ff0000;stroke-width:3;stroke-linecap:butt;stroke-linejoin:bevel;stroke-miterlimit:4;stroke-dasharray:none;stroke-opacity:1"
       d="m 394,1050.3622 -16,-16"
       id="path3702-3-3"
       inkscape:connector-curvature="0"
       sodipodi:nodetypes="cc" />
    <path
       inkscape:connector-curvature="0"
       style="fill:none;fill-rule:evenodd;stroke:#ff0000;stroke-width:3;stroke-linecap:butt;stroke-linejoin:bevel;stroke-miterlimit:4;stroke-dasharray:none;stroke-opacity:1"
       d="m 124,1050.3622 -16,-16"
       id="path3702-3-3-9"
       sodipodi:nodetypes="cc" />
    <path
       inkscape:connector-curvature="0"
       style="fill:none;fill-rule:evenodd;stroke:#ff0000;stroke-width:3;stroke-linecap:butt;stroke-linejoin:bevel;stroke-miterlimit:4;stroke-dasharray:none;stroke-opacity:1"
       d="m 108,-9.63782 -15.999998,-16"
       id="path3702-3-3-9-3"
       sodipodi:nodetypes="cc" />
    <path
       inkscape:connector-curvature="0"
       style="fill:none;fill-rule:evenodd;stroke:#ff0000;stroke-width:3;stroke-linecap:butt;stroke-linejoin:bevel;stroke-miterlimit:4;stroke-dasharray:none;stroke-opacity:1"
       d="m 632,1050.3622 16,-16"
       id="path3702-3-3-9-6"
       sodipodi:nodetypes="cc" />
    <path
       id="path4836-6"
       d="m 648,-9.63782 16,-16"
       style="fill:none;fill-rule:evenodd;stroke:#ff0000;stroke-width:3;stroke-linecap:butt;stroke-linejoin:bevel;stroke-miterlimit:4;stroke-dasharray:none;stroke-opacity:1"
       inkscape:connector-curvature="0"
       sodipodi:nodetypes="cc" />
    <path
       id="path4836-6-2"
       d="m 378,-9.63782 -16,-16"
       style="fill:none;fill-rule:evenodd;stroke:#ff0000;stroke-width:3;stroke-linecap:butt;stroke-linejoin:bevel;stroke-miterlimit:4;stroke-dasharray:none;stroke-opacity:1"
       inkscape:connector-curvature="0"
       sodipodi:nodetypes="cc" />
    <path
       id="path4836-6-6-1"
       d="m 701.55,44.36218 13.94998,13.949983"
       style="fill:none;fill-rule:evenodd;stroke:#ff0000;stroke-width:3;stroke-linecap:butt;stroke-linejoin:bevel;stroke-miterlimit:4;stroke-dasharray:none;stroke-opacity:1"
       inkscape:connector-curvature="0"
       sodipodi:nodetypes="cc" />
    <path
       id="path4836-6-6-1-8"
       d="m 701.55,251.36218 13.94998,13.94998"
       style="fill:none;fill-rule:evenodd;stroke:#ff0000;stroke-width:3;stroke-linecap:butt;stroke-linejoin:bevel;stroke-miterlimit:4;stroke-dasharray:none;stroke-opacity:1"
       inkscape:connector-curvature="0"
       sodipodi:nodetypes="cc" />
    <path
       id="path4836-6-6-1-8-7"
       d="M 701.55,458.36218 715.49998,444.4122"
       style="fill:none;fill-rule:evenodd;stroke:#ff0000;stroke-width:3;stroke-linecap:butt;stroke-linejoin:bevel;stroke-miterlimit:4;stroke-dasharray:none;stroke-opacity:1"
       inkscape:connector-curvature="0"
       sodipodi:nodetypes="cc" />
    <path
       id="path4836-6-6-1-8-7-9"
       d="M 715.49998,552.4122 701.55,566.36218"
       style="fill:none;fill-rule:evenodd;stroke:#ff0000;stroke-width:3;stroke-linecap:butt;stroke-linejoin:bevel;stroke-miterlimit:4;stroke-dasharray:none;stroke-opacity:1"
       inkscape:connector-curvature="0"
       sodipodi:nodetypes="cc" />
    <path
       id="path4836-6-6-1-8-7-9-2"
       d="M 715.49998,787.31216 701.55,773.36218"
       style="fill:none;fill-rule:evenodd;stroke:#ff0000;stroke-width:3;stroke-linecap:butt;stroke-linejoin:bevel;stroke-miterlimit:4;stroke-dasharray:none;stroke-opacity:1"
       inkscape:connector-curvature="0"
       sodipodi:nodetypes="cc" />
    <path
       id="path4836-6-6-1-8-7-9-2-0"
       d="M 715.49998,994.31218 701.55,980.36218"
       style="fill:none;fill-rule:evenodd;stroke:#ff0000;stroke-width:3;stroke-linecap:butt;stroke-linejoin:bevel;stroke-miterlimit:4;stroke-dasharray:none;stroke-opacity:1"
       inkscape:connector-curvature="0"
       sodipodi:nodetypes="cc" />
    <path
       style="fill:none;fill-rule:evenodd;stroke:#008000;stroke-width:3;stroke-linecap:butt;stroke-linejoin:bevel;stroke-miterlimit:4;stroke-dasharray:none;stroke-opacity:1"
       d="m 684,494.36218 31.71429,0"
       id="path5560"
       inkscape:connector-curvature="0"
       sodipodi:nodetypes="cc" />
    <path
       style="fill:none;fill-rule:evenodd;stroke:#008000;stroke-width:3;stroke-linecap:butt;stroke-linejoin:bevel;stroke-miterlimit:4;stroke-dasharray:none;stroke-opacity:1"
       d="m 684,530.36218 31.49998,0"
       id="path5562"
       inkscape:connector-curvature="0"
       sodipodi:nodetypes="cc" />
    <path
       style="fill:none;fill-rule:evenodd;stroke:#008000;stroke-width:3;stroke-linecap:butt;stroke-linejoin:bevel;stroke-miterlimit:4;stroke-dasharray:none;stroke-opacity:1"
       d="m 684,8.36218 0,486 -612,0 0,-486 z"
       id="path5564"
       inkscape:connector-curvature="0"
       sodipodi:nodetypes="ccccc" />
    <path
       style="fill:none;fill-rule:evenodd;stroke:#008000;stroke-width:3;stroke-linecap:butt;stroke-linejoin:bevel;stroke-miterlimit:4;stroke-dasharray:none;stroke-opacity:1"
       d="m 72,530.36218 612,0 0,486.00002 -612,0"
       id="path5566"
       inkscape:connector-curvature="0"
       sodipodi:nodetypes="cccc" />
    <path
       style="fill:none;fill-rule:evenodd;stroke:#008000;stroke-width:3;stroke-linecap:butt;stroke-linejoin:miter;stroke-miterlimit:4;stroke-dasharray:none;stroke-opacity:1"
       d="m 684,1016.3622 31.49998,0"
       id="path5574"
       inkscape:connector-curvature="0"
       sodipodi:nodetypes="cc" />
    <path
       style="fill:none;fill-rule:evenodd;stroke:#008000;stroke-width:3;stroke-linecap:butt;stroke-linejoin:miter;stroke-miterlimit:4;stroke-dasharray:none;stroke-opacity:1"
       d="m 684,8.36218 31.49998,0"
       id="path5574-2"
       inkscape:connector-curvature="0"
       sodipodi:nodetypes="cc" />
    <path
       style="fill:none;fill-rule:evenodd;stroke:#ff0000;stroke-width:3;stroke-linecap:butt;stroke-linejoin:miter;stroke-miterlimit:4;stroke-dasharray:none;stroke-opacity:1"
       d="m 72,494.36218 -36.9,0 c 0,-18 -16.55,-36 -34.0999998,-36 l -4.5e-7,-414 C 18.55,44.36218 35.1,26.36218 35.1,8.36218 l 36.9,0 0,-34 612,0 0,34 c 16.74264,-17.1719382 17.13933,-21.770643 31.49998,0 l 0,486 c -15.14132,19.53722 -14.39507,19.40042 -31.49998,0 l 0,36 c 16.74264,-17.17194 17.13933,-21.77064 31.49998,0 l 0,486.00002 c -15.14132,19.5372 -14.39507,19.4004 -31.49998,0 l 0,34 -612,0 z"
       id="path5593"
       inkscape:connector-curvature="0"
       sodipodi:nodetypes="ccccccccccccccccccc" />
    <path
       style="fill:none;fill-rule:evenodd;stroke:#000000;stroke-width:1px;stroke-linecap:butt;stroke-linejoin:miter;stroke-opacity:1"
       d="m 108,566.36218 -9,0 -9,0 -9,0 -9,0"
       id="path5677"
       inkscape:connector-curvature="0"
       sodipodi:nodetypes="ccccc" />
    <path
       id="path5675"
       transform="translate(0,-27.63782)"
       style="opacity:1;fill:none;fill-opacity:0.25899281;fill-rule:evenodd;stroke:#ff0000;stroke-width:1.5;stroke-linejoin:bevel;stroke-miterlimit:4;stroke-dasharray:none;stroke-opacity:1"
       d="m 129.97302,598.74431 c -3.51472,-3.51472 -9.2132,-3.51472 -12.72792,0 -0.76913,0.76913 -1.39246,1.67131 -1.83907,2.66124 -0.89388,1.98077 -2.14029,3.78455 -3.67811,5.32237 -7.02944,7.02944 -18.426405,7.02944 -25.455842,0 -7.029435,-7.02944 -7.029435,-18.4264 0,-25.45584 1.539292,-1.53929 3.345038,-2.78659 5.324016,-3.67885 0.986862,-0.44489 1.88986,-1.0686 2.659599,-1.83834 3.514717,-3.51472 3.514717,-9.2132 0,-12.72792 l 0,0"
       inkscape:connector-curvature="0"
       sodipodi:nodetypes="cscssscscc" />
    <path
       id="path5675-1"
       style="opacity:1;fill:none;fill-opacity:0.25899281;fill-rule:evenodd;stroke:#ff0000;stroke-width:1.5;stroke-linejoin:bevel;stroke-miterlimit:4;stroke-dasharray:none;stroke-opacity:1"
       d="m 129.97302,975.61787 c -3.51472,3.51472 -9.2132,3.51472 -12.72792,0 -0.76913,-0.76913 -1.39246,-1.67131 -1.83907,-2.66124 -0.89388,-1.98077 -2.14029,-3.78455 -3.67811,-5.32237 -7.02944,-7.02944 -18.42641,-7.02944 -25.45585,0 -7.02943,7.02944 -7.02943,18.4264 0,25.45584 1.5393,1.53929 3.34504,2.78659 5.32402,3.67885 0.98686,0.44489 1.88986,1.0686 2.6596,1.83834 3.51472,3.51471 3.51472,9.21321 0,12.72791 l 0,0"
       inkscape:connector-curvature="0"
       sodipodi:nodetypes="cscssscscc" />
    <path
       id="path5675-4"
       style="opacity:1;fill:none;fill-opacity:0.25899281;fill-rule:evenodd;stroke:#ff0000;stroke-width:1.5;stroke-linejoin:bevel;stroke-miterlimit:4;stroke-dasharray:none;stroke-opacity:1"
       d="m 124.54649,748.10622 c 0,4.97055 -4.02943,9 -9,9 -1.08771,0 -2.16641,-0.19718 -3.1822,-0.58138 -2.03268,-0.76853 -4.18949,-1.16265 -6.3643,-1.16265 -9.94113,0 -17.99999,8.05886 -17.99999,17.99999 0,9.94113 8.05887,17.99998 17.99999,18 2.17689,0 4.33572,-0.39488 6.36599,-1.16331 1.0124,-0.38323 2.09195,-0.58073 3.18053,-0.58072 4.97055,10e-6 8.99999,4.02943 9,9 l 0,0"
       inkscape:connector-curvature="0"
       sodipodi:nodetypes="cscssscscc" />
    <text
       xml:space="preserve"
       style="font-style:normal;font-weight:normal;font-size:10px;line-height:125%;font-family:sans-serif;letter-spacing:0px;word-spacing:0px;fill:#000000;fill-opacity:1;stroke:none;stroke-width:1px;stroke-linecap:butt;stroke-linejoin:miter;stroke-opacity:1"
       x="213.86044"
       y="679.8067"
       id="text5914"
       sodipodi:linespacing="125%"><tspan
         sodipodi:role="line"
         id="tspan5916"
         x="213.86044"
         y="679.8067"
         style="font-style:normal;font-variant:normal;font-weight:normal;font-stretch:normal;font-family:Arial;-inkscape-font-specification:Arial" /></text>
    <g
       id="g7008"
       transform="matrix(0,-2.2142955,2.2142955,0,-1326.2402,1905.42)">
      <path
         style="color:#000000;font-style:normal;font-variant:normal;font-weight:normal;font-stretch:normal;font-size:medium;line-height:normal;font-family:sans-serif;text-indent:0;text-align:start;text-decoration:none;text-decoration-line:none;text-decoration-style:solid;text-decoration-color:#000000;letter-spacing:normal;word-spacing:normal;text-transform:none;direction:ltr;block-progression:tb;writing-mode:lr-tb;baseline-shift:baseline;text-anchor:start;white-space:normal;clip-rule:nonzero;display:inline;overflow:visible;visibility:visible;opacity:1;isolation:auto;mix-blend-mode:normal;color-interpolation:sRGB;color-interpolation-filters:linearRGB;solid-color:#000000;solid-opacity:1;fill:#000000;fill-opacity:1;fill-rule:evenodd;stroke:none;stroke-width:2;stroke-linecap:butt;stroke-linejoin:miter;stroke-miterlimit:4;stroke-dasharray:none;stroke-dashoffset:0;stroke-opacity:1;color-rendering:auto;image-rendering:auto;shape-rendering:auto;text-rendering:auto;enable-background:accumulate"
         d="m 432.00195,842.93555 c -0.71941,2.40521 -1.32626,4.83081 -1.83314,7.27054 -1.60527,7.72654 -2.20787,15.59473 -2.20787,23.40524 l 2,0 c 0,-7.62027 0.5314,-15.25648 2.11481,-22.74187 0.45963,-2.17286 1.16068,-4.89151 2.10363,-7.2419 z"
         id="path6289"
         inkscape:connector-curvature="0"
         sodipodi:nodetypes="csccscc" />
      <path
         style="color:#000000;font-style:normal;font-variant:normal;font-weight:normal;font-stretch:normal;font-size:medium;line-height:normal;font-family:sans-serif;text-indent:0;text-align:start;text-decoration:none;text-decoration-line:none;text-decoration-style:solid;text-decoration-color:#000000;letter-spacing:normal;word-spacing:normal;text-transform:none;direction:ltr;block-progression:tb;writing-mode:lr-tb;baseline-shift:baseline;text-anchor:start;white-space:normal;clip-rule:nonzero;display:inline;overflow:visible;visibility:visible;opacity:1;isolation:auto;mix-blend-mode:normal;color-interpolation:sRGB;color-interpolation-filters:linearRGB;solid-color:#000000;solid-opacity:1;fill:#000000;fill-opacity:1;fill-rule:evenodd;stroke:none;stroke-width:2;stroke-linecap:butt;stroke-linejoin:miter;stroke-miterlimit:4;stroke-dasharray:none;stroke-dashoffset:0;stroke-opacity:1;color-rendering:auto;image-rendering:auto;shape-rendering:auto;text-rendering:auto;enable-background:accumulate"
         d="m 422.35547,852.44922 c -1.13407,0.1642 -2.26406,0.64794 -3.29883,1.33984 -4.13193,2.76282 -7.53997,8.82452 -7.05078,14.44532 0.0825,2.43095 0.86994,4.21455 2.2207,5.16992 1.35705,0.95981 3.12003,0.94191 4.69532,0.25195 3.15056,-1.37991 5.58501,-7.82804 5.66753,-10.84244 l -1.09483,-0.03 c -0.0725,2.64836 -3.14597,8.0639 -5.37544,9.04038 -1.11473,0.48824 -2.04292,0.43908 -2.73828,-0.0527 -0.69536,-0.49181 -1.31685,-1.57228 -1.38086,-3.6289 l -0.002,-0.0293 -0.002,-0.0293 c -0.41554,-4.64531 2.78318,-10.36695 6.17188,-12.63281 1.69435,-1.13293 3.23277,-1.40459 4.5293,-0.67773 1.29652,0.72686 2.62021,2.7096 3.27734,6.75 0.15968,0.9818 0.17902,3.41113 0.13086,5.82617 -0.0482,2.41504 -0.14453,4.86721 -0.14453,6.26172 l 2,0 c 0,-1.29862 0.0958,-3.77951 0.14453,-6.22071 0.0487,-2.44119 0.0695,-4.78933 -0.1582,-6.18945 -0.70781,-4.35199 -2.17581,-6.99699 -4.27149,-8.17187 -1.04784,-0.58745 -2.18624,-0.74428 -3.32031,-0.58008 z"
         id="path6291"
         inkscape:connector-curvature="0"
         sodipodi:nodetypes="cscssccsccccssscccccscc" />
      <path
         sodipodi:nodetypes="ccscccccssssscccscsscc"
         inkscape:connector-curvature="0"
         id="path6299"
         d="m 446.19616,851.27788 c -0.76829,-0.11564 -1.58445,-0.0693 -2.39607,0.14817 -1.32096,0.35395 -2.31971,1.40156 -3.11548,2.7626 -0.52879,0.90444 -0.88227,2.1858 -1.27113,3.39037 -0.11465,-1.30927 -0.38765,-4.40151 -0.30057,-6.12405 l -2.06271,0.56775 c 0.80306,7.30332 0.40898,15.21969 0.36687,21.58946 l 1.99641,0 c -0.091,-5.05478 0.36841,-10.07501 1.29649,-13.84379 0.46403,-1.8844 1.05042,-3.46601 1.69811,-4.57379 0.64768,-1.10778 1.32771,-1.68476 1.90866,-1.84043 1.11914,-0.29987 2.14216,-0.10505 2.83474,0.38407 0.55076,0.38897 0.99561,1.07456 1.0391,1.74673 0.0376,0.58135 -0.34987,1.47766 -1.09682,1.20041 -0.19647,-0.081 -0.54778,-0.41868 -0.54778,-0.94089 l -0.7464,0 c 0,0.6862 0.18207,1.26198 0.43843,1.75999 0.21262,0.41303 0.64419,0.72085 1.21176,0.84034 1.61564,0.19363 2.33387,-1.44847 2.33387,-2.5974 0,-1.29703 -0.42129,-2.20136 -1.0462,-2.98536 -0.57533,-0.72179 -1.34329,-1.29371 -2.54128,-1.48414 z"
         style="color:#000000;font-style:normal;font-variant:normal;font-weight:normal;font-stretch:normal;font-size:medium;line-height:normal;font-family:sans-serif;text-indent:0;text-align:start;text-decoration:none;text-decoration-line:none;text-decoration-style:solid;text-decoration-color:#000000;letter-spacing:normal;word-spacing:normal;text-transform:none;direction:ltr;block-progression:tb;writing-mode:lr-tb;baseline-shift:baseline;text-anchor:start;white-space:normal;clip-rule:nonzero;display:inline;overflow:visible;visibility:visible;opacity:1;isolation:auto;mix-blend-mode:normal;color-interpolation:sRGB;color-interpolation-filters:linearRGB;solid-color:#000000;solid-opacity:1;fill:#000000;fill-opacity:1;fill-rule:evenodd;stroke:none;stroke-width:2;stroke-linecap:butt;stroke-linejoin:miter;stroke-miterlimit:4;stroke-dasharray:none;stroke-dashoffset:0;stroke-opacity:1;color-rendering:auto;image-rendering:auto;shape-rendering:auto;text-rendering:auto;enable-background:accumulate" />
      <path
         sodipodi:nodetypes="sscssccssssssssssccssssss"
         inkscape:connector-curvature="0"
         id="path6320"
         d="m 462.66797,852.25 c -3.9651,5e-5 -6.60768,1.61729 -8.08985,3.79102 -1.48216,2.17372 -1.87123,4.78635 -1.85742,6.91406 0.0112,1.72275 0.20666,5.62394 2.83203,8.42969 1.31269,1.40287 3.25056,2.47052 5.88477,2.74414 2.63421,0.27361 5.95613,-0.20811 10.21094,-1.77149 l -0.69141,-1.87695 c -4.06171,1.49243 -7.09412,1.88862 -9.3125,1.6582 -2.21837,-0.23042 -3.63187,-1.04944 -4.63281,-2.11914 -2.00188,-2.1394 -2.28096,-5.52938 -2.29102,-7.07812 -0.0121,-1.86141 0.36587,-4.09777 1.50977,-5.77539 1.1439,-1.67763 2.98545,-2.91597 6.4375,-2.91602 3.47521,-5e-5 5.63171,1.19406 6.74219,2.64648 1.11047,1.45243 1.226,3.18981 0.45898,4.61719 -0.69978,1.30225 -1.87246,1.90587 -3.24414,2.09766 -1.37168,0.19179 -3.03375,0.14206 -3.96601,-0.4586 -0.85631,-0.55172 -1.19121,-1.3402 -1.17767,-2.19594 0.006,-0.38694 0.11389,-0.75123 0.32362,-1.09501 l -0.63577,-0.57597 c -0.63971,0.63742 -0.86777,1.84126 -0.81702,2.49176 0.10014,1.28344 0.7669,2.32406 1.59232,2.85095 1.27224,0.8121 3.1282,1.15281 4.95787,0.89699 1.82968,-0.25583 3.69473,-1.14074 4.72852,-3.06457 1.13728,-2.11642 0.92105,-4.74754 -0.63086,-6.77735 -1.55191,-2.0298 -4.39009,-3.43364 -8.33203,-3.43359 z"
         style="color:#000000;font-style:normal;font-variant:normal;font-weight:normal;font-stretch:normal;font-size:medium;line-height:normal;font-family:sans-serif;text-indent:0;text-align:start;text-decoration:none;text-decoration-line:none;text-decoration-style:solid;text-decoration-color:#000000;letter-spacing:normal;word-spacing:normal;text-transform:none;direction:ltr;block-progression:tb;writing-mode:lr-tb;baseline-shift:baseline;text-anchor:start;white-space:normal;clip-rule:nonzero;display:inline;overflow:visible;visibility:visible;opacity:1;isolation:auto;mix-blend-mode:normal;color-interpolation:sRGB;color-interpolation-filters:linearRGB;solid-color:#000000;solid-opacity:1;fill:#000000;fill-opacity:1;fill-rule:evenodd;stroke:none;stroke-width:2;stroke-linecap:butt;stroke-linejoin:miter;stroke-miterlimit:4;stroke-dasharray:none;stroke-dashoffset:0;stroke-opacity:1;color-rendering:auto;image-rendering:auto;shape-rendering:auto;text-rendering:auto;enable-background:accumulate" />
      <path
         sodipodi:nodetypes="ccccccccccccccccsccccccccccccccccccccccccccccccc"
         inkscape:connector-curvature="0"
         d="m 496.81995,859.87777 c -0.14366,-1.11363 -0.38334,-2.22702 -0.86104,-3.24869 -0.4475,-0.9236 -1.03795,-1.77931 -1.7816,-2.48997 -0.7193,-0.74008 -1.57048,-1.3452 -2.47987,-1.82965 -0.98128,-0.50299 -2.08507,-0.75019 -3.18605,-0.7485 -0.27857,-0.0152 -0.55712,0.007 -0.83568,0.0115 -1.67686,0.28554 -3.27374,0.8923 -4.90209,1.36513 -1.1498,0.34211 -2.31207,0.71575 -3.52164,0.74737 -0.75619,0.0613 -1.51863,-0.0952 -2.22846,-0.21617 l -0.42774,1.39648 c 0.94444,0.30993 1.9085,0.58774 2.90414,0.66202 0.98404,0.0547 1.96164,-0.12233 2.91035,-0.37007 1.53394,-0.44526 3.06767,-0.89131 4.60153,-1.33687 0.94914,-0.12705 1.93292,-0.23173 2.8725,0.0137 1.00913,0.24337 1.88495,0.85041 2.67592,1.50038 1.68576,1.44268 2.24991,3.2792 2.41618,5.28813 0.0898,1.14607 0.0226,2.30509 -0.015,3.45248 -0.032,0.97855 -0.18431,1.95815 -0.49,2.88999 -0.28979,0.9651 -0.74215,1.88549 -1.35292,2.68826 -0.63306,0.85162 -1.51074,1.51359 -2.50315,1.88893 -0.95921,0.3739 -1.99674,0.48219 -3.01657,0.55089 -0.99156,0.033 -1.99182,-0.0402 -2.95898,-0.26775 -0.94696,-0.23239 -1.9032,-0.53447 -2.71275,-1.09318 -0.8553,-0.57503 -1.52062,-1.43162 -1.83523,-2.41578 -0.38976,-1.2207 -0.13355,-2.60129 0.60569,-3.63845 0.54022,-0.76838 1.37702,-1.311 2.29053,-1.51867 1.17953,-0.2611 2.40261,-0.25857 3.59987,-0.13584 0.94399,0.097 1.95167,0.41692 2.50781,1.24218 0.56564,0.77713 0.28968,1.75682 -0.043,2.5625 0.20443,0.0503 0.33525,0.22432 0.48632,0.35547 0.69974,-0.72365 1.13639,-1.76417 0.93693,-2.77572 -0.17726,-1.04363 -0.93165,-1.92898 -1.87833,-2.37467 -0.89441,-0.43432 -1.86757,-0.70307 -2.85135,-0.83447 -1.06497,-0.11982 -2.15912,-0.0714 -3.19563,0.21244 -0.93737,0.25238 -1.87781,0.62108 -2.60753,1.2796 -0.73678,0.65249 -1.26758,1.50957 -1.63456,2.41665 -0.32192,0.9253 -0.43101,1.92387 -0.29948,2.89555 0.11424,0.85533 0.42706,1.67874 0.89128,2.40523 0.54341,0.8278 1.27006,1.52157 2.0957,2.06445 0.9661,0.6322 2.04971,1.07474 3.18064,1.3062 1.12364,0.24551 2.28018,0.33792 3.42883,0.30036 0.9197,-0.0296 1.84078,-0.15367 2.72308,-0.41935 0.96701,-0.27292 1.87372,-0.72955 2.70456,-1.29072 0.85532,-0.63888 1.6098,-1.41563 2.18272,-2.31875 0.62222,-0.96508 1.05329,-2.04523 1.31574,-3.16147 0.38472,-1.57005 0.39886,-3.1983 0.41838,-4.80567 0.005,-0.73629 -0.0353,-1.47379 -0.13008,-2.20548 z"
         style="color:#000000;font-style:normal;font-variant:normal;font-weight:normal;font-stretch:normal;font-size:medium;line-height:normal;font-family:sans-serif;text-indent:0;text-align:start;text-decoration:none;text-decoration-line:none;text-decoration-style:solid;text-decoration-color:#000000;letter-spacing:normal;word-spacing:normal;text-transform:none;direction:ltr;block-progression:tb;writing-mode:lr-tb;baseline-shift:baseline;text-anchor:start;white-space:normal;clip-rule:nonzero;display:inline;overflow:visible;visibility:visible;opacity:1;isolation:auto;mix-blend-mode:normal;color-interpolation:sRGB;color-interpolation-filters:linearRGB;solid-color:#000000;solid-opacity:1;fill:#000000;fill-opacity:1;fill-rule:evenodd;stroke:none;stroke-width:0.1;stroke-linecap:butt;stroke-linejoin:miter;stroke-miterlimit:4;stroke-dasharray:none;stroke-dashoffset:0;stroke-opacity:1;color-rendering:auto;image-rendering:auto;shape-rendering:auto;text-rendering:auto;enable-background:accumulate"
         id="path6320-0-4" />
      <path
         sodipodi:nodetypes="cccscscccccccsscsscccsssssccssssscscc"
         inkscape:connector-curvature="0"
         id="path6521"
         d="m 513.53516,850.20898 -0.0156,0.002 -0.0176,0 c -2.49929,0.10526 -4.60168,1.27014 -5.96289,3.20312 -0.59182,0.84041 -0.99296,1.86855 -1.32422,2.95703 -0.21487,-0.64462 -0.43407,-1.29941 -0.73632,-1.83789 -0.55569,-0.99001 -1.75847,-1.71866 -2.59766,-1.90738 l -0.29901,1.05745 c 1.5571,0.96945 1.91177,3.26378 2.24627,4.72103 0.53771,2.38651 0.7543,5.40985 0.8086,8.11132 0.0771,3.83903 -0.16016,7.02149 -0.16016,7.02149 l 1.9961,0.14844 c 0,0 0.24331,-3.26759 0.16406,-7.21094 -0.0557,-2.21331 -0.18778,-5.23755 -0.11962,-6.68695 0.0715,-1.52114 0.619,-3.74504 1.65861,-5.22134 1.03696,-1.47254 2.44601,-2.26695 4.39453,-2.35352 1.63143,-0.0111 3.02345,0.69455 4.10157,2.80273 1.08182,2.11545 1.70602,5.70567 1.26367,11.10547 -0.17553,2.14275 -0.51621,4.56903 -1.05078,7.29883 l 1.96289,0.38477 c 0.54676,-2.79204 0.89937,-5.28978 1.08203,-7.51953 0.44386,-5.42944 1.44206,-8.91386 2.60351,-10.91602 1.16146,-2.00216 2.32165,-2.52829 3.55078,-2.48828 1.23774,0.0403 2.33376,0.49155 3.28907,1.77734 0.95531,1.2858 1.73396,3.48938 1.93554,6.9668 0.17986,3.10261 -0.24197,5.35922 -0.54492,7.39062 -0.30295,2.03141 -0.57988,3.92995 0.16184,5.97974 l 2.51705,-0.9977 c -0.93987,-1.47492 -0.99474,-2.71325 -0.70037,-4.68711 0.29437,-1.97386 0.7562,-4.45927 0.5625,-7.80078 -0.21571,-3.72121 -1.03801,-6.31113 -2.32617,-8.04493 -1.28817,-1.73379 -3.07792,-2.52699 -4.82813,-2.58398 -1.95955,-0.0638 -3.93918,1.05639 -5.34766,3.48437 -0.51264,0.88372 -0.90471,2.15815 -1.30273,3.41407 -0.27629,-1.34698 -0.55055,-2.70144 -1.04883,-3.67578 -1.34809,-2.63611 -3.59607,-3.91727 -5.91601,-3.89454 z"
         style="color:#000000;font-style:normal;font-variant:normal;font-weight:normal;font-stretch:normal;font-size:medium;line-height:normal;font-family:sans-serif;text-indent:0;text-align:start;text-decoration:none;text-decoration-line:none;text-decoration-style:solid;text-decoration-color:#000000;letter-spacing:normal;word-spacing:normal;text-transform:none;direction:ltr;block-progression:tb;writing-mode:lr-tb;baseline-shift:baseline;text-anchor:start;white-space:normal;clip-rule:nonzero;display:inline;overflow:visible;visibility:visible;opacity:1;isolation:auto;mix-blend-mode:normal;color-interpolation:sRGB;color-interpolation-filters:linearRGB;solid-color:#000000;solid-opacity:1;fill:#000000;fill-opacity:1;fill-rule:evenodd;stroke:none;stroke-width:2;stroke-linecap:butt;stroke-linejoin:miter;stroke-miterlimit:4;stroke-dasharray:none;stroke-dashoffset:0;stroke-opacity:1;color-rendering:auto;image-rendering:auto;shape-rendering:auto;text-rendering:auto;enable-background:accumulate" />
      <path
         style="color:#000000;font-style:normal;font-variant:normal;font-weight:normal;font-stretch:normal;font-size:medium;line-height:normal;font-family:sans-serif;text-indent:0;text-align:start;text-decoration:none;text-decoration-line:none;text-decoration-style:solid;text-decoration-color:#000000;letter-spacing:normal;word-spacing:normal;text-transform:none;direction:ltr;block-progression:tb;writing-mode:lr-tb;baseline-shift:baseline;text-anchor:start;white-space:normal;clip-rule:nonzero;display:inline;overflow:visible;visibility:visible;opacity:1;isolation:auto;mix-blend-mode:normal;color-interpolation:sRGB;color-interpolation-filters:linearRGB;solid-color:#000000;solid-opacity:1;fill:#000000;fill-opacity:1;fill-rule:evenodd;stroke:none;stroke-width:2;stroke-linecap:butt;stroke-linejoin:miter;stroke-miterlimit:4;stroke-dasharray:none;stroke-dashoffset:0;stroke-opacity:1;color-rendering:auto;image-rendering:auto;shape-rendering:auto;text-rendering:auto;enable-background:accumulate"
         d="m 549.66992,855.81055 c -1.08449,0.0305 -2.14469,0.29075 -3.11328,0.82617 -1.93718,1.07084 -3.37829,3.21506 -3.89062,6.36523 -0.12048,0.74055 -0.16739,1.63137 -0.18164,2.61524 -0.038,2.62115 0.16796,6.10593 0.16796,7.99414 l 2,0 c 0,-2.02774 -0.20408,-5.47688 -0.16796,-7.96485 l 0,-0.002 c 0.0135,-0.93445 0.0632,-1.76046 0.15429,-2.32031 0.44266,-2.72174 1.55201,-4.19882 2.88477,-4.93555 1.33275,-0.73673 3.01344,-0.7614 4.7207,-0.14453 3.41452,1.23373 6.65573,5.00675 6.37109,9.66992 -0.13259,2.17222 -1.03187,3.5132 -2.23437,4.3418 -1.2025,0.8286 -2.7667,1.10556 -4.15039,0.87109 -1.38369,-0.23446 -2.52332,-0.95515 -3.05274,-1.98828 -0.52941,-1.03313 -0.5111,-3.8553 0.0703,-4.86224 l -0.61751,-0.40808 c -1.489,1.71517 -1.7536,4.20803 -0.95458,5.96289 0.79952,1.75594 2.34755,2.95099 4.22058,3.26837 1.87304,0.31738 3.93536,-0.037 5.61914,-1.19727 1.68379,-1.16024 2.93086,-3.16648 3.09571,-5.86718 0.34383,-5.63297 -3.44194,-10.13787 -7.6875,-11.67188 -1.06139,-0.3835 -2.16942,-0.58325 -3.25391,-0.55273 z"
         id="path6291-7"
         inkscape:connector-curvature="0"
         sodipodi:nodetypes="cscccccccssssssccsscsscc" />
      <path
         style="color:#000000;font-style:normal;font-variant:normal;font-weight:normal;font-stretch:normal;font-size:medium;line-height:normal;font-family:sans-serif;text-indent:0;text-align:start;text-decoration:none;text-decoration-line:none;text-decoration-style:solid;text-decoration-color:#000000;letter-spacing:normal;word-spacing:normal;text-transform:none;direction:ltr;block-progression:tb;writing-mode:lr-tb;baseline-shift:baseline;text-anchor:start;white-space:normal;clip-rule:nonzero;display:inline;overflow:visible;visibility:visible;opacity:1;isolation:auto;mix-blend-mode:normal;color-interpolation:sRGB;color-interpolation-filters:linearRGB;solid-color:#000000;solid-opacity:1;fill:#000000;fill-opacity:1;fill-rule:evenodd;stroke:none;stroke-width:2;stroke-linecap:butt;stroke-linejoin:miter;stroke-miterlimit:4;stroke-dasharray:none;stroke-dashoffset:0;stroke-opacity:1;color-rendering:auto;image-rendering:auto;shape-rendering:auto;text-rendering:auto;enable-background:accumulate"
         d="m 540.85995,843.3757 c 0.31219,2.1634 0.48416,4.24616 0.64487,6.41695 0.39169,5.29076 0.77407,10.60144 0.98346,15.92219 l 1.99805,-0.0781 c -0.21303,-5.41314 -0.60151,-10.7959 -0.99686,-16.13745 -0.15714,-2.12303 -0.20246,-4.71939 0.044,-6.37711 z"
         id="path6289-1"
         inkscape:connector-curvature="0"
         sodipodi:nodetypes="csccscc" />
      <path
         sodipodi:nodetypes="sscsccsssssssssssccsssss"
         inkscape:connector-curvature="0"
         id="path6299-7"
         d="m 578.03269,853.0386 c -0.63341,0.72993 -1.03045,1.63038 -1.38538,2.52111 -0.26785,0.67219 -0.50434,1.35627 -0.74106,2.0399 0,0 -0.29756,-3.1211 -0.27734,-4.68555 0.005,-0.41422 0.10547,-1.23828 0.10547,-1.23828 l -2.7793,1.0625 c 0.52215,0.95549 0.852,2.01312 0.99804,3.08203 0.26292,1.92442 0.34537,3.87214 0.34792,5.81661 0.003,2.18737 0.0185,4.37616 -0.11072,6.56097 -0.10684,1.8068 -0.26765,3.60958 -0.41298,5.41344 l 2.28125,0 c -0.0144,-1.98666 -0.0604,-3.97475 0.0515,-5.95992 0.11445,-2.0303 0.34107,-4.05368 0.69563,-6.05639 0.41244,-2.3296 1.09469,-4.64567 2.32323,-6.679 0.51257,-0.84833 1.4833,-1.45112 2.51013,-1.31888 0.96544,0.12434 1.91594,0.68204 2.34143,1.57474 0.28375,0.59532 0.25075,1.69741 -0.54297,1.79101 -0.47461,0.056 -0.81935,-0.51274 -0.82617,-0.96094 l -0.59571,0.0234 c -0.004,1.08595 0.68755,2.38429 1.88386,2.43051 1.102,0.0426 1.88019,-1.04248 1.92083,-2.07504 0.0454,-1.15287 -0.38359,-2.30166 -1.11914,-3.17969 -0.65059,-0.77661 -1.57155,-1.27922 -2.56701,-1.47555 -1.53639,-0.30302 -3.16116,0.22939 -4.10151,1.31302 z"
         style="color:#000000;font-style:normal;font-variant:normal;font-weight:normal;font-stretch:normal;font-size:medium;line-height:normal;font-family:sans-serif;text-indent:0;text-align:start;text-decoration:none;text-decoration-line:none;text-decoration-style:solid;text-decoration-color:#000000;letter-spacing:normal;word-spacing:normal;text-transform:none;direction:ltr;block-progression:tb;writing-mode:lr-tb;baseline-shift:baseline;text-anchor:start;white-space:normal;clip-rule:nonzero;display:inline;overflow:visible;visibility:visible;opacity:1;isolation:auto;mix-blend-mode:normal;color-interpolation:sRGB;color-interpolation-filters:linearRGB;solid-color:#000000;solid-opacity:1;fill:#000000;fill-opacity:1;fill-rule:evenodd;stroke:none;stroke-width:2;stroke-linecap:butt;stroke-linejoin:miter;stroke-miterlimit:4;stroke-dasharray:none;stroke-dashoffset:0;stroke-opacity:1;color-rendering:auto;image-rendering:auto;shape-rendering:auto;text-rendering:auto;enable-background:accumulate" />
      <path
         style="color:#000000;font-style:normal;font-variant:normal;font-weight:normal;font-stretch:normal;font-size:medium;line-height:normal;font-family:sans-serif;text-indent:0;text-align:start;text-decoration:none;text-decoration-line:none;text-decoration-style:solid;text-decoration-color:#000000;letter-spacing:normal;word-spacing:normal;text-transform:none;direction:ltr;block-progression:tb;writing-mode:lr-tb;baseline-shift:baseline;text-anchor:start;white-space:normal;clip-rule:nonzero;display:inline;overflow:visible;visibility:visible;opacity:1;isolation:auto;mix-blend-mode:normal;color-interpolation:sRGB;color-interpolation-filters:linearRGB;solid-color:#000000;solid-opacity:1;fill:#000000;fill-opacity:1;fill-rule:evenodd;stroke:none;stroke-width:2;stroke-linecap:butt;stroke-linejoin:miter;stroke-miterlimit:4;stroke-dasharray:none;stroke-dashoffset:0;stroke-opacity:1;color-rendering:auto;image-rendering:auto;shape-rendering:auto;text-rendering:auto;enable-background:accumulate"
         d="m 608.62891,842.93555 c -2.15266,7.19697 -3.29869,14.57656 -3.77344,21.9707 -0.18639,2.90287 -0.26953,5.80792 -0.26953,8.70508 l 2,0 c 0,-2.85893 0.0823,-5.72054 0.26562,-8.57617 0.46703,-7.27382 1.5925,-14.50354 3.69336,-21.52735 l -1.91601,-0.57226 z"
         id="path6289-4"
         inkscape:connector-curvature="0" />
      <path
         style="color:#000000;font-style:normal;font-variant:normal;font-weight:normal;font-stretch:normal;font-size:medium;line-height:normal;font-family:sans-serif;text-indent:0;text-align:start;text-decoration:none;text-decoration-line:none;text-decoration-style:solid;text-decoration-color:#000000;letter-spacing:normal;word-spacing:normal;text-transform:none;direction:ltr;block-progression:tb;writing-mode:lr-tb;baseline-shift:baseline;text-anchor:start;white-space:normal;clip-rule:nonzero;display:inline;overflow:visible;visibility:visible;opacity:1;isolation:auto;mix-blend-mode:normal;color-interpolation:sRGB;color-interpolation-filters:linearRGB;solid-color:#000000;solid-opacity:1;fill:#000000;fill-opacity:1;fill-rule:evenodd;stroke:none;stroke-width:2;stroke-linecap:butt;stroke-linejoin:miter;stroke-miterlimit:4;stroke-dasharray:none;stroke-dashoffset:0;stroke-opacity:1;color-rendering:auto;image-rendering:auto;shape-rendering:auto;text-rendering:auto;enable-background:accumulate"
         d="m 596.06029,865.99206 c 0.20482,-0.10217 0.42004,-0.1724 0.58666,-0.21341 0.75852,-0.18667 1.48464,0.0842 1.8437,0.34775 0.40683,0.29863 0.79248,0.9917 0.6172,1.92065 -0.47277,2.50571 -2.48684,3.99046 -4.29926,4.14633 -1.81242,0.15587 -3.58063,-0.75984 -4.23047,-2.7793 -0.57938,-1.80052 -0.31088,-3.4548 0.50196,-4.95703 0.81283,-1.50223 2.19973,-2.82037 3.80273,-3.72656 1.603,-0.90619 3.41278,-1.39175 4.9961,-1.32422 1.58331,0.0675 2.90645,0.63559 3.83203,1.86914 0.61388,0.82852 1.23327,1.7709 1.14844,3.65039 l 1.99804,0.0918 c 0.10859,-2.40586 -0.84272,-3.99029 -1.54492,-4.9375 l 0,-0.004 -0.002,-0.002 c -1.31428,-1.75159 -3.30474,-2.57888 -5.34766,-2.66602 l 5e-5,10e-5 c -2.04292,-0.0871 -4.17397,0.51333 -6.06445,1.58203 -1.89048,1.06871 -3.54935,2.61432 -4.57813,4.51563 -1.02877,1.90131 -1.39649,4.19073 -0.64648,6.52148 0.93079,2.89257 3.66606,4.3853 6.30664,4.15821 2.64057,-0.2271 5.23687,-2.19156 6.00586,-5.6875 0.18988,-0.86323 0.17303,-2.04853 -0.57196,-3.15461 -0.37249,-0.55304 -0.91559,-1.00636 -1.7096,-1.13223 -0.62925,-0.0997 -1.87341,0.006 -2.59452,0.66312 -0.23441,0.21369 -0.47308,0.48877 -0.60157,0.73731 z"
         id="path6291-1"
         inkscape:connector-curvature="0"
         sodipodi:nodetypes="cssssssscccccccccsssssssscc" />
      <path
         inkscape:connector-curvature="0"
         d="m 563.17196,847.41356 c -1.0854,0.30612 -1.06648,2.14287 -0.0337,2.6214 0.75861,0.47054 1.94873,-0.0679 1.93022,-1.01074 0.0739,-0.89271 -0.98967,-1.87179 -1.89655,-1.61066 z m 2.55509,5.62286 -1.11719,0.42888 c 0.59325,2.81309 0.87577,6.3075 0.95351,8.55813 0.13839,4.00644 -0.10078,7.44139 -0.55118,11.58875 l 2.80725,0 c 0.13677,-3.95054 -0.0373,-8.10046 -0.41467,-11.64746 -0.42263,-3.97251 -1.28282,-7.89782 -1.67772,-8.9283 z"
         style="opacity:1;fill:#000000;fill-opacity:1;fill-rule:nonzero;stroke:#009800;stroke-width:0;stroke-linejoin:bevel;stroke-miterlimit:4;stroke-dasharray:none;stroke-opacity:1"
         id="path6625" />
    </g>
  </g>
</svg>
