<?xml version="1.0" encoding="UTF-8" standalone="no"?>
<svg
   xmlns:dc="http://purl.org/dc/elements/1.1/"
   xmlns:cc="http://creativecommons.org/ns#"
   xmlns:rdf="http://www.w3.org/1999/02/22-rdf-syntax-ns#"
   xmlns:svg="http://www.w3.org/2000/svg"
   xmlns="http://www.w3.org/2000/svg"
   xmlns:sodipodi="http://sodipodi.sourceforge.net/DTD/sodipodi-0.dtd"
   xmlns:inkscape="http://www.inkscape.org/namespaces/inkscape"
   version="1.1"
   width="203.2mm"
   height="297mm"
   viewBox="0 0 203.2 297.00002"
   id="svg18857"
   inkscape:version="0.91 r13725"
   sodipodi:docname="8inx297mm_Portrait_empty.svg">
  <metadata
     id="metadata18878">
    <rdf:RDF>
      <cc:Work
         rdf:about="">
        <dc:format>image/svg+xml</dc:format>
        <dc:type
           rdf:resource="http://purl.org/dc/dcmitype/StillImage" />
        <dc:title></dc:title>
      </cc:Work>
    </rdf:RDF>
  </metadata>
  <sodipodi:namedview
     pagecolor="#ffffff"
     bordercolor="#666666"
     borderopacity="1"
     objecttolerance="10"
     gridtolerance="10"
     guidetolerance="10"
     inkscape:pageopacity="0"
     inkscape:pageshadow="2"
     inkscape:window-width="1920"
     inkscape:window-height="1080"
     id="namedview18876"
     showgrid="false"
     inkscape:zoom="0.63429568"
     inkscape:cx="372.04724"
     inkscape:cy="529.94964"
     inkscape:window-x="0"
     inkscape:window-y="0"
     inkscape:window-maximized="0"
     inkscape:current-layer="svg18857"
     units="mm" />
  <!-- Working space 0 0 203.2 297 -->
<g id="ViewEdge" transform="rotate(0.0,0.0,0.0) translate(0.0,0.0) scale(1.0,-1.0)"><path id="Edge_nwe0000"  d="M 188.999 -14.1 L 202.999 -14.1 " stroke="#191919" stroke-width="0.35 px" style="stroke-width:0.35;stroke-miterlimit:4;stroke-dasharray:none;fill:none;fill-rule: evenodd "/>
</g>


<g id="ViewEdge001" transform="rotate(0.0,0.0,0.0) translate(0.0,0.0) scale(1.0,-1.0)"><path id="Edge001_nwe0000"  d="M 202.999 -14.1 A 7.42462120246 7.42462120246 0 0 1 188.999 -14.1 " stroke="#191919" stroke-width="0.35 px" style="stroke-width:0.35;stroke-miterlimit:4;stroke-dasharray:none;fill:none;fill-rule: evenodd "/>
</g>


<g id="ViewEdge002" transform="rotate(0.0,0.0,0.0) translate(0.0,0.0) scale(1.0,-1.0)"><path id="Edge002_nwe0000"  d="M 188.999 -14.1 L 35.101 -14.1 " stroke="#191919" stroke-width="0.35 px" style="stroke-width:0.35;stroke-miterlimit:4;stroke-dasharray:none;fill:none;fill-rule: evenodd "/>
</g>


<g id="ViewEdge003" transform="rotate(0.0,0.0,0.0) translate(0.0,0.0) scale(1.0,-1.0)"><path id="Edge003_nwe0000"  d="M 35.101 -14.1 L 35.101 -0.1 " stroke="#191919" stroke-width="0.35 px" style="stroke-width:0.35;stroke-miterlimit:4;stroke-dasharray:none;fill:none;fill-rule: evenodd "/>
</g>


<g id="ViewEdge004" transform="rotate(0.0,0.0,0.0) translate(0.0,0.0) scale(1.0,-1.0)"><path id="Edge004_nwe0000"  d="M 35.101 -0.1 L 62.101 -0.1 " stroke="#191919" stroke-width="0.35 px" style="stroke-width:0.35;stroke-miterlimit:4;stroke-dasharray:none;fill:none;fill-rule: evenodd "/>
</g>


<g id="ViewEdge005" transform="rotate(0.0,0.0,0.0) translate(0.0,0.0) scale(1.0,-1.0)"><path id="Edge005_nwe0000"  d="M 62.101 -0.1 L 66.101 -4.1 " stroke="#191919" stroke-width="0.35 px" style="stroke-width:0.35;stroke-miterlimit:4;stroke-dasharray:none;fill:none;fill-rule: evenodd "/>
</g>


<g id="ViewEdge006" transform="rotate(0.0,0.0,0.0) translate(0.0,0.0) scale(1.0,-1.0)"><path id="Edge006_nwe0000"  d="M 62.101 -0.1 L 100.733666667 -0.1 " stroke="#191919" stroke-width="0.35 px" style="stroke-width:0.35;stroke-miterlimit:4;stroke-dasharray:none;fill:none;fill-rule: evenodd "/>
</g>


<g id="ViewEdge007" transform="rotate(0.0,0.0,0.0) translate(0.0,0.0) scale(1.0,-1.0)"><path id="Edge007_nwe0000"  d="M 100.733666667 -0.1 L 96.7336666667 -4.1 " stroke="#191919" stroke-width="0.35 px" style="stroke-width:0.35;stroke-miterlimit:4;stroke-dasharray:none;fill:none;fill-rule: evenodd "/>
</g>


<g id="ViewEdge008" transform="rotate(0.0,0.0,0.0) translate(0.0,0.0) scale(1.0,-1.0)"><path id="Edge008_nwe0000"  d="M 100.733666667 -0.1 L 123.366333333 -0.1 " stroke="#191919" stroke-width="0.35 px" style="stroke-width:0.35;stroke-miterlimit:4;stroke-dasharray:none;fill:none;fill-rule: evenodd "/>
</g>


<g id="ViewEdge009" transform="rotate(0.0,0.0,0.0) translate(0.0,0.0) scale(1.0,-1.0)"><path id="Edge009_nwe0000"  d="M 123.366333333 -0.1 L 127.366333333 -4.1 " stroke="#191919" stroke-width="0.35 px" style="stroke-width:0.35;stroke-miterlimit:4;stroke-dasharray:none;fill:none;fill-rule: evenodd "/>
</g>


<g id="ViewEdge010" transform="rotate(0.0,0.0,0.0) translate(0.0,0.0) scale(1.0,-1.0)"><path id="Edge010_nwe0000"  d="M 123.366333333 -0.1 L 161.999 -0.1 " stroke="#191919" stroke-width="0.35 px" style="stroke-width:0.35;stroke-miterlimit:4;stroke-dasharray:none;fill:none;fill-rule: evenodd "/>
</g>


<g id="ViewEdge011" transform="rotate(0.0,0.0,0.0) translate(0.0,0.0) scale(1.0,-1.0)"><path id="Edge011_nwe0000"  d="M 157.999 -4.1 L 161.999 -0.1 " stroke="#191919" stroke-width="0.35 px" style="stroke-width:0.35;stroke-miterlimit:4;stroke-dasharray:none;fill:none;fill-rule: evenodd "/>
</g>


<g id="ViewEdge012" transform="rotate(0.0,0.0,0.0) translate(0.0,0.0) scale(1.0,-1.0)"><path id="Edge012_nwe0000"  d="M 161.999 -0.1 L 188.999 -0.1 " stroke="#191919" stroke-width="0.35 px" style="stroke-width:0.35;stroke-miterlimit:4;stroke-dasharray:none;fill:none;fill-rule: evenodd "/>
</g>


<g id="ViewEdge013" transform="rotate(0.0,0.0,0.0) translate(0.0,0.0) scale(1.0,-1.0)"><path id="Edge013_nwe0000"  d="M 188.999 -0.1 L 188.999 -14.1 " stroke="#191919" stroke-width="0.35 px" style="stroke-width:0.35;stroke-miterlimit:4;stroke-dasharray:none;fill:none;fill-rule: evenodd "/>
</g>


<g id="ViewEdge014" transform="rotate(0.0,0.0,0.0) translate(0.0,0.0) scale(1.0,-1.0)"><path id="Edge014_nwe0000"  d="M 188.999 -138.5 L 188.999 -14.1 " stroke="#191919" stroke-width="0.35 px" style="stroke-width:0.35;stroke-miterlimit:4;stroke-dasharray:none;fill:none;fill-rule: evenodd "/>
</g>


<g id="ViewEdge015" transform="rotate(0.0,0.0,0.0) translate(0.0,0.0) scale(1.0,-1.0)"><path id="Edge015_nwe0000"  d="M 188.999 -138.5 L 188.999 -148.5 " stroke="#191919" stroke-width="0.35 px" style="stroke-width:0.35;stroke-miterlimit:4;stroke-dasharray:none;fill:none;fill-rule: evenodd "/>
</g>


<g id="ViewEdge016" transform="rotate(0.0,0.0,0.0) translate(0.0,0.0) scale(1.0,-1.0)"><path id="Edge016_nwe0000"  d="M 188.999 -148.5 L 188.999 -158.5 " stroke="#191919" stroke-width="0.35 px" style="stroke-width:0.35;stroke-miterlimit:4;stroke-dasharray:none;fill:none;fill-rule: evenodd "/>
</g>


<g id="ViewEdge017" transform="rotate(0.0,0.0,0.0) translate(0.0,0.0) scale(1.0,-1.0)"><path id="Edge017_nwe0000"  d="M 188.999 -158.5 L 188.999 -282.9 " stroke="#191919" stroke-width="0.35 px" style="stroke-width:0.35;stroke-miterlimit:4;stroke-dasharray:none;fill:none;fill-rule: evenodd "/>
</g>


<g id="ViewEdge018" transform="rotate(0.0,0.0,0.0) translate(0.0,0.0) scale(1.0,-1.0)"><path id="Edge018_nwe0000"  d="M 188.999 -282.9 L 35.101 -282.9 " stroke="#191919" stroke-width="0.35 px" style="stroke-width:0.35;stroke-miterlimit:4;stroke-dasharray:none;fill:none;fill-rule: evenodd "/>
</g>


<g id="ViewEdge019" transform="rotate(0.0,0.0,0.0) translate(0.0,0.0) scale(1.0,-1.0)"><path id="Edge019_nwe0000"  d="M 35.101 -158.5 L 35.101 -282.9 " stroke="#191919" stroke-width="0.35 px" style="stroke-width:0.35;stroke-miterlimit:4;stroke-dasharray:none;fill:none;fill-rule: evenodd "/>
</g>


<g id="ViewEdge020" transform="rotate(0.0,0.0,0.0) translate(0.0,0.0) scale(1.0,-1.0)"><path id="Edge020_nwe0000"  d="M 35.101 -148.5 L 35.101 -158.5 " stroke="#191919" stroke-width="0.35 px" style="stroke-width:0.35;stroke-miterlimit:4;stroke-dasharray:none;fill:none;fill-rule: evenodd "/>
</g>


<g id="ViewEdge021" transform="rotate(0.0,0.0,0.0) translate(0.0,0.0) scale(1.0,-1.0)"><path id="Edge021_nwe0000"  d="M 35.101 -138.5 L 35.101 -148.5 " stroke="#191919" stroke-width="0.35 px" style="stroke-width:0.35;stroke-miterlimit:4;stroke-dasharray:none;fill:none;fill-rule: evenodd "/>
</g>


<g id="ViewEdge022" transform="rotate(0.0,0.0,0.0) translate(0.0,0.0) scale(1.0,-1.0)"><path id="Edge022_nwe0000"  d="M 15.001 -14.1 L 15.001 -138.5 " stroke="#191919" stroke-width="0.35 px" style="stroke-width:0.35;stroke-miterlimit:4;stroke-dasharray:none;fill:none;fill-rule: evenodd "/>
</g>


<g id="ViewEdge023" transform="rotate(0.0,0.0,0.0) translate(0.0,0.0) scale(1.0,-1.0)"><path id="Edge023_nwe0000"  d="M 15.001 -14.1 L 35.001 -14.1 " stroke="#191919" stroke-width="0.35 px" style="stroke-width:0.35;stroke-miterlimit:4;stroke-dasharray:none;fill:none;fill-rule: evenodd "/>
</g>


<g id="ViewEdge024" transform="rotate(0.0,0.0,0.0) translate(0.0,0.0) scale(1.0,-1.0)"><path id="Edge024_nwe0000"  d="M 35.001 -14.1 L 35.101 -14.1 " stroke="#191919" stroke-width="0.35 px" style="stroke-width:0.35;stroke-miterlimit:4;stroke-dasharray:none;fill:none;fill-rule: evenodd "/>
</g>


<g id="ViewEdge025" transform="rotate(0.0,0.0,0.0) translate(0.0,0.0) scale(1.0,-1.0)"><path id="Edge025_nwe0000"  d="M 35.101 -138.5 L 35.101 -14.1 " stroke="#191919" stroke-width="0.35 px" style="stroke-width:0.35;stroke-miterlimit:4;stroke-dasharray:none;fill:none;fill-rule: evenodd "/>
</g>


<g id="ViewEdge026" transform="rotate(0.0,0.0,0.0) translate(0.0,0.0) scale(1.0,-1.0)"><path id="Edge026_nwe0000"  d="M 35.101 -138.5 L 15.001 -138.5 " stroke="#191919" stroke-width="0.35 px" style="stroke-width:0.35;stroke-miterlimit:4;stroke-dasharray:none;fill:none;fill-rule: evenodd "/>
</g>


<g id="ViewEdge027" transform="rotate(0.0,0.0,0.0) translate(0.0,0.0) scale(1.0,-1.0)"><path id="Edge027_nwe0000"  d="M 15.001 -138.5 A 17.8763038889 15.0 90.0 0 1 0.001 -120.623696111 " stroke="#191919" stroke-width="0.35 px" style="stroke-width:0.35;stroke-miterlimit:4;stroke-dasharray:none;fill:none;fill-rule: evenodd "/>
</g>


<g id="ViewEdge028" transform="rotate(0.0,0.0,0.0) translate(0.0,0.0) scale(1.0,-1.0)"><path id="Edge028_nwe0000"  d="M 0.001 -120.623696111 L 0.000999999999999 -31.9763038889 " stroke="#191919" stroke-width="0.35 px" style="stroke-width:0.35;stroke-miterlimit:4;stroke-dasharray:none;fill:none;fill-rule: evenodd "/>
</g>


<g id="ViewEdge029" transform="rotate(0.0,0.0,0.0) translate(0.0,0.0) scale(1.0,-1.0)"><path id="Edge029_nwe0000"  d="M 0.000999999999999 -31.9763038889 A 17.8763038889 15.0 90.0 0 1 15.001 -14.1 " stroke="#191919" stroke-width="0.35 px" style="stroke-width:0.35;stroke-miterlimit:4;stroke-dasharray:none;fill:none;fill-rule: evenodd "/>
</g>


<g id="ViewEdge030" transform="rotate(0.0,0.0,0.0) translate(0.0,0.0) scale(1.0,-1.0)"><path id="Edge030_nwe0000"  d="M 14.001 -14.1 L 15.001 -14.1 " stroke="#191919" stroke-width="0.35 px" style="stroke-width:0.35;stroke-miterlimit:4;stroke-dasharray:none;fill:none;fill-rule: evenodd "/>
</g>


<g id="ViewEdge031" transform="rotate(0.0,0.0,0.0) translate(0.0,0.0) scale(1.0,-1.0)"><path id="Edge031_nwe0000"  d="M 0.001 -0.1 L 14.001 -14.1 " stroke="#191919" stroke-width="0.35 px" style="stroke-width:0.35;stroke-miterlimit:4;stroke-dasharray:none;fill:none;fill-rule: evenodd "/>
</g>


<g id="ViewEdge032" transform="rotate(0.0,0.0,0.0) translate(0.0,0.0) scale(1.0,-1.0)"><path id="Edge032_nwe0000"  d="M 0.001 -0.1 L 35.101 -0.1 " stroke="#191919" stroke-width="0.35 px" style="stroke-width:0.35;stroke-miterlimit:4;stroke-dasharray:none;fill:none;fill-rule: evenodd "/>
</g>


<g id="ViewEdge033" transform="rotate(0.0,0.0,0.0) translate(0.0,0.0) scale(1.0,-1.0)"><path id="Edge033_nwe0000"  d="M 35.001 -14.1 L 35.001 -0.1 " stroke="#191919" stroke-width="0.35 px" style="stroke-width:0.35;stroke-miterlimit:4;stroke-dasharray:none;fill:none;fill-rule: evenodd "/>
</g>


<g id="ViewEdge034" transform="rotate(0.0,0.0,0.0) translate(0.0,0.0) scale(1.0,-1.0)"><path id="Edge034_nwe0000"  d="M 188.999 -138.5 A 7.42462120246 7.42462120246 0 0 1 202.999 -138.5 " stroke="#191919" stroke-width="0.35 px" style="stroke-width:0.35;stroke-miterlimit:4;stroke-dasharray:none;fill:none;fill-rule: evenodd "/>
</g>


<g id="ViewEdge035" transform="rotate(0.0,0.0,0.0) translate(0.0,0.0) scale(1.0,-1.0)"><path id="Edge035_nwe0000"  d="M 188.999 -282.9 A 7.42462120246 7.42462120246 0 0 1 202.999 -282.9 " stroke="#191919" stroke-width="0.35 px" style="stroke-width:0.35;stroke-miterlimit:4;stroke-dasharray:none;fill:none;fill-rule: evenodd "/>
</g>


<g id="ViewEdge036" transform="rotate(0.0,0.0,0.0) translate(0.0,0.0) scale(1.0,-1.0)"><path id="Edge036_nwe0000"  d="M 35.101 -282.9 L 35.101 -296.9 " stroke="#191919" stroke-width="0.35 px" style="stroke-width:0.35;stroke-miterlimit:4;stroke-dasharray:none;fill:none;fill-rule: evenodd "/>
</g>


<g id="ViewEdge037" transform="rotate(0.0,0.0,0.0) translate(0.0,0.0) scale(1.0,-1.0)"><path id="Edge037_nwe0000"  d="M 188.999 -296.9 L 35.101 -296.9 " stroke="#191919" stroke-width="0.35 px" style="stroke-width:0.35;stroke-miterlimit:4;stroke-dasharray:none;fill:none;fill-rule: evenodd "/>
</g>


<g id="ViewEdge038" transform="rotate(0.0,0.0,0.0) translate(0.0,0.0) scale(1.0,-1.0)"><path id="Edge038_nwe0000"  d="M 188.999 -282.9 L 188.999 -296.9 " stroke="#191919" stroke-width="0.35 px" style="stroke-width:0.35;stroke-miterlimit:4;stroke-dasharray:none;fill:none;fill-rule: evenodd "/>
</g>


<g id="ViewEdge039" transform="rotate(0.0,0.0,0.0) translate(0.0,0.0) scale(1.0,-1.0)"><path id="Edge039_nwe0000"  d="M 188.999 -282.9 L 202.999 -282.9 " stroke="#191919" stroke-width="0.35 px" style="stroke-width:0.35;stroke-miterlimit:4;stroke-dasharray:none;fill:none;fill-rule: evenodd "/>
</g>


<g id="ViewEdge040" transform="rotate(0.0,0.0,0.0) translate(0.0,0.0) scale(1.0,-1.0)"><path id="Edge040_nwe0000"  d="M 202.999 -158.5 L 202.999 -282.9 " stroke="#191919" stroke-width="0.35 px" style="stroke-width:0.35;stroke-miterlimit:4;stroke-dasharray:none;fill:none;fill-rule: evenodd "/>
</g>


<g id="ViewEdge041" transform="rotate(0.0,0.0,0.0) translate(0.0,0.0) scale(1.0,-1.0)"><path id="Edge041_nwe0000"  d="M 188.999 -158.5 L 202.999 -158.5 " stroke="#191919" stroke-width="0.35 px" style="stroke-width:0.35;stroke-miterlimit:4;stroke-dasharray:none;fill:none;fill-rule: evenodd "/>
</g>


<g id="ViewEdge042" transform="rotate(0.0,0.0,0.0) translate(0.0,0.0) scale(1.0,-1.0)"><path id="Edge042_nwe0000"  d="M 202.999 -158.5 A 7.42462120246 7.42462120246 0 0 1 188.999 -158.5 " stroke="#191919" stroke-width="0.35 px" style="stroke-width:0.35;stroke-miterlimit:4;stroke-dasharray:none;fill:none;fill-rule: evenodd "/>
</g>


<g id="ViewEdge043" transform="rotate(0.0,0.0,0.0) translate(0.0,0.0) scale(1.0,-1.0)"><path id="Edge043_nwe0000"  d="M 35.101 -158.5 L 188.999 -158.5 " stroke="#191919" stroke-width="0.35 px" style="stroke-width:0.35;stroke-miterlimit:4;stroke-dasharray:none;fill:none;fill-rule: evenodd "/>
</g>


<g id="ViewEdge044" transform="rotate(0.0,0.0,0.0) translate(0.0,0.0) scale(1.0,-1.0)"><path id="Edge044_nwe0000"  d="M 35.101 -138.5 L 188.999 -138.5 " stroke="#191919" stroke-width="0.35 px" style="stroke-width:0.35;stroke-miterlimit:4;stroke-dasharray:none;fill:none;fill-rule: evenodd "/>
</g>


<g id="ViewEdge045" transform="rotate(0.0,0.0,0.0) translate(0.0,0.0) scale(1.0,-1.0)"><path id="Edge045_nwe0000"  d="M 188.999 -138.5 L 202.999 -138.5 " stroke="#191919" stroke-width="0.35 px" style="stroke-width:0.35;stroke-miterlimit:4;stroke-dasharray:none;fill:none;fill-rule: evenodd "/>
</g>


<g id="ViewEdge046" transform="rotate(0.0,0.0,0.0) translate(0.0,0.0) scale(1.0,-1.0)"><path id="Edge046_nwe0000"  d="M 202.999 -14.1 L 202.999 -138.5 " stroke="#191919" stroke-width="0.35 px" style="stroke-width:0.35;stroke-miterlimit:4;stroke-dasharray:none;fill:none;fill-rule: evenodd "/>
</g>


<g id="ViewEdge047" transform="rotate(0.0,0.0,0.0) translate(0.0,0.0) scale(1.0,-1.0)"><path id="Edge047_nwe0000"  d="M 198.999 -41.1 L 202.999 -45.1 " stroke="#191919" stroke-width="0.35 px" style="stroke-width:0.35;stroke-miterlimit:4;stroke-dasharray:none;fill:none;fill-rule: evenodd "/>
</g>


<g id="ViewEdge048" transform="rotate(0.0,0.0,0.0) translate(0.0,0.0) scale(1.0,-1.0)"><path id="Edge048_nwe0000"  d="M 198.999 -64.5666666667 L 202.999 -60.5666666667 " stroke="#191919" stroke-width="0.35 px" style="stroke-width:0.35;stroke-miterlimit:4;stroke-dasharray:none;fill:none;fill-rule: evenodd "/>
</g>


<g id="ViewEdge049" transform="rotate(0.0,0.0,0.0) translate(0.0,0.0) scale(1.0,-1.0)"><path id="Edge049_nwe0000"  d="M 202.999 -181.5 L 198.999 -185.5 " stroke="#191919" stroke-width="0.35 px" style="stroke-width:0.35;stroke-miterlimit:4;stroke-dasharray:none;fill:none;fill-rule: evenodd "/>
</g>


<g id="ViewEdge050" transform="rotate(0.0,0.0,0.0) translate(0.0,0.0) scale(1.0,-1.0)"><path id="Edge050_nwe0000"  d="M 198.999 -208.966666667 L 202.999 -212.966666667 " stroke="#191919" stroke-width="0.35 px" style="stroke-width:0.35;stroke-miterlimit:4;stroke-dasharray:none;fill:none;fill-rule: evenodd "/>
</g>


<g id="ViewEdge051" transform="rotate(0.0,0.0,0.0) translate(0.0,0.0) scale(1.0,-1.0)"><path id="Edge051_nwe0000"  d="M 202.999 -228.433333333 L 198.999 -232.433333333 " stroke="#191919" stroke-width="0.35 px" style="stroke-width:0.35;stroke-miterlimit:4;stroke-dasharray:none;fill:none;fill-rule: evenodd "/>
</g>


<g id="ViewEdge052" transform="rotate(0.0,0.0,0.0) translate(0.0,0.0) scale(1.0,-1.0)"><path id="Edge052_nwe0000"  d="M 198.999 -255.9 L 202.999 -259.9 " stroke="#191919" stroke-width="0.35 px" style="stroke-width:0.35;stroke-miterlimit:4;stroke-dasharray:none;fill:none;fill-rule: evenodd "/>
</g>


<g id="ViewEdge053" transform="rotate(0.0,0.0,0.0) translate(0.0,0.0) scale(1.0,-1.0)"><path id="Edge053_nwe0000"  d="M 198.999 -88.0333333333 L 202.999 -92.0333333333 " stroke="#191919" stroke-width="0.35 px" style="stroke-width:0.35;stroke-miterlimit:4;stroke-dasharray:none;fill:none;fill-rule: evenodd "/>
</g>


<g id="ViewEdge054" transform="rotate(0.0,0.0,0.0) translate(0.0,0.0) scale(1.0,-1.0)"><path id="Edge054_nwe0000"  d="M 202.999 -107.5 L 198.999 -111.5 " stroke="#191919" stroke-width="0.35 px" style="stroke-width:0.35;stroke-miterlimit:4;stroke-dasharray:none;fill:none;fill-rule: evenodd "/>
</g>


<g id="ViewEdge055" transform="rotate(0.0,0.0,0.0) translate(0.0,0.0) scale(1.0,-1.0)"><path id="Edge055_nwe0000"  d="M 131.366333333 -296.9 L 127.366333333 -292.9 " stroke="#191919" stroke-width="0.35 px" style="stroke-width:0.35;stroke-miterlimit:4;stroke-dasharray:none;fill:none;fill-rule: evenodd "/>
</g>


<g id="ViewEdge056" transform="rotate(0.0,0.0,0.0) translate(0.0,0.0) scale(1.0,-1.0)"><path id="Edge056_nwe0000"  d="M 92.7336666667 -296.9 L 96.7336666667 -292.9 " stroke="#191919" stroke-width="0.35 px" style="stroke-width:0.35;stroke-miterlimit:4;stroke-dasharray:none;fill:none;fill-rule: evenodd "/>
</g>


<g id="ViewEdge057" transform="rotate(0.0,0.0,0.0) translate(0.0,0.0) scale(1.0,-1.0)"><path id="Edge057_nwe0000"  d="M 70.101 -296.9 L 66.101 -292.9 " stroke="#191919" stroke-width="0.35 px" style="stroke-width:0.35;stroke-miterlimit:4;stroke-dasharray:none;fill:none;fill-rule: evenodd "/>
</g>


<g id="ViewEdge058" transform="rotate(0.0,0.0,0.0) translate(0.0,0.0) scale(1.0,-1.0)"><path id="Edge058_nwe0000"  d="M 153.999 -296.9 L 157.999 -292.9 " stroke="#191919" stroke-width="0.35 px" style="stroke-width:0.35;stroke-miterlimit:4;stroke-dasharray:none;fill:none;fill-rule: evenodd "/>
</g>


<g id="ViewEdge059" transform="rotate(0.0,0.0,0.0) translate(0.0,0.0) scale(1.0,-1.0)"><path id="Edge059_nwe0000"  d="M 44.9917334006 -174.008103915 A 2.91698217536 2.91698217536 0 0 1 44.9917334006 -168.525970664 " stroke="#191919" stroke-width="0.35 px" style="stroke-width:0.35;stroke-miterlimit:4;stroke-dasharray:none;fill:none;fill-rule: evenodd "/>
</g>


<g id="ViewEdge060" transform="rotate(0.0,0.0,0.0) translate(0.0,0.0) scale(1.0,-1.0)"><path id="Edge060_nwe0000"  d="M 44.9917334006 -174.008103915 A 5.83396435072 5.83396435072 0 1 1 52.4691999743 -181.485570488 " stroke="#191919" stroke-width="0.35 px" style="stroke-width:0.35;stroke-miterlimit:4;stroke-dasharray:none;fill:none;fill-rule: evenodd "/>
</g>


<g id="ViewEdge061" transform="rotate(0.0,0.0,0.0) translate(0.0,0.0) scale(1.0,-1.0)"><path id="Edge061_nwe0000"  d="M 57.9513332246 -181.485570488 A 2.91698217536 2.91698217536 0 0 1 52.4691999743 -181.485570488 " stroke="#191919" stroke-width="0.35 px" style="stroke-width:0.35;stroke-miterlimit:4;stroke-dasharray:none;fill:none;fill-rule: evenodd "/>
</g>


<g id="ViewEdge062" transform="rotate(0.0,0.0,0.0) translate(0.0,0.0) scale(1.0,-1.0)"><path id="Edge062_nwe0000"  d="M 112.05 -282.9 L 112.05 -220.7 " stroke="#191919" stroke-width="0.35 px" style="stroke-width:0.35;stroke-miterlimit:4;stroke-dasharray:none;fill:none;fill-rule: evenodd "/>
</g>


<g id="ViewEdge063" transform="rotate(0.0,0.0,0.0) translate(0.0,0.0) scale(1.0,-1.0)"><path id="Edge063_nwe0000"  d="M 52.4691999743 -259.914429512 A 2.91698217536 2.91698217536 0 0 1 57.9513332246 -259.914429512 " stroke="#191919" stroke-width="0.35 px" style="stroke-width:0.35;stroke-miterlimit:4;stroke-dasharray:none;fill:none;fill-rule: evenodd "/>
</g>


<g id="ViewEdge064" transform="rotate(0.0,0.0,0.0) translate(0.0,0.0) scale(1.0,-1.0)"><path id="Edge064_nwe0000"  d="M 52.4691999743 -259.914429512 A 5.83396435072 5.83396435072 0 1 1 44.9917334006 -267.391896085 " stroke="#191919" stroke-width="0.35 px" style="stroke-width:0.35;stroke-miterlimit:4;stroke-dasharray:none;fill:none;fill-rule: evenodd "/>
</g>


<g id="ViewEdge065" transform="rotate(0.0,0.0,0.0) translate(0.0,0.0) scale(1.0,-1.0)"><path id="Edge065_nwe0000"  d="M 44.9917334006 -272.874029336 A 2.91698217536 2.91698217536 0 0 1 44.9917334006 -267.391896085 " stroke="#191919" stroke-width="0.35 px" style="stroke-width:0.35;stroke-miterlimit:4;stroke-dasharray:none;fill:none;fill-rule: evenodd "/>
</g>


<g id="ViewEdge066" transform="rotate(0.0,0.0,0.0) translate(0.0,0.0) scale(1.0,-1.0)"><path id="Edge066_nwe0000"  d="M 48.1627732017 -215.41263268 A 2.91698217536 2.91698217536 0 0 1 52.0392267983 -211.536179083 " stroke="#191919" stroke-width="0.35 px" style="stroke-width:0.35;stroke-miterlimit:4;stroke-dasharray:none;fill:none;fill-rule: evenodd "/>
</g>


<g id="ViewEdge067" transform="rotate(0.0,0.0,0.0) translate(0.0,0.0) scale(1.0,-1.0)"><path id="Edge067_nwe0000"  d="M 48.1627732017 -215.41263268 A 5.83396435072 5.83396435072 0 1 1 48.1627732017 -225.98736732 " stroke="#191919" stroke-width="0.35 px" style="stroke-width:0.35;stroke-miterlimit:4;stroke-dasharray:none;fill:none;fill-rule: evenodd "/>
</g>


<g id="ViewEdge068" transform="rotate(0.0,0.0,0.0) translate(0.0,0.0) scale(1.0,-1.0)"><path id="Edge068_nwe0000"  d="M 52.0392267983 -229.863820917 A 2.91698217536 2.91698217536 0 0 1 48.1627732017 -225.98736732 " stroke="#191919" stroke-width="0.35 px" style="stroke-width:0.35;stroke-miterlimit:4;stroke-dasharray:none;fill:none;fill-rule: evenodd "/>
</g>


<g id="ViewEdge069" transform="rotate(0.0,0.0,0.0) translate(0.0,0.0) scale(1.0,-1.0)"><path id="Edge069_nwe0000"  d="M 112.05 -76.3 L 112.05 -14.1 " stroke="#191919" stroke-width="0.35 px" style="stroke-width:0.35;stroke-miterlimit:4;stroke-dasharray:none;fill:none;fill-rule: evenodd "/>
</g>


</svg>

