<?xml version="1.0" encoding="UTF-8" standalone="no"?>
<svg
   xmlns:dc="http://purl.org/dc/elements/1.1/"
   xmlns:cc="http://creativecommons.org/ns#"
   xmlns:rdf="http://www.w3.org/1999/02/22-rdf-syntax-ns#"
   xmlns:svg="http://www.w3.org/2000/svg"
   xmlns="http://www.w3.org/2000/svg"
   xmlns:sodipodi="http://sodipodi.sourceforge.net/DTD/sodipodi-0.dtd"
   xmlns:inkscape="http://www.inkscape.org/namespaces/inkscape"
   version="1.1"
   width="203.2mm"
   height="297mm"
   viewBox="0 0 203.2 297.00002"
   id="svg18857"
   inkscape:version="0.91 r13725"
   sodipodi:docname="box13-freecad-8x297-19mm_thick-3mm_tabs.svg">
  <defs
     id="defs13624" />
  <metadata
     id="metadata18878">
    <rdf:RDF>
      <cc:Work
         rdf:about="">
        <dc:format>image/svg+xml</dc:format>
        <dc:type
           rdf:resource="http://purl.org/dc/dcmitype/StillImage" />
        <dc:title />
      </cc:Work>
    </rdf:RDF>
  </metadata>
  <sodipodi:namedview
     pagecolor="#ffffff"
     bordercolor="#666666"
     borderopacity="1"
     objecttolerance="10"
     gridtolerance="10"
     guidetolerance="10"
     inkscape:pageopacity="0"
     inkscape:pageshadow="2"
     inkscape:window-width="1920"
     inkscape:window-height="1080"
     id="namedview18876"
     showgrid="false"
     inkscape:zoom="0.63429568"
     inkscape:cx="464.01745"
     inkscape:cy="809.52156"
     inkscape:window-x="0"
     inkscape:window-y="0"
     inkscape:window-maximized="0"
     inkscape:current-layer="svg18857"
     units="mm" />
  <!-- Working space 0 0 203.2 297 -->
  <g
     id="ViewEdge"
     transform="rotate(0.0,0.0,0.0) translate(0.0,0.0) scale(1.0,-1.0)"
     style="stroke:#ff0000;stroke-opacity:1;fill:none;stroke-width:0.28222225;stroke-miterlimit:4;stroke-dasharray:none" />
  <g
     id="ViewEdge001"
     transform="rotate(0.0,0.0,0.0) translate(0.0,0.0) scale(1.0,-1.0)"
     style="stroke:#ff0000;stroke-opacity:1;fill:none;stroke-width:0.28222225;stroke-miterlimit:4;stroke-dasharray:none" />
  <g
     id="ViewEdge002"
     transform="rotate(0.0,0.0,0.0) translate(0.0,0.0) scale(1.0,-1.0)"
     style="stroke:#ff0000;stroke-opacity:1;fill:none;stroke-width:0.28222225;stroke-miterlimit:4;stroke-dasharray:none" />
  <g
     id="ViewEdge003"
     transform="rotate(0.0,0.0,0.0) translate(0.0,0.0) scale(1.0,-1.0)"
     style="stroke:#ff0000;stroke-opacity:1;fill:none;stroke-width:0.28222225;stroke-miterlimit:4;stroke-dasharray:none" />
  <g
     id="ViewEdge004"
     transform="rotate(0.0,0.0,0.0) translate(0.0,0.0) scale(1.0,-1.0)"
     style="stroke:#ff0000;stroke-opacity:1;fill:none;stroke-width:0.28222225;stroke-miterlimit:4;stroke-dasharray:none" />
  <g
     id="ViewEdge005"
     transform="rotate(0.0,0.0,0.0) translate(0.0,0.0) scale(1.0,-1.0)"
     style="stroke:#ff0000;stroke-opacity:1;fill:none;stroke-width:0.28222225;stroke-miterlimit:4;stroke-dasharray:none" />
  <g
     id="ViewEdge006"
     transform="rotate(0.0,0.0,0.0) translate(0.0,0.0) scale(1.0,-1.0)"
     style="stroke:#ff0000;stroke-opacity:1;fill:none;stroke-width:0.28222225;stroke-miterlimit:4;stroke-dasharray:none" />
  <g
     id="ViewEdge007"
     transform="rotate(0.0,0.0,0.0) translate(0.0,0.0) scale(1.0,-1.0)"
     style="stroke:#ff0000;stroke-opacity:1;fill:none;stroke-width:0.28222225;stroke-miterlimit:4;stroke-dasharray:none" />
  <g
     id="ViewEdge008"
     transform="rotate(0.0,0.0,0.0) translate(0.0,0.0) scale(1.0,-1.0)"
     style="stroke:#ff0000;stroke-opacity:1;fill:none;stroke-width:0.28222225;stroke-miterlimit:4;stroke-dasharray:none" />
  <g
     id="ViewEdge009"
     transform="rotate(0.0,0.0,0.0) translate(0.0,0.0) scale(1.0,-1.0)"
     style="stroke:#ff0000;stroke-opacity:1;fill:none;stroke-width:0.28222225;stroke-miterlimit:4;stroke-dasharray:none" />
  <g
     id="ViewEdge010"
     transform="rotate(0.0,0.0,0.0) translate(0.0,0.0) scale(1.0,-1.0)"
     style="stroke:#ff0000;stroke-opacity:1;fill:none;stroke-width:0.28222225;stroke-miterlimit:4;stroke-dasharray:none" />
  <g
     id="ViewEdge011"
     transform="rotate(0.0,0.0,0.0) translate(0.0,0.0) scale(1.0,-1.0)"
     style="stroke:#ff0000;stroke-opacity:1;fill:none;stroke-width:0.28222225;stroke-miterlimit:4;stroke-dasharray:none" />
  <g
     id="ViewEdge012"
     transform="rotate(0.0,0.0,0.0) translate(0.0,0.0) scale(1.0,-1.0)"
     style="stroke:#ff0000;stroke-opacity:1;fill:none;stroke-width:0.28222225;stroke-miterlimit:4;stroke-dasharray:none" />
  <g
     id="ViewEdge013"
     transform="rotate(0.0,0.0,0.0) translate(0.0,0.0) scale(1.0,-1.0)"
     style="stroke:#ff0000;stroke-opacity:1;fill:none;stroke-width:0.28222225;stroke-miterlimit:4;stroke-dasharray:none" />
  <g
     id="ViewEdge014"
     transform="rotate(0.0,0.0,0.0) translate(0.0,0.0) scale(1.0,-1.0)"
     style="stroke:#ff0000;stroke-opacity:1;fill:none;stroke-width:0.28222225;stroke-miterlimit:4;stroke-dasharray:none" />
  <g
     id="ViewEdge015"
     transform="rotate(0.0,0.0,0.0) translate(0.0,0.0) scale(1.0,-1.0)"
     style="stroke:#ff0000;stroke-opacity:1;fill:none;stroke-width:0.28222225;stroke-miterlimit:4;stroke-dasharray:none" />
  <g
     id="ViewEdge016"
     transform="rotate(0.0,0.0,0.0) translate(0.0,0.0) scale(1.0,-1.0)"
     style="stroke:#ff0000;stroke-opacity:1;fill:none;stroke-width:0.28222225;stroke-miterlimit:4;stroke-dasharray:none" />
  <g
     id="ViewEdge017"
     transform="rotate(0.0,0.0,0.0) translate(0.0,0.0) scale(1.0,-1.0)"
     style="stroke:#ff0000;stroke-opacity:1;fill:none;stroke-width:0.28222225;stroke-miterlimit:4;stroke-dasharray:none" />
  <g
     id="ViewEdge018"
     transform="rotate(0.0,0.0,0.0) translate(0.0,0.0) scale(1.0,-1.0)"
     style="stroke:#ff0000;stroke-opacity:1;fill:none;stroke-width:0.28222225;stroke-miterlimit:4;stroke-dasharray:none" />
  <g
     id="ViewEdge019"
     transform="rotate(0.0,0.0,0.0) translate(0.0,0.0) scale(1.0,-1.0)"
     style="stroke:#ff0000;stroke-opacity:1;fill:none;stroke-width:0.28222225;stroke-miterlimit:4;stroke-dasharray:none" />
  <g
     id="ViewEdge020"
     transform="rotate(0.0,0.0,0.0) translate(0.0,0.0) scale(1.0,-1.0)"
     style="stroke:#ff0000;stroke-opacity:1;fill:none;stroke-width:0.28222225;stroke-miterlimit:4;stroke-dasharray:none" />
  <g
     id="ViewEdge021"
     transform="rotate(0.0,0.0,0.0) translate(0.0,0.0) scale(1.0,-1.0)"
     style="stroke:#ff0000;stroke-opacity:1;fill:none;stroke-width:0.28222225;stroke-miterlimit:4;stroke-dasharray:none" />
  <g
     id="ViewEdge022"
     transform="rotate(0.0,0.0,0.0) translate(0.0,0.0) scale(1.0,-1.0)"
     style="stroke:#ff0000;stroke-opacity:1;fill:none;stroke-width:0.28222225;stroke-miterlimit:4;stroke-dasharray:none" />
  <g
     id="ViewEdge023"
     transform="rotate(0.0,0.0,0.0) translate(0.0,0.0) scale(1.0,-1.0)"
     style="stroke:#ff0000;stroke-opacity:1;fill:none;stroke-width:0.28222225;stroke-miterlimit:4;stroke-dasharray:none" />
  <g
     id="ViewEdge024"
     transform="rotate(0.0,0.0,0.0) translate(0.0,0.0) scale(1.0,-1.0)"
     style="stroke:#ff0000;stroke-opacity:1;fill:none;stroke-width:0.28222225;stroke-miterlimit:4;stroke-dasharray:none" />
  <g
     id="ViewEdge025"
     transform="rotate(0.0,0.0,0.0) translate(0.0,0.0) scale(1.0,-1.0)"
     style="stroke:#ff0000;stroke-opacity:1;fill:none;stroke-width:0.28222225;stroke-miterlimit:4;stroke-dasharray:none" />
  <g
     id="ViewEdge026"
     transform="rotate(0.0,0.0,0.0) translate(0.0,0.0) scale(1.0,-1.0)"
     style="stroke:#ff0000;stroke-opacity:1;fill:none;stroke-width:0.28222225;stroke-miterlimit:4;stroke-dasharray:none" />
  <g
     id="ViewEdge027"
     transform="rotate(0.0,0.0,0.0) translate(0.0,0.0) scale(1.0,-1.0)"
     style="stroke:#ff0000;stroke-opacity:1;fill:none;stroke-width:0.28222225;stroke-miterlimit:4;stroke-dasharray:none" />
  <g
     id="ViewEdge028"
     transform="rotate(0.0,0.0,0.0) translate(0.0,0.0) scale(1.0,-1.0)"
     style="stroke:#ff0000;stroke-opacity:1;fill:none;stroke-width:0.28222225;stroke-miterlimit:4;stroke-dasharray:none" />
  <g
     id="ViewEdge029"
     transform="rotate(0.0,0.0,0.0) translate(0.0,0.0) scale(1.0,-1.0)"
     style="stroke:#ff0000;stroke-opacity:1;fill:none;stroke-width:0.28222225;stroke-miterlimit:4;stroke-dasharray:none" />
  <g
     id="ViewEdge030"
     transform="rotate(0.0,0.0,0.0) translate(0.0,0.0) scale(1.0,-1.0)"
     style="stroke:#ff0000;stroke-opacity:1;fill:none;stroke-width:0.28222225;stroke-miterlimit:4;stroke-dasharray:none" />
  <g
     id="ViewEdge031"
     transform="rotate(0.0,0.0,0.0) translate(0.0,0.0) scale(1.0,-1.0)"
     style="stroke:#ff0000;stroke-opacity:1;fill:none;stroke-width:0.28222225;stroke-miterlimit:4;stroke-dasharray:none" />
  <g
     id="ViewEdge032"
     transform="rotate(0.0,0.0,0.0) translate(0.0,0.0) scale(1.0,-1.0)"
     style="stroke:#ff0000;stroke-opacity:1;fill:none;stroke-width:0.28222225;stroke-miterlimit:4;stroke-dasharray:none" />
  <g
     id="ViewEdge033"
     transform="rotate(0.0,0.0,0.0) translate(0.0,0.0) scale(1.0,-1.0)"
     style="stroke:#ff0000;stroke-opacity:1;fill:none;stroke-width:0.28222225;stroke-miterlimit:4;stroke-dasharray:none" />
  <g
     id="ViewEdge034"
     transform="rotate(0.0,0.0,0.0) translate(0.0,0.0) scale(1.0,-1.0)"
     style="stroke:#ff0000;stroke-opacity:1;fill:none;stroke-width:0.28222225;stroke-miterlimit:4;stroke-dasharray:none" />
  <g
     id="ViewEdge035"
     transform="rotate(0.0,0.0,0.0) translate(0.0,0.0) scale(1.0,-1.0)"
     style="stroke:#ff0000;stroke-opacity:1;fill:none;stroke-width:0.28222225;stroke-miterlimit:4;stroke-dasharray:none" />
  <g
     id="ViewEdge036"
     transform="rotate(0.0,0.0,0.0) translate(0.0,0.0) scale(1.0,-1.0)"
     style="stroke:#ff0000;stroke-opacity:1;fill:none;stroke-width:0.28222225;stroke-miterlimit:4;stroke-dasharray:none" />
  <g
     id="ViewEdge037"
     transform="rotate(0.0,0.0,0.0) translate(0.0,0.0) scale(1.0,-1.0)"
     style="stroke:#ff0000;stroke-opacity:1;fill:none;stroke-width:0.28222225;stroke-miterlimit:4;stroke-dasharray:none" />
  <g
     id="ViewEdge038"
     transform="rotate(0.0,0.0,0.0) translate(0.0,0.0) scale(1.0,-1.0)"
     style="stroke:#ff0000;stroke-opacity:1;fill:none;stroke-width:0.28222225;stroke-miterlimit:4;stroke-dasharray:none" />
  <g
     id="ViewEdge039"
     transform="rotate(0.0,0.0,0.0) translate(0.0,0.0) scale(1.0,-1.0)"
     style="stroke:#ff0000;stroke-opacity:1;fill:none;stroke-width:0.28222225;stroke-miterlimit:4;stroke-dasharray:none" />
  <g
     id="ViewEdge040"
     transform="rotate(0.0,0.0,0.0) translate(0.0,0.0) scale(1.0,-1.0)"
     style="stroke:#ff0000;stroke-opacity:1;fill:none;stroke-width:0.28222225;stroke-miterlimit:4;stroke-dasharray:none" />
  <g
     id="ViewEdge041"
     transform="rotate(0.0,0.0,0.0) translate(0.0,0.0) scale(1.0,-1.0)"
     style="stroke:#ff0000;stroke-opacity:1;fill:none;stroke-width:0.28222225;stroke-miterlimit:4;stroke-dasharray:none" />
  <g
     id="ViewEdge042"
     transform="rotate(0.0,0.0,0.0) translate(0.0,0.0) scale(1.0,-1.0)"
     style="stroke:#ff0000;stroke-opacity:1;fill:none;stroke-width:0.28222225;stroke-miterlimit:4;stroke-dasharray:none" />
  <g
     id="ViewEdge043"
     transform="rotate(0.0,0.0,0.0) translate(0.0,0.0) scale(1.0,-1.0)"
     style="stroke:#ff0000;stroke-opacity:1;fill:none;stroke-width:0.28222225;stroke-miterlimit:4;stroke-dasharray:none" />
  <g
     id="ViewEdge044"
     transform="rotate(0.0,0.0,0.0) translate(0.0,0.0) scale(1.0,-1.0)"
     style="stroke:#ff0000;stroke-opacity:1;fill:none;stroke-width:0.28222225;stroke-miterlimit:4;stroke-dasharray:none" />
  <g
     id="ViewEdge045"
     transform="rotate(0.0,0.0,0.0) translate(0.0,0.0) scale(1.0,-1.0)">
    <path
       id="Edge045_nwe0000"
       style="stroke-width:0.28222225;stroke-miterlimit:4;stroke-dasharray:none;fill:none;fill-rule:evenodd;stroke:#008000;stroke-opacity:1"
       d="m 190.499,-12.6 12.5,0 m -12.5,0 -156.398,0 m 0,0 0,12.5 m 156.398,-284.3 -156.398,0 m -19.1,271.8 0,-126.4 m 19.1,0 0,126.4 m -0.1,0 0,12.5 m 156.498,-284.3 12.5,0 m -12.5,126.4 12.5,0 m -168.898,0 156.398,0 m -156.398,19 156.398,0 m 0,0 12.5,0 m -12.5,-19 0,-126.4 m 0,145.4 0,126.4" />
  </g>
  <g
     id="ViewEdge046"
     transform="rotate(0.0,0.0,0.0) translate(0.0,0.0) scale(1.0,-1.0)"
     style="stroke:#ff0000;stroke-opacity:1;fill:none;stroke-width:0.28222225;stroke-miterlimit:4;stroke-dasharray:none" />
  <g
     id="ViewEdge047"
     transform="rotate(0.0,0.0,0.0) translate(0.0,0.0) scale(1.0,-1.0)"
     style="stroke:#ff0000;stroke-opacity:1;fill:none;stroke-width:0.28222225;stroke-miterlimit:4;stroke-dasharray:none" />
  <g
     id="ViewEdge048"
     transform="rotate(0.0,0.0,0.0) translate(0.0,0.0) scale(1.0,-1.0)"
     style="stroke:#ff0000;stroke-opacity:1;fill:none;stroke-width:0.28222225;stroke-miterlimit:4;stroke-dasharray:none" />
  <g
     id="ViewEdge049"
     transform="rotate(0.0,0.0,0.0) translate(0.0,0.0) scale(1.0,-1.0)"
     style="stroke:#ff0000;stroke-opacity:1;fill:none;stroke-width:0.28222225;stroke-miterlimit:4;stroke-dasharray:none" />
  <g
     id="ViewEdge050"
     transform="rotate(0.0,0.0,0.0) translate(0.0,0.0) scale(1.0,-1.0)"
     style="stroke:#ff0000;stroke-opacity:1;fill:none;stroke-width:0.28222225;stroke-miterlimit:4;stroke-dasharray:none" />
  <g
     id="ViewEdge051"
     transform="rotate(0.0,0.0,0.0) translate(0.0,0.0) scale(1.0,-1.0)"
     style="stroke:#ff0000;stroke-opacity:1;fill:none;stroke-width:0.28222225;stroke-miterlimit:4;stroke-dasharray:none" />
  <g
     id="ViewEdge052"
     transform="rotate(0.0,0.0,0.0) translate(0.0,0.0) scale(1.0,-1.0)"
     style="stroke:#ff0000;stroke-opacity:1;fill:none;stroke-width:0.28222225;stroke-miterlimit:4;stroke-dasharray:none" />
  <g
     id="ViewEdge053"
     transform="rotate(0.0,0.0,0.0) translate(0.0,0.0) scale(1.0,-1.0)"
     style="stroke:#ff0000;stroke-opacity:1;fill:none;stroke-width:0.28222225;stroke-miterlimit:4;stroke-dasharray:none" />
  <g
     id="ViewEdge054"
     transform="rotate(0.0,0.0,0.0) translate(0.0,0.0) scale(1.0,-1.0)"
     style="stroke:#ff0000;stroke-opacity:1;fill:none;stroke-width:0.28222225;stroke-miterlimit:4;stroke-dasharray:none" />
  <g
     id="ViewEdge055"
     transform="rotate(0.0,0.0,0.0) translate(0.0,0.0) scale(1.0,-1.0)"
     style="stroke:#ff0000;stroke-opacity:1;fill:none;stroke-width:0.28222225;stroke-miterlimit:4;stroke-dasharray:none" />
  <g
     id="ViewEdge056"
     transform="rotate(0.0,0.0,0.0) translate(0.0,0.0) scale(1.0,-1.0)"
     style="stroke:#ff0000;stroke-opacity:1;fill:none;stroke-width:0.28222225;stroke-miterlimit:4;stroke-dasharray:none" />
  <g
     id="ViewEdge057"
     transform="rotate(0.0,0.0,0.0) translate(0.0,0.0) scale(1.0,-1.0)"
     style="stroke:#ff0000;stroke-opacity:1;fill:none;stroke-width:0.28222225;stroke-miterlimit:4;stroke-dasharray:none" />
  <g
     id="ViewEdge058"
     transform="rotate(0.0,0.0,0.0) translate(0.0,0.0) scale(1.0,-1.0)"
     style="stroke:#ff0000;stroke-opacity:1;fill:none;stroke-width:0.28222225;stroke-miterlimit:4;stroke-dasharray:none" />
  <g
     id="ViewEdge059"
     transform="rotate(0.0,0.0,0.0) translate(0.0,0.0) scale(1.0,-1.0)"
     style="stroke:#ff0000;stroke-opacity:1;fill:none;stroke-width:0.28222225;stroke-miterlimit:4;stroke-dasharray:none" />
  <g
     id="ViewEdge060"
     transform="rotate(0.0,0.0,0.0) translate(0.0,0.0) scale(1.0,-1.0)"
     style="stroke:#ff0000;stroke-opacity:1;fill:none;stroke-width:0.28222225;stroke-miterlimit:4;stroke-dasharray:none" />
  <g
     id="ViewEdge061"
     transform="rotate(0.0,0.0,0.0) translate(0.0,0.0) scale(1.0,-1.0)"
     style="stroke:#ff0000;stroke-opacity:1;fill:none;stroke-width:0.28222225;stroke-miterlimit:4;stroke-dasharray:none" />
  <g
     id="ViewEdge062"
     transform="rotate(0.0,0.0,0.0) translate(0.0,0.0) scale(1.0,-1.0)"
     style="stroke-width:2.82222252;stroke-miterlimit:4;stroke-dasharray:none">
    <path
       id="Edge062_nwe0000"
       d="M 112.3 -284.4 L 112.3 -221.2 "
       stroke="#191919"
       stroke-width="0.35 px"
       style="stroke-width:2.82222252;stroke-miterlimit:4;stroke-dasharray:none;fill:none;fill-rule:evenodd" />
  </g>
  <g
     id="ViewEdge063"
     transform="rotate(0.0,0.0,0.0) translate(0.0,0.0) scale(1.0,-1.0)"
     style="stroke:#ff0000;stroke-opacity:1;fill:none;stroke-width:0.28222225;stroke-miterlimit:4;stroke-dasharray:none" />
  <g
     id="ViewEdge064"
     transform="rotate(0.0,0.0,0.0) translate(0.0,0.0) scale(1.0,-1.0)"
     style="stroke:#ff0000;stroke-opacity:1;fill:none;stroke-width:0.28222225;stroke-miterlimit:4;stroke-dasharray:none" />
  <g
     id="ViewEdge065"
     transform="rotate(0.0,0.0,0.0) translate(0.0,0.0) scale(1.0,-1.0)"
     style="stroke:#ff0000;stroke-opacity:1;fill:none;stroke-width:0.28222225;stroke-miterlimit:4;stroke-dasharray:none" />
  <g
     id="ViewEdge066"
     transform="rotate(0.0,0.0,0.0) translate(0.0,0.0) scale(1.0,-1.0)"
     style="stroke:#ff0000;stroke-opacity:1;fill:none;stroke-width:0.28222225;stroke-miterlimit:4;stroke-dasharray:none" />
  <g
     id="ViewEdge067"
     transform="rotate(0.0,0.0,0.0) translate(0.0,0.0) scale(1.0,-1.0)"
     style="stroke:#ff0000;stroke-opacity:1;fill:none;stroke-width:0.28222225;stroke-miterlimit:4;stroke-dasharray:none" />
  <g
     id="ViewEdge068"
     transform="rotate(0.0,0.0,0.0) translate(0.0,0.0) scale(1.0,-1.0)"
     style="stroke:#ff0000;stroke-opacity:1;fill:none;stroke-width:0.28222225;stroke-miterlimit:4;stroke-dasharray:none">
    <path
       id="Edge068_nwe0000"
       style="stroke-width:0.28222225;stroke-miterlimit:4;stroke-dasharray:none;fill:none;fill-rule:evenodd;stroke:#ff0000;stroke-opacity:1"
       d="m 51.039227,-230.36382 a 2.9169822,2.9169822 0 0 1 -3.876454,3.87645 m 0,10.57474 a 5.8339644,5.8339644 0 1 1 0,-10.57474 m 0,10.57474 a 2.9169822,2.9169822 0 0 1 3.876454,3.87645 m -7.047494,-62.33785 a 2.9169822,2.9169822 0 0 1 0,5.48213 m 7.477467,7.47747 a 5.8339644,5.8339644 0 1 1 -7.477467,-7.47747 m 7.477467,7.47747 a 2.9169822,2.9169822 0 0 1 5.482133,0 m 0,80.42886 a 2.9169822,2.9169822 0 0 1 -5.482133,0 m -7.477467,7.47747 a 5.8339644,5.8339644 0 1 1 7.477467,-7.47747 m -7.477467,7.47747 a 2.9169822,2.9169822 0 0 1 0,5.48213 M 156.499,-296.9 l 3,3 m -91.398,-3 -3,3 m 28.466,-3 3,3 m 34.466,-3 -3,3 m 74.966,185.9 -3,-3 m 0,23.466667 3,-3 m -3,-165.866667 3,-3 m 0,29.46667 -3,-3 m 0,23.46666 3,-3 m 0,29.46667 -3,-3 m 0,121.933333 3,3 m -3,20.466667 3,-3 m 0,31 0,-126.4 m 0,-19 a 6.6291261,6.6291261 0 0 1 -12.5,0 m 12.5,0 0,-126.4 m -12.5,0 0,-12.5 m 0,0 -156.398,0 m 0,12.5 0,-12.5 m 156.398,12.5 a 6.6291261,6.6291261 0 0 1 12.5,0 m -12.5,145.4 a 6.6291261,6.6291261 0 0 1 12.5,0 M 0.001,-0.1 l 34.1,0 m -34.1,0 12.5,-12.5 m 0,0 2.5,0 m -15,-17.876304 a 15,17.876304 0 0 1 15,17.876304 m -15,-108.5237 0,90.647396 M 15.001,-139 a 15,17.876304 0 0 1 -15,17.8763 m 34.1,-17.8763 -19.1,0 m 19,126.4 0.1,0 m -19.1,0 19,0 m 0.1,-126.4 0,-9.5 m 0,0 0,-9.5 m 0,0 0,-126.4 m 156.398,135.9 0,-9.5 m 0,19 0,-9.5 m 0,148.4 0,-12.5 m -28,12.5 28,0 m -31,-3 3,3 m -37.466,0 37.466,0 m -37.466,0 3,-3 m -28.466,3 25.466,0 m -25.466,0 -3,-3 m -34.466,3 37.466,0 m -37.466,0 3,-3 m -31,3 28,0 m 140.898,-12.5 a 6.6291261,6.6291261 0 0 1 -12.5,0" />
  </g>
  <g
     id="ViewEdge069"
     transform="rotate(0.0,0.0,0.0) translate(0.0,0.0) scale(1.0,-1.0)"
     style="stroke-width:2.82222252;stroke-miterlimit:4;stroke-dasharray:none">
    <path
       id="Edge069_nwe0000"
       d="M 112.3 -75.8 L 112.3 -12.6 "
       stroke="#191919"
       stroke-width="0.35 px"
       style="stroke-width:2.82222252;stroke-miterlimit:4;stroke-dasharray:none;fill:none;fill-rule:evenodd" />
  </g>
</svg>
