<?xml version="1.0" encoding="UTF-8" standalone="no"?>
<svg
   xmlns:dc="http://purl.org/dc/elements/1.1/"
   xmlns:cc="http://creativecommons.org/ns#"
   xmlns:rdf="http://www.w3.org/1999/02/22-rdf-syntax-ns#"
   xmlns:svg="http://www.w3.org/2000/svg"
   xmlns="http://www.w3.org/2000/svg"
   xmlns:sodipodi="http://sodipodi.sourceforge.net/DTD/sodipodi-0.dtd"
   xmlns:inkscape="http://www.inkscape.org/namespaces/inkscape"
   version="1.1"
   width="203.2mm"
   height="297mm"
   viewBox="0 0 203.2 297.00002"
   id="svg18857"
   inkscape:version="0.91 r13725"
   sodipodi:docname="box13j-freecad-8x297-19mm_thick-3mm_tabs.svg">
  <defs
     id="defs53374" />
  <metadata
     id="metadata18878">
    <rdf:RDF>
      <cc:Work
         rdf:about="">
        <dc:format>image/svg+xml</dc:format>
        <dc:type
           rdf:resource="http://purl.org/dc/dcmitype/StillImage" />
        <dc:title />
      </cc:Work>
    </rdf:RDF>
  </metadata>
  <sodipodi:namedview
     pagecolor="#ffffff"
     bordercolor="#666666"
     borderopacity="1"
     objecttolerance="10"
     gridtolerance="10"
     guidetolerance="10"
     inkscape:pageopacity="0"
     inkscape:pageshadow="2"
     inkscape:window-width="1920"
     inkscape:window-height="1080"
     id="namedview18876"
     showgrid="false"
     inkscape:zoom="0.92986113"
     inkscape:cx="219.42392"
     inkscape:cy="716.67861"
     inkscape:window-x="0"
     inkscape:window-y="0"
     inkscape:window-maximized="0"
     inkscape:current-layer="svg18857"
     units="mm"
     inkscape:object-nodes="true"
     inkscape:object-paths="true"
     inkscape:snap-smooth-nodes="true" />
  <!-- Working space 0 0 203.2 297 -->
  <g
     id="ViewEdge"
     transform="scale(1,-1)"
     style="stroke-width:0.28222224;stroke-miterlimit:4;stroke-dasharray:none" />
  <g
     id="ViewEdge001"
     transform="scale(1,-1)"
     style="stroke-width:0.28222224;stroke-miterlimit:4;stroke-dasharray:none" />
  <g
     id="ViewEdge002"
     transform="scale(1,-1)"
     style="stroke-width:0.28222224;stroke-miterlimit:4;stroke-dasharray:none" />
  <g
     id="ViewEdge003"
     transform="scale(1,-1)"
     style="stroke-width:0.28222224;stroke-miterlimit:4;stroke-dasharray:none" />
  <g
     id="ViewEdge004"
     transform="scale(1,-1)"
     style="stroke-width:0.28222224;stroke-miterlimit:4;stroke-dasharray:none" />
  <g
     id="ViewEdge005"
     transform="scale(1,-1)"
     style="fill:none;stroke:#ff0000;stroke-width:0.28222224;stroke-miterlimit:4;stroke-dasharray:none;stroke-opacity:1" />
  <g
     id="ViewEdge006"
     transform="scale(1,-1)"
     style="stroke-width:0.28222224;stroke-miterlimit:4;stroke-dasharray:none" />
  <g
     id="ViewEdge007"
     transform="scale(1,-1)"
     style="stroke-width:0.28222224;stroke-miterlimit:4;stroke-dasharray:none" />
  <g
     id="ViewEdge008"
     transform="scale(1,-1)"
     style="stroke-width:0.28222224;stroke-miterlimit:4;stroke-dasharray:none" />
  <g
     id="ViewEdge009"
     transform="scale(1,-1)"
     style="stroke-width:0.28222224;stroke-miterlimit:4;stroke-dasharray:none" />
  <g
     id="ViewEdge010"
     transform="scale(1,-1)"
     style="stroke-width:0.28222224;stroke-miterlimit:4;stroke-dasharray:none" />
  <g
     id="ViewEdge011"
     transform="scale(1,-1)"
     style="stroke-width:0.28222224;stroke-miterlimit:4;stroke-dasharray:none" />
  <g
     id="ViewEdge012"
     transform="scale(1,-1)"
     style="stroke-width:0.28222224;stroke-miterlimit:4;stroke-dasharray:none" />
  <g
     id="ViewEdge013"
     transform="scale(1,-1)"
     style="stroke-width:0.28222224;stroke-miterlimit:4;stroke-dasharray:none" />
  <g
     id="ViewEdge014"
     transform="scale(1,-1)"
     style="stroke-width:0.28222224;stroke-miterlimit:4;stroke-dasharray:none" />
  <g
     id="ViewEdge015"
     transform="scale(1,-1)"
     style="stroke-width:0.28222224;stroke-miterlimit:4;stroke-dasharray:none" />
  <g
     id="ViewEdge016"
     transform="scale(1,-1)"
     style="stroke-width:0.28222224;stroke-miterlimit:4;stroke-dasharray:none" />
  <g
     id="ViewEdge017"
     transform="scale(1,-1)"
     style="stroke-width:0.28222224;stroke-miterlimit:4;stroke-dasharray:none" />
  <g
     id="ViewEdge018"
     transform="scale(1,-1)"
     style="stroke-width:0.28222224;stroke-miterlimit:4;stroke-dasharray:none" />
  <g
     id="ViewEdge019"
     transform="scale(1,-1)"
     style="stroke-width:0.28222224;stroke-miterlimit:4;stroke-dasharray:none" />
  <g
     id="ViewEdge020"
     transform="scale(1,-1)"
     style="stroke-width:0.28222224;stroke-miterlimit:4;stroke-dasharray:none" />
  <g
     id="ViewEdge021"
     transform="scale(1,-1)"
     style="stroke:#ff0000;stroke-width:0.28222224;stroke-miterlimit:4;stroke-dasharray:none;stroke-opacity:1" />
  <g
     id="ViewEdge022"
     transform="scale(1,-1)"
     style="stroke:#ff0000;stroke-width:0.28222224;stroke-miterlimit:4;stroke-dasharray:none;stroke-opacity:1" />
  <g
     id="ViewEdge023"
     transform="scale(1,-1)"
     style="fill:none;stroke:#008000;stroke-width:0.28222224;stroke-miterlimit:4;stroke-dasharray:none;stroke-opacity:1" />
  <g
     id="ViewEdge024"
     transform="scale(1,-1)"
     style="fill:none;stroke:#008000;stroke-width:0.28222224;stroke-miterlimit:4;stroke-dasharray:none;stroke-opacity:1" />
  <g
     id="ViewEdge025"
     transform="scale(1,-1)"
     style="stroke:#ff0000;stroke-width:0.28222224;stroke-miterlimit:4;stroke-dasharray:none;stroke-opacity:1" />
  <g
     id="ViewEdge026"
     transform="scale(1,-1)"
     style="stroke:#ff0000;stroke-width:0.28222224;stroke-miterlimit:4;stroke-dasharray:none;stroke-opacity:1" />
  <g
     id="ViewEdge027"
     transform="scale(1,-1)"
     style="stroke:#ff0000;stroke-width:0.28222224;stroke-miterlimit:4;stroke-dasharray:none;stroke-opacity:1" />
  <g
     id="ViewEdge028"
     transform="scale(1,-1)"
     style="stroke:#ff0000;stroke-width:0.28222224;stroke-miterlimit:4;stroke-dasharray:none;stroke-opacity:1" />
  <g
     id="ViewEdge029"
     transform="scale(1,-1)"
     style="fill:none;stroke:#008000;stroke-width:0.28222224;stroke-miterlimit:4;stroke-dasharray:none;stroke-opacity:1" />
  <g
     id="ViewEdge030"
     transform="scale(1,-1)"
     style="stroke-width:0.28222224;stroke-miterlimit:4;stroke-dasharray:none" />
  <g
     id="ViewEdge031"
     transform="scale(1,-1)"
     style="stroke-width:0.28222224;stroke-miterlimit:4;stroke-dasharray:none" />
  <g
     id="ViewEdge032"
     transform="scale(1,-1)"
     style="stroke-width:0.28222224;stroke-miterlimit:4;stroke-dasharray:none" />
  <g
     id="ViewEdge033"
     transform="scale(1,-1)"
     style="stroke-width:0.28222224;stroke-miterlimit:4;stroke-dasharray:none" />
  <g
     id="ViewEdge034"
     transform="scale(1,-1)"
     style="stroke-width:0.28222224;stroke-miterlimit:4;stroke-dasharray:none" />
  <g
     id="ViewEdge035"
     transform="scale(1,-1)"
     style="stroke-width:0.28222224;stroke-miterlimit:4;stroke-dasharray:none" />
  <g
     id="ViewEdge036"
     transform="scale(1,-1)"
     style="stroke-width:0.28222224;stroke-miterlimit:4;stroke-dasharray:none" />
  <g
     id="ViewEdge037"
     transform="scale(1,-1)"
     style="stroke-width:0.28222224;stroke-miterlimit:4;stroke-dasharray:none" />
  <g
     id="ViewEdge038"
     transform="scale(1,-1)"
     style="stroke-width:0.28222224;stroke-miterlimit:4;stroke-dasharray:none" />
  <g
     id="ViewEdge039"
     transform="scale(1,-1)"
     style="stroke-width:0.28222224;stroke-miterlimit:4;stroke-dasharray:none" />
  <g
     id="ViewEdge040"
     transform="scale(1,-1)"
     style="stroke-width:0.28222224;stroke-miterlimit:4;stroke-dasharray:none" />
  <g
     id="ViewEdge041"
     transform="scale(1,-1)"
     style="stroke-width:0.28222224;stroke-miterlimit:4;stroke-dasharray:none" />
  <g
     id="ViewEdge042"
     transform="scale(1,-1)"
     style="stroke-width:0.28222224;stroke-miterlimit:4;stroke-dasharray:none" />
  <g
     id="ViewEdge043"
     transform="scale(1,-1)"
     style="stroke-width:0.28222224;stroke-miterlimit:4;stroke-dasharray:none" />
  <g
     id="ViewEdge044"
     transform="scale(1,-1)"
     style="stroke-width:0.28222224;stroke-miterlimit:4;stroke-dasharray:none" />
  <g
     id="ViewEdge045"
     transform="scale(1,-1)"
     style="stroke-width:0.28222224;stroke-miterlimit:4;stroke-dasharray:none" />
  <g
     id="ViewEdge046"
     transform="scale(1,-1)"
     style="stroke-width:0.28222224;stroke-miterlimit:4;stroke-dasharray:none" />
  <g
     id="ViewEdge047"
     transform="scale(1,-1)"
     style="stroke-width:0.28222224;stroke-miterlimit:4;stroke-dasharray:none" />
  <g
     id="ViewEdge048"
     transform="scale(1,-1)"
     style="stroke-width:0.28222224;stroke-miterlimit:4;stroke-dasharray:none" />
  <g
     id="ViewEdge049"
     transform="scale(1,-1)"
     style="stroke:#ff0000;stroke-width:0.28222224;stroke-miterlimit:4;stroke-dasharray:none;stroke-opacity:1" />
  <g
     id="ViewEdge050"
     transform="scale(1,-1)"
     style="stroke-width:0.28222224;stroke-miterlimit:4;stroke-dasharray:none" />
  <g
     id="ViewEdge051"
     transform="scale(1,-1)"
     style="stroke-width:0.28222224;stroke-miterlimit:4;stroke-dasharray:none" />
  <g
     id="ViewEdge052"
     transform="scale(1,-1)"
     style="stroke-width:0.28222224;stroke-miterlimit:4;stroke-dasharray:none" />
  <g
     id="ViewEdge053"
     transform="scale(1,-1)"
     style="stroke-width:0.28222224;stroke-miterlimit:4;stroke-dasharray:none" />
  <g
     id="ViewEdge054"
     transform="scale(1,-1)"
     style="stroke:#ff0000;stroke-width:0.28222224;stroke-miterlimit:4;stroke-dasharray:none;stroke-opacity:1" />
  <g
     id="ViewEdge055"
     transform="scale(1,-1)"
     style="stroke:#ff0000;stroke-width:0.28222224;stroke-miterlimit:4;stroke-dasharray:none;stroke-opacity:1" />
  <g
     id="ViewEdge056"
     transform="scale(1,-1)"
     style="stroke-width:0.28222224;stroke-miterlimit:4;stroke-dasharray:none" />
  <g
     id="ViewEdge057"
     transform="scale(1,-1)"
     style="stroke-width:0.28222224;stroke-miterlimit:4;stroke-dasharray:none" />
  <g
     id="ViewEdge058"
     transform="scale(1,-1)"
     style="stroke-width:0.28222224;stroke-miterlimit:4;stroke-dasharray:none" />
  <g
     id="ViewEdge059"
     transform="scale(1,-1)"
     style="stroke-width:0.28222224;stroke-miterlimit:4;stroke-dasharray:none" />
  <g
     id="ViewEdge060"
     transform="scale(1,-1)"
     style="stroke-width:0.28222224;stroke-miterlimit:4;stroke-dasharray:none" />
  <g
     id="ViewEdge061"
     transform="scale(1,-1)"
     style="stroke-width:0.28222224;stroke-miterlimit:4;stroke-dasharray:none" />
  <g
     id="ViewEdge062"
     transform="scale(1,-1)"
     style="stroke-width:0.28222224;stroke-miterlimit:4;stroke-dasharray:none" />
  <g
     id="ViewEdge063"
     transform="scale(1,-1)"
     style="stroke-width:0.28222224;stroke-miterlimit:4;stroke-dasharray:none" />
  <g
     id="ViewEdge064"
     transform="scale(1,-1)"
     style="stroke-width:0.28222224;stroke-miterlimit:4;stroke-dasharray:none" />
  <g
     id="ViewEdge065"
     transform="scale(1,-1)"
     style="stroke-width:0.28222224;stroke-miterlimit:4;stroke-dasharray:none" />
  <g
     id="ViewEdge066"
     transform="scale(1,-1)"
     style="stroke-width:0.28222224;stroke-miterlimit:4;stroke-dasharray:none" />
  <g
     id="ViewEdge067"
     transform="scale(1,-1)"
     style="stroke-width:0.28222224;stroke-miterlimit:4;stroke-dasharray:none" />
  <g
     id="ViewEdge068"
     transform="scale(1,-1)"
     style="stroke-width:0.28222224;stroke-miterlimit:4;stroke-dasharray:none" />
  <g
     id="ViewEdge069"
     transform="scale(1,-1)"
     style="stroke-width:0.28222224;stroke-miterlimit:4;stroke-dasharray:none" />
  <g
     id="ViewEdge070"
     transform="scale(1,-1)"
     style="stroke-width:0.28222224;stroke-miterlimit:4;stroke-dasharray:none" />
  <g
     id="ViewEdge071"
     transform="scale(1,-1)"
     style="stroke-width:0.28222224;stroke-miterlimit:4;stroke-dasharray:none" />
  <g
     id="ViewEdge072"
     transform="scale(1,-1)"
     style="stroke-width:0.28222224;stroke-miterlimit:4;stroke-dasharray:none" />
  <g
     id="ViewEdge073"
     transform="scale(1,-1)"
     style="stroke-width:0.28222224;stroke-miterlimit:4;stroke-dasharray:none" />
  <g
     id="ViewEdge074"
     transform="scale(1,-1)"
     style="stroke-width:0.28222224;stroke-miterlimit:4;stroke-dasharray:none" />
  <g
     id="ViewEdge075"
     transform="scale(1,-1)"
     style="stroke-width:0.28222224;stroke-miterlimit:4;stroke-dasharray:none" />
  <g
     id="ViewEdge076"
     transform="scale(1,-1)"
     style="stroke-width:0.28222224;stroke-miterlimit:4;stroke-dasharray:none" />
  <g
     id="ViewEdge077"
     transform="scale(1,-1)"
     style="stroke-width:0.28222224;stroke-miterlimit:4;stroke-dasharray:none" />
  <g
     id="ViewEdge078"
     transform="scale(1,-1)"
     style="stroke-width:0.28222224;stroke-miterlimit:4;stroke-dasharray:none" />
  <g
     id="ViewEdge079"
     transform="scale(1,-1)"
     style="stroke:#008000;stroke-width:0.28222224;stroke-miterlimit:4;stroke-dasharray:none;stroke-opacity:1" />
  <g
     id="ViewEdge081"
     transform="scale(1,-1)"
     style="stroke:#ff0000;stroke-width:0.28222224;stroke-miterlimit:4;stroke-dasharray:none;stroke-opacity:1" />
  <g
     id="ViewEdge082"
     transform="scale(1,-1)"
     style="stroke:#ff0000;stroke-width:0.28222224;stroke-miterlimit:4;stroke-dasharray:none;stroke-opacity:1" />
  <g
     id="ViewEdge083"
     transform="scale(1,-1)"
     style="fill:none;stroke:#008000;stroke-width:0.28222224;stroke-miterlimit:4;stroke-dasharray:none;stroke-opacity:1" />
  <g
     id="ViewEdge084"
     transform="scale(1,-1)"
     style="fill:none;stroke:#008000;stroke-width:0.28222224;stroke-miterlimit:4;stroke-dasharray:none;stroke-opacity:1" />
  <g
     id="ViewEdge085"
     transform="scale(1,-1)"
     style="stroke:#ff0000;stroke-width:0.28222224;stroke-miterlimit:4;stroke-dasharray:none;stroke-opacity:1" />
  <g
     id="ViewEdge086"
     transform="scale(1,-1)"
     style="stroke:#ff0000;stroke-width:0.28222224;stroke-miterlimit:4;stroke-dasharray:none;stroke-opacity:1" />
  <g
     id="ViewEdge087"
     transform="scale(1,-1)"
     style="fill:none;stroke:#008000;stroke-width:0.28222224;stroke-miterlimit:4;stroke-dasharray:none;stroke-opacity:1" />
  <g
     id="ViewEdge088"
     transform="scale(1,-1)"
     style="stroke:#ff0000;stroke-width:0.28222224;stroke-miterlimit:4;stroke-dasharray:none;stroke-opacity:1" />
  <g
     id="ViewEdge089"
     transform="scale(1,-1)"
     style="stroke:#ff0000;stroke-width:0.28222224;stroke-miterlimit:4;stroke-dasharray:none;stroke-opacity:1" />
  <g
     id="ViewEdge090"
     transform="scale(1,-1)"
     style="stroke:#ff0000;stroke-width:0.28222224;stroke-miterlimit:4;stroke-dasharray:none;stroke-opacity:1" />
  <g
     id="ViewEdge091"
     transform="scale(1,-1)"
     style="stroke:#ff0000;stroke-width:0.28222224;stroke-miterlimit:4;stroke-dasharray:none;stroke-opacity:1" />
  <g
     id="ViewEdge092"
     transform="scale(1,-1)"
     style="fill:none;stroke:#008000;stroke-width:0.28222224;stroke-miterlimit:4;stroke-dasharray:none;stroke-opacity:1" />
  <g
     id="ViewEdge093"
     transform="scale(1,-1)"
     style="fill:none;stroke:#008000;stroke-width:0.28222224;stroke-miterlimit:4;stroke-dasharray:none;stroke-opacity:1" />
  <g
     id="ViewEdge094"
     transform="scale(1,-1)"
     style="stroke:#ff0000;stroke-width:0.28222224;stroke-miterlimit:4;stroke-dasharray:none;stroke-opacity:1" />
  <g
     id="ViewEdge095"
     transform="scale(1,-1)"
     style="stroke:#ff0000;stroke-width:0.28222224;stroke-miterlimit:4;stroke-dasharray:none;stroke-opacity:1" />
  <g
     id="ViewEdge096"
     transform="scale(1,-1)"
     style="stroke:#ff0000;stroke-width:0.28222224;stroke-miterlimit:4;stroke-dasharray:none;stroke-opacity:1" />
  <g
     id="ViewEdge097"
     transform="scale(1,-1)"
     style="stroke:#ff0000;stroke-width:0.28222224;stroke-miterlimit:4;stroke-dasharray:none;stroke-opacity:1" />
  <g
     id="ViewEdge098"
     transform="scale(1,-1)"
     style="fill:none;stroke:#008000;stroke-width:0.28222224;stroke-miterlimit:4;stroke-dasharray:none;stroke-opacity:1" />
  <g
     id="ViewEdge099"
     transform="scale(1,-1)"
     style="fill:none;stroke:#008000;stroke-width:0.28222224;stroke-miterlimit:4;stroke-dasharray:none;stroke-opacity:1" />
  <g
     id="ViewEdge100"
     transform="scale(1,-1)"
     style="stroke:#ff0000;stroke-width:0.28222224;stroke-miterlimit:4;stroke-dasharray:none;stroke-opacity:1" />
  <g
     id="ViewEdge101"
     transform="scale(1,-1)"
     style="stroke:#ff0000;stroke-width:0.28222224;stroke-miterlimit:4;stroke-dasharray:none;stroke-opacity:1" />
  <g
     id="ViewEdge102"
     transform="scale(1,-1)"
     style="fill:none;stroke:#008000;stroke-width:0.28222224;stroke-miterlimit:4;stroke-dasharray:none;stroke-opacity:1" />
  <g
     id="ViewEdge103"
     transform="scale(1,-1)"
     style="stroke:#ff0000;stroke-width:0.28222224;stroke-miterlimit:4;stroke-dasharray:none;stroke-opacity:1" />
  <g
     id="ViewEdge104"
     transform="scale(1,-1)"
     style="stroke:#ff0000;stroke-width:0.28222224;stroke-miterlimit:4;stroke-dasharray:none;stroke-opacity:1" />
  <g
     id="ViewEdge105"
     transform="scale(1,-1)"
     style="stroke:#ff0000;stroke-width:0.28222224;stroke-miterlimit:4;stroke-dasharray:none;stroke-opacity:1" />
  <g
     id="ViewEdge106"
     transform="scale(1,-1)"
     style="stroke:#ff0000;stroke-width:0.28222224;stroke-miterlimit:4;stroke-dasharray:none;stroke-opacity:1" />
  <g
     id="ViewEdge107"
     transform="scale(1,-1)"
     style="fill:none;stroke:#008000;stroke-width:0.28222224;stroke-miterlimit:4;stroke-dasharray:none;stroke-opacity:1" />
  <g
     id="ViewEdge108"
     transform="scale(1,-1)"
     style="stroke:#ff0000;stroke-width:0.28222224;stroke-miterlimit:4;stroke-dasharray:none;stroke-opacity:1" />
  <g
     id="ViewEdge109"
     transform="scale(1,-1)"
     style="stroke:#ff0000;stroke-width:0.28222224;stroke-miterlimit:4;stroke-dasharray:none;stroke-opacity:1" />
  <g
     id="ViewEdge110"
     transform="scale(1,-1)"
     style="fill:none;stroke:#008000;stroke-width:0.28222224;stroke-miterlimit:4;stroke-dasharray:none;stroke-opacity:1" />
  <g
     id="ViewEdge111"
     transform="scale(1,-1)"
     style="stroke:#ff0000;stroke-width:0.28222224;stroke-miterlimit:4;stroke-dasharray:none;stroke-opacity:1" />
  <g
     id="ViewEdge112"
     transform="scale(1,-1)"
     style="stroke:#ff0000;stroke-width:0.28222224;stroke-miterlimit:4;stroke-dasharray:none;stroke-opacity:1" />
  <g
     id="ViewEdge113"
     transform="scale(1,-1)"
     style="fill:none;stroke:#008000;stroke-width:0.28222224;stroke-miterlimit:4;stroke-dasharray:none;stroke-opacity:1" />
  <g
     id="ViewEdge114"
     transform="scale(1,-1)"
     style="stroke:#ff0000;stroke-width:0.28222224;stroke-miterlimit:4;stroke-dasharray:none;stroke-opacity:1" />
  <g
     id="ViewEdge115"
     transform="scale(1,-1)"
     style="stroke:#ff0000;stroke-width:0.28222224;stroke-miterlimit:4;stroke-dasharray:none;stroke-opacity:1" />
  <g
     id="ViewEdge116"
     transform="scale(1,-1)"
     style="fill:none;stroke:#008000;stroke-width:0.28222224;stroke-miterlimit:4;stroke-dasharray:none;stroke-opacity:1" />
  <g
     id="ViewEdge117"
     transform="scale(1,-1)"
     style="stroke:#ff0000;stroke-width:0.28222224;stroke-miterlimit:4;stroke-dasharray:none;stroke-opacity:1" />
  <g
     id="ViewEdge118"
     transform="scale(1,-1)"
     style="stroke:#ff0000;stroke-width:0.28222224;stroke-miterlimit:4;stroke-dasharray:none;stroke-opacity:1" />
  <g
     id="ViewEdge119"
     transform="scale(1,-1)"
     style="fill:none;stroke:#008000;stroke-width:0.28222224;stroke-miterlimit:4;stroke-dasharray:none;stroke-opacity:1" />
  <g
     id="ViewEdge120"
     transform="scale(1,-1)"
     style="stroke:#ff0000;stroke-width:0.28222224;stroke-miterlimit:4;stroke-dasharray:none;stroke-opacity:1" />
  <g
     id="ViewEdge121"
     transform="scale(1,-1)"
     style="stroke:#ff0000;stroke-width:0.28222224;stroke-miterlimit:4;stroke-dasharray:none;stroke-opacity:1" />
  <g
     id="ViewEdge122"
     transform="scale(1,-1)"
     style="stroke:#ff0000;stroke-width:0.28222224;stroke-miterlimit:4;stroke-dasharray:none;stroke-opacity:1" />
  <g
     id="ViewEdge123"
     transform="scale(1,-1)"
     style="stroke-width:0.28222224;stroke-miterlimit:4;stroke-dasharray:none" />
  <g
     id="ViewEdge124"
     transform="scale(1,-1)"
     style="stroke:#ff0000;stroke-width:0.28222224;stroke-miterlimit:4;stroke-dasharray:none;stroke-opacity:1" />
  <g
     id="ViewEdge125"
     transform="scale(1,-1)"
     style="stroke:#ff0000;stroke-width:0.28222224;stroke-miterlimit:4;stroke-dasharray:none;stroke-opacity:1" />
  <g
     id="ViewEdge126"
     transform="scale(1,-1)"
     style="stroke:#ff0000;stroke-width:0.28222224;stroke-miterlimit:4;stroke-dasharray:none;stroke-opacity:1" />
  <g
     id="ViewEdge127"
     transform="scale(1,-1)"
     style="stroke:#ff0000;stroke-width:0.28222224;stroke-miterlimit:4;stroke-dasharray:none;stroke-opacity:1" />
  <g
     id="ViewEdge128"
     transform="scale(1,-1)"
     style="stroke:#ff0000;stroke-width:0.28222224;stroke-miterlimit:4;stroke-dasharray:none;stroke-opacity:1" />
  <g
     id="ViewEdge129"
     transform="scale(1,-1)"
     style="stroke:#ff0000;stroke-width:0.28222224;stroke-miterlimit:4;stroke-dasharray:none;stroke-opacity:1" />
  <g
     id="ViewEdge130"
     transform="scale(1,-1)"
     style="stroke-width:0.28222224;stroke-miterlimit:4;stroke-dasharray:none" />
  <g
     id="ViewEdge131"
     transform="scale(1,-1)"
     style="stroke:#ff0000;stroke-width:0.28222224;stroke-miterlimit:4;stroke-dasharray:none;stroke-opacity:1" />
  <g
     id="g57779">
    <g
       style="stroke-width:0.28222224;stroke-miterlimit:4;stroke-dasharray:none"
       transform="scale(1,-1)"
       id="ViewEdge080">
      <path
         d="m 34.101,-12.75 -0.1,0 -23,0 0,6.5 3,3 -3,3 23.1,0 17,0 44.799333,0 32.799337,0 44.79933,0 17,0 12.5,0 0,-2.1666667 -3,-3 3,-3 0,-2.1666663 0,-2.166667 0,-126.25 0,-3.5 -3,-3 3,-3 -3,-3 3,-3 0,-3.5 0,-126.25 0,-2.16667 0,-2.16666 -3,-3 3,-3 0,-2.16667 -12.5,0 -156.398,0 0,12.5 0,126.25 0,9.5 0,9.5 -19.1,0 c -2e-6,9.87281 -6.7157301,17.8763 -15,17.8763 l 0,90.497396 c 8.2842712,0 15,8.003494 15,17.876304 M 6.3429935,-81.708964 a 5.8339644,5.8339644 0 0 1 0,11.667928 M 112.3,-75.875 l 0,63.125 M 49.101,-230.28882 a 2.9169822,2.9169822 0 0 1 -3.876454,3.87645 m 0,10.57474 a 5.8339644,5.8339644 0 1 1 0,-10.57474 m 0,10.57474 a 2.9169822,2.9169822 0 0 1 3.876454,3.87645 m -6.4798,-60.89232 a 2.9169822,2.9169822 0 0 1 0,5.48214 m 7.477467,7.47746 a 5.8339644,5.8339644 0 1 1 -7.477467,-7.47746 m 7.477467,7.47746 a 2.9169822,2.9169822 0 0 1 5.482133,0 M 112.3,-284.25 l 0,63.125 m -56.7192,38.7689 a 2.9169822,2.9169822 0 0 1 -5.482133,0 m -7.477467,7.47746 a 5.8339644,5.8339644 0 1 1 7.477467,-7.47746 m -7.477467,7.47746 a 2.9169822,2.9169822 0 0 1 0,5.48214 M 167.499,-296.75 l 3,3 0.25,0.25 m -113.648,-3.25 -3,3 -0.25,0.25 m 36.049333,-3.25 3,3 0.25,0.25 m 41.549337,-3.25 -3,3 -0.25,0.25 m 71.54933,174.5 -3,-3 -0.25,-0.25 m 0,31.25 0.25,-0.25 3,-3 m -3.25,-172.75 0.25,-0.25 3,-3 m 0,36.75 -3,-3 -0.25,-0.25 m 0.0126,31.2395 0.23738,-0.2395 3,-3 m 0,36.75 -3,-3 -0.25,-0.25 m 3.25,117.75 -3,-3 -0.25,-0.25 m 0,31.25 0.25,-0.25 3,-3 m -151.898,32.5 3,-3 0.25,-0.25 m 136.148,-280.75 0,-6.33333 3.16667,3.16666 0.25,0.25 m -0.25,-0.25 0,-9.33333 m 9.33333,12.5 -6.16667,0 3.41667,-3.41667 m -9.75,139.16667 12.5,0 M 95.900333,-0.25 l -3,-3 -0.25,-0.25 m 36.049337,3.25 3,-3 0.25,-0.25 m 41.54933,3.25 -3,-3 -0.25,-0.25 m 23.41667,-6.0833333 0,9.3333333 m -3.16667,-6.1666667 3.16667,-3.1666666 0.25,-0.25 m 6.33333,0.5 -3.41667,-3.4166667 6.16667,0 m -12.5,0 0,6.3333333"
         style="fill:none;fill-rule:evenodd;stroke:#ff0000;stroke-width:0.28222224;stroke-miterlimit:4;stroke-dasharray:none;stroke-opacity:1"
         id="Edge080_nwe0000" />
    </g>
    <g
       id="text57300"
       style="font-style:normal;font-weight:normal;font-size:11.28888988px;line-height:125%;font-family:sans-serif;letter-spacing:0px;word-spacing:0px;fill:#000000;fill-opacity:1;stroke:none;stroke-width:1px;stroke-linecap:butt;stroke-linejoin:miter;stroke-opacity:1">
      <path
         id="path57324"
         d="m -109.80715,3.7701183 0,3.0151478 1.78594,0 q 0.89848,0 1.32843,-0.3693143 0.43546,-0.3748264 0.43546,-1.1410157 0,-0.7717015 -0.43546,-1.1355036 -0.42995,-0.3693142 -1.32843,-0.3693142 l -1.78594,0 z m 0,-3.38446215 0,2.48046895 1.64813,0 q 0.8158,0 1.21268,-0.3031684 0.40238,-0.3086806 0.40238,-0.9370661 0,-0.6228733 -0.40238,-0.93155387 -0.39688,-0.30868058 -1.21268,-0.30868058 l -1.64813,0 z m -1.11346,-0.91501745 2.84427,0 q 1.27331,0 1.96233,0.52916671738 0.68902,0.52916671262 0.68902,1.50481788262 0,0.755165 -0.35278,1.2016494 -0.35278,0.4464844 -1.03628,0.5567274 0.82131,0.176389 1.27331,0.7386286 0.4575,0.5567275 0.4575,1.3945748 0,1.1024306 -0.74965,1.7032553 -0.74965,0.6008247 -2.1332,0.6008247 l -2.95452,0 0,-8.2296448 z"
         inkscape:connector-curvature="0" />
      <path
         id="path57326"
         d="m -100.83337,2.2377396 q -0.81579,0 -1.28984,0.6394098 -0.47404,0.6338976 -0.47404,1.7418405 0,1.1079428 0.46853,1.7473525 0.47404,0.6338977 1.29535,0.6338977 0.81029,0 1.284336,-0.6394098 0.474045,-0.6394098 0.474045,-1.7418404 0,-1.0969185 -0.474045,-1.7363283 -0.474046,-0.644922 -1.284336,-0.644922 z m 0,-0.8598959 q 1.322921,0 2.078086,0.8598959 0.755165,0.859896 0.755165,2.3812503 0,1.5158421 -0.755165,2.3812502 -0.755165,0.8598959 -2.078086,0.8598959 -1.32842,0 -2.08359,-0.8598959 -0.74965,-0.8654081 -0.74965,-2.3812502 0,-1.5213543 0.74965,-2.3812503 0.75517,-0.8598959 2.08359,-0.8598959 z"
         inkscape:connector-curvature="0" />
      <path
         id="path57328"
         d="m -91.545388,1.5266719 -2.232422,3.0041235 2.348178,3.1694881 -1.196138,0 -1.796962,-2.4253474 -1.796962,2.4253474 -1.196137,0 2.397787,-3.2301218 -2.193837,-2.9434898 1.196137,0 1.63711,2.1993491 1.637109,-2.1993491 1.196137,0 z"
         inkscape:connector-curvature="0" />
      <path
         id="path57330"
         d="m -81.959753,1.7636945 0,0.9480903 q -0.429948,-0.2370226 -0.865408,-0.3527778 -0.429948,-0.1212674 -0.870921,-0.1212674 -0.986675,0 -1.532378,0.6283855 -0.545703,0.6228733 -0.545703,1.7528648 0,1.1299914 0.545703,1.7583768 0.545703,0.6228734 1.532378,0.6228734 0.440973,0 0.870921,-0.1157553 0.43546,-0.1212673 0.865408,-0.3582899 l 0,0.937066 q -0.424436,0.1984376 -0.881945,0.2976563 -0.451996,0.099219 -0.964627,0.099219 -1.394574,0 -2.215885,-0.8764324 -0.821311,-0.8764324 -0.821311,-2.3647137 0,-1.51033 0.826823,-2.3757381 0.832335,-0.8654081 2.276519,-0.8654081 0.468533,0 0.915018,0.099219 0.446484,0.093707 0.865408,0.286632 z"
         inkscape:connector-curvature="0" />
      <path
         id="path57332"
         d="m -80.289569,5.2639118 0,-3.7372399 1.014236,0 0,3.6986548 q 0,0.8764324 0.341753,1.3174046 0.341754,0.4354601 1.025261,0.4354601 0.821311,0 1.295356,-0.5236545 0.479557,-0.5236546 0.479557,-1.4276477 l 0,-3.5002173 1.014237,0 0,6.1736116 -1.014237,0 0,-0.9480903 q -0.369314,0.5622396 -0.859896,0.8378473 -0.485069,0.2700955 -1.129991,0.2700955 -1.063846,0 -1.615061,-0.6614584 -0.551215,-0.6614584 -0.551215,-1.9347658 z m 2.552127,-3.8860681 0,0 z"
         inkscape:connector-curvature="0" />
      <path
         id="path57334"
         d="m -72.015828,-0.22619287 0,1.75286477 2.089106,0 0,0.7882379 -2.089106,0 0,3.3513892 q 0,0.755165 0.203949,0.9701389 0.209462,0.214974 0.84336,0.214974 l 1.041797,0 0,0.8488716 -1.041797,0 q -1.174089,0 -1.620573,-0.4354601 -0.446485,-0.4409722 -0.446485,-1.5985244 l 0,-3.3513892 -0.74414,0 0,-0.7882379 0.74414,0 0,-1.75286477 1.019749,0 z"
         inkscape:connector-curvature="0" />
    </g>
  </g>
  <g
     id="g57427">
    <path
       d="m 170.499,293.75 1.09191,3 m -117.489911,-3 -1.091911,3 m 39.891244,-3 1.091911,3 m 37.707427,-3 -1.09191,3 M 199.999,122 l 3,1.09191 m -3,-31.84191 3,-1.091911 m -3,177.091911 3,-1.09191 m -3,-29.65809 3,1.09191 m -3,-31.84191 3,-1.09191 m -3,-29.65809 3,1.09191 m -3,-115.59191 3,1.091911 m -3,-31.841911 3,-1.091911 M 54.100999,3.25 l 1.091911,-3 m -21.09191,12.5 0,-12.5 m -0.1,12.5 0,-12.5 m 0.1,138.75 0,-126.25 m 156.398,0 -156.398,0 M 190.499,139 l 0,-126.25 m 0,126.25 0,9.5 m -156.398,9.5 156.398,0 m 0,126.25 -156.398,0 m 156.398,6.33333 0,6.16667 m 0,-12.5 6.33333,0 M 190.499,158 l 0,126.25 m 0,-126.25 12.5,0 m -12.5,-9.5 0,9.5 M 15.001,12.75 l 0,126.25 m 19.1,0 156.398,0 m 0,0 12.5,0 m -6.16667,-126.25 -6.33333,0 m 0,-6.3333333 0,-6.1666667 m -98.690578,0 1.09191,3 m 38.799338,0 1.09191,-3 m 37.70742,3 -1.09191,-3"
       style="fill:none;fill-rule:evenodd;stroke:#008000;stroke-width:0.28222224;stroke-miterlimit:4;stroke-dasharray:none;stroke-opacity:1"
       id="Edge119_nwe0000" />
    <g
       id="text57304"
       style="font-style:normal;font-weight:normal;font-size:11.28888988px;line-height:125%;font-family:sans-serif;letter-spacing:0px;word-spacing:0px;fill:#000000;fill-opacity:1;stroke:none;stroke-width:1px;stroke-linecap:butt;stroke-linejoin:miter;stroke-opacity:1">
      <path
         id="path57309"
         d="m -119.67939,20.510015 0,3.015147 1.78594,0 q 0.89848,0 1.32843,-0.369314 0.43546,-0.374826 0.43546,-1.141016 0,-0.771701 -0.43546,-1.135503 -0.42995,-0.369314 -1.32843,-0.369314 l -1.78594,0 z m 0,-3.384463 0,2.480469 1.64813,0 q 0.8158,0 1.21268,-0.303168 0.40239,-0.308681 0.40239,-0.937066 0,-0.622873 -0.40239,-0.931554 -0.39688,-0.308681 -1.21268,-0.308681 l -1.64813,0 z m -1.11345,-0.915017 2.84427,0 q 1.2733,0 1.96232,0.529167 0.68902,0.529166 0.68902,1.504818 0,0.755165 -0.35278,1.201649 -0.35277,0.446484 -1.03628,0.556727 0.82131,0.176389 1.27331,0.738629 0.45751,0.556727 0.45751,1.394575 0,1.10243 -0.74966,1.703255 -0.74965,0.600825 -2.1332,0.600825 l -2.95451,0 0,-8.229645 z"
         inkscape:connector-curvature="0" />
      <path
         id="path57311"
         d="m -110.7056,18.977636 q -0.8158,0 -1.28985,0.63941 -0.47404,0.633897 -0.47404,1.74184 0,1.107943 0.46853,1.747353 0.47405,0.633897 1.29536,0.633897 0.81028,0 1.28433,-0.639409 0.47404,-0.63941 0.47404,-1.741841 0,-1.096918 -0.47404,-1.736328 -0.47405,-0.644922 -1.28433,-0.644922 z m 0,-0.859896 q 1.32291,0 2.07808,0.859896 0.75516,0.859896 0.75516,2.38125 0,1.515842 -0.75516,2.38125 -0.75517,0.859896 -2.07808,0.859896 -1.32843,0 -2.0836,-0.859896 -0.74965,-0.865408 -0.74965,-2.38125 0,-1.521354 0.74965,-2.38125 0.75517,-0.859896 2.0836,-0.859896 z"
         inkscape:connector-curvature="0" />
      <path
         id="path57313"
         d="m -101.41763,18.266568 -2.23242,3.004124 2.34818,3.169488 -1.19614,0 -1.79696,-2.425348 -1.79696,2.425348 -1.19614,0 2.39779,-3.230122 -2.19384,-2.94349 1.19614,0 1.63711,2.199349 1.63711,-2.199349 1.19613,0 z"
         inkscape:connector-curvature="0" />
      <path
         id="path57315"
         d="m -93.149396,15.863269 0,0.84336 -0.970139,0 q -0.545703,0 -0.760677,0.220486 -0.209462,0.220486 -0.209462,0.79375 l 0,0.545703 1.670182,0 0,0.788238 -1.670182,0 0,5.385374 -1.019748,0 0,-5.385374 -0.970139,0 0,-0.788238 0.970139,0 0,-0.429948 q 0,-1.030772 0.479557,-1.499305 0.479557,-0.474046 1.521354,-0.474046 l 0.959115,0 z"
         inkscape:connector-curvature="0" />
      <path
         id="path57317"
         d="m -89.913762,18.977636 q -0.815799,0 -1.289844,0.63941 -0.474046,0.633897 -0.474046,1.74184 0,1.107943 0.468533,1.747353 0.474046,0.633897 1.295357,0.633897 0.810286,0 1.284331,-0.639409 0.474045,-0.63941 0.474045,-1.741841 0,-1.096918 -0.474045,-1.736328 -0.474045,-0.644922 -1.284331,-0.644922 z m 0,-0.859896 q 1.322916,0 2.078081,0.859896 0.755165,0.859896 0.755165,2.38125 0,1.515842 -0.755165,2.38125 -0.755165,0.859896 -2.078081,0.859896 -1.328429,0 -2.083594,-0.859896 -0.749653,-0.865408 -0.749653,-2.38125 0,-1.521354 0.749653,-2.38125 0.755165,-0.859896 2.083594,-0.859896 z"
         inkscape:connector-curvature="0" />
      <path
         id="path57319"
         d="m -85.40482,15.863269 1.014236,0 0,8.576911 -1.014236,0 0,-8.576911 z"
         inkscape:connector-curvature="0" />
      <path
         id="path57321"
         d="m -78.211458,19.203634 0,-3.340365 1.014236,0 0,8.576911 -1.014236,0 0,-0.926042 q -0.319705,0.551215 -0.810287,0.821311 -0.485069,0.264583 -1.168576,0.264583 -1.118968,0 -1.824523,-0.892969 -0.700044,-0.892968 -0.700044,-2.348177 0,-1.455208 0.700044,-2.348177 0.705555,-0.892969 1.824523,-0.892969 0.683507,0 1.168576,0.270096 0.490582,0.264583 0.810287,0.815798 z m -3.45612,2.155252 q 0,1.118967 0.457508,1.758377 0.463021,0.633898 1.267795,0.633898 0.804775,0 1.267796,-0.633898 0.463021,-0.63941 0.463021,-1.758377 0,-1.118967 -0.463021,-1.752865 -0.463021,-0.639409 -1.267796,-0.639409 -0.804774,0 -1.267795,0.639409 -0.457508,0.633898 -0.457508,1.752865 z"
         inkscape:connector-curvature="0" />
    </g>
  </g>
</svg>
