<?xml version="1.0" encoding="UTF-8" standalone="no"?>
<svg
   xmlns:dc="http://purl.org/dc/elements/1.1/"
   xmlns:cc="http://creativecommons.org/ns#"
   xmlns:rdf="http://www.w3.org/1999/02/22-rdf-syntax-ns#"
   xmlns:svg="http://www.w3.org/2000/svg"
   xmlns="http://www.w3.org/2000/svg"
   xmlns:sodipodi="http://sodipodi.sourceforge.net/DTD/sodipodi-0.dtd"
   xmlns:inkscape="http://www.inkscape.org/namespaces/inkscape"
   version="1.1"
   width="203.2mm"
   height="297mm"
   viewBox="0 0 203.2 297.00002"
   id="svg18857"
   inkscape:version="0.91 r13725"
   sodipodi:docname="box13g-freecad-8x297-19mm_thick-3mm_tabs.svg">
  <defs
     id="defs15788" />
  <metadata
     id="metadata18878">
    <rdf:RDF>
      <cc:Work
         rdf:about="">
        <dc:format>image/svg+xml</dc:format>
        <dc:type
           rdf:resource="http://purl.org/dc/dcmitype/StillImage" />
        <dc:title />
      </cc:Work>
    </rdf:RDF>
  </metadata>
  <sodipodi:namedview
     pagecolor="#ffffff"
     bordercolor="#666666"
     borderopacity="1"
     objecttolerance="10"
     gridtolerance="10"
     guidetolerance="10"
     inkscape:pageopacity="0"
     inkscape:pageshadow="2"
     inkscape:window-width="1920"
     inkscape:window-height="1080"
     id="namedview18876"
     showgrid="false"
     inkscape:zoom="0.63429568"
     inkscape:cx="45.031057"
     inkscape:cy="695.27077"
     inkscape:window-x="0"
     inkscape:window-y="0"
     inkscape:window-maximized="0"
     inkscape:current-layer="svg18857"
     units="mm" />
  <!-- Working space 0 0 203.2 297 -->
  <g
     id="ViewEdge"
     transform="rotate(0.0,0.0,0.0) translate(0.0,0.0) scale(1.0,-1.0)"
     style="stroke-width:0.28222225;stroke-miterlimit:4;stroke-dasharray:none" />
  <g
     id="ViewEdge001"
     transform="rotate(0.0,0.0,0.0) translate(0.0,0.0) scale(1.0,-1.0)"
     style="stroke:#008000;stroke-opacity:1;fill:none;stroke-width:0.28222225;stroke-miterlimit:4;stroke-dasharray:none" />
  <g
     id="ViewEdge002"
     transform="rotate(0.0,0.0,0.0) translate(0.0,0.0) scale(1.0,-1.0)"
     style="stroke-width:0.28222225;stroke-miterlimit:4;stroke-dasharray:none" />
  <g
     id="ViewEdge003"
     transform="rotate(0.0,0.0,0.0) translate(0.0,0.0) scale(1.0,-1.0)"
     style="stroke-width:0.28222225;stroke-miterlimit:4;stroke-dasharray:none" />
  <g
     id="ViewEdge004"
     transform="rotate(0.0,0.0,0.0) translate(0.0,0.0) scale(1.0,-1.0)"
     style="stroke:#008000;stroke-opacity:1;stroke-width:0.28222225;stroke-miterlimit:4;stroke-dasharray:none" />
  <g
     id="ViewEdge005"
     transform="rotate(0.0,0.0,0.0) translate(0.0,0.0) scale(1.0,-1.0)"
     style="stroke-width:0.28222225;stroke-miterlimit:4;stroke-dasharray:none" />
  <g
     id="ViewEdge006"
     transform="rotate(0.0,0.0,0.0) translate(0.0,0.0) scale(1.0,-1.0)"
     style="stroke-width:0.28222225;stroke-miterlimit:4;stroke-dasharray:none" />
  <g
     id="ViewEdge007"
     transform="rotate(0.0,0.0,0.0) translate(0.0,0.0) scale(1.0,-1.0)"
     style="stroke:#008000;stroke-opacity:1;stroke-width:0.28222225;stroke-miterlimit:4;stroke-dasharray:none" />
  <g
     id="ViewEdge008"
     transform="rotate(0.0,0.0,0.0) translate(0.0,0.0) scale(1.0,-1.0)"
     style="stroke-width:0.28222225;stroke-miterlimit:4;stroke-dasharray:none" />
  <g
     id="ViewEdge009"
     transform="rotate(0.0,0.0,0.0) translate(0.0,0.0) scale(1.0,-1.0)"
     style="stroke-width:0.28222225;stroke-miterlimit:4;stroke-dasharray:none" />
  <g
     id="ViewEdge010"
     transform="rotate(0.0,0.0,0.0) translate(0.0,0.0) scale(1.0,-1.0)"
     style="stroke-width:0.28222225;stroke-miterlimit:4;stroke-dasharray:none" />
  <g
     id="ViewEdge011"
     transform="rotate(0.0,0.0,0.0) translate(0.0,0.0) scale(1.0,-1.0)"
     style="stroke-width:0.28222225;stroke-miterlimit:4;stroke-dasharray:none" />
  <g
     id="ViewEdge012"
     transform="rotate(0.0,0.0,0.0) translate(0.0,0.0) scale(1.0,-1.0)"
     style="stroke-width:0.28222225;stroke-miterlimit:4;stroke-dasharray:none" />
  <g
     id="ViewEdge013"
     transform="rotate(0.0,0.0,0.0) translate(0.0,0.0) scale(1.0,-1.0)"
     style="stroke:#008000;stroke-opacity:1;fill:none;stroke-width:0.28222225;stroke-miterlimit:4;stroke-dasharray:none" />
  <g
     id="ViewEdge014"
     transform="rotate(0.0,0.0,0.0) translate(0.0,0.0) scale(1.0,-1.0)"
     style="stroke-width:0.28222225;stroke-miterlimit:4;stroke-dasharray:none" />
  <g
     id="ViewEdge015"
     transform="rotate(0.0,0.0,0.0) translate(0.0,0.0) scale(1.0,-1.0)"
     style="fill:none;fill-opacity:1;stroke:#008000;stroke-opacity:1;stroke-width:0.28222225;stroke-miterlimit:4;stroke-dasharray:none" />
  <g
     id="ViewEdge016"
     transform="rotate(0.0,0.0,0.0) translate(0.0,0.0) scale(1.0,-1.0)"
     style="fill:none;fill-opacity:1;stroke:#008000;stroke-opacity:1;stroke-width:0.28222225;stroke-miterlimit:4;stroke-dasharray:none" />
  <g
     id="ViewEdge017"
     transform="rotate(0.0,0.0,0.0) translate(0.0,0.0) scale(1.0,-1.0)"
     style="fill:none;fill-opacity:1;stroke:#008000;stroke-opacity:1;stroke-width:0.28222225;stroke-miterlimit:4;stroke-dasharray:none" />
  <g
     id="ViewEdge018"
     transform="rotate(0.0,0.0,0.0) translate(0.0,0.0) scale(1.0,-1.0)"
     style="stroke-width:0.28222225;stroke-miterlimit:4;stroke-dasharray:none" />
  <g
     id="ViewEdge019"
     transform="rotate(0.0,0.0,0.0) translate(0.0,0.0) scale(1.0,-1.0)"
     style="stroke-width:0.28222225;stroke-miterlimit:4;stroke-dasharray:none" />
  <g
     id="ViewEdge020"
     transform="rotate(0.0,0.0,0.0) translate(0.0,0.0) scale(1.0,-1.0)"
     style="stroke-width:0.28222225;stroke-miterlimit:4;stroke-dasharray:none" />
  <g
     id="ViewEdge021"
     transform="rotate(0.0,0.0,0.0) translate(0.0,0.0) scale(1.0,-1.0)"
     style="stroke-width:0.28222225;stroke-miterlimit:4;stroke-dasharray:none" />
  <g
     id="ViewEdge022"
     transform="rotate(0.0,0.0,0.0) translate(0.0,0.0) scale(1.0,-1.0)"
     style="stroke-width:0.28222225;stroke-miterlimit:4;stroke-dasharray:none" />
  <g
     id="ViewEdge023"
     transform="rotate(0.0,0.0,0.0) translate(0.0,0.0) scale(1.0,-1.0)"
     style="stroke-width:0.28222225;stroke-miterlimit:4;stroke-dasharray:none" />
  <g
     id="ViewEdge024"
     transform="rotate(0.0,0.0,0.0) translate(0.0,0.0) scale(1.0,-1.0)"
     style="stroke-width:0.28222225;stroke-miterlimit:4;stroke-dasharray:none" />
  <g
     id="ViewEdge025"
     transform="rotate(0.0,0.0,0.0) translate(0.0,0.0) scale(1.0,-1.0)"
     style="stroke:#008000;stroke-opacity:1;stroke-width:0.28222225;stroke-miterlimit:4;stroke-dasharray:none" />
  <g
     id="ViewEdge026"
     transform="rotate(0.0,0.0,0.0) translate(0.0,0.0) scale(1.0,-1.0)"
     style="stroke-width:0.28222225;stroke-miterlimit:4;stroke-dasharray:none" />
  <g
     id="ViewEdge027"
     transform="rotate(0.0,0.0,0.0) translate(0.0,0.0) scale(1.0,-1.0)"
     style="stroke-width:0.28222225;stroke-miterlimit:4;stroke-dasharray:none" />
  <g
     id="ViewEdge028"
     transform="rotate(0.0,0.0,0.0) translate(0.0,0.0) scale(1.0,-1.0)"
     style="stroke-width:0.28222225;stroke-miterlimit:4;stroke-dasharray:none" />
  <g
     id="ViewEdge029"
     transform="rotate(0.0,0.0,0.0) translate(0.0,0.0) scale(1.0,-1.0)"
     style="stroke-width:0.28222225;stroke-miterlimit:4;stroke-dasharray:none" />
  <g
     id="ViewEdge030"
     transform="rotate(0.0,0.0,0.0) translate(0.0,0.0) scale(1.0,-1.0)"
     style="stroke-width:0.28222225;stroke-miterlimit:4;stroke-dasharray:none" />
  <g
     id="ViewEdge031"
     transform="rotate(0.0,0.0,0.0) translate(0.0,0.0) scale(1.0,-1.0)"
     style="stroke:#008000;stroke-opacity:1;stroke-width:0.28222225;stroke-miterlimit:4;stroke-dasharray:none" />
  <g
     id="ViewEdge032"
     transform="rotate(0.0,0.0,0.0) translate(0.0,0.0) scale(1.0,-1.0)"
     style="stroke:#008000;stroke-opacity:1;stroke-width:0.28222225;stroke-miterlimit:4;stroke-dasharray:none" />
  <g
     id="ViewEdge033"
     transform="rotate(0.0,0.0,0.0) translate(0.0,0.0) scale(1.0,-1.0)"
     style="stroke-width:0.28222225;stroke-miterlimit:4;stroke-dasharray:none" />
  <g
     id="ViewEdge034"
     transform="rotate(0.0,0.0,0.0) translate(0.0,0.0) scale(1.0,-1.0)"
     style="stroke-width:0.28222225;stroke-miterlimit:4;stroke-dasharray:none" />
  <g
     id="ViewEdge035"
     transform="rotate(0.0,0.0,0.0) translate(0.0,0.0) scale(1.0,-1.0)"
     style="stroke-width:0.28222225;stroke-miterlimit:4;stroke-dasharray:none" />
  <g
     id="ViewEdge036"
     transform="rotate(0.0,0.0,0.0) translate(0.0,0.0) scale(1.0,-1.0)"
     style="stroke-width:0.28222225;stroke-miterlimit:4;stroke-dasharray:none" />
  <g
     id="ViewEdge037"
     transform="rotate(0.0,0.0,0.0) translate(0.0,0.0) scale(1.0,-1.0)"
     style="stroke-width:0.28222225;stroke-miterlimit:4;stroke-dasharray:none" />
  <g
     id="ViewEdge038"
     transform="rotate(0.0,0.0,0.0) translate(0.0,0.0) scale(1.0,-1.0)"
     style="stroke-width:0.28222225;stroke-miterlimit:4;stroke-dasharray:none" />
  <g
     id="ViewEdge039"
     transform="rotate(0.0,0.0,0.0) translate(0.0,0.0) scale(1.0,-1.0)"
     style="fill:none;fill-opacity:1;stroke:#008000;stroke-opacity:1;stroke-width:0.28222225;stroke-miterlimit:4;stroke-dasharray:none" />
  <g
     id="ViewEdge040"
     transform="rotate(0.0,0.0,0.0) translate(0.0,0.0) scale(1.0,-1.0)"
     style="fill:none;fill-opacity:1;stroke:#008000;stroke-opacity:1;stroke-width:0.28222225;stroke-miterlimit:4;stroke-dasharray:none" />
  <g
     id="ViewEdge041"
     transform="rotate(0.0,0.0,0.0) translate(0.0,0.0) scale(1.0,-1.0)"
     style="stroke-width:0.28222225;stroke-miterlimit:4;stroke-dasharray:none" />
  <g
     id="ViewEdge042"
     transform="rotate(0.0,0.0,0.0) translate(0.0,0.0) scale(1.0,-1.0)"
     style="fill:none;fill-opacity:1;stroke:#008000;stroke-opacity:1;stroke-width:0.28222225;stroke-miterlimit:4;stroke-dasharray:none" />
  <g
     id="ViewEdge043"
     transform="rotate(0.0,0.0,0.0) translate(0.0,0.0) scale(1.0,-1.0)"
     style="stroke-width:0.28222225;stroke-miterlimit:4;stroke-dasharray:none" />
  <g
     id="ViewEdge044"
     transform="rotate(0.0,0.0,0.0) translate(0.0,0.0) scale(1.0,-1.0)"
     style="stroke-width:0.28222225;stroke-miterlimit:4;stroke-dasharray:none" />
  <g
     id="ViewEdge045"
     transform="rotate(0.0,0.0,0.0) translate(0.0,0.0) scale(1.0,-1.0)"
     style="stroke:#008000;stroke-opacity:1;stroke-width:0.28222225;stroke-miterlimit:4;stroke-dasharray:none" />
  <g
     id="ViewEdge046"
     transform="rotate(0.0,0.0,0.0) translate(0.0,0.0) scale(1.0,-1.0)"
     style="stroke-width:0.28222225;stroke-miterlimit:4;stroke-dasharray:none" />
  <g
     id="ViewEdge047"
     transform="rotate(0.0,0.0,0.0) translate(0.0,0.0) scale(1.0,-1.0)"
     style="stroke-width:0.28222225;stroke-miterlimit:4;stroke-dasharray:none" />
  <g
     id="ViewEdge048"
     transform="rotate(0.0,0.0,0.0) translate(0.0,0.0) scale(1.0,-1.0)"
     style="stroke-width:0.28222225;stroke-miterlimit:4;stroke-dasharray:none" />
  <g
     id="ViewEdge049"
     transform="rotate(0.0,0.0,0.0) translate(0.0,0.0) scale(1.0,-1.0)"
     style="stroke-width:0.28222225;stroke-miterlimit:4;stroke-dasharray:none" />
  <g
     id="ViewEdge050"
     transform="rotate(0.0,0.0,0.0) translate(0.0,0.0) scale(1.0,-1.0)"
     style="fill:none;fill-opacity:1;stroke:#008000;stroke-opacity:1;stroke-width:0.28222225;stroke-miterlimit:4;stroke-dasharray:none" />
  <g
     id="ViewEdge051"
     transform="rotate(0.0,0.0,0.0) translate(0.0,0.0) scale(1.0,-1.0)"
     style="fill:none;fill-opacity:1;stroke:#008000;stroke-opacity:1;stroke-width:0.28222225;stroke-miterlimit:4;stroke-dasharray:none" />
  <g
     id="ViewEdge052"
     transform="rotate(0.0,0.0,0.0) translate(0.0,0.0) scale(1.0,-1.0)"
     style="fill:none;fill-opacity:1;stroke:#008000;stroke-opacity:1;stroke-width:0.28222225;stroke-miterlimit:4;stroke-dasharray:none" />
  <g
     id="ViewEdge053"
     transform="rotate(0.0,0.0,0.0) translate(0.0,0.0) scale(1.0,-1.0)"
     style="stroke-width:0.28222225;stroke-miterlimit:4;stroke-dasharray:none" />
  <g
     id="ViewEdge054"
     transform="rotate(0.0,0.0,0.0) translate(0.0,0.0) scale(1.0,-1.0)"
     style="fill:none;fill-opacity:1;stroke:#008000;stroke-opacity:1;stroke-width:0.28222225;stroke-miterlimit:4;stroke-dasharray:none" />
  <g
     id="ViewEdge055"
     transform="rotate(0.0,0.0,0.0) translate(0.0,0.0) scale(1.0,-1.0)"
     style="fill:none;fill-opacity:1;stroke:#008000;stroke-opacity:1;stroke-width:0.28222225;stroke-miterlimit:4;stroke-dasharray:none" />
  <g
     id="ViewEdge056"
     transform="rotate(0.0,0.0,0.0) translate(0.0,0.0) scale(1.0,-1.0)"
     style="fill:none;fill-opacity:1;stroke:#008000;stroke-opacity:1;stroke-width:0.28222225;stroke-miterlimit:4;stroke-dasharray:none" />
  <g
     id="ViewEdge057"
     transform="rotate(0.0,0.0,0.0) translate(0.0,0.0) scale(1.0,-1.0)"
     style="stroke-width:0.28222225;stroke-miterlimit:4;stroke-dasharray:none" />
  <g
     id="ViewEdge058"
     transform="rotate(0.0,0.0,0.0) translate(0.0,0.0) scale(1.0,-1.0)"
     style="stroke-width:0.28222225;stroke-miterlimit:4;stroke-dasharray:none" />
  <g
     id="ViewEdge059"
     transform="rotate(0.0,0.0,0.0) translate(0.0,0.0) scale(1.0,-1.0)"
     style="stroke-width:0.28222225;stroke-miterlimit:4;stroke-dasharray:none" />
  <g
     id="ViewEdge060"
     transform="rotate(0.0,0.0,0.0) translate(0.0,0.0) scale(1.0,-1.0)"
     style="stroke-width:0.28222225;stroke-miterlimit:4;stroke-dasharray:none" />
  <g
     id="ViewEdge061"
     transform="rotate(0.0,0.0,0.0) translate(0.0,0.0) scale(1.0,-1.0)"
     style="stroke-width:0.28222225;stroke-miterlimit:4;stroke-dasharray:none" />
  <g
     id="ViewEdge062"
     transform="rotate(0.0,0.0,0.0) translate(0.0,0.0) scale(1.0,-1.0)"
     style="stroke-width:0.28222225;stroke-miterlimit:4;stroke-dasharray:none" />
  <g
     id="ViewEdge063"
     transform="rotate(0.0,0.0,0.0) translate(0.0,0.0) scale(1.0,-1.0)"
     style="stroke-width:0.28222225;stroke-miterlimit:4;stroke-dasharray:none" />
  <g
     id="ViewEdge064"
     transform="rotate(0.0,0.0,0.0) translate(0.0,0.0) scale(1.0,-1.0)"
     style="stroke-width:0.28222225;stroke-miterlimit:4;stroke-dasharray:none" />
  <g
     id="ViewEdge065"
     transform="rotate(0.0,0.0,0.0) translate(0.0,0.0) scale(1.0,-1.0)"
     style="stroke-width:0.28222225;stroke-miterlimit:4;stroke-dasharray:none" />
  <g
     id="ViewEdge066"
     transform="rotate(0.0,0.0,0.0) translate(0.0,0.0) scale(1.0,-1.0)"
     style="stroke-width:0.28222225;stroke-miterlimit:4;stroke-dasharray:none" />
  <g
     id="ViewEdge067"
     transform="rotate(0.0,0.0,0.0) translate(0.0,0.0) scale(1.0,-1.0)"
     style="fill:none;stroke:#008000;stroke-opacity:1;stroke-width:0.28222225;stroke-miterlimit:4;stroke-dasharray:none" />
  <g
     id="ViewEdge068"
     transform="rotate(0.0,0.0,0.0) translate(0.0,0.0) scale(1.0,-1.0)"
     style="stroke-width:0.28222225;stroke-miterlimit:4;stroke-dasharray:none" />
  <g
     id="ViewEdge069"
     transform="rotate(0.0,0.0,0.0) translate(0.0,0.0) scale(1.0,-1.0)"
     style="fill:none;stroke:#008000;stroke-opacity:1;stroke-width:0.28222225;stroke-miterlimit:4;stroke-dasharray:none" />
  <g
     id="ViewEdge070"
     transform="rotate(0.0,0.0,0.0) translate(0.0,0.0) scale(1.0,-1.0)"
     style="stroke-width:0.28222225;stroke-miterlimit:4;stroke-dasharray:none" />
  <g
     id="ViewEdge071"
     transform="rotate(0.0,0.0,0.0) translate(0.0,0.0) scale(1.0,-1.0)"
     style="stroke-width:0.28222225;stroke-miterlimit:4;stroke-dasharray:none" />
  <g
     id="ViewEdge072"
     transform="rotate(0.0,0.0,0.0) translate(0.0,0.0) scale(1.0,-1.0)"
     style="stroke-width:0.28222225;stroke-miterlimit:4;stroke-dasharray:none" />
  <g
     id="ViewEdge073"
     transform="rotate(0.0,0.0,0.0) translate(0.0,0.0) scale(1.0,-1.0)"
     style="fill:none;stroke:#008000;stroke-opacity:1;stroke-width:0.28222225;stroke-miterlimit:4;stroke-dasharray:none" />
  <g
     id="ViewEdge074"
     transform="rotate(0.0,0.0,0.0) translate(0.0,0.0) scale(1.0,-1.0)"
     style="stroke-width:0.28222225;stroke-miterlimit:4;stroke-dasharray:none" />
  <g
     id="ViewEdge075"
     transform="rotate(0.0,0.0,0.0) translate(0.0,0.0) scale(1.0,-1.0)"
     style="stroke-width:0.28222225;stroke-miterlimit:4;stroke-dasharray:none" />
  <g
     id="ViewEdge076"
     transform="rotate(0.0,0.0,0.0) translate(0.0,0.0) scale(1.0,-1.0)"
     style="stroke-width:0.28222225;stroke-miterlimit:4;stroke-dasharray:none" />
  <g
     id="ViewEdge077"
     transform="rotate(0.0,0.0,0.0) translate(0.0,0.0) scale(1.0,-1.0)"
     style="stroke:#008000;stroke-opacity:1;stroke-width:0.28222225;stroke-miterlimit:4;stroke-dasharray:none" />
  <g
     id="ViewEdge078"
     transform="rotate(0.0,0.0,0.0) translate(0.0,0.0) scale(1.0,-1.0)"
     style="stroke-width:0.28222225;stroke-miterlimit:4;stroke-dasharray:none" />
  <g
     id="ViewEdge079"
     transform="rotate(0.0,0.0,0.0) translate(0.0,0.0) scale(1.0,-1.0)"
     style="stroke-width:0.28222225;stroke-miterlimit:4;stroke-dasharray:none" />
  <g
     id="ViewEdge080"
     transform="rotate(0.0,0.0,0.0) translate(0.0,0.0) scale(1.0,-1.0)"
     style="stroke-width:0.28222225;stroke-miterlimit:4;stroke-dasharray:none" />
  <g
     id="ViewEdge081"
     transform="rotate(0.0,0.0,0.0) translate(0.0,0.0) scale(1.0,-1.0)"
     style="stroke:#008000;stroke-opacity:1;stroke-width:0.28222225;stroke-miterlimit:4;stroke-dasharray:none" />
  <g
     id="ViewEdge082"
     transform="rotate(0.0,0.0,0.0) translate(0.0,0.0) scale(1.0,-1.0)"
     style="stroke-width:0.28222225;stroke-miterlimit:4;stroke-dasharray:none" />
  <g
     id="ViewEdge083"
     transform="rotate(0.0,0.0,0.0) translate(0.0,0.0) scale(1.0,-1.0)"
     style="stroke:#008000;stroke-opacity:1;stroke-width:0.28222225;stroke-miterlimit:4;stroke-dasharray:none" />
  <g
     id="ViewEdge084"
     transform="rotate(0.0,0.0,0.0) translate(0.0,0.0) scale(1.0,-1.0)"
     style="stroke-width:0.28222225;stroke-miterlimit:4;stroke-dasharray:none" />
  <g
     id="ViewEdge085"
     transform="rotate(0.0,0.0,0.0) translate(0.0,0.0) scale(1.0,-1.0)"
     style="stroke-width:0.28222225;stroke-miterlimit:4;stroke-dasharray:none" />
  <g
     id="ViewEdge086"
     transform="rotate(0.0,0.0,0.0) translate(0.0,0.0) scale(1.0,-1.0)"
     style="stroke-width:0.28222225;stroke-miterlimit:4;stroke-dasharray:none" />
  <g
     id="ViewEdge087"
     transform="rotate(0.0,0.0,0.0) translate(0.0,0.0) scale(1.0,-1.0)"
     style="stroke-width:0.28222225;stroke-miterlimit:4;stroke-dasharray:none" />
  <g
     id="ViewEdge088"
     transform="rotate(0.0,0.0,0.0) translate(0.0,0.0) scale(1.0,-1.0)"
     style="stroke:#008000;stroke-opacity:1;stroke-width:0.28222225;stroke-miterlimit:4;stroke-dasharray:none" />
  <g
     id="ViewEdge089"
     transform="rotate(0.0,0.0,0.0) translate(0.0,0.0) scale(1.0,-1.0)"
     style="stroke-width:0.28222225;stroke-miterlimit:4;stroke-dasharray:none" />
  <g
     id="ViewEdge090"
     transform="rotate(0.0,0.0,0.0) translate(0.0,0.0) scale(1.0,-1.0)"
     style="stroke-width:0.28222225;stroke-miterlimit:4;stroke-dasharray:none" />
  <g
     id="ViewEdge091"
     transform="rotate(0.0,0.0,0.0) translate(0.0,0.0) scale(1.0,-1.0)"
     style="stroke:#008000;stroke-opacity:1;stroke-width:0.28222225;stroke-miterlimit:4;stroke-dasharray:none" />
  <g
     id="ViewEdge092"
     transform="rotate(0.0,0.0,0.0) translate(0.0,0.0) scale(1.0,-1.0)"
     style="stroke-width:0.28222225;stroke-miterlimit:4;stroke-dasharray:none" />
  <g
     id="ViewEdge093"
     transform="rotate(0.0,0.0,0.0) translate(0.0,0.0) scale(1.0,-1.0)"
     style="stroke-width:0.28222225;stroke-miterlimit:4;stroke-dasharray:none" />
  <g
     id="ViewEdge094"
     transform="rotate(0.0,0.0,0.0) translate(0.0,0.0) scale(1.0,-1.0)"
     style="stroke-width:0.28222225;stroke-miterlimit:4;stroke-dasharray:none" />
  <g
     id="ViewEdge095"
     transform="rotate(0.0,0.0,0.0) translate(0.0,0.0) scale(1.0,-1.0)"
     style="stroke-width:0.28222225;stroke-miterlimit:4;stroke-dasharray:none" />
  <g
     id="ViewEdge096"
     transform="rotate(0.0,0.0,0.0) translate(0.0,0.0) scale(1.0,-1.0)"
     style="stroke:#008000;stroke-opacity:1;stroke-width:0.28222225;stroke-miterlimit:4;stroke-dasharray:none" />
  <g
     id="ViewEdge097"
     transform="rotate(0.0,0.0,0.0) translate(0.0,0.0) scale(1.0,-1.0)"
     style="stroke:#008000;stroke-opacity:1;stroke-width:0.28222225;stroke-miterlimit:4;stroke-dasharray:none" />
  <g
     id="ViewEdge098"
     transform="rotate(0.0,0.0,0.0) translate(0.0,0.0) scale(1.0,-1.0)"
     style="stroke-width:0.28222225;stroke-miterlimit:4;stroke-dasharray:none" />
  <g
     id="ViewEdge099"
     transform="rotate(0.0,0.0,0.0) translate(0.0,0.0) scale(1.0,-1.0)"
     style="stroke-width:0.28222225;stroke-miterlimit:4;stroke-dasharray:none" />
  <g
     id="ViewEdge100"
     transform="rotate(0.0,0.0,0.0) translate(0.0,0.0) scale(1.0,-1.0)"
     style="stroke-width:0.28222225;stroke-miterlimit:4;stroke-dasharray:none" />
  <g
     id="ViewEdge101"
     transform="rotate(0.0,0.0,0.0) translate(0.0,0.0) scale(1.0,-1.0)"
     style="stroke-width:0.28222225;stroke-miterlimit:4;stroke-dasharray:none" />
  <g
     id="ViewEdge102"
     transform="rotate(0.0,0.0,0.0) translate(0.0,0.0) scale(1.0,-1.0)"
     style="stroke:#008000;stroke-opacity:1;stroke-width:0.28222225;stroke-miterlimit:4;stroke-dasharray:none" />
  <g
     id="ViewEdge103"
     transform="rotate(0.0,0.0,0.0) translate(0.0,0.0) scale(1.0,-1.0)"
     style="stroke:#008000;stroke-opacity:1;stroke-width:0.28222225;stroke-miterlimit:4;stroke-dasharray:none" />
  <g
     id="ViewEdge104"
     transform="rotate(0.0,0.0,0.0) translate(0.0,0.0) scale(1.0,-1.0)"
     style="stroke-width:0.28222225;stroke-miterlimit:4;stroke-dasharray:none" />
  <g
     id="ViewEdge105"
     transform="rotate(0.0,0.0,0.0) translate(0.0,0.0) scale(1.0,-1.0)"
     style="stroke-width:0.28222225;stroke-miterlimit:4;stroke-dasharray:none" />
  <g
     id="ViewEdge106"
     transform="rotate(0.0,0.0,0.0) translate(0.0,0.0) scale(1.0,-1.0)"
     style="stroke:#008000;stroke-opacity:1;stroke-width:0.28222225;stroke-miterlimit:4;stroke-dasharray:none" />
  <g
     id="ViewEdge107"
     transform="rotate(0.0,0.0,0.0) translate(0.0,0.0) scale(1.0,-1.0)"
     style="stroke-width:0.28222225;stroke-miterlimit:4;stroke-dasharray:none" />
  <g
     id="ViewEdge108"
     transform="rotate(0.0,0.0,0.0) translate(0.0,0.0) scale(1.0,-1.0)"
     style="stroke-width:0.28222225;stroke-miterlimit:4;stroke-dasharray:none" />
  <g
     id="ViewEdge109"
     transform="rotate(0.0,0.0,0.0) translate(0.0,0.0) scale(1.0,-1.0)"
     style="stroke-width:0.28222225;stroke-miterlimit:4;stroke-dasharray:none" />
  <g
     id="ViewEdge110"
     transform="rotate(0.0,0.0,0.0) translate(0.0,0.0) scale(1.0,-1.0)"
     style="stroke-width:0.28222225;stroke-miterlimit:4;stroke-dasharray:none" />
  <g
     id="ViewEdge111"
     transform="rotate(0.0,0.0,0.0) translate(0.0,0.0) scale(1.0,-1.0)"
     style="stroke:#008000;stroke-opacity:1;stroke-width:0.28222225;stroke-miterlimit:4;stroke-dasharray:none" />
  <g
     id="ViewEdge112"
     transform="rotate(0.0,0.0,0.0) translate(0.0,0.0) scale(1.0,-1.0)"
     style="stroke-width:0.28222225;stroke-miterlimit:4;stroke-dasharray:none" />
  <g
     id="ViewEdge113"
     transform="rotate(0.0,0.0,0.0) translate(0.0,0.0) scale(1.0,-1.0)"
     style="stroke-width:0.28222225;stroke-miterlimit:4;stroke-dasharray:none" />
  <g
     id="ViewEdge114"
     transform="rotate(0.0,0.0,0.0) translate(0.0,0.0) scale(1.0,-1.0)"
     style="stroke:#008000;stroke-opacity:1;stroke-width:0.28222225;stroke-miterlimit:4;stroke-dasharray:none" />
  <g
     id="ViewEdge115"
     transform="rotate(0.0,0.0,0.0) translate(0.0,0.0) scale(1.0,-1.0)"
     style="stroke-width:0.28222225;stroke-miterlimit:4;stroke-dasharray:none" />
  <g
     id="ViewEdge116"
     transform="rotate(0.0,0.0,0.0) translate(0.0,0.0) scale(1.0,-1.0)"
     style="stroke-width:0.28222225;stroke-miterlimit:4;stroke-dasharray:none" />
  <g
     id="ViewEdge117"
     transform="rotate(0.0,0.0,0.0) translate(0.0,0.0) scale(1.0,-1.0)"
     style="stroke:#008000;stroke-opacity:1;stroke-width:0.28222225;stroke-miterlimit:4;stroke-dasharray:none" />
  <g
     id="ViewEdge118"
     transform="rotate(0.0,0.0,0.0) translate(0.0,0.0) scale(1.0,-1.0)"
     style="stroke-width:0.28222225;stroke-miterlimit:4;stroke-dasharray:none" />
  <g
     id="ViewEdge119"
     transform="rotate(0.0,0.0,0.0) translate(0.0,0.0) scale(1.0,-1.0)"
     style="stroke-width:0.28222225;stroke-miterlimit:4;stroke-dasharray:none" />
  <g
     id="ViewEdge120"
     transform="rotate(0.0,0.0,0.0) translate(0.0,0.0) scale(1.0,-1.0)"
     style="stroke:#008000;stroke-opacity:1;stroke-width:0.28222225;stroke-miterlimit:4;stroke-dasharray:none" />
  <g
     id="ViewEdge121"
     transform="rotate(0.0,0.0,0.0) translate(0.0,0.0) scale(1.0,-1.0)"
     style="stroke-width:0.28222225;stroke-miterlimit:4;stroke-dasharray:none" />
  <g
     id="ViewEdge122"
     transform="rotate(0.0,0.0,0.0) translate(0.0,0.0) scale(1.0,-1.0)"
     style="stroke-width:0.28222225;stroke-miterlimit:4;stroke-dasharray:none" />
  <g
     id="ViewEdge123"
     transform="rotate(0.0,0.0,0.0) translate(0.0,0.0) scale(1.0,-1.0)"
     style="stroke:#008000;stroke-opacity:1;stroke-width:0.28222225;stroke-miterlimit:4;stroke-dasharray:none">
    <path
       id="Edge123_nwe0000"
       style="stroke-width:0.28222225;stroke-miterlimit:4;stroke-dasharray:none;fill:none;fill-rule:evenodd;stroke:#008000;stroke-opacity:1"
       d="m 170.499,-293.999 1.09191,-3 m -117.48991,3 -1.091911,-3 m 39.891244,3 1.091911,-3 m 37.707426,3 -1.09191,-3 m 69.39124,174.9495 3,-1.09191 m -3,31.90841 3,1.091911 m -3,-177.357911 3,1.09191 m -3,29.72459 3,-1.09191 m -3,31.90841 3,1.09191 m -3,29.72459 3,-1.09191 m -3,115.72491 3,-1.091911 m -3,31.908411 3,1.091911 M 170.499,-3.1 l -1.09191,3 m -37.70742,-3 1.09191,3 m -40.983157,0 1.09191,-3 m -38.799333,0 1.091911,3 M 34.101,-12.6 l 0,12.5 m -0.1,-12.5 0,12.5 m 0.1,-138.9495 0,126.4495 m 156.398,0 -156.398,0 m 156.398,-126.4495 0,126.4495 m -156.398,-145.4495 156.398,0 m 0,-126.4495 -156.398,0 m 156.398,-4.65894 0,4.65894 m 6.78035,-5.22737 -2.12141,0.56843 m 0,4.65894 7.84106,0 m -12.5,126.4495 0,-126.4495 m 0,126.4495 12.5,0 m -3,12.5 -1.39892,-3 m 1.39892,-3 -1.39892,3 m 1.39892,-145.4495 -1.39892,-3 M 15.001,-12.6 l 0,-126.4495 m 19.1,0 156.398,0 m 0,0 12.5,0 m -7.84106,126.4495 7.84106,0 m -3,9.5 -1.39892,3 m -3.44214,-7.8410582 2.12141,0.5684303 M 190.499,-12.6 l 0,4.6589418" />
  </g>
  <g
     id="ViewEdge124"
     transform="rotate(0.0,0.0,0.0) translate(0.0,0.0) scale(1.0,-1.0)"
     style="stroke-width:0.28222225;stroke-miterlimit:4;stroke-dasharray:none" />
  <g
     id="ViewEdge125"
     transform="rotate(0.0,0.0,0.0) translate(0.0,0.0) scale(1.0,-1.0)"
     style="stroke-width:0.28222225;stroke-miterlimit:4;stroke-dasharray:none" />
  <g
     id="ViewEdge126"
     transform="rotate(0.0,0.0,0.0) translate(0.0,0.0) scale(1.0,-1.0)"
     style="stroke-width:0.28222225;stroke-miterlimit:4;stroke-dasharray:none" />
  <g
     id="ViewEdge127"
     transform="rotate(0.0,0.0,0.0) translate(0.0,0.0) scale(1.0,-1.0)"
     style="stroke-width:2.82222252;stroke-miterlimit:4;stroke-dasharray:none;stroke:#000000;stroke-opacity:1;fill:none">
    <path
       id="Edge127_nwe0000"
       d="M 112.3 -284.499 L 112.3 -221.27425 "
       stroke="#191919"
       stroke-width="0.35 px"
       style="stroke-width:2.82222252;stroke-miterlimit:4;stroke-dasharray:none;fill:none;fill-rule:evenodd;stroke:#000000;stroke-opacity:1" />
  </g>
  <g
     id="ViewEdge128"
     transform="rotate(0.0,0.0,0.0) translate(0.0,0.0) scale(1.0,-1.0)"
     style="stroke-width:0.28222225;stroke-miterlimit:4;stroke-dasharray:none" />
  <g
     id="ViewEdge129"
     transform="rotate(0.0,0.0,0.0) translate(0.0,0.0) scale(1.0,-1.0)"
     style="stroke-width:0.28222225;stroke-miterlimit:4;stroke-dasharray:none" />
  <g
     id="ViewEdge130"
     transform="rotate(0.0,0.0,0.0) translate(0.0,0.0) scale(1.0,-1.0)"
     style="stroke-width:0.28222225;stroke-miterlimit:4;stroke-dasharray:none" />
  <g
     id="ViewEdge131"
     transform="rotate(0.0,0.0,0.0) translate(0.0,0.0) scale(1.0,-1.0)"
     style="stroke-width:0.28222225;stroke-miterlimit:4;stroke-dasharray:none" />
  <g
     id="ViewEdge132"
     transform="rotate(0.0,0.0,0.0) translate(0.0,0.0) scale(1.0,-1.0)"
     style="stroke-width:0.28222225;stroke-miterlimit:4;stroke-dasharray:none" />
  <g
     id="ViewEdge133"
     transform="rotate(0.0,0.0,0.0) translate(0.0,0.0) scale(1.0,-1.0)"
     style="stroke-width:0.28222225;stroke-miterlimit:4;stroke-dasharray:none">
    <path
       id="Edge133_nwe0000"
       style="stroke-width:0.28222225;stroke-miterlimit:4;stroke-dasharray:none;fill:none;fill-rule:evenodd;stroke:#ff0000;stroke-opacity:1"
       d="m 49.101,-230.43807 a 2.9169822,2.9169822 0 0 1 -3.876454,3.87645 m 0,10.57474 a 5.8339644,5.8339644 0 1 1 0,-10.57474 m 0,10.57474 a 2.9169822,2.9169822 0 0 1 3.876454,3.87645 m -6.4798,-60.99207 a 2.9169822,2.9169822 0 0 1 0,5.48214 m 7.477467,7.47746 a 5.8339644,5.8339644 0 1 1 -7.477467,-7.47746 m 7.477467,7.47746 a 2.9169822,2.9169822 0 0 1 5.482133,0 m 0,77.7373 a 2.9169822,2.9169822 0 0 1 -5.482133,0 m -7.477467,7.47746 a 5.8339644,5.8339644 0 1 1 7.477467,-7.47746 m -7.477467,7.47746 a 2.9169822,2.9169822 0 0 1 0,5.48214 m 127.8778,-124.553 0.25,0.25 m -3.25,-3.25 3,3 m -116.398,0 -0.25,0.25 m 3.25,-3.25 -3,3 m 38.799333,0 0.25,0.25 m -3.25,-3.25 3,3 m 38.799337,0 -0.25,0.25 m 3.25,-3.25 -3,3 m 68.29933,171.9495 -0.25,-0.25 m 3.25,3.25 -3,-3 m 0,30.8165 3,-3 m -3,3 -0.25,0.25 m 0.25,-176.516 3,-3 m -3,3 -0.25,0.25 m 0.25,30.5665 -0.25,-0.25 m 3.25,3.25 -3,-3 m 0,30.8165 3,-3 m -3,3 -0.25,0.25 m 0.25,30.5665 -0.25,-0.25 m 3.25,3.25 -3,-3 m 0,114.633 3,3 m -3,-3 -0.25,-0.25 m 0.25,31.0665 3,-3 m -3,3 -0.25,0.25 m -9.25,21.4089418 0,7.8410582 m -17,0 17,0 m -20,-3 3,3 m -3,-3 -0.25,-0.25 m -41.54933,3.25 44.79933,0 m -41.79933,-3 0.25,-0.25 m -3.25,3.25 3,-3 m -35.799337,3 32.799337,0 m -35.799337,-3 -0.25,-0.25 m 3.25,3.25 -3,-3 m -41.799333,3 44.799333,0 m -41.799333,-3 0.25,-0.25 m -3.25,3.25 3,-3 m -20,3 17,0 m -17.1,-12.5 0.1,0 m -23.1,12.5 23.1,0 m -20.1,-3 -3,3 m 3,-3 -3,-3 m 0,0 0,-6.5 m 0,0 23,0 m -19,0 19,0 m -34,-17.876304 a 15,17.876304 0 0 1 15,17.876304 m -15,-108.5732 0,90.696896 m 15,-108.573196 a 15,17.876304 0 0 1 -15,17.8763 m 34.1,-17.8763 -19.1,0 m 175.498,0 0,-9.5 m 0,-140.60844 3.67439,-3.67439 m 0,0 1.55298,1.55298 m 0,0 -0.56843,2.12141 m 0.56843,-2.12141 1.55298,1.55298 m -2.12141,5.22737 0,-4.65894 m -4.65894,4.65894 4.65894,0 m -4.65894,-4.65894 0,-7.84106 m 0,148.4495 0,-9.5 m 0,9.5 12.5,0 m 0,0 -3,-3 m 3,3 -3,3 m 3,3 0,3.5 m -3,-6.5 3,3 m 0,-12 -3,3 m 3,-6.5 0,3.5 m 0,-3.5 0,-126.4495 m 0,0 0,-6.5 m 0,0 -3,-3 m 0,0 3,-3 m -12.5,0 12.5,0 m -12.5,0 -156.398,0 m 0,12.5 0,-12.5 m 0,138.9495 0,-126.4495 m 0,135.9495 0,-9.5 m 0,19 0,-9.5 M 202.999,-12.6 l 0,-126.4495 m -7.84106,131.1084418 0,-4.6589418 m 0.56843,6.7803527 -0.56843,-2.1214109 m 2.12141,0.5684303 -1.55298,1.5529806 M 202.999,-6.1 l -3,3 m 3,-9.5 0,6.5 m 0,6 -12.5,0 m 9.5,-3 3,3 m -7.27263,-5.7196473 -1.55298,1.5529806 m -3.67439,-3.6743915 3.67439,3.6743915 M 195.15794,-12.6 l -4.65894,0" />
  </g>
  <g
     id="ViewEdge134"
     transform="rotate(0.0,0.0,0.0) translate(0.0,0.0) scale(1.0,-1.0)"
     style="stroke-width:2.82222252;stroke-miterlimit:4;stroke-dasharray:none;stroke:#000000;stroke-opacity:1;fill:none">
    <path
       id="Edge134_nwe0000"
       d="M 112.3 -75.82475 L 112.3 -12.6 "
       stroke="#191919"
       stroke-width="0.35 px"
       style="stroke-width:2.82222252;stroke-miterlimit:4;stroke-dasharray:none;fill:none;fill-rule:evenodd;stroke:#000000;stroke-opacity:1" />
  </g>
</svg>
