<?xml version="1.0" encoding="UTF-8" standalone="no"?>
<svg
   xmlns:dc="http://purl.org/dc/elements/1.1/"
   xmlns:cc="http://creativecommons.org/ns#"
   xmlns:rdf="http://www.w3.org/1999/02/22-rdf-syntax-ns#"
   xmlns:svg="http://www.w3.org/2000/svg"
   xmlns="http://www.w3.org/2000/svg"
   xmlns:sodipodi="http://sodipodi.sourceforge.net/DTD/sodipodi-0.dtd"
   xmlns:inkscape="http://www.inkscape.org/namespaces/inkscape"
   version="1.1"
   width="203mm"
   height="307mm"
   viewBox="0 0 203 307.00002"
   id="svg18857"
   inkscape:version="0.91 r13725"
   sodipodi:docname="box13j-freecad-203x307-20mm_thick-3.5mm_tabs.svg">
  <defs
     id="defs66317" />
  <metadata
     id="metadata18878">
    <rdf:RDF>
      <cc:Work
         rdf:about="">
        <dc:format>image/svg+xml</dc:format>
        <dc:type
           rdf:resource="http://purl.org/dc/dcmitype/StillImage" />
        <dc:title />
      </cc:Work>
    </rdf:RDF>
  </metadata>
  <sodipodi:namedview
     pagecolor="#ffffff"
     bordercolor="#666666"
     borderopacity="1"
     objecttolerance="10"
     gridtolerance="10"
     guidetolerance="10"
     inkscape:pageopacity="0"
     inkscape:pageshadow="2"
     inkscape:window-width="1920"
     inkscape:window-height="1080"
     id="namedview18876"
     showgrid="false"
     inkscape:zoom="20.297462"
     inkscape:cx="675.42181"
     inkscape:cy="1075.1671"
     inkscape:window-x="0"
     inkscape:window-y="0"
     inkscape:window-maximized="0"
     inkscape:current-layer="svg18857"
     units="mm"
     inkscape:object-nodes="true"
     inkscape:snap-smooth-nodes="true"
     inkscape:object-paths="true" />
  <!-- Working space 0 0 203 307 -->
  <g
     id="ViewEdge"
     transform="scale(1,-1)"
     style="fill:none;stroke:#000000;stroke-width:0.28222224;stroke-miterlimit:4;stroke-dasharray:none;stroke-opacity:1" />
  <g
     id="ViewEdge001"
     transform="scale(1,-1)"
     style="fill:none;stroke:#000000;stroke-width:0.28222224;stroke-miterlimit:4;stroke-dasharray:none;stroke-opacity:1" />
  <g
     id="ViewEdge002"
     transform="scale(1,-1)"
     style="fill:none;stroke:#000000;stroke-width:0.28222224;stroke-miterlimit:4;stroke-dasharray:none;stroke-opacity:1" />
  <g
     id="ViewEdge003"
     transform="scale(1,-1)"
     style="fill:none;stroke:#000000;stroke-width:0.28222224;stroke-miterlimit:4;stroke-dasharray:none;stroke-opacity:1" />
  <g
     id="ViewEdge004"
     transform="scale(1,-1)"
     style="fill:none;stroke:#000000;stroke-width:0.28222224;stroke-miterlimit:4;stroke-dasharray:none;stroke-opacity:1" />
  <g
     id="ViewEdge005"
     transform="scale(1,-1)"
     style="fill:none;stroke:#000000;stroke-width:0.28222224;stroke-miterlimit:4;stroke-dasharray:none;stroke-opacity:1" />
  <g
     id="ViewEdge006"
     transform="scale(1,-1)"
     style="fill:none;stroke:#000000;stroke-width:0.28222224;stroke-miterlimit:4;stroke-dasharray:none;stroke-opacity:1" />
  <g
     id="ViewEdge007"
     transform="scale(1,-1)"
     style="fill:none;stroke:#000000;stroke-width:0.28222224;stroke-miterlimit:4;stroke-dasharray:none;stroke-opacity:1" />
  <g
     id="ViewEdge008"
     transform="scale(1,-1)"
     style="fill:none;stroke:#000000;stroke-width:0.28222224;stroke-miterlimit:4;stroke-dasharray:none;stroke-opacity:1" />
  <g
     id="ViewEdge009"
     transform="scale(1,-1)"
     style="fill:none;stroke:#000000;stroke-width:0.28222224;stroke-miterlimit:4;stroke-dasharray:none;stroke-opacity:1" />
  <g
     id="ViewEdge010"
     transform="scale(1,-1)"
     style="fill:none;stroke:#000000;stroke-width:0.28222224;stroke-miterlimit:4;stroke-dasharray:none;stroke-opacity:1" />
  <g
     id="ViewEdge011"
     transform="scale(1,-1)"
     style="fill:none;stroke:#000000;stroke-width:0.28222224;stroke-miterlimit:4;stroke-dasharray:none;stroke-opacity:1" />
  <g
     id="ViewEdge012"
     transform="scale(1,-1)"
     style="fill:none;stroke:#000000;stroke-width:0.28222224;stroke-miterlimit:4;stroke-dasharray:none;stroke-opacity:1" />
  <g
     id="ViewEdge013"
     transform="scale(1,-1)"
     style="fill:none;stroke:#000000;stroke-width:0.28222224;stroke-miterlimit:4;stroke-dasharray:none;stroke-opacity:1" />
  <g
     id="ViewEdge014"
     transform="scale(1,-1)"
     style="fill:none;stroke:#000000;stroke-width:0.28222224;stroke-miterlimit:4;stroke-dasharray:none;stroke-opacity:1" />
  <g
     id="ViewEdge015"
     transform="scale(1,-1)"
     style="fill:none;stroke:#000000;stroke-width:0.28222224;stroke-miterlimit:4;stroke-dasharray:none;stroke-opacity:1" />
  <g
     id="ViewEdge016"
     transform="scale(1,-1)"
     style="fill:none;stroke:#000000;stroke-width:0.28222224;stroke-miterlimit:4;stroke-dasharray:none;stroke-opacity:1" />
  <g
     id="ViewEdge017"
     transform="scale(1,-1)"
     style="fill:none;stroke:#000000;stroke-width:0.28222224;stroke-miterlimit:4;stroke-dasharray:none;stroke-opacity:1" />
  <g
     id="ViewEdge018"
     transform="scale(1,-1)"
     style="fill:none;stroke:#000000;stroke-width:0.28222224;stroke-miterlimit:4;stroke-dasharray:none;stroke-opacity:1" />
  <g
     id="ViewEdge019"
     transform="scale(1,-1)"
     style="fill:none;stroke:#000000;stroke-width:0.28222224;stroke-miterlimit:4;stroke-dasharray:none;stroke-opacity:1" />
  <g
     id="ViewEdge020"
     transform="scale(1,-1)"
     style="fill:none;stroke:#000000;stroke-width:0.28222224;stroke-miterlimit:4;stroke-dasharray:none;stroke-opacity:1" />
  <g
     id="ViewEdge021"
     transform="scale(1,-1)"
     style="fill:none;stroke:#000000;stroke-width:0.28222224;stroke-miterlimit:4;stroke-dasharray:none;stroke-opacity:1" />
  <g
     id="ViewEdge022"
     transform="scale(1,-1)"
     style="fill:none;stroke:#000000;stroke-width:0.28222224;stroke-miterlimit:4;stroke-dasharray:none;stroke-opacity:1" />
  <g
     id="ViewEdge023"
     transform="scale(1,-1)"
     style="fill:none;stroke:#000000;stroke-width:0.28222224;stroke-miterlimit:4;stroke-dasharray:none;stroke-opacity:1" />
  <g
     id="ViewEdge024"
     transform="scale(1,-1)"
     style="fill:none;stroke:#000000;stroke-width:0.28222224;stroke-miterlimit:4;stroke-dasharray:none;stroke-opacity:1" />
  <g
     id="ViewEdge025"
     transform="scale(1,-1)"
     style="fill:none;stroke:#000000;stroke-width:0.28222224;stroke-miterlimit:4;stroke-dasharray:none;stroke-opacity:1" />
  <g
     id="ViewEdge026"
     transform="scale(1,-1)"
     style="fill:none;stroke:#000000;stroke-width:0.28222224;stroke-miterlimit:4;stroke-dasharray:none;stroke-opacity:1" />
  <g
     id="ViewEdge027"
     transform="scale(1,-1)"
     style="fill:none;stroke:#000000;stroke-width:0.28222224;stroke-miterlimit:4;stroke-dasharray:none;stroke-opacity:1" />
  <g
     id="ViewEdge028"
     transform="scale(1,-1)"
     style="fill:none;stroke:#000000;stroke-width:0.28222224;stroke-miterlimit:4;stroke-dasharray:none;stroke-opacity:1" />
  <g
     id="ViewEdge029"
     transform="scale(1,-1)"
     style="fill:none;stroke:#000000;stroke-width:0.28222224;stroke-miterlimit:4;stroke-dasharray:none;stroke-opacity:1" />
  <g
     id="ViewEdge030"
     transform="scale(1,-1)"
     style="fill:none;stroke:#000000;stroke-width:0.28222224;stroke-miterlimit:4;stroke-dasharray:none;stroke-opacity:1" />
  <g
     id="ViewEdge031"
     transform="scale(1,-1)"
     style="fill:none;stroke:#000000;stroke-width:0.28222224;stroke-miterlimit:4;stroke-dasharray:none;stroke-opacity:1" />
  <g
     id="ViewEdge032"
     transform="scale(1,-1)"
     style="fill:none;stroke:#000000;stroke-width:0.28222224;stroke-miterlimit:4;stroke-dasharray:none;stroke-opacity:1" />
  <g
     id="ViewEdge033"
     transform="scale(1,-1)"
     style="fill:none;stroke:#000000;stroke-width:0.28222224;stroke-miterlimit:4;stroke-dasharray:none;stroke-opacity:1" />
  <g
     id="ViewEdge034"
     transform="scale(1,-1)"
     style="fill:none;stroke:#000000;stroke-width:0.28222224;stroke-miterlimit:4;stroke-dasharray:none;stroke-opacity:1" />
  <g
     id="ViewEdge035"
     transform="scale(1,-1)"
     style="fill:none;stroke:#000000;stroke-width:0.28222224;stroke-miterlimit:4;stroke-dasharray:none;stroke-opacity:1" />
  <g
     id="ViewEdge036"
     transform="scale(1,-1)"
     style="fill:none;stroke:#000000;stroke-width:0.28222224;stroke-miterlimit:4;stroke-dasharray:none;stroke-opacity:1" />
  <g
     id="ViewEdge037"
     transform="scale(1,-1)"
     style="fill:none;stroke:#000000;stroke-width:0.28222224;stroke-miterlimit:4;stroke-dasharray:none;stroke-opacity:1" />
  <g
     id="ViewEdge038"
     transform="scale(1,-1)"
     style="fill:none;stroke:#000000;stroke-width:0.28222224;stroke-miterlimit:4;stroke-dasharray:none;stroke-opacity:1" />
  <g
     id="ViewEdge039"
     transform="scale(1,-1)"
     style="fill:none;stroke:#000000;stroke-width:0.28222224;stroke-miterlimit:4;stroke-dasharray:none;stroke-opacity:1" />
  <g
     id="ViewEdge040"
     transform="scale(1,-1)"
     style="fill:none;stroke:#000000;stroke-width:0.28222224;stroke-miterlimit:4;stroke-dasharray:none;stroke-opacity:1" />
  <g
     id="ViewEdge041"
     transform="scale(1,-1)"
     style="fill:none;stroke:#000000;stroke-width:0.28222224;stroke-miterlimit:4;stroke-dasharray:none;stroke-opacity:1" />
  <g
     id="ViewEdge042"
     transform="scale(1,-1)"
     style="fill:none;stroke:#000000;stroke-width:0.28222224;stroke-miterlimit:4;stroke-dasharray:none;stroke-opacity:1" />
  <g
     id="ViewEdge043"
     transform="scale(1,-1)"
     style="fill:none;stroke:#000000;stroke-width:0.28222224;stroke-miterlimit:4;stroke-dasharray:none;stroke-opacity:1" />
  <g
     id="ViewEdge044"
     transform="scale(1,-1)"
     style="fill:none;stroke:#000000;stroke-width:0.28222224;stroke-miterlimit:4;stroke-dasharray:none;stroke-opacity:1" />
  <g
     id="ViewEdge045"
     transform="scale(1,-1)"
     style="fill:none;stroke:#000000;stroke-width:0.28222224;stroke-miterlimit:4;stroke-dasharray:none;stroke-opacity:1" />
  <g
     id="ViewEdge046"
     transform="scale(1,-1)"
     style="fill:none;stroke:#000000;stroke-width:0.28222224;stroke-miterlimit:4;stroke-dasharray:none;stroke-opacity:1" />
  <g
     id="ViewEdge047"
     transform="scale(1,-1)"
     style="fill:none;stroke:#000000;stroke-width:0.28222224;stroke-miterlimit:4;stroke-dasharray:none;stroke-opacity:1" />
  <g
     id="ViewEdge048"
     transform="scale(1,-1)"
     style="fill:none;stroke:#000000;stroke-width:0.28222224;stroke-miterlimit:4;stroke-dasharray:none;stroke-opacity:1" />
  <g
     id="ViewEdge049"
     transform="scale(1,-1)"
     style="fill:none;stroke:#000000;stroke-width:0.28222224;stroke-miterlimit:4;stroke-dasharray:none;stroke-opacity:1" />
  <g
     id="ViewEdge050"
     transform="scale(1,-1)"
     style="fill:none;stroke:#000000;stroke-width:0.28222224;stroke-miterlimit:4;stroke-dasharray:none;stroke-opacity:1" />
  <g
     id="ViewEdge051"
     transform="scale(1,-1)"
     style="fill:none;stroke:#000000;stroke-width:0.28222224;stroke-miterlimit:4;stroke-dasharray:none;stroke-opacity:1" />
  <g
     id="ViewEdge052"
     transform="scale(1,-1)"
     style="fill:none;stroke:#000000;stroke-width:0.28222224;stroke-miterlimit:4;stroke-dasharray:none;stroke-opacity:1" />
  <g
     id="ViewEdge053"
     transform="scale(1,-1)"
     style="fill:none;stroke:#000000;stroke-width:0.28222224;stroke-miterlimit:4;stroke-dasharray:none;stroke-opacity:1" />
  <g
     id="ViewEdge054"
     transform="scale(1,-1)"
     style="fill:none;stroke:#000000;stroke-width:0.28222224;stroke-miterlimit:4;stroke-dasharray:none;stroke-opacity:1" />
  <g
     id="ViewEdge055"
     transform="scale(1,-1)"
     style="fill:none;stroke:#000000;stroke-width:0.28222224;stroke-miterlimit:4;stroke-dasharray:none;stroke-opacity:1" />
  <g
     id="ViewEdge056"
     transform="scale(1,-1)"
     style="fill:none;stroke:#000000;stroke-width:0.28222224;stroke-miterlimit:4;stroke-dasharray:none;stroke-opacity:1" />
  <g
     id="ViewEdge057"
     transform="scale(1,-1)"
     style="fill:none;stroke:#000000;stroke-width:0.28222224;stroke-miterlimit:4;stroke-dasharray:none;stroke-opacity:1" />
  <g
     id="ViewEdge058"
     transform="scale(1,-1)"
     style="fill:none;stroke:#000000;stroke-width:0.28222224;stroke-miterlimit:4;stroke-dasharray:none;stroke-opacity:1" />
  <g
     id="ViewEdge059"
     transform="scale(1,-1)"
     style="fill:none;stroke:#000000;stroke-width:0.28222224;stroke-miterlimit:4;stroke-dasharray:none;stroke-opacity:1" />
  <g
     id="ViewEdge060"
     transform="scale(1,-1)"
     style="fill:none;stroke:#000000;stroke-width:0.28222224;stroke-miterlimit:4;stroke-dasharray:none;stroke-opacity:1" />
  <g
     id="ViewEdge061"
     transform="scale(1,-1)"
     style="fill:none;stroke:#000000;stroke-width:0.28222224;stroke-miterlimit:4;stroke-dasharray:none;stroke-opacity:1" />
  <g
     id="ViewEdge062"
     transform="scale(1,-1)"
     style="fill:none;stroke:#000000;stroke-width:0.28222224;stroke-miterlimit:4;stroke-dasharray:none;stroke-opacity:1" />
  <g
     id="ViewEdge063"
     transform="scale(1,-1)"
     style="fill:none;stroke:#000000;stroke-width:0.28222224;stroke-miterlimit:4;stroke-dasharray:none;stroke-opacity:1" />
  <g
     id="ViewEdge064"
     transform="scale(1,-1)"
     style="fill:none;stroke:#000000;stroke-width:0.28222224;stroke-miterlimit:4;stroke-dasharray:none;stroke-opacity:1" />
  <g
     id="ViewEdge065"
     transform="scale(1,-1)"
     style="fill:none;stroke:#000000;stroke-width:0.28222224;stroke-miterlimit:4;stroke-dasharray:none;stroke-opacity:1" />
  <g
     id="ViewEdge066"
     transform="scale(1,-1)"
     style="fill:none;stroke:#000000;stroke-width:0.28222224;stroke-miterlimit:4;stroke-dasharray:none;stroke-opacity:1" />
  <g
     id="ViewEdge067"
     transform="scale(1,-1)"
     style="fill:none;stroke:#000000;stroke-width:0.28222224;stroke-miterlimit:4;stroke-dasharray:none;stroke-opacity:1" />
  <g
     id="ViewEdge068"
     transform="scale(1,-1)"
     style="fill:none;stroke:#000000;stroke-width:0.28222224;stroke-miterlimit:4;stroke-dasharray:none;stroke-opacity:1" />
  <g
     id="ViewEdge069"
     transform="scale(1,-1)"
     style="fill:none;stroke:#000000;stroke-width:0.28222224;stroke-miterlimit:4;stroke-dasharray:none;stroke-opacity:1" />
  <g
     id="ViewEdge070"
     transform="scale(1,-1)"
     style="fill:none;stroke:#000000;stroke-width:0.28222224;stroke-miterlimit:4;stroke-dasharray:none;stroke-opacity:1" />
  <g
     id="ViewEdge071"
     transform="scale(1,-1)"
     style="fill:none;stroke:#000000;stroke-width:0.28222224;stroke-miterlimit:4;stroke-dasharray:none;stroke-opacity:1" />
  <g
     id="ViewEdge072"
     transform="scale(1,-1)"
     style="fill:none;stroke:#000000;stroke-width:0.28222224;stroke-miterlimit:4;stroke-dasharray:none;stroke-opacity:1" />
  <g
     id="ViewEdge073"
     transform="scale(1,-1)"
     style="fill:none;stroke:#000000;stroke-width:0.28222224;stroke-miterlimit:4;stroke-dasharray:none;stroke-opacity:1" />
  <g
     id="ViewEdge074"
     transform="scale(1,-1)"
     style="fill:none;stroke:#000000;stroke-width:0.28222224;stroke-miterlimit:4;stroke-dasharray:none;stroke-opacity:1" />
  <g
     id="ViewEdge075"
     transform="scale(1,-1)"
     style="fill:none;stroke:#000000;stroke-width:0.28222224;stroke-miterlimit:4;stroke-dasharray:none;stroke-opacity:1" />
  <g
     id="ViewEdge076"
     transform="scale(1,-1)"
     style="fill:none;stroke:#000000;stroke-width:0.28222224;stroke-miterlimit:4;stroke-dasharray:none;stroke-opacity:1" />
  <g
     id="ViewEdge077"
     transform="scale(1,-1)"
     style="fill:none;stroke:#000000;stroke-width:0.28222224;stroke-miterlimit:4;stroke-dasharray:none;stroke-opacity:1" />
  <g
     id="ViewEdge078"
     transform="scale(1,-1)"
     style="fill:none;stroke:#000000;stroke-width:0.28222224;stroke-miterlimit:4;stroke-dasharray:none;stroke-opacity:1" />
  <g
     id="ViewEdge080"
     transform="scale(1,-1)"
     style="fill:none;stroke:#000000;stroke-width:0.28222224;stroke-miterlimit:4;stroke-dasharray:none;stroke-opacity:1" />
  <g
     id="ViewEdge081"
     transform="scale(1,-1)"
     style="fill:none;stroke:#000000;stroke-width:0.28222224;stroke-miterlimit:4;stroke-dasharray:none;stroke-opacity:1" />
  <g
     id="ViewEdge082"
     transform="scale(1,-1)"
     style="fill:none;stroke:#000000;stroke-width:0.28222224;stroke-miterlimit:4;stroke-dasharray:none;stroke-opacity:1" />
  <g
     id="ViewEdge083"
     transform="scale(1,-1)"
     style="fill:none;stroke:#000000;stroke-width:0.28222224;stroke-miterlimit:4;stroke-dasharray:none;stroke-opacity:1" />
  <g
     id="ViewEdge084"
     transform="scale(1,-1)"
     style="fill:none;stroke:#000000;stroke-width:0.28222224;stroke-miterlimit:4;stroke-dasharray:none;stroke-opacity:1" />
  <g
     id="ViewEdge085"
     transform="scale(1,-1)"
     style="fill:none;stroke:#000000;stroke-width:0.28222224;stroke-miterlimit:4;stroke-dasharray:none;stroke-opacity:1" />
  <g
     id="ViewEdge086"
     transform="scale(1,-1)"
     style="fill:none;stroke:#000000;stroke-width:0.28222224;stroke-miterlimit:4;stroke-dasharray:none;stroke-opacity:1" />
  <g
     id="ViewEdge087"
     transform="scale(1,-1)"
     style="fill:none;stroke:#000000;stroke-width:0.28222224;stroke-miterlimit:4;stroke-dasharray:none;stroke-opacity:1" />
  <g
     id="ViewEdge088"
     transform="scale(1,-1)"
     style="fill:none;stroke:#000000;stroke-width:0.28222224;stroke-miterlimit:4;stroke-dasharray:none;stroke-opacity:1" />
  <g
     id="ViewEdge089"
     transform="scale(1,-1)"
     style="fill:none;stroke:#000000;stroke-width:0.28222224;stroke-miterlimit:4;stroke-dasharray:none;stroke-opacity:1" />
  <g
     id="ViewEdge090"
     transform="scale(1,-1)"
     style="fill:none;stroke:#000000;stroke-width:0.28222224;stroke-miterlimit:4;stroke-dasharray:none;stroke-opacity:1" />
  <g
     id="ViewEdge091"
     transform="scale(1,-1)"
     style="fill:none;stroke:#000000;stroke-width:0.28222224;stroke-miterlimit:4;stroke-dasharray:none;stroke-opacity:1" />
  <g
     id="ViewEdge092"
     transform="scale(1,-1)"
     style="fill:none;stroke:#000000;stroke-width:0.28222224;stroke-miterlimit:4;stroke-dasharray:none;stroke-opacity:1" />
  <g
     id="ViewEdge093"
     transform="scale(1,-1)"
     style="fill:none;stroke:#000000;stroke-width:0.28222224;stroke-miterlimit:4;stroke-dasharray:none;stroke-opacity:1" />
  <g
     id="ViewEdge094"
     transform="scale(1,-1)"
     style="fill:none;stroke:#000000;stroke-width:0.28222224;stroke-miterlimit:4;stroke-dasharray:none;stroke-opacity:1" />
  <g
     id="ViewEdge095"
     transform="scale(1,-1)"
     style="fill:none;stroke:#000000;stroke-width:0.28222224;stroke-miterlimit:4;stroke-dasharray:none;stroke-opacity:1" />
  <g
     id="ViewEdge096"
     transform="scale(1,-1)"
     style="fill:none;stroke:#000000;stroke-width:0.28222224;stroke-miterlimit:4;stroke-dasharray:none;stroke-opacity:1" />
  <g
     id="ViewEdge097"
     transform="scale(1,-1)"
     style="fill:none;stroke:#000000;stroke-width:0.28222224;stroke-miterlimit:4;stroke-dasharray:none;stroke-opacity:1" />
  <g
     id="ViewEdge098"
     transform="scale(1,-1)"
     style="fill:none;stroke:#000000;stroke-width:0.28222224;stroke-miterlimit:4;stroke-dasharray:none;stroke-opacity:1" />
  <g
     id="ViewEdge099"
     transform="scale(1,-1)"
     style="fill:none;stroke:#000000;stroke-width:0.28222224;stroke-miterlimit:4;stroke-dasharray:none;stroke-opacity:1" />
  <g
     id="ViewEdge100"
     transform="scale(1,-1)"
     style="fill:none;stroke:#000000;stroke-width:0.28222224;stroke-miterlimit:4;stroke-dasharray:none;stroke-opacity:1" />
  <g
     id="ViewEdge101"
     transform="scale(1,-1)"
     style="fill:none;stroke:#000000;stroke-width:0.28222224;stroke-miterlimit:4;stroke-dasharray:none;stroke-opacity:1" />
  <g
     id="ViewEdge102"
     transform="scale(1,-1)"
     style="fill:none;stroke:#000000;stroke-width:0.28222224;stroke-miterlimit:4;stroke-dasharray:none;stroke-opacity:1" />
  <g
     id="ViewEdge103"
     transform="scale(1,-1)"
     style="fill:none;stroke:#000000;stroke-width:0.28222224;stroke-miterlimit:4;stroke-dasharray:none;stroke-opacity:1" />
  <g
     id="ViewEdge104"
     transform="scale(1,-1)"
     style="fill:none;stroke:#000000;stroke-width:0.28222224;stroke-miterlimit:4;stroke-dasharray:none;stroke-opacity:1" />
  <g
     id="ViewEdge105"
     transform="scale(1,-1)"
     style="fill:none;stroke:#000000;stroke-width:0.28222224;stroke-miterlimit:4;stroke-dasharray:none;stroke-opacity:1" />
  <g
     id="ViewEdge106"
     transform="scale(1,-1)"
     style="fill:none;stroke:#000000;stroke-width:0.28222224;stroke-miterlimit:4;stroke-dasharray:none;stroke-opacity:1" />
  <g
     id="ViewEdge107"
     transform="scale(1,-1)"
     style="fill:none;stroke:#000000;stroke-width:0.28222224;stroke-miterlimit:4;stroke-dasharray:none;stroke-opacity:1" />
  <g
     id="ViewEdge108"
     transform="scale(1,-1)"
     style="fill:none;stroke:#000000;stroke-width:0.28222224;stroke-miterlimit:4;stroke-dasharray:none;stroke-opacity:1" />
  <g
     id="ViewEdge109"
     transform="scale(1,-1)"
     style="fill:none;stroke:#000000;stroke-width:0.28222224;stroke-miterlimit:4;stroke-dasharray:none;stroke-opacity:1" />
  <g
     id="ViewEdge110"
     transform="scale(1,-1)"
     style="fill:none;stroke:#000000;stroke-width:0.28222224;stroke-miterlimit:4;stroke-dasharray:none;stroke-opacity:1" />
  <g
     id="ViewEdge111"
     transform="scale(1,-1)"
     style="fill:none;stroke:#000000;stroke-width:0.28222224;stroke-miterlimit:4;stroke-dasharray:none;stroke-opacity:1" />
  <g
     id="ViewEdge112"
     transform="scale(1,-1)"
     style="fill:none;stroke:#000000;stroke-width:0.28222224;stroke-miterlimit:4;stroke-dasharray:none;stroke-opacity:1" />
  <g
     id="ViewEdge113"
     transform="scale(1,-1)"
     style="fill:none;stroke:#000000;stroke-width:0.28222224;stroke-miterlimit:4;stroke-dasharray:none;stroke-opacity:1" />
  <g
     id="ViewEdge114"
     transform="scale(1,-1)"
     style="fill:none;stroke:#000000;stroke-width:0.28222224;stroke-miterlimit:4;stroke-dasharray:none;stroke-opacity:1" />
  <g
     id="ViewEdge115"
     transform="scale(1,-1)"
     style="fill:none;stroke:#000000;stroke-width:0.28222224;stroke-miterlimit:4;stroke-dasharray:none;stroke-opacity:1" />
  <g
     id="ViewEdge116"
     transform="scale(1,-1)"
     style="fill:none;stroke:#000000;stroke-width:0.28222224;stroke-miterlimit:4;stroke-dasharray:none;stroke-opacity:1" />
  <g
     id="ViewEdge117"
     transform="scale(1,-1)"
     style="fill:none;stroke:#000000;stroke-width:0.28222224;stroke-miterlimit:4;stroke-dasharray:none;stroke-opacity:1" />
  <g
     id="ViewEdge118"
     transform="scale(1,-1)"
     style="fill:none;stroke:#000000;stroke-width:0.28222224;stroke-miterlimit:4;stroke-dasharray:none;stroke-opacity:1" />
  <g
     id="ViewEdge120"
     transform="scale(1,-1)"
     style="fill:none;stroke:#000000;stroke-width:0.28222224;stroke-miterlimit:4;stroke-dasharray:none;stroke-opacity:1" />
  <g
     id="ViewEdge121"
     transform="scale(1,-1)"
     style="fill:none;stroke:#000000;stroke-width:0.28222224;stroke-miterlimit:4;stroke-dasharray:none;stroke-opacity:1" />
  <g
     id="ViewEdge122"
     transform="scale(1,-1)"
     style="fill:none;stroke:#000000;stroke-width:0.28222224;stroke-miterlimit:4;stroke-dasharray:none;stroke-opacity:1" />
  <g
     id="ViewEdge123"
     transform="scale(1,-1)"
     style="fill:none;stroke:#000000;stroke-width:0.28222224;stroke-miterlimit:4;stroke-dasharray:none;stroke-opacity:1" />
  <g
     id="ViewEdge124"
     transform="scale(1,-1)"
     style="fill:none;stroke:#000000;stroke-width:0.28222224;stroke-miterlimit:4;stroke-dasharray:none;stroke-opacity:1" />
  <g
     id="ViewEdge125"
     transform="scale(1,-1)"
     style="fill:none;stroke:#000000;stroke-width:0.28222224;stroke-miterlimit:4;stroke-dasharray:none;stroke-opacity:1" />
  <g
     id="ViewEdge126"
     transform="scale(1,-1)"
     style="fill:none;stroke:#000000;stroke-width:0.28222224;stroke-miterlimit:4;stroke-dasharray:none;stroke-opacity:1" />
  <g
     id="ViewEdge127"
     transform="scale(1,-1)"
     style="fill:none;stroke:#000000;stroke-width:0.28222224;stroke-miterlimit:4;stroke-dasharray:none;stroke-opacity:1" />
  <g
     id="ViewEdge128"
     transform="scale(1,-1)"
     style="fill:none;stroke:#000000;stroke-width:0.28222224;stroke-miterlimit:4;stroke-dasharray:none;stroke-opacity:1" />
  <g
     id="ViewEdge129"
     transform="scale(1,-1)"
     style="fill:none;stroke:#000000;stroke-width:0.28222224;stroke-miterlimit:4;stroke-dasharray:none;stroke-opacity:1" />
  <g
     id="ViewEdge130"
     transform="scale(1,-1)"
     style="fill:none;stroke:#000000;stroke-width:0.28222224;stroke-miterlimit:4;stroke-dasharray:none;stroke-opacity:1" />
  <path
     style="fill:none;fill-rule:evenodd;stroke:#000000;stroke-width:2.82222252;stroke-miterlimit:4;stroke-dasharray:none;stroke-opacity:1"
     d="m 112.3,78.5005 0,-64.9995"
     id="path71882" />
  <path
     style="fill:none;fill-rule:evenodd;stroke:#000000;stroke-width:2.82222252;stroke-miterlimit:4;stroke-dasharray:none;stroke-opacity:1"
     d="m 112.3,293.499 0,-64.9995"
     id="path71876" />
  <g
     id="g78655">
    <path
       d="m 189.499,13.501 0,-6.6666667 3.33333,3.3333337 0,-6.8333374 L 189.499,0.001 m 6.35171,13.5 7.14829,0 m -6.83333,0 3.58333,-3.5833333 M 172.999,0.001 l -3.5,3.5 -0.25,0.25 m -41.38267,-3.75 3.5,3.5 0.25,0.25 m -34.882663,-3.75 -3.5,3.5 -0.25,0.25 M 189.499,153.5 l 0,10 m 6.45037,129.999 7.04963,0 m -6.83333,0 3.58333,3.58333 m -10.25,-3.58333 0,6.66667 3.33333,-3.33334 0,6.83333 -3.33333,3.33335 m 0,-163.49901 0,10 m 0,0 13.5,0 M 35.101,13.501 l -0.1,0 -23.5,0 0,-6.5 3.5,-3.5 -3.5,-3.5 23.6,0 16.5,0 45.132667,0 31.132663,0 45.13267,0 16.5,0 13.5,0 0,2.1666667 -3.5,3.5 3.5,3.5 0,2.1666663 0,2.166667 0,129.999 0,3 -3.5,3.5 3.5,3.5 -3.5,3.5 3.5,3.5 0,3 0,129.999 0,2.16667 0,2.16666 -3.5,3.5 3.5,3.5 0,2.16667 -13.5,0 -154.398,0 0,-13.5 0,-129.999 0,-10 0,-10 -20.1,0 c -2e-6,-9.87281 -6.7157301,-17.8763 -15,-17.8763 l 0,-94.246396 c 8.2842712,0 15,-8.003494 15,-17.876304 m 36.6,-13.5 3.5,3.5 0.25,0.25 m 147.648,29.75 -3.5,-3.5 -0.25,-0.25 m 0,32.833 0.25,-0.25 3.5,-3.5 m 0,117.666 -3.5,3.5 -0.25,0.25 m 3.75,35.583 -3.5,-3.5 -0.25,-0.25 m 3.75,29.083 -3.5,3.5 -0.25,0.25 m 3.75,35.583 -3.5,-3.5 -0.25,-0.25 m 0,-182.332 0.25,0.25 3.5,3.5 m 0,25.333 -3.5,3.5 -0.25,0.25 m -64.38267,179.749 -3.5,-3.5 -0.25,-0.25 m -41.382663,3.75 3.5,-3.5 0.25,-0.25 m -34.882667,3.75 -3.5,-3.5 -0.25,-0.25 m 111.148,3.75 3.5,-3.5 0.25,-0.25 M 56.5808,187.8561 c -0.931432,-2.55908 -4.550702,-2.55908 -5.482133,0 -1.459585,4.01018 -6.589775,5.14744 -9.607337,2.12987 -3.017562,-3.01756 -1.880306,-8.14775 2.12987,-9.60733 2.559087,-0.93143 2.559087,-4.5507 0,-5.48214 m 0,107.206 c 2.559087,-0.93144 2.559087,-4.55071 0,-5.48214 -4.010176,-1.45958 -5.147432,-6.58977 -2.12987,-9.60733 3.017562,-3.01757 8.147752,-1.88031 9.607337,2.12987 0.931431,2.55908 4.550701,2.55908 5.482133,0 M 50.101,219.33568 c 1.150926,2.46817 -1.408284,5.02738 -3.876454,3.87645 -3.867704,-1.80354 -8.299458,1.01989 -8.299458,5.28737 0,4.26748 4.431754,7.09091 8.299458,5.28737 2.46817,-1.15093 5.02738,1.40828 3.876454,3.87645 M 6.3429935,84.334464 c 3.2211679,-0.0012 5.8318015,-2.612798 5.8318015,-5.833964 0,-3.221166 -2.6106336,-5.832771 -5.8318015,-5.833964"
       style="fill:none;fill-rule:evenodd;stroke:#ff0000;stroke-width:0.28222224;stroke-miterlimit:4;stroke-dasharray:none;stroke-opacity:1"
       id="Edge131_nwe0000"
       inkscape:connector-curvature="0"
       sodipodi:nodetypes="ccccccccccccccccccccccccccccccccccccccccccccccccccccccccccccccccccccccccccccccccccccccccccccccccccccccccccccccccccsssccsssccsssccsc" />
    <g
       id="text78619"
       style="font-style:normal;font-weight:normal;font-size:11.28888988px;line-height:125%;font-family:sans-serif;letter-spacing:0px;word-spacing:0px;fill:#000000;fill-opacity:1;stroke:none;stroke-width:1px;stroke-linecap:butt;stroke-linejoin:miter;stroke-opacity:1">
      <path
         id="path78643"
         style=""
         d="m -89.961883,-13.751142 0,3.015148 1.785937,0 q 0.898481,0 1.328429,-0.369314 0.435461,-0.374826 0.435461,-1.141016 0,-0.771701 -0.435461,-1.135503 -0.429948,-0.369315 -1.328429,-0.369315 l -1.785937,0 z m 0,-3.384462 0,2.480469 1.648134,0 q 0.815798,0 1.212673,-0.303168 0.402388,-0.308681 0.402388,-0.937066 0,-0.622873 -0.402388,-0.931554 -0.396875,-0.308681 -1.212673,-0.308681 l -1.648134,0 z m -1.113455,-0.915017 2.844271,0 q 1.273307,0 1.962327,0.529167 0.689019,0.529166 0.689019,1.504817 0,0.755165 -0.352778,1.20165 -0.352778,0.446484 -1.036285,0.556727 0.821311,0.176389 1.273307,0.738629 0.457509,0.556727 0.457509,1.394575 0,1.10243 -0.749653,1.703255 -0.749653,0.6008247 -2.133203,0.6008247 l -2.954514,0 0,-8.2296447 z" />
      <path
         id="path78645"
         style=""
         d="m -80.988098,-15.28352 q -0.815798,0 -1.289843,0.63941 -0.474046,0.633897 -0.474046,1.74184 0,1.107943 0.468533,1.747353 0.474046,0.633897 1.295356,0.633897 0.810287,0 1.284332,-0.63941 0.474045,-0.639409 0.474045,-1.74184 0,-1.096918 -0.474045,-1.736328 -0.474045,-0.644922 -1.284332,-0.644922 z m 0,-0.859896 q 1.322917,0 2.078082,0.859896 0.755165,0.859896 0.755165,2.38125 0,1.515842 -0.755165,2.38125 -0.755165,0.8598962 -2.078082,0.8598962 -1.328429,0 -2.083594,-0.8598962 -0.749652,-0.865408 -0.749652,-2.38125 0,-1.521354 0.749652,-2.38125 0.755165,-0.859896 2.083594,-0.859896 z" />
      <path
         id="path78647"
         style=""
         d="m -71.700119,-15.994588 -2.232422,3.004124 2.348177,3.1694877 -1.196137,0 -1.796962,-2.4253477 -1.796962,2.4253477 -1.196138,0 2.397787,-3.2301217 -2.193837,-2.94349 1.196137,0 1.63711,2.199349 1.637109,-2.199349 1.196138,0 z" />
      <path
         id="path78649"
         style=""
         d="m -62.114485,-15.757565 0,0.94809 q -0.429948,-0.237023 -0.865408,-0.352778 -0.429948,-0.121267 -0.87092,-0.121267 -0.986676,0 -1.532379,0.628385 -0.545703,0.622874 -0.545703,1.752865 0,1.129991 0.545703,1.758377 0.545703,0.622873 1.532379,0.622873 0.440972,0 0.87092,-0.115755 0.43546,-0.121267 0.865408,-0.35829 l 0,0.937066 q -0.424436,0.1984377 -0.881945,0.2976564 -0.451996,0.099219 -0.964626,0.099219 -1.394575,0 -2.215886,-0.8764322 -0.821311,-0.876433 -0.821311,-2.364714 0,-1.51033 0.826823,-2.375738 0.832335,-0.865408 2.276519,-0.865408 0.468533,0 0.915018,0.09922 0.446484,0.09371 0.865408,0.286632 z" />
      <path
         id="path78651"
         style=""
         d="m -60.444301,-12.257348 0,-3.73724 1.014236,0 0,3.698655 q 0,0.876432 0.341754,1.317405 0.341753,0.43546 1.02526,0.43546 0.821311,0 1.295356,-0.523655 0.479558,-0.523654 0.479558,-1.427648 l 0,-3.500217 1.014236,0 0,6.1736117 -1.014236,0 0,-0.9480907 q -0.369315,0.56224 -0.859896,0.8378477 -0.48507,0.2700955 -1.129992,0.2700955 -1.063845,0 -1.615061,-0.6614582 -0.551215,-0.661459 -0.551215,-1.934766 z m 2.552127,-3.886068 0,0 z" />
      <path
         id="path78653"
         style=""
         d="m -52.17056,-17.747453 0,1.752865 2.089106,0 0,0.788238 -2.089106,0 0,3.351389 q 0,0.755165 0.20395,0.970139 0.209461,0.214974 0.843359,0.214974 l 1.041797,0 0,0.8488717 -1.041797,0 q -1.174089,0 -1.620573,-0.4354597 -0.446484,-0.440973 -0.446484,-1.598525 l 0,-3.351389 -0.744141,0 0,-0.788238 0.744141,0 0,-1.752865 1.019748,0 z" />
    </g>
  </g>
  <g
     id="g78665">
    <g
       style="fill:none;stroke:#000000;stroke-width:0.28222224;stroke-miterlimit:4;stroke-dasharray:none;stroke-opacity:1"
       transform="scale(1,-1)"
       id="ViewEdge119">
      <path
         sodipodi:nodetypes="cccccccccccccccccccccccccccccccccccccccccccccccccccccccccccccccc"
         inkscape:connector-curvature="0"
         d="m 169.499,-303.499 1.2739,-3.5 m -115.6719,3.5 -1.273896,-3.5 m 39.406563,3.5 1.273895,-3.5 m 36.858768,3.5 -1.27389,-3.5 M 199.499,-127 l 3.5,-1.2739 m -3.5,33.6069 3.5,1.273896 m -3.5,-183.605896 3.5,1.2739 m -3.5,31.0591 3.5,-1.2739 m -3.5,33.6069 3.5,1.2739 m -3.5,31.0591 3.5,-1.2739 m -3.5,118.9399 3.5,-1.273896 m -3.5,33.606896 3.5,1.273896 M 55.101,-3.501 l 1.273896,3.5 m -21.273896,-13.5 0,13.5 m -0.1,-13.5 0,13.5 m 0.1,-143.499 0,129.999 m 154.398,0 -154.398,0 m 154.398,-129.999 0,129.999 M 35.101,-163.5 l 154.398,0 m 0,-129.999 -154.398,0 m 154.398,-6.66667 0,-6.83333 m -0.2163,13.5 6.66667,0 m -6.45037,129.999 0,-129.999 m 0,129.999 13.5,0 m -187.998,149.999 0,-129.999 m 20.1,0 154.398,0 m 0,0 13.5,0 m -7.14829,129.999 -6.35171,0 m 0,6.6666667 0,6.8333333 m -97.539229,0 1.273896,-3.5 m 38.132663,0 1.2739,3.5 m 36.85877,-3.5 -1.2739,3.5"
         style="fill:none;fill-rule:evenodd;stroke:#008000;stroke-width:0.28222224;stroke-miterlimit:4;stroke-dasharray:none;stroke-opacity:1"
         id="Edge119_nwe0000" />
    </g>
    <g
       id="text78623"
       style="font-style:normal;font-weight:normal;font-size:11.28888988px;line-height:125%;font-family:sans-serif;letter-spacing:0px;word-spacing:0px;fill:#000000;fill-opacity:1;stroke:none;stroke-width:1px;stroke-linecap:butt;stroke-linejoin:miter;stroke-opacity:1">
      <path
         id="path78628"
         style=""
         d="m -107.89515,12.047589 0,3.015148 1.78594,0 q 0.89848,0 1.32843,-0.369314 0.43546,-0.374827 0.43546,-1.141016 0,-0.771701 -0.43546,-1.135503 -0.42995,-0.369315 -1.32843,-0.369315 l -1.78594,0 z m 0,-3.3844618 0,2.4804688 1.64813,0 q 0.8158,0 1.21268,-0.303168 0.40239,-0.308681 0.40239,-0.9370663 0,-0.6228733 -0.40239,-0.9315539 -0.39688,-0.3086806 -1.21268,-0.3086806 l -1.64813,0 z m -1.11345,-0.9150174 2.84427,0 q 1.2733,0 1.96232,0.5291667 0.68902,0.5291667 0.68902,1.5048178 0,0.7551647 -0.35277,1.2016497 -0.35278,0.446484 -1.03629,0.556727 0.82131,0.176389 1.27331,0.738629 0.45751,0.556727 0.45751,1.394575 0,1.10243 -0.74966,1.703255 -0.74965,0.600825 -2.1332,0.600825 l -2.95451,0 0,-8.2296452 z" />
      <path
         id="path78630"
         style=""
         d="m -98.921363,10.515211 q -0.815799,0 -1.289847,0.639409 -0.47404,0.633898 -0.47404,1.741841 0,1.107943 0.46853,1.747353 0.474046,0.633897 1.295357,0.633897 0.810286,0 1.284331,-0.63941 0.474046,-0.639409 0.474046,-1.74184 0,-1.096919 -0.474046,-1.736328 -0.474045,-0.644922 -1.284331,-0.644922 z m 0,-0.8598962 q 1.322917,0 2.078082,0.8598962 0.755165,0.859896 0.755165,2.38125 0,1.515842 -0.755165,2.38125 -0.755165,0.859896 -2.078082,0.859896 -1.328427,0 -2.083597,-0.859896 -0.74965,-0.865408 -0.74965,-2.38125 0,-1.521354 0.74965,-2.38125 0.75517,-0.8598962 2.083597,-0.8598962 z" />
      <path
         id="path78632"
         style=""
         d="m -89.633385,9.8041429 -2.232422,3.0041231 2.348177,3.169489 -1.196137,0 -1.796962,-2.425348 -1.796962,2.425348 -1.196137,0 2.397786,-3.230122 -2.193837,-2.9434901 1.196138,0 1.637109,2.1993491 1.63711,-2.1993491 1.196137,0 z" />
      <path
         id="path78634"
         style=""
         d="m -81.365155,7.4008441 0,0.8433595 -0.970139,0 q -0.545704,0 -0.760678,0.2204861 -0.209461,0.2204861 -0.209461,0.7937501 l 0,0.5457031 1.670182,0 0,0.7882381 -1.670182,0 0,5.385374 -1.019749,0 0,-5.385374 -0.970139,0 0,-0.7882381 0.970139,0 0,-0.4299479 q 0,-1.0307727 0.479558,-1.4993057 0.479557,-0.4740452 1.521354,-0.4740452 l 0.959115,0 z" />
      <path
         id="path78636"
         style=""
         d="m -78.129522,10.515211 q -0.815798,0 -1.289844,0.639409 -0.474045,0.633898 -0.474045,1.741841 0,1.107943 0.468533,1.747353 0.474045,0.633897 1.295356,0.633897 0.810287,0 1.284332,-0.63941 0.474045,-0.639409 0.474045,-1.74184 0,-1.096919 -0.474045,-1.736328 -0.474045,-0.644922 -1.284332,-0.644922 z m 0,-0.8598962 q 1.322917,0 2.078082,0.8598962 0.755165,0.859896 0.755165,2.38125 0,1.515842 -0.755165,2.38125 -0.755165,0.859896 -2.078082,0.859896 -1.328429,0 -2.083594,-0.859896 -0.749653,-0.865408 -0.749653,-2.38125 0,-1.521354 0.749653,-2.38125 0.755165,-0.8598962 2.083594,-0.8598962 z" />
      <path
         id="path78638"
         style=""
         d="m -73.62058,7.4008441 1.014236,0 0,8.5769109 -1.014236,0 0,-8.5769109 z" />
      <path
         id="path78640"
         style=""
         d="m -66.427218,10.741209 0,-3.3403649 1.014237,0 0,8.5769109 -1.014237,0 0,-0.926042 q -0.319705,0.551215 -0.810286,0.821311 -0.48507,0.264583 -1.168577,0.264583 -1.118967,0 -1.824522,-0.892969 -0.700044,-0.892969 -0.700044,-2.348177 0,-1.455209 0.700044,-2.348177 0.705555,-0.8929692 1.824522,-0.8929692 0.683507,0 1.168577,0.2700955 0.490581,0.2645837 0.810286,0.8157987 z m -3.45612,2.155252 q 0,1.118967 0.457509,1.758377 0.463021,0.633897 1.267795,0.633897 0.804775,0 1.267795,-0.633897 0.463021,-0.63941 0.463021,-1.758377 0,-1.118967 -0.463021,-1.752865 -0.46302,-0.63941 -1.267795,-0.63941 -0.804774,0 -1.267795,0.63941 -0.457509,0.633898 -0.457509,1.752865 z" />
    </g>
  </g>
</svg>
