<?xml version="1.0" encoding="UTF-8" standalone="no"?>
<svg
   xmlns:dc="http://purl.org/dc/elements/1.1/"
   xmlns:cc="http://creativecommons.org/ns#"
   xmlns:rdf="http://www.w3.org/1999/02/22-rdf-syntax-ns#"
   xmlns:svg="http://www.w3.org/2000/svg"
   xmlns="http://www.w3.org/2000/svg"
   xmlns:sodipodi="http://sodipodi.sourceforge.net/DTD/sodipodi-0.dtd"
   xmlns:inkscape="http://www.inkscape.org/namespaces/inkscape"
   version="1.1"
   width="203.2mm"
   height="297mm"
   viewBox="0 0 203.2 297.00002"
   id="svg18857"
   inkscape:version="0.91 r13725"
   sodipodi:docname="8inx297mm_Portrait_empty.svg">
  <metadata
     id="metadata18878">
    <rdf:RDF>
      <cc:Work
         rdf:about="">
        <dc:format>image/svg+xml</dc:format>
        <dc:type
           rdf:resource="http://purl.org/dc/dcmitype/StillImage" />
        <dc:title></dc:title>
      </cc:Work>
    </rdf:RDF>
  </metadata>
  <sodipodi:namedview
     pagecolor="#ffffff"
     bordercolor="#666666"
     borderopacity="1"
     objecttolerance="10"
     gridtolerance="10"
     guidetolerance="10"
     inkscape:pageopacity="0"
     inkscape:pageshadow="2"
     inkscape:window-width="1920"
     inkscape:window-height="1080"
     id="namedview18876"
     showgrid="false"
     inkscape:zoom="0.63429568"
     inkscape:cx="372.04724"
     inkscape:cy="529.94964"
     inkscape:window-x="0"
     inkscape:window-y="0"
     inkscape:window-maximized="0"
     inkscape:current-layer="svg18857"
     units="mm" />
  <!-- Working space 0 0 203.2 297 -->
<g id="ViewEdge" transform="rotate(0.0,0.0,0.0) translate(0.0,0.0) scale(1.0,-1.0)"><path id="Edge_nwe0000"  d="M 195.15794179 -12.6 L 190.499 -12.6 " stroke="#191919" stroke-width="0.35 px" style="stroke-width:0.35;stroke-miterlimit:4;stroke-dasharray:none;fill:none;fill-rule: evenodd "/>
</g>


<g id="ViewEdge001" transform="rotate(0.0,0.0,0.0) translate(0.0,0.0) scale(1.0,-1.0)"><path id="Edge001_nwe0000"  d="M 190.499 -12.6 L 190.499 -7.94105820998 " stroke="#191919" stroke-width="0.35 px" style="stroke-width:0.35;stroke-miterlimit:4;stroke-dasharray:none;fill:none;fill-rule: evenodd "/>
</g>


<g id="ViewEdge002" transform="rotate(0.0,0.0,0.0) translate(0.0,0.0) scale(1.0,-1.0)"><path id="Edge002_nwe0000"  d="M 190.499 -7.94105820998 L 194.173391543 -4.26666666667 " stroke="#191919" stroke-width="0.35 px" style="stroke-width:0.35;stroke-miterlimit:4;stroke-dasharray:none;fill:none;fill-rule: evenodd "/>
</g>


<g id="ViewEdge003" transform="rotate(0.0,0.0,0.0) translate(0.0,0.0) scale(1.0,-1.0)"><path id="Edge003_nwe0000"  d="M 195.72637214 -5.81964726334 L 194.173391543 -4.26666666667 " stroke="#191919" stroke-width="0.35 px" style="stroke-width:0.35;stroke-miterlimit:4;stroke-dasharray:none;fill:none;fill-rule: evenodd "/>
</g>


<g id="ViewEdge004" transform="rotate(0.0,0.0,0.0) translate(0.0,0.0) scale(1.0,-1.0)"><path id="Edge004_nwe0000"  d="M 195.15794179 -7.94105820998 L 197.279352737 -7.37262786001 " stroke="#191919" stroke-width="0.35 px" style="stroke-width:0.35;stroke-miterlimit:4;stroke-dasharray:none;fill:none;fill-rule: evenodd "/>
</g>


<g id="ViewEdge005" transform="rotate(0.0,0.0,0.0) translate(0.0,0.0) scale(1.0,-1.0)"><path id="Edge005_nwe0000"  d="M 199.999 -3.1 L 202.999 -0.1 " stroke="#191919" stroke-width="0.35 px" style="stroke-width:0.35;stroke-miterlimit:4;stroke-dasharray:none;fill:none;fill-rule: evenodd "/>
</g>


<g id="ViewEdge006" transform="rotate(0.0,0.0,0.0) translate(0.0,0.0) scale(1.0,-1.0)"><path id="Edge006_nwe0000"  d="M 202.999 -0.1 L 190.499 -0.1 " stroke="#191919" stroke-width="0.35 px" style="stroke-width:0.35;stroke-miterlimit:4;stroke-dasharray:none;fill:none;fill-rule: evenodd "/>
</g>


<g id="ViewEdge007" transform="rotate(0.0,0.0,0.0) translate(0.0,0.0) scale(1.0,-1.0)"><path id="Edge007_nwe0000"  d="M 199.999 -3.1 L 198.600077026 -0.1 " stroke="#191919" stroke-width="0.35 px" style="stroke-width:0.35;stroke-miterlimit:4;stroke-dasharray:none;fill:none;fill-rule: evenodd "/>
</g>


<g id="ViewEdge008" transform="rotate(0.0,0.0,0.0) translate(0.0,0.0) scale(1.0,-1.0)"><path id="Edge008_nwe0000"  d="M 202.999 -12.6 L 202.999 -6.10000000001 " stroke="#191919" stroke-width="0.35 px" style="stroke-width:0.35;stroke-miterlimit:4;stroke-dasharray:none;fill:none;fill-rule: evenodd "/>
</g>


<g id="ViewEdge009" transform="rotate(0.0,0.0,0.0) translate(0.0,0.0) scale(1.0,-1.0)"><path id="Edge009_nwe0000"  d="M 202.999 -6.10000000001 L 199.999 -3.1 " stroke="#191919" stroke-width="0.35 px" style="stroke-width:0.35;stroke-miterlimit:4;stroke-dasharray:none;fill:none;fill-rule: evenodd "/>
</g>


<g id="ViewEdge010" transform="rotate(0.0,0.0,0.0) translate(0.0,0.0) scale(1.0,-1.0)"><path id="Edge010_nwe0000"  d="M 197.279352737 -7.37262786001 L 195.72637214 -5.81964726334 " stroke="#191919" stroke-width="0.35 px" style="stroke-width:0.35;stroke-miterlimit:4;stroke-dasharray:none;fill:none;fill-rule: evenodd "/>
</g>


<g id="ViewEdge011" transform="rotate(0.0,0.0,0.0) translate(0.0,0.0) scale(1.0,-1.0)"><path id="Edge011_nwe0000"  d="M 195.72637214 -5.81964726334 L 195.15794179 -7.94105820998 " stroke="#191919" stroke-width="0.35 px" style="stroke-width:0.35;stroke-miterlimit:4;stroke-dasharray:none;fill:none;fill-rule: evenodd "/>
</g>


<g id="ViewEdge012" transform="rotate(0.0,0.0,0.0) translate(0.0,0.0) scale(1.0,-1.0)"><path id="Edge012_nwe0000"  d="M 195.15794179 -7.94105820998 L 195.15794179 -12.6 " stroke="#191919" stroke-width="0.35 px" style="stroke-width:0.35;stroke-miterlimit:4;stroke-dasharray:none;fill:none;fill-rule: evenodd "/>
</g>


<g id="ViewEdge013" transform="rotate(0.0,0.0,0.0) translate(0.0,0.0) scale(1.0,-1.0)"><path id="Edge013_nwe0000"  d="M 195.15794179 -12.6 L 202.999 -12.6 " stroke="#191919" stroke-width="0.35 px" style="stroke-width:0.35;stroke-miterlimit:4;stroke-dasharray:none;fill:none;fill-rule: evenodd "/>
</g>


<g id="ViewEdge014" transform="rotate(0.0,0.0,0.0) translate(0.0,0.0) scale(1.0,-1.0)"><path id="Edge014_nwe0000"  d="M 202.999 -12.6 L 202.999 -139.0495 " stroke="#191919" stroke-width="0.35 px" style="stroke-width:0.35;stroke-miterlimit:4;stroke-dasharray:none;fill:none;fill-rule: evenodd "/>
</g>


<g id="ViewEdge015" transform="rotate(0.0,0.0,0.0) translate(0.0,0.0) scale(1.0,-1.0)"><path id="Edge015_nwe0000"  d="M 190.499 -139.0495 L 202.999 -139.0495 " stroke="#191919" stroke-width="0.35 px" style="stroke-width:0.35;stroke-miterlimit:4;stroke-dasharray:none;fill:none;fill-rule: evenodd "/>
</g>


<g id="ViewEdge016" transform="rotate(0.0,0.0,0.0) translate(0.0,0.0) scale(1.0,-1.0)"><path id="Edge016_nwe0000"  d="M 34.101 -139.0495 L 190.499 -139.0495 " stroke="#191919" stroke-width="0.35 px" style="stroke-width:0.35;stroke-miterlimit:4;stroke-dasharray:none;fill:none;fill-rule: evenodd "/>
</g>


<g id="ViewEdge017" transform="rotate(0.0,0.0,0.0) translate(0.0,0.0) scale(1.0,-1.0)"><path id="Edge017_nwe0000"  d="M 15.001 -12.6 L 15.001 -139.0495 " stroke="#191919" stroke-width="0.35 px" style="stroke-width:0.35;stroke-miterlimit:4;stroke-dasharray:none;fill:none;fill-rule: evenodd "/>
</g>


<g id="ViewEdge018" transform="rotate(0.0,0.0,0.0) translate(0.0,0.0) scale(1.0,-1.0)"><path id="Edge018_nwe0000"  d="M 34.101 -139.0495 L 34.101 -148.5495 " stroke="#191919" stroke-width="0.35 px" style="stroke-width:0.35;stroke-miterlimit:4;stroke-dasharray:none;fill:none;fill-rule: evenodd "/>
</g>


<g id="ViewEdge019" transform="rotate(0.0,0.0,0.0) translate(0.0,0.0) scale(1.0,-1.0)"><path id="Edge019_nwe0000"  d="M 34.101 -148.5495 L 34.101 -158.0495 " stroke="#191919" stroke-width="0.35 px" style="stroke-width:0.35;stroke-miterlimit:4;stroke-dasharray:none;fill:none;fill-rule: evenodd "/>
</g>


<g id="ViewEdge020" transform="rotate(0.0,0.0,0.0) translate(0.0,0.0) scale(1.0,-1.0)"><path id="Edge020_nwe0000"  d="M 34.101 -158.0495 L 34.101 -284.499 " stroke="#191919" stroke-width="0.35 px" style="stroke-width:0.35;stroke-miterlimit:4;stroke-dasharray:none;fill:none;fill-rule: evenodd "/>
</g>


<g id="ViewEdge021" transform="rotate(0.0,0.0,0.0) translate(0.0,0.0) scale(1.0,-1.0)"><path id="Edge021_nwe0000"  d="M 34.101 -284.499 L 34.101 -296.999 " stroke="#191919" stroke-width="0.35 px" style="stroke-width:0.35;stroke-miterlimit:4;stroke-dasharray:none;fill:none;fill-rule: evenodd "/>
</g>


<g id="ViewEdge022" transform="rotate(0.0,0.0,0.0) translate(0.0,0.0) scale(1.0,-1.0)"><path id="Edge022_nwe0000"  d="M 190.499 -296.999 L 34.101 -296.999 " stroke="#191919" stroke-width="0.35 px" style="stroke-width:0.35;stroke-miterlimit:4;stroke-dasharray:none;fill:none;fill-rule: evenodd "/>
</g>


<g id="ViewEdge023" transform="rotate(0.0,0.0,0.0) translate(0.0,0.0) scale(1.0,-1.0)"><path id="Edge023_nwe0000"  d="M 190.499 -296.999 L 202.999 -296.999 " stroke="#191919" stroke-width="0.35 px" style="stroke-width:0.35;stroke-miterlimit:4;stroke-dasharray:none;fill:none;fill-rule: evenodd "/>
</g>


<g id="ViewEdge024" transform="rotate(0.0,0.0,0.0) translate(0.0,0.0) scale(1.0,-1.0)"><path id="Edge024_nwe0000"  d="M 199.999 -293.999 L 202.999 -296.999 " stroke="#191919" stroke-width="0.35 px" style="stroke-width:0.35;stroke-miterlimit:4;stroke-dasharray:none;fill:none;fill-rule: evenodd "/>
</g>


<g id="ViewEdge025" transform="rotate(0.0,0.0,0.0) translate(0.0,0.0) scale(1.0,-1.0)"><path id="Edge025_nwe0000"  d="M 199.999 -293.999 L 198.600077026 -296.999 " stroke="#191919" stroke-width="0.35 px" style="stroke-width:0.35;stroke-miterlimit:4;stroke-dasharray:none;fill:none;fill-rule: evenodd "/>
</g>


<g id="ViewEdge026" transform="rotate(0.0,0.0,0.0) translate(0.0,0.0) scale(1.0,-1.0)"><path id="Edge026_nwe0000"  d="M 202.999 -290.999 L 199.999 -293.999 " stroke="#191919" stroke-width="0.35 px" style="stroke-width:0.35;stroke-miterlimit:4;stroke-dasharray:none;fill:none;fill-rule: evenodd "/>
</g>


<g id="ViewEdge027" transform="rotate(0.0,0.0,0.0) translate(0.0,0.0) scale(1.0,-1.0)"><path id="Edge027_nwe0000"  d="M 202.999 -284.499 L 202.999 -290.999 " stroke="#191919" stroke-width="0.35 px" style="stroke-width:0.35;stroke-miterlimit:4;stroke-dasharray:none;fill:none;fill-rule: evenodd "/>
</g>


<g id="ViewEdge028" transform="rotate(0.0,0.0,0.0) translate(0.0,0.0) scale(1.0,-1.0)"><path id="Edge028_nwe0000"  d="M 202.999 -158.0495 L 202.999 -284.499 " stroke="#191919" stroke-width="0.35 px" style="stroke-width:0.35;stroke-miterlimit:4;stroke-dasharray:none;fill:none;fill-rule: evenodd "/>
</g>


<g id="ViewEdge029" transform="rotate(0.0,0.0,0.0) translate(0.0,0.0) scale(1.0,-1.0)"><path id="Edge029_nwe0000"  d="M 202.999 -158.0495 L 202.999 -154.5495 " stroke="#191919" stroke-width="0.35 px" style="stroke-width:0.35;stroke-miterlimit:4;stroke-dasharray:none;fill:none;fill-rule: evenodd "/>
</g>


<g id="ViewEdge030" transform="rotate(0.0,0.0,0.0) translate(0.0,0.0) scale(1.0,-1.0)"><path id="Edge030_nwe0000"  d="M 202.999 -154.5495 L 199.999 -151.5495 " stroke="#191919" stroke-width="0.35 px" style="stroke-width:0.35;stroke-miterlimit:4;stroke-dasharray:none;fill:none;fill-rule: evenodd "/>
</g>


<g id="ViewEdge031" transform="rotate(0.0,0.0,0.0) translate(0.0,0.0) scale(1.0,-1.0)"><path id="Edge031_nwe0000"  d="M 199.999 -151.5495 L 198.600077026 -148.5495 " stroke="#191919" stroke-width="0.35 px" style="stroke-width:0.35;stroke-miterlimit:4;stroke-dasharray:none;fill:none;fill-rule: evenodd "/>
</g>


<g id="ViewEdge032" transform="rotate(0.0,0.0,0.0) translate(0.0,0.0) scale(1.0,-1.0)"><path id="Edge032_nwe0000"  d="M 199.999 -145.5495 L 198.600077026 -148.5495 " stroke="#191919" stroke-width="0.35 px" style="stroke-width:0.35;stroke-miterlimit:4;stroke-dasharray:none;fill:none;fill-rule: evenodd "/>
</g>


<g id="ViewEdge033" transform="rotate(0.0,0.0,0.0) translate(0.0,0.0) scale(1.0,-1.0)"><path id="Edge033_nwe0000"  d="M 199.999 -145.5495 L 202.999 -142.5495 " stroke="#191919" stroke-width="0.35 px" style="stroke-width:0.35;stroke-miterlimit:4;stroke-dasharray:none;fill:none;fill-rule: evenodd "/>
</g>


<g id="ViewEdge034" transform="rotate(0.0,0.0,0.0) translate(0.0,0.0) scale(1.0,-1.0)"><path id="Edge034_nwe0000"  d="M 202.999 -142.5495 L 202.999 -139.0495 " stroke="#191919" stroke-width="0.35 px" style="stroke-width:0.35;stroke-miterlimit:4;stroke-dasharray:none;fill:none;fill-rule: evenodd "/>
</g>


<g id="ViewEdge035" transform="rotate(0.0,0.0,0.0) translate(0.0,0.0) scale(1.0,-1.0)"><path id="Edge035_nwe0000"  d="M 202.999 -148.5495 L 199.999 -145.5495 " stroke="#191919" stroke-width="0.35 px" style="stroke-width:0.35;stroke-miterlimit:4;stroke-dasharray:none;fill:none;fill-rule: evenodd "/>
</g>


<g id="ViewEdge036" transform="rotate(0.0,0.0,0.0) translate(0.0,0.0) scale(1.0,-1.0)"><path id="Edge036_nwe0000"  d="M 202.999 -148.5495 L 199.999 -151.5495 " stroke="#191919" stroke-width="0.35 px" style="stroke-width:0.35;stroke-miterlimit:4;stroke-dasharray:none;fill:none;fill-rule: evenodd "/>
</g>


<g id="ViewEdge037" transform="rotate(0.0,0.0,0.0) translate(0.0,0.0) scale(1.0,-1.0)"><path id="Edge037_nwe0000"  d="M 190.499 -148.5495 L 202.999 -148.5495 " stroke="#191919" stroke-width="0.35 px" style="stroke-width:0.35;stroke-miterlimit:4;stroke-dasharray:none;fill:none;fill-rule: evenodd "/>
</g>


<g id="ViewEdge038" transform="rotate(0.0,0.0,0.0) translate(0.0,0.0) scale(1.0,-1.0)"><path id="Edge038_nwe0000"  d="M 190.499 -148.5495 L 190.499 -158.0495 " stroke="#191919" stroke-width="0.35 px" style="stroke-width:0.35;stroke-miterlimit:4;stroke-dasharray:none;fill:none;fill-rule: evenodd "/>
</g>


<g id="ViewEdge039" transform="rotate(0.0,0.0,0.0) translate(0.0,0.0) scale(1.0,-1.0)"><path id="Edge039_nwe0000"  d="M 190.499 -158.0495 L 202.999 -158.0495 " stroke="#191919" stroke-width="0.35 px" style="stroke-width:0.35;stroke-miterlimit:4;stroke-dasharray:none;fill:none;fill-rule: evenodd "/>
</g>


<g id="ViewEdge040" transform="rotate(0.0,0.0,0.0) translate(0.0,0.0) scale(1.0,-1.0)"><path id="Edge040_nwe0000"  d="M 190.499 -158.0495 L 190.499 -284.499 " stroke="#191919" stroke-width="0.35 px" style="stroke-width:0.35;stroke-miterlimit:4;stroke-dasharray:none;fill:none;fill-rule: evenodd "/>
</g>


<g id="ViewEdge041" transform="rotate(0.0,0.0,0.0) translate(0.0,0.0) scale(1.0,-1.0)"><path id="Edge041_nwe0000"  d="M 190.499 -289.15794179 L 190.499 -296.999 " stroke="#191919" stroke-width="0.35 px" style="stroke-width:0.35;stroke-miterlimit:4;stroke-dasharray:none;fill:none;fill-rule: evenodd "/>
</g>


<g id="ViewEdge042" transform="rotate(0.0,0.0,0.0) translate(0.0,0.0) scale(1.0,-1.0)"><path id="Edge042_nwe0000"  d="M 195.15794179 -284.499 L 202.999 -284.499 " stroke="#191919" stroke-width="0.35 px" style="stroke-width:0.35;stroke-miterlimit:4;stroke-dasharray:none;fill:none;fill-rule: evenodd "/>
</g>


<g id="ViewEdge043" transform="rotate(0.0,0.0,0.0) translate(0.0,0.0) scale(1.0,-1.0)"><path id="Edge043_nwe0000"  d="M 190.499 -284.499 L 195.15794179 -284.499 " stroke="#191919" stroke-width="0.35 px" style="stroke-width:0.35;stroke-miterlimit:4;stroke-dasharray:none;fill:none;fill-rule: evenodd "/>
</g>


<g id="ViewEdge044" transform="rotate(0.0,0.0,0.0) translate(0.0,0.0) scale(1.0,-1.0)"><path id="Edge044_nwe0000"  d="M 195.15794179 -284.499 L 195.15794179 -289.15794179 " stroke="#191919" stroke-width="0.35 px" style="stroke-width:0.35;stroke-miterlimit:4;stroke-dasharray:none;fill:none;fill-rule: evenodd "/>
</g>


<g id="ViewEdge045" transform="rotate(0.0,0.0,0.0) translate(0.0,0.0) scale(1.0,-1.0)"><path id="Edge045_nwe0000"  d="M 197.279352737 -289.72637214 L 195.15794179 -289.15794179 " stroke="#191919" stroke-width="0.35 px" style="stroke-width:0.35;stroke-miterlimit:4;stroke-dasharray:none;fill:none;fill-rule: evenodd "/>
</g>


<g id="ViewEdge046" transform="rotate(0.0,0.0,0.0) translate(0.0,0.0) scale(1.0,-1.0)"><path id="Edge046_nwe0000"  d="M 195.72637214 -291.279352737 L 197.279352737 -289.72637214 " stroke="#191919" stroke-width="0.35 px" style="stroke-width:0.35;stroke-miterlimit:4;stroke-dasharray:none;fill:none;fill-rule: evenodd "/>
</g>


<g id="ViewEdge047" transform="rotate(0.0,0.0,0.0) translate(0.0,0.0) scale(1.0,-1.0)"><path id="Edge047_nwe0000"  d="M 195.72637214 -291.279352737 L 195.15794179 -289.15794179 " stroke="#191919" stroke-width="0.35 px" style="stroke-width:0.35;stroke-miterlimit:4;stroke-dasharray:none;fill:none;fill-rule: evenodd "/>
</g>


<g id="ViewEdge048" transform="rotate(0.0,0.0,0.0) translate(0.0,0.0) scale(1.0,-1.0)"><path id="Edge048_nwe0000"  d="M 194.173391543 -292.832333333 L 195.72637214 -291.279352737 " stroke="#191919" stroke-width="0.35 px" style="stroke-width:0.35;stroke-miterlimit:4;stroke-dasharray:none;fill:none;fill-rule: evenodd "/>
</g>


<g id="ViewEdge049" transform="rotate(0.0,0.0,0.0) translate(0.0,0.0) scale(1.0,-1.0)"><path id="Edge049_nwe0000"  d="M 190.499 -289.15794179 L 194.173391543 -292.832333333 " stroke="#191919" stroke-width="0.35 px" style="stroke-width:0.35;stroke-miterlimit:4;stroke-dasharray:none;fill:none;fill-rule: evenodd "/>
</g>


<g id="ViewEdge050" transform="rotate(0.0,0.0,0.0) translate(0.0,0.0) scale(1.0,-1.0)"><path id="Edge050_nwe0000"  d="M 190.499 -289.15794179 L 190.499 -284.499 " stroke="#191919" stroke-width="0.35 px" style="stroke-width:0.35;stroke-miterlimit:4;stroke-dasharray:none;fill:none;fill-rule: evenodd "/>
</g>


<g id="ViewEdge051" transform="rotate(0.0,0.0,0.0) translate(0.0,0.0) scale(1.0,-1.0)"><path id="Edge051_nwe0000"  d="M 190.499 -284.499 L 34.101 -284.499 " stroke="#191919" stroke-width="0.35 px" style="stroke-width:0.35;stroke-miterlimit:4;stroke-dasharray:none;fill:none;fill-rule: evenodd "/>
</g>


<g id="ViewEdge052" transform="rotate(0.0,0.0,0.0) translate(0.0,0.0) scale(1.0,-1.0)"><path id="Edge052_nwe0000"  d="M 34.101 -158.0495 L 190.499 -158.0495 " stroke="#191919" stroke-width="0.35 px" style="stroke-width:0.35;stroke-miterlimit:4;stroke-dasharray:none;fill:none;fill-rule: evenodd "/>
</g>


<g id="ViewEdge053" transform="rotate(0.0,0.0,0.0) translate(0.0,0.0) scale(1.0,-1.0)"><path id="Edge053_nwe0000"  d="M 190.499 -139.0495 L 190.499 -148.5495 " stroke="#191919" stroke-width="0.35 px" style="stroke-width:0.35;stroke-miterlimit:4;stroke-dasharray:none;fill:none;fill-rule: evenodd "/>
</g>


<g id="ViewEdge054" transform="rotate(0.0,0.0,0.0) translate(0.0,0.0) scale(1.0,-1.0)"><path id="Edge054_nwe0000"  d="M 190.499 -139.0495 L 190.499 -12.6 " stroke="#191919" stroke-width="0.35 px" style="stroke-width:0.35;stroke-miterlimit:4;stroke-dasharray:none;fill:none;fill-rule: evenodd "/>
</g>


<g id="ViewEdge055" transform="rotate(0.0,0.0,0.0) translate(0.0,0.0) scale(1.0,-1.0)"><path id="Edge055_nwe0000"  d="M 190.499 -12.6 L 34.101 -12.6 " stroke="#191919" stroke-width="0.35 px" style="stroke-width:0.35;stroke-miterlimit:4;stroke-dasharray:none;fill:none;fill-rule: evenodd "/>
</g>


<g id="ViewEdge056" transform="rotate(0.0,0.0,0.0) translate(0.0,0.0) scale(1.0,-1.0)"><path id="Edge056_nwe0000"  d="M 34.101 -139.0495 L 34.101 -12.6 " stroke="#191919" stroke-width="0.35 px" style="stroke-width:0.35;stroke-miterlimit:4;stroke-dasharray:none;fill:none;fill-rule: evenodd "/>
</g>


<g id="ViewEdge057" transform="rotate(0.0,0.0,0.0) translate(0.0,0.0) scale(1.0,-1.0)"><path id="Edge057_nwe0000"  d="M 34.101 -139.0495 L 15.001 -139.0495 " stroke="#191919" stroke-width="0.35 px" style="stroke-width:0.35;stroke-miterlimit:4;stroke-dasharray:none;fill:none;fill-rule: evenodd "/>
</g>


<g id="ViewEdge058" transform="rotate(0.0,0.0,0.0) translate(0.0,0.0) scale(1.0,-1.0)"><path id="Edge058_nwe0000"  d="M 15.001 -139.0495 A 17.8763038889 15.0 90.0 0 1 0.001 -121.173196111 " stroke="#191919" stroke-width="0.35 px" style="stroke-width:0.35;stroke-miterlimit:4;stroke-dasharray:none;fill:none;fill-rule: evenodd "/>
</g>


<g id="ViewEdge059" transform="rotate(0.0,0.0,0.0) translate(0.0,0.0) scale(1.0,-1.0)"><path id="Edge059_nwe0000"  d="M 0.001 -121.173196111 L 0.000999999999998 -30.4763038889 " stroke="#191919" stroke-width="0.35 px" style="stroke-width:0.35;stroke-miterlimit:4;stroke-dasharray:none;fill:none;fill-rule: evenodd "/>
</g>


<g id="ViewEdge060" transform="rotate(0.0,0.0,0.0) translate(0.0,0.0) scale(1.0,-1.0)"><path id="Edge060_nwe0000"  d="M 0.000999999999998 -30.4763038889 A 17.8763038889 15.0 90.0 0 1 15.001 -12.6 " stroke="#191919" stroke-width="0.35 px" style="stroke-width:0.35;stroke-miterlimit:4;stroke-dasharray:none;fill:none;fill-rule: evenodd "/>
</g>


<g id="ViewEdge061" transform="rotate(0.0,0.0,0.0) translate(0.0,0.0) scale(1.0,-1.0)"><path id="Edge061_nwe0000"  d="M 15.001 -12.6 L 34.001 -12.6 " stroke="#191919" stroke-width="0.35 px" style="stroke-width:0.35;stroke-miterlimit:4;stroke-dasharray:none;fill:none;fill-rule: evenodd "/>
</g>


<g id="ViewEdge062" transform="rotate(0.0,0.0,0.0) translate(0.0,0.0) scale(1.0,-1.0)"><path id="Edge062_nwe0000"  d="M 11.001 -12.6 L 34.001 -12.6 " stroke="#191919" stroke-width="0.35 px" style="stroke-width:0.35;stroke-miterlimit:4;stroke-dasharray:none;fill:none;fill-rule: evenodd "/>
</g>


<g id="ViewEdge063" transform="rotate(0.0,0.0,0.0) translate(0.0,0.0) scale(1.0,-1.0)"><path id="Edge063_nwe0000"  d="M 11.001 -6.10000000001 L 11.001 -12.6 " stroke="#191919" stroke-width="0.35 px" style="stroke-width:0.35;stroke-miterlimit:4;stroke-dasharray:none;fill:none;fill-rule: evenodd "/>
</g>


<g id="ViewEdge064" transform="rotate(0.0,0.0,0.0) translate(0.0,0.0) scale(1.0,-1.0)"><path id="Edge064_nwe0000"  d="M 14.001 -3.1 L 11.001 -6.10000000001 " stroke="#191919" stroke-width="0.35 px" style="stroke-width:0.35;stroke-miterlimit:4;stroke-dasharray:none;fill:none;fill-rule: evenodd "/>
</g>


<g id="ViewEdge065" transform="rotate(0.0,0.0,0.0) translate(0.0,0.0) scale(1.0,-1.0)"><path id="Edge065_nwe0000"  d="M 14.001 -3.1 L 11.001 -0.1 " stroke="#191919" stroke-width="0.35 px" style="stroke-width:0.35;stroke-miterlimit:4;stroke-dasharray:none;fill:none;fill-rule: evenodd "/>
</g>


<g id="ViewEdge066" transform="rotate(0.0,0.0,0.0) translate(0.0,0.0) scale(1.0,-1.0)"><path id="Edge066_nwe0000"  d="M 11.001 -0.1 L 34.101 -0.1 " stroke="#191919" stroke-width="0.35 px" style="stroke-width:0.35;stroke-miterlimit:4;stroke-dasharray:none;fill:none;fill-rule: evenodd "/>
</g>


<g id="ViewEdge067" transform="rotate(0.0,0.0,0.0) translate(0.0,0.0) scale(1.0,-1.0)"><path id="Edge067_nwe0000"  d="M 34.001 -12.6 L 34.001 -0.1 " stroke="#191919" stroke-width="0.35 px" style="stroke-width:0.35;stroke-miterlimit:4;stroke-dasharray:none;fill:none;fill-rule: evenodd "/>
</g>


<g id="ViewEdge068" transform="rotate(0.0,0.0,0.0) translate(0.0,0.0) scale(1.0,-1.0)"><path id="Edge068_nwe0000"  d="M 34.001 -12.6 L 34.101 -12.6 " stroke="#191919" stroke-width="0.35 px" style="stroke-width:0.35;stroke-miterlimit:4;stroke-dasharray:none;fill:none;fill-rule: evenodd "/>
</g>


<g id="ViewEdge069" transform="rotate(0.0,0.0,0.0) translate(0.0,0.0) scale(1.0,-1.0)"><path id="Edge069_nwe0000"  d="M 34.101 -12.6 L 34.101 -0.1 " stroke="#191919" stroke-width="0.35 px" style="stroke-width:0.35;stroke-miterlimit:4;stroke-dasharray:none;fill:none;fill-rule: evenodd "/>
</g>


<g id="ViewEdge070" transform="rotate(0.0,0.0,0.0) translate(0.0,0.0) scale(1.0,-1.0)"><path id="Edge070_nwe0000"  d="M 34.101 -0.1 L 51.101 -0.1 " stroke="#191919" stroke-width="0.35 px" style="stroke-width:0.35;stroke-miterlimit:4;stroke-dasharray:none;fill:none;fill-rule: evenodd "/>
</g>


<g id="ViewEdge071" transform="rotate(0.0,0.0,0.0) translate(0.0,0.0) scale(1.0,-1.0)"><path id="Edge071_nwe0000"  d="M 51.101 -0.1 L 54.101 -3.1 " stroke="#191919" stroke-width="0.35 px" style="stroke-width:0.35;stroke-miterlimit:4;stroke-dasharray:none;fill:none;fill-rule: evenodd "/>
</g>


<g id="ViewEdge072" transform="rotate(0.0,0.0,0.0) translate(0.0,0.0) scale(1.0,-1.0)"><path id="Edge072_nwe0000"  d="M 54.101 -3.1 L 54.351 -3.35 " stroke="#191919" stroke-width="0.35 px" style="stroke-width:0.35;stroke-miterlimit:4;stroke-dasharray:none;fill:none;fill-rule: evenodd "/>
</g>


<g id="ViewEdge073" transform="rotate(0.0,0.0,0.0) translate(0.0,0.0) scale(1.0,-1.0)"><path id="Edge073_nwe0000"  d="M 54.101 -3.1 L 55.1929107028 -0.1 " stroke="#191919" stroke-width="0.35 px" style="stroke-width:0.35;stroke-miterlimit:4;stroke-dasharray:none;fill:none;fill-rule: evenodd "/>
</g>


<g id="ViewEdge074" transform="rotate(0.0,0.0,0.0) translate(0.0,0.0) scale(1.0,-1.0)"><path id="Edge074_nwe0000"  d="M 51.101 -0.1 L 95.9003333333 -0.1 " stroke="#191919" stroke-width="0.35 px" style="stroke-width:0.35;stroke-miterlimit:4;stroke-dasharray:none;fill:none;fill-rule: evenodd "/>
</g>


<g id="ViewEdge075" transform="rotate(0.0,0.0,0.0) translate(0.0,0.0) scale(1.0,-1.0)"><path id="Edge075_nwe0000"  d="M 95.9003333333 -0.1 L 92.9003333333 -3.1 " stroke="#191919" stroke-width="0.35 px" style="stroke-width:0.35;stroke-miterlimit:4;stroke-dasharray:none;fill:none;fill-rule: evenodd "/>
</g>


<g id="ViewEdge076" transform="rotate(0.0,0.0,0.0) translate(0.0,0.0) scale(1.0,-1.0)"><path id="Edge076_nwe0000"  d="M 92.9003333333 -3.1 L 92.6503333333 -3.35 " stroke="#191919" stroke-width="0.35 px" style="stroke-width:0.35;stroke-miterlimit:4;stroke-dasharray:none;fill:none;fill-rule: evenodd "/>
</g>


<g id="ViewEdge077" transform="rotate(0.0,0.0,0.0) translate(0.0,0.0) scale(1.0,-1.0)"><path id="Edge077_nwe0000"  d="M 91.8084226305 -0.1 L 92.9003333333 -3.1 " stroke="#191919" stroke-width="0.35 px" style="stroke-width:0.35;stroke-miterlimit:4;stroke-dasharray:none;fill:none;fill-rule: evenodd "/>
</g>


<g id="ViewEdge078" transform="rotate(0.0,0.0,0.0) translate(0.0,0.0) scale(1.0,-1.0)"><path id="Edge078_nwe0000"  d="M 95.9003333333 -0.1 L 128.699666667 -0.1 " stroke="#191919" stroke-width="0.35 px" style="stroke-width:0.35;stroke-miterlimit:4;stroke-dasharray:none;fill:none;fill-rule: evenodd "/>
</g>


<g id="ViewEdge079" transform="rotate(0.0,0.0,0.0) translate(0.0,0.0) scale(1.0,-1.0)"><path id="Edge079_nwe0000"  d="M 128.699666667 -0.1 L 131.699666667 -3.1 " stroke="#191919" stroke-width="0.35 px" style="stroke-width:0.35;stroke-miterlimit:4;stroke-dasharray:none;fill:none;fill-rule: evenodd "/>
</g>


<g id="ViewEdge080" transform="rotate(0.0,0.0,0.0) translate(0.0,0.0) scale(1.0,-1.0)"><path id="Edge080_nwe0000"  d="M 131.699666667 -3.1 L 131.949666667 -3.35 " stroke="#191919" stroke-width="0.35 px" style="stroke-width:0.35;stroke-miterlimit:4;stroke-dasharray:none;fill:none;fill-rule: evenodd "/>
</g>


<g id="ViewEdge081" transform="rotate(0.0,0.0,0.0) translate(0.0,0.0) scale(1.0,-1.0)"><path id="Edge081_nwe0000"  d="M 131.699666667 -3.1 L 132.791577369 -0.1 " stroke="#191919" stroke-width="0.35 px" style="stroke-width:0.35;stroke-miterlimit:4;stroke-dasharray:none;fill:none;fill-rule: evenodd "/>
</g>


<g id="ViewEdge082" transform="rotate(0.0,0.0,0.0) translate(0.0,0.0) scale(1.0,-1.0)"><path id="Edge082_nwe0000"  d="M 128.699666667 -0.1 L 173.499 -0.1 " stroke="#191919" stroke-width="0.35 px" style="stroke-width:0.35;stroke-miterlimit:4;stroke-dasharray:none;fill:none;fill-rule: evenodd "/>
</g>


<g id="ViewEdge083" transform="rotate(0.0,0.0,0.0) translate(0.0,0.0) scale(1.0,-1.0)"><path id="Edge083_nwe0000"  d="M 170.499 -3.1 L 169.407089297 -0.1 " stroke="#191919" stroke-width="0.35 px" style="stroke-width:0.35;stroke-miterlimit:4;stroke-dasharray:none;fill:none;fill-rule: evenodd "/>
</g>


<g id="ViewEdge084" transform="rotate(0.0,0.0,0.0) translate(0.0,0.0) scale(1.0,-1.0)"><path id="Edge084_nwe0000"  d="M 170.499 -3.1 L 170.249 -3.35 " stroke="#191919" stroke-width="0.35 px" style="stroke-width:0.35;stroke-miterlimit:4;stroke-dasharray:none;fill:none;fill-rule: evenodd "/>
</g>


<g id="ViewEdge085" transform="rotate(0.0,0.0,0.0) translate(0.0,0.0) scale(1.0,-1.0)"><path id="Edge085_nwe0000"  d="M 170.499 -3.1 L 173.499 -0.1 " stroke="#191919" stroke-width="0.35 px" style="stroke-width:0.35;stroke-miterlimit:4;stroke-dasharray:none;fill:none;fill-rule: evenodd "/>
</g>


<g id="ViewEdge086" transform="rotate(0.0,0.0,0.0) translate(0.0,0.0) scale(1.0,-1.0)"><path id="Edge086_nwe0000"  d="M 173.499 -0.1 L 190.499 -0.1 " stroke="#191919" stroke-width="0.35 px" style="stroke-width:0.35;stroke-miterlimit:4;stroke-dasharray:none;fill:none;fill-rule: evenodd "/>
</g>


<g id="ViewEdge087" transform="rotate(0.0,0.0,0.0) translate(0.0,0.0) scale(1.0,-1.0)"><path id="Edge087_nwe0000"  d="M 190.499 -7.94105820998 L 190.499 -0.1 " stroke="#191919" stroke-width="0.35 px" style="stroke-width:0.35;stroke-miterlimit:4;stroke-dasharray:none;fill:none;fill-rule: evenodd "/>
</g>


<g id="ViewEdge088" transform="rotate(0.0,0.0,0.0) translate(0.0,0.0) scale(1.0,-1.0)"><path id="Edge088_nwe0000"  d="M 199.999 -29.6 L 202.999 -28.5080892972 " stroke="#191919" stroke-width="0.35 px" style="stroke-width:0.35;stroke-miterlimit:4;stroke-dasharray:none;fill:none;fill-rule: evenodd "/>
</g>


<g id="ViewEdge089" transform="rotate(0.0,0.0,0.0) translate(0.0,0.0) scale(1.0,-1.0)"><path id="Edge089_nwe0000"  d="M 199.999 -29.6 L 199.749 -29.35 " stroke="#191919" stroke-width="0.35 px" style="stroke-width:0.35;stroke-miterlimit:4;stroke-dasharray:none;fill:none;fill-rule: evenodd "/>
</g>


<g id="ViewEdge090" transform="rotate(0.0,0.0,0.0) translate(0.0,0.0) scale(1.0,-1.0)"><path id="Edge090_nwe0000"  d="M 199.999 -29.6 L 202.999 -32.6 " stroke="#191919" stroke-width="0.35 px" style="stroke-width:0.35;stroke-miterlimit:4;stroke-dasharray:none;fill:none;fill-rule: evenodd "/>
</g>


<g id="ViewEdge091" transform="rotate(0.0,0.0,0.0) translate(0.0,0.0) scale(1.0,-1.0)"><path id="Edge091_nwe0000"  d="M 199.999 -60.4165 L 202.999 -61.5084107028 " stroke="#191919" stroke-width="0.35 px" style="stroke-width:0.35;stroke-miterlimit:4;stroke-dasharray:none;fill:none;fill-rule: evenodd "/>
</g>


<g id="ViewEdge092" transform="rotate(0.0,0.0,0.0) translate(0.0,0.0) scale(1.0,-1.0)"><path id="Edge092_nwe0000"  d="M 199.999 -60.4165 L 199.749 -60.6665 " stroke="#191919" stroke-width="0.35 px" style="stroke-width:0.35;stroke-miterlimit:4;stroke-dasharray:none;fill:none;fill-rule: evenodd "/>
</g>


<g id="ViewEdge093" transform="rotate(0.0,0.0,0.0) translate(0.0,0.0) scale(1.0,-1.0)"><path id="Edge093_nwe0000"  d="M 199.999 -60.4165 L 202.999 -57.4165 " stroke="#191919" stroke-width="0.35 px" style="stroke-width:0.35;stroke-miterlimit:4;stroke-dasharray:none;fill:none;fill-rule: evenodd "/>
</g>


<g id="ViewEdge094" transform="rotate(0.0,0.0,0.0) translate(0.0,0.0) scale(1.0,-1.0)"><path id="Edge094_nwe0000"  d="M 202.999 -172.0495 L 199.999 -175.0495 " stroke="#191919" stroke-width="0.35 px" style="stroke-width:0.35;stroke-miterlimit:4;stroke-dasharray:none;fill:none;fill-rule: evenodd "/>
</g>


<g id="ViewEdge095" transform="rotate(0.0,0.0,0.0) translate(0.0,0.0) scale(1.0,-1.0)"><path id="Edge095_nwe0000"  d="M 199.999 -175.0495 L 199.749 -175.2995 " stroke="#191919" stroke-width="0.35 px" style="stroke-width:0.35;stroke-miterlimit:4;stroke-dasharray:none;fill:none;fill-rule: evenodd "/>
</g>


<g id="ViewEdge096" transform="rotate(0.0,0.0,0.0) translate(0.0,0.0) scale(1.0,-1.0)"><path id="Edge096_nwe0000"  d="M 199.999 -175.0495 L 202.999 -176.141410703 " stroke="#191919" stroke-width="0.35 px" style="stroke-width:0.35;stroke-miterlimit:4;stroke-dasharray:none;fill:none;fill-rule: evenodd "/>
</g>


<g id="ViewEdge097" transform="rotate(0.0,0.0,0.0) translate(0.0,0.0) scale(1.0,-1.0)"><path id="Edge097_nwe0000"  d="M 199.999 -205.866 L 202.999 -204.774089297 " stroke="#191919" stroke-width="0.35 px" style="stroke-width:0.35;stroke-miterlimit:4;stroke-dasharray:none;fill:none;fill-rule: evenodd "/>
</g>


<g id="ViewEdge098" transform="rotate(0.0,0.0,0.0) translate(0.0,0.0) scale(1.0,-1.0)"><path id="Edge098_nwe0000"  d="M 199.999 -205.866 L 199.749 -205.616 " stroke="#191919" stroke-width="0.35 px" style="stroke-width:0.35;stroke-miterlimit:4;stroke-dasharray:none;fill:none;fill-rule: evenodd "/>
</g>


<g id="ViewEdge099" transform="rotate(0.0,0.0,0.0) translate(0.0,0.0) scale(1.0,-1.0)"><path id="Edge099_nwe0000"  d="M 199.999 -205.866 L 202.999 -208.866 " stroke="#191919" stroke-width="0.35 px" style="stroke-width:0.35;stroke-miterlimit:4;stroke-dasharray:none;fill:none;fill-rule: evenodd "/>
</g>


<g id="ViewEdge100" transform="rotate(0.0,0.0,0.0) translate(0.0,0.0) scale(1.0,-1.0)"><path id="Edge100_nwe0000"  d="M 202.999 -233.6825 L 199.999 -236.6825 " stroke="#191919" stroke-width="0.35 px" style="stroke-width:0.35;stroke-miterlimit:4;stroke-dasharray:none;fill:none;fill-rule: evenodd "/>
</g>


<g id="ViewEdge101" transform="rotate(0.0,0.0,0.0) translate(0.0,0.0) scale(1.0,-1.0)"><path id="Edge101_nwe0000"  d="M 199.999 -236.6825 L 199.749 -236.9325 " stroke="#191919" stroke-width="0.35 px" style="stroke-width:0.35;stroke-miterlimit:4;stroke-dasharray:none;fill:none;fill-rule: evenodd "/>
</g>


<g id="ViewEdge102" transform="rotate(0.0,0.0,0.0) translate(0.0,0.0) scale(1.0,-1.0)"><path id="Edge102_nwe0000"  d="M 199.999 -236.6825 L 202.999 -237.774410703 " stroke="#191919" stroke-width="0.35 px" style="stroke-width:0.35;stroke-miterlimit:4;stroke-dasharray:none;fill:none;fill-rule: evenodd "/>
</g>


<g id="ViewEdge103" transform="rotate(0.0,0.0,0.0) translate(0.0,0.0) scale(1.0,-1.0)"><path id="Edge103_nwe0000"  d="M 199.999 -267.499 L 202.999 -266.407089297 " stroke="#191919" stroke-width="0.35 px" style="stroke-width:0.35;stroke-miterlimit:4;stroke-dasharray:none;fill:none;fill-rule: evenodd "/>
</g>


<g id="ViewEdge104" transform="rotate(0.0,0.0,0.0) translate(0.0,0.0) scale(1.0,-1.0)"><path id="Edge104_nwe0000"  d="M 199.999 -267.499 L 199.749 -267.249 " stroke="#191919" stroke-width="0.35 px" style="stroke-width:0.35;stroke-miterlimit:4;stroke-dasharray:none;fill:none;fill-rule: evenodd "/>
</g>


<g id="ViewEdge105" transform="rotate(0.0,0.0,0.0) translate(0.0,0.0) scale(1.0,-1.0)"><path id="Edge105_nwe0000"  d="M 199.999 -267.499 L 202.999 -270.499 " stroke="#191919" stroke-width="0.35 px" style="stroke-width:0.35;stroke-miterlimit:4;stroke-dasharray:none;fill:none;fill-rule: evenodd "/>
</g>


<g id="ViewEdge106" transform="rotate(0.0,0.0,0.0) translate(0.0,0.0) scale(1.0,-1.0)"><path id="Edge106_nwe0000"  d="M 199.999 -91.233 L 202.999 -90.1410892972 " stroke="#191919" stroke-width="0.35 px" style="stroke-width:0.35;stroke-miterlimit:4;stroke-dasharray:none;fill:none;fill-rule: evenodd "/>
</g>


<g id="ViewEdge107" transform="rotate(0.0,0.0,0.0) translate(0.0,0.0) scale(1.0,-1.0)"><path id="Edge107_nwe0000"  d="M 199.999 -91.233 L 199.749 -90.983 " stroke="#191919" stroke-width="0.35 px" style="stroke-width:0.35;stroke-miterlimit:4;stroke-dasharray:none;fill:none;fill-rule: evenodd "/>
</g>


<g id="ViewEdge108" transform="rotate(0.0,0.0,0.0) translate(0.0,0.0) scale(1.0,-1.0)"><path id="Edge108_nwe0000"  d="M 199.999 -91.233 L 202.999 -94.233 " stroke="#191919" stroke-width="0.35 px" style="stroke-width:0.35;stroke-miterlimit:4;stroke-dasharray:none;fill:none;fill-rule: evenodd "/>
</g>


<g id="ViewEdge109" transform="rotate(0.0,0.0,0.0) translate(0.0,0.0) scale(1.0,-1.0)"><path id="Edge109_nwe0000"  d="M 202.999 -119.0495 L 199.999 -122.0495 " stroke="#191919" stroke-width="0.35 px" style="stroke-width:0.35;stroke-miterlimit:4;stroke-dasharray:none;fill:none;fill-rule: evenodd "/>
</g>


<g id="ViewEdge110" transform="rotate(0.0,0.0,0.0) translate(0.0,0.0) scale(1.0,-1.0)"><path id="Edge110_nwe0000"  d="M 199.999 -122.0495 L 199.749 -122.2995 " stroke="#191919" stroke-width="0.35 px" style="stroke-width:0.35;stroke-miterlimit:4;stroke-dasharray:none;fill:none;fill-rule: evenodd "/>
</g>


<g id="ViewEdge111" transform="rotate(0.0,0.0,0.0) translate(0.0,0.0) scale(1.0,-1.0)"><path id="Edge111_nwe0000"  d="M 199.999 -122.0495 L 202.999 -123.141410703 " stroke="#191919" stroke-width="0.35 px" style="stroke-width:0.35;stroke-miterlimit:4;stroke-dasharray:none;fill:none;fill-rule: evenodd "/>
</g>


<g id="ViewEdge112" transform="rotate(0.0,0.0,0.0) translate(0.0,0.0) scale(1.0,-1.0)"><path id="Edge112_nwe0000"  d="M 134.699666667 -296.999 L 131.699666667 -293.999 " stroke="#191919" stroke-width="0.35 px" style="stroke-width:0.35;stroke-miterlimit:4;stroke-dasharray:none;fill:none;fill-rule: evenodd "/>
</g>


<g id="ViewEdge113" transform="rotate(0.0,0.0,0.0) translate(0.0,0.0) scale(1.0,-1.0)"><path id="Edge113_nwe0000"  d="M 131.699666667 -293.999 L 131.449666667 -293.749 " stroke="#191919" stroke-width="0.35 px" style="stroke-width:0.35;stroke-miterlimit:4;stroke-dasharray:none;fill:none;fill-rule: evenodd "/>
</g>


<g id="ViewEdge114" transform="rotate(0.0,0.0,0.0) translate(0.0,0.0) scale(1.0,-1.0)"><path id="Edge114_nwe0000"  d="M 131.699666667 -293.999 L 130.607755964 -296.999 " stroke="#191919" stroke-width="0.35 px" style="stroke-width:0.35;stroke-miterlimit:4;stroke-dasharray:none;fill:none;fill-rule: evenodd "/>
</g>


<g id="ViewEdge115" transform="rotate(0.0,0.0,0.0) translate(0.0,0.0) scale(1.0,-1.0)"><path id="Edge115_nwe0000"  d="M 89.9003333333 -296.999 L 92.9003333333 -293.999 " stroke="#191919" stroke-width="0.35 px" style="stroke-width:0.35;stroke-miterlimit:4;stroke-dasharray:none;fill:none;fill-rule: evenodd "/>
</g>


<g id="ViewEdge116" transform="rotate(0.0,0.0,0.0) translate(0.0,0.0) scale(1.0,-1.0)"><path id="Edge116_nwe0000"  d="M 92.9003333333 -293.999 L 93.1503333333 -293.749 " stroke="#191919" stroke-width="0.35 px" style="stroke-width:0.35;stroke-miterlimit:4;stroke-dasharray:none;fill:none;fill-rule: evenodd "/>
</g>


<g id="ViewEdge117" transform="rotate(0.0,0.0,0.0) translate(0.0,0.0) scale(1.0,-1.0)"><path id="Edge117_nwe0000"  d="M 92.9003333333 -293.999 L 93.9922440361 -296.999 " stroke="#191919" stroke-width="0.35 px" style="stroke-width:0.35;stroke-miterlimit:4;stroke-dasharray:none;fill:none;fill-rule: evenodd "/>
</g>


<g id="ViewEdge118" transform="rotate(0.0,0.0,0.0) translate(0.0,0.0) scale(1.0,-1.0)"><path id="Edge118_nwe0000"  d="M 57.101 -296.999 L 54.101 -293.999 " stroke="#191919" stroke-width="0.35 px" style="stroke-width:0.35;stroke-miterlimit:4;stroke-dasharray:none;fill:none;fill-rule: evenodd "/>
</g>


<g id="ViewEdge119" transform="rotate(0.0,0.0,0.0) translate(0.0,0.0) scale(1.0,-1.0)"><path id="Edge119_nwe0000"  d="M 54.101 -293.999 L 53.851 -293.749 " stroke="#191919" stroke-width="0.35 px" style="stroke-width:0.35;stroke-miterlimit:4;stroke-dasharray:none;fill:none;fill-rule: evenodd "/>
</g>


<g id="ViewEdge120" transform="rotate(0.0,0.0,0.0) translate(0.0,0.0) scale(1.0,-1.0)"><path id="Edge120_nwe0000"  d="M 54.101 -293.999 L 53.0090892972 -296.999 " stroke="#191919" stroke-width="0.35 px" style="stroke-width:0.35;stroke-miterlimit:4;stroke-dasharray:none;fill:none;fill-rule: evenodd "/>
</g>


<g id="ViewEdge121" transform="rotate(0.0,0.0,0.0) translate(0.0,0.0) scale(1.0,-1.0)"><path id="Edge121_nwe0000"  d="M 167.499 -296.999 L 170.499 -293.999 " stroke="#191919" stroke-width="0.35 px" style="stroke-width:0.35;stroke-miterlimit:4;stroke-dasharray:none;fill:none;fill-rule: evenodd "/>
</g>


<g id="ViewEdge122" transform="rotate(0.0,0.0,0.0) translate(0.0,0.0) scale(1.0,-1.0)"><path id="Edge122_nwe0000"  d="M 170.499 -293.999 L 170.749 -293.749 " stroke="#191919" stroke-width="0.35 px" style="stroke-width:0.35;stroke-miterlimit:4;stroke-dasharray:none;fill:none;fill-rule: evenodd "/>
</g>


<g id="ViewEdge123" transform="rotate(0.0,0.0,0.0) translate(0.0,0.0) scale(1.0,-1.0)"><path id="Edge123_nwe0000"  d="M 170.499 -293.999 L 171.590910703 -296.999 " stroke="#191919" stroke-width="0.35 px" style="stroke-width:0.35;stroke-miterlimit:4;stroke-dasharray:none;fill:none;fill-rule: evenodd "/>
</g>


<g id="ViewEdge124" transform="rotate(0.0,0.0,0.0) translate(0.0,0.0) scale(1.0,-1.0)"><path id="Edge124_nwe0000"  d="M 42.621200088 -174.928137227 A 2.91698217536 2.91698217536 0 0 1 42.621200088 -169.446003977 " stroke="#191919" stroke-width="0.35 px" style="stroke-width:0.35;stroke-miterlimit:4;stroke-dasharray:none;fill:none;fill-rule: evenodd "/>
</g>


<g id="ViewEdge125" transform="rotate(0.0,0.0,0.0) translate(0.0,0.0) scale(1.0,-1.0)"><path id="Edge125_nwe0000"  d="M 42.621200088 -174.928137227 A 5.83396435072 5.83396435072 0 1 1 50.0986666617 -182.405603801 " stroke="#191919" stroke-width="0.35 px" style="stroke-width:0.35;stroke-miterlimit:4;stroke-dasharray:none;fill:none;fill-rule: evenodd "/>
</g>


<g id="ViewEdge126" transform="rotate(0.0,0.0,0.0) translate(0.0,0.0) scale(1.0,-1.0)"><path id="Edge126_nwe0000"  d="M 55.580799912 -182.405603801 A 2.91698217536 2.91698217536 0 0 1 50.0986666617 -182.405603801 " stroke="#191919" stroke-width="0.35 px" style="stroke-width:0.35;stroke-miterlimit:4;stroke-dasharray:none;fill:none;fill-rule: evenodd "/>
</g>


<g id="ViewEdge127" transform="rotate(0.0,0.0,0.0) translate(0.0,0.0) scale(1.0,-1.0)"><path id="Edge127_nwe0000"  d="M 112.3 -284.499 L 112.3 -221.27425 " stroke="#191919" stroke-width="0.35 px" style="stroke-width:0.35;stroke-miterlimit:4;stroke-dasharray:none;fill:none;fill-rule: evenodd "/>
</g>


<g id="ViewEdge128" transform="rotate(0.0,0.0,0.0) translate(0.0,0.0) scale(1.0,-1.0)"><path id="Edge128_nwe0000"  d="M 50.0986666617 -260.142896199 A 2.91698217536 2.91698217536 0 0 1 55.580799912 -260.142896199 " stroke="#191919" stroke-width="0.35 px" style="stroke-width:0.35;stroke-miterlimit:4;stroke-dasharray:none;fill:none;fill-rule: evenodd "/>
</g>


<g id="ViewEdge129" transform="rotate(0.0,0.0,0.0) translate(0.0,0.0) scale(1.0,-1.0)"><path id="Edge129_nwe0000"  d="M 50.0986666617 -260.142896199 A 5.83396435072 5.83396435072 0 1 1 42.621200088 -267.620362773 " stroke="#191919" stroke-width="0.35 px" style="stroke-width:0.35;stroke-miterlimit:4;stroke-dasharray:none;fill:none;fill-rule: evenodd "/>
</g>


<g id="ViewEdge130" transform="rotate(0.0,0.0,0.0) translate(0.0,0.0) scale(1.0,-1.0)"><path id="Edge130_nwe0000"  d="M 42.621200088 -273.102496023 A 2.91698217536 2.91698217536 0 0 1 42.621200088 -267.620362773 " stroke="#191919" stroke-width="0.35 px" style="stroke-width:0.35;stroke-miterlimit:4;stroke-dasharray:none;fill:none;fill-rule: evenodd "/>
</g>


<g id="ViewEdge131" transform="rotate(0.0,0.0,0.0) translate(0.0,0.0) scale(1.0,-1.0)"><path id="Edge131_nwe0000"  d="M 45.2245464033 -215.98688268 A 2.91698217536 2.91698217536 0 0 1 49.101 -212.110429083 " stroke="#191919" stroke-width="0.35 px" style="stroke-width:0.35;stroke-miterlimit:4;stroke-dasharray:none;fill:none;fill-rule: evenodd "/>
</g>


<g id="ViewEdge132" transform="rotate(0.0,0.0,0.0) translate(0.0,0.0) scale(1.0,-1.0)"><path id="Edge132_nwe0000"  d="M 45.2245464033 -215.98688268 A 5.83396435072 5.83396435072 0 1 1 45.2245464033 -226.56161732 " stroke="#191919" stroke-width="0.35 px" style="stroke-width:0.35;stroke-miterlimit:4;stroke-dasharray:none;fill:none;fill-rule: evenodd "/>
</g>


<g id="ViewEdge133" transform="rotate(0.0,0.0,0.0) translate(0.0,0.0) scale(1.0,-1.0)"><path id="Edge133_nwe0000"  d="M 49.101 -230.438070917 A 2.91698217536 2.91698217536 0 0 1 45.2245464033 -226.56161732 " stroke="#191919" stroke-width="0.35 px" style="stroke-width:0.35;stroke-miterlimit:4;stroke-dasharray:none;fill:none;fill-rule: evenodd "/>
</g>


<g id="ViewEdge134" transform="rotate(0.0,0.0,0.0) translate(0.0,0.0) scale(1.0,-1.0)"><path id="Edge134_nwe0000"  d="M 112.3 -75.82475 L 112.3 -12.6 " stroke="#191919" stroke-width="0.35 px" style="stroke-width:0.35;stroke-miterlimit:4;stroke-dasharray:none;fill:none;fill-rule: evenodd "/>
</g>


<g id="ViewEdge135" transform="rotate(0.0,0.0,0.0) translate(0.0,0.0) scale(1.0,-1.0)"><path id="Edge135_nwe0000"  d="M 6.34299346969 -81.6587143507 A 5.83396435072 5.83396435072 0 0 1 6.34299346969 -69.9907856493 " stroke="#191919" stroke-width="0.35 px" style="stroke-width:0.35;stroke-miterlimit:4;stroke-dasharray:none;fill:none;fill-rule: evenodd "/>
</g>


<g id="ViewEdge136" transform="rotate(0.0,0.0,0.0) translate(0.0,0.0) scale(1.0,-1.0)"><path id="Edge136_nwe0000"  d="M 42.7590065303 -221.27425 L 34.101 -221.27425 " stroke="#191919" stroke-width="0.35 px" style="stroke-width:0.35;stroke-miterlimit:4;stroke-dasharray:none;fill:none;fill-rule: evenodd "/>
</g>


</svg>

