<?xml version="1.0" encoding="UTF-8" standalone="no"?>
<!-- Created with Inkscape (http://www.inkscape.org/) -->

<svg
   xmlns:dc="http://purl.org/dc/elements/1.1/"
   xmlns:cc="http://creativecommons.org/ns#"
   xmlns:rdf="http://www.w3.org/1999/02/22-rdf-syntax-ns#"
   xmlns:svg="http://www.w3.org/2000/svg"
   xmlns="http://www.w3.org/2000/svg"
   xmlns:xlink="http://www.w3.org/1999/xlink"
   xmlns:sodipodi="http://sodipodi.sourceforge.net/DTD/sodipodi-0.dtd"
   xmlns:inkscape="http://www.inkscape.org/namespaces/inkscape"
   width="6in"
   height="8in"
   viewBox="0 0 540 720"
   id="svg4136"
   version="1.1"
   inkscape:version="0.91 r13725"
   sodipodi:docname="penrose-clone2.svg">
  <defs
     id="defs4138" />
  <sodipodi:namedview
     id="base"
     pagecolor="#ffffff"
     bordercolor="#666666"
     borderopacity="1.0"
     inkscape:pageopacity="0.0"
     inkscape:pageshadow="2"
     inkscape:zoom="1.979899"
     inkscape:cx="140.89372"
     inkscape:cy="448.99077"
     inkscape:document-units="px"
     inkscape:current-layer="g11011"
     showgrid="false"
     units="in"
     height="12in"
     width="8in"
     inkscape:object-paths="true"
     inkscape:snap-intersection-paths="true"
     inkscape:object-nodes="true"
     inkscape:snap-smooth-nodes="true"
     inkscape:snap-object-midpoints="true"
     inkscape:snap-center="true"
     inkscape:snap-global="true"
     inkscape:window-width="1912"
     inkscape:window-height="1057"
     inkscape:window-x="0"
     inkscape:window-y="0"
     inkscape:window-maximized="1" />
  <metadata
     id="metadata4141">
    <rdf:RDF>
      <cc:Work
         rdf:about="">
        <dc:format>image/svg+xml</dc:format>
        <dc:type
           rdf:resource="http://purl.org/dc/dcmitype/StillImage" />
        <dc:title />
      </cc:Work>
    </rdf:RDF>
  </metadata>
  <g
     inkscape:label="Calque 1"
     inkscape:groupmode="layer"
     id="layer1"
     transform="translate(0,-332.3622)"
     style="display:inline">
    <use
       x="0"
       y="0"
       xlink:href="#g11011"
       inkscape:transform-center-x="561.91671"
       inkscape:transform-center-y="79.971077"
       id="use11642"
       transform="matrix(0.30901699,0.95105652,-0.95105652,0.30901699,825.55754,190.69458)"
       width="100%"
       height="100%"
       style="opacity:0.8" />
    <use
       x="0"
       y="0"
       xlink:href="#g11011"
       inkscape:transform-center-x="204.06451"
       inkscape:transform-center-y="-438.72823"
       id="use11644"
       transform="matrix(-0.809017,0.58778525,-0.58778525,-0.809017,899.30751,1034.7743)"
       width="100%"
       height="100%"
       style="opacity:0.8" />
    <use
       x="0"
       y="0"
       xlink:href="#g11011"
       inkscape:transform-center-x="-300.37416"
       inkscape:transform-center-y="-378.41175"
       id="use11646"
       transform="matrix(-0.80901699,-0.58778526,0.58778526,-0.80901699,119.33,1365.7497)"
       width="100%"
       height="100%"
       style="opacity:0.8" />
    <use
       x="0"
       y="0"
       xlink:href="#g11011"
       inkscape:transform-center-x="-532.14816"
       inkscape:transform-center-y="196.88025"
       id="use11648"
       transform="matrix(0.309017,-0.95105651,0.95105651,0.309017,-436.47259,726.22403)"
       width="100%"
       height="100%"
       style="opacity:0.8" />
    <g
       id="g11011"
       inkscape:label="#g11667"
       transform="matrix(1,0,0,-1,0,1340.991)"
       style="opacity:1">
      <g
         id="g10663-3-4-2"
         style="display:inline"
         transform="matrix(-0.80901699,0.58778525,0.58778525,0.80901699,-482.92203,130.55747)">
        <path
           transform="translate(0,27.6378)"
           style="display:inline;fill:#a0e6a7;fill-opacity:1;fill-rule:evenodd;stroke:#000000;stroke-width:0.2179307px;stroke-linecap:butt;stroke-linejoin:bevel;stroke-opacity:1"
           d="m 185.23701,708.79457 14.05103,-19.33962 22.73515,7.38707 -14.05112,19.33963 z"
           id="path10114-6-7-9-6"
           inkscape:connector-curvature="0" />
        <path
           transform="translate(0,27.6378)"
           inkscape:connector-curvature="0"
           style="display:inline;opacity:1;fill:none;fill-opacity:1;fill-rule:evenodd;stroke:#0000ff;stroke-width:1.5;stroke-linejoin:bevel;stroke-miterlimit:4;stroke-dasharray:none;stroke-opacity:1"
           d="m 188.762,703.94123 c 2.10165,1.52708 2.98111,4.23377 2.17832,6.70454"
           id="path10368-5-4-5-1"
           sodipodi:nodetypes="cc" />
        <path
           inkscape:connector-curvature="0"
           style="display:inline;opacity:1;fill:none;fill-opacity:1;fill-rule:evenodd;stroke:#ff0000;stroke-width:1.5;stroke-linejoin:bevel;stroke-miterlimit:4;stroke-dasharray:none;stroke-opacity:1"
           d="m 211.49397,738.95482 c -6.2723,-4.55721 -8.8969,-12.63492 -6.50105,-20.00851"
           id="path10626-5-0-0" />
      </g>
      <g
         id="g10524-2-1-4-6"
         style="display:inline;stroke-linejoin:bevel"
         transform="matrix(-0.80901699,0.58778525,-0.58778525,-0.80901699,389.2963,1307.1576)">
        <path
           style="display:inline;fill:#a0e6a7;fill-opacity:1;fill-rule:evenodd;stroke:#000000;stroke-width:0.2179307px;stroke-linecap:butt;stroke-linejoin:bevel;stroke-opacity:1"
           d="m 236.07436,740.08678 10e-6,-23.90509 -14.05108,-19.33964 1e-5,23.90511 z"
           id="path10106-2-6-8-9-8-1"
           inkscape:connector-curvature="0" />
        <path
           inkscape:connector-curvature="0"
           style="display:inline;opacity:1;fill:none;fill-opacity:1;fill-rule:evenodd;stroke:#ff0000;stroke-width:1.5;stroke-linejoin:bevel;stroke-miterlimit:4;stroke-dasharray:none;stroke-opacity:1"
           d="m 225.54791,725.58799 c 2.67938,-1.94669 3.27337,-5.69691 1.73589,-7.81308 -1.53749,-2.11617 -3.34103,-3.03512 -5.2605,-3.03521"
           id="path10376-1-9-4-7-5" />
        <path
           inkscape:connector-curvature="0"
           style="display:inline;opacity:1;fill:none;fill-opacity:1;fill-rule:evenodd;stroke:#0000ff;stroke-width:1.5;stroke-linejoin:bevel;stroke-miterlimit:4;stroke-dasharray:none;stroke-opacity:1"
           d="m 232.54975,711.34084 c -2.67938,1.94669 -3.27337,5.69691 -1.73589,7.81308 1.53749,2.11617 3.34103,3.03512 5.2605,3.03521"
           id="path10376-1-3-7-7-1-9" />
      </g>
      <use
         height="100%"
         width="100%"
         transform="translate(481.46231,-157.72089)"
         id="use10954"
         xlink:href="#g10663-3-4-2"
         y="0"
         x="0" />
      <use
         height="100%"
         width="100%"
         transform="translate(481.45052,-157.74184)"
         id="use10956"
         xlink:href="#g10524-2-1-4-6"
         y="0"
         x="0" />
      <use
         height="100%"
         width="100%"
         transform="matrix(0.80901699,0.58778525,-0.58778525,0.80901699,911.4783,150.59342)"
         id="use10973"
         xlink:href="#g10663-3-4-2"
         y="0"
         x="0" />
      <use
         height="100%"
         width="100%"
         transform="matrix(0.80901699,-0.58778525,0.58778525,0.80901699,-70.385542,-84.414996)"
         id="use10975"
         xlink:href="#g10663-3-4-2"
         y="0"
         x="0" />
      <use
         height="100%"
         width="100%"
         transform="matrix(-0.30901699,-0.95105651,0.95105651,-0.30901699,-597.32495,776.73884)"
         id="use10977"
         xlink:href="#g10663-3-4-2"
         y="0"
         x="0" />
      <use
         height="100%"
         width="100%"
         transform="matrix(0.80901699,0.58778525,-0.58778525,0.80901699,897.42713,107.34866)"
         id="use10987"
         xlink:href="#g10524-2-1-4-6"
         y="0"
         x="0" />
      <use
         height="100%"
         width="100%"
         transform="matrix(0.80901699,0.58778525,-0.58778525,0.80901699,911.47823,150.59346)"
         id="use10989"
         xlink:href="#g10524-2-1-4-6"
         y="0"
         x="0" />
      <use
         height="100%"
         width="100%"
         transform="matrix(0.30901699,-0.95105651,0.95105651,0.30901699,-510.5417,272.50447)"
         id="use10991"
         xlink:href="#g10663-3-4-2"
         y="0"
         x="0" />
      <use
         height="100%"
         width="100%"
         transform="matrix(-0.30901699,-0.95105651,0.95105651,-0.30901699,-670.87946,776.74029)"
         id="use10993"
         xlink:href="#g10524-2-1-4-6"
         y="0"
         x="0" />
      <use
         height="100%"
         width="100%"
         transform="matrix(-1,0,0,-1,-14.687164,1543.9984)"
         id="use10995"
         xlink:href="#g10524-2-1-4-6"
         y="0"
         x="0" />
      <use
         height="100%"
         width="100%"
         transform="matrix(-1,0,0,-1,-14.680712,1544.0268)"
         id="use10997"
         xlink:href="#g10663-3-4-2"
         y="0"
         x="0" />
      <use
         height="100%"
         width="100%"
         transform="matrix(-0.30901699,0.95105651,-0.95105651,-0.30901699,917.81609,1157.035)"
         id="use10999"
         xlink:href="#g10663-3-4-2"
         y="0"
         x="0" />
      <use
         height="100%"
         width="100%"
         transform="matrix(0.80901699,0.58778525,-0.58778525,0.80901699,837.9185,150.60255)"
         id="use11001"
         xlink:href="#g10663-3-4-2"
         y="0"
         x="0" />
      <use
         height="100%"
         width="100%"
         transform="matrix(0.80901699,-0.58778525,0.58778525,0.80901699,-143.94367,-84.416456)"
         id="use11003"
         xlink:href="#g10663-3-4-2"
         y="0"
         x="0" />
      <use
         height="100%"
         width="100%"
         transform="matrix(-0.30901699,-0.95105651,0.95105651,-0.30901699,-670.8712,776.76714)"
         id="use11005"
         xlink:href="#g10663-3-4-2"
         y="0"
         x="0" />
      <use
         height="100%"
         width="100%"
         transform="matrix(-0.30901699,0.95105651,-0.95105651,-0.30901699,917.82461,1157.0321)"
         id="use11007"
         xlink:href="#g10524-2-1-4-6"
         y="0"
         x="0" />
      <use
         height="100%"
         width="100%"
         transform="matrix(0.80901699,-0.58778525,0.58778525,0.80901699,-143.95234,-84.419337)"
         id="use11009"
         xlink:href="#g10524-2-1-4-6"
         y="0"
         x="0" />
      <use
         x="0"
         y="0"
         xlink:href="#g10524-2-1-4-6"
         id="use11694"
         transform="matrix(0.809017,0.58778525,-0.58778525,0.809017,837.92011,150.59214)"
         width="100%"
         height="100%" />
      <use
         x="0"
         y="0"
         xlink:href="#g10663-3-4-2"
         id="use11696"
         transform="matrix(0.30901699,0.95105651,-0.95105651,0.30901699,1064.0936,609.52804)"
         width="100%"
         height="100%" />
      <use
         x="0"
         y="0"
         xlink:href="#g10663-3-4-2"
         id="use11698"
         transform="matrix(0.30901699,-0.95105651,0.95105651,0.30901699,-547.3238,299.24726)"
         width="100%"
         height="100%" />
      <use
         x="0"
         y="0"
         xlink:href="#g10663-3-4-2"
         id="use11700"
         transform="translate(348.38301,-114.47764)"
         width="100%"
         height="100%" />
      <use
         x="0"
         y="0"
         xlink:href="#g10663-3-4-2"
         id="use11702"
         transform="matrix(0.30901699,0.95105651,-0.95105651,0.30901699,1018.6456,609.54362)"
         width="100%"
         height="100%" />
      <use
         x="0"
         y="0"
         xlink:href="#g10663-3-4-2"
         id="use11704"
         transform="translate(385.16007,-87.742473)"
         width="100%"
         height="100%" />
      <use
         x="0"
         y="0"
         xlink:href="#g10663-3-4-2"
         id="use11706"
         transform="matrix(-0.80901699,-0.58778525,0.58778525,-0.80901699,-467.42807,1305.6785)"
         width="100%"
         height="100%" />
      <use
         style="display:inline"
         x="0"
         y="0"
         xlink:href="#g10663-3-4-2"
         id="use10954-9"
         transform="matrix(-0.30901699,-0.95105651,-0.95105651,0.30901699,881.02876,272.5122)"
         width="100%"
         height="100%" />
      <use
         x="0"
         y="0"
         xlink:href="#g10663-3-4-2"
         id="use11716"
         transform="matrix(0.30901699,0.95105651,-0.95105651,0.30901699,1004.5854,652.78084)"
         width="100%"
         height="100%" />
      <use
         x="0"
         y="0"
         xlink:href="#g10663-3-4-2"
         id="use11718"
         transform="translate(362.44322,-157.71486)"
         width="100%"
         height="100%" />
      <use
         x="0"
         y="0"
         xlink:href="#g10663-3-4-2"
         id="use11720"
         transform="matrix(-0.80901699,0.58778525,-0.58778525,-0.80901699,491.71724,1470.7253)"
         width="100%"
         height="100%" />
      <use
         x="0"
         y="0"
         xlink:href="#g10524-2-1-4-6"
         id="use11722"
         transform="matrix(0.30901699,-0.95105651,0.95105651,0.30901699,-547.32558,299.24617)"
         width="100%"
         height="100%" />
      <use
         x="0"
         y="0"
         xlink:href="#g10524-2-1-4-6"
         id="use11724"
         transform="matrix(0.30901699,0.95105651,-0.95105651,0.30901699,1100.8846,722.75702)"
         width="100%"
         height="100%" />
      <use
         x="0"
         y="0"
         xlink:href="#g10663-3-4-2"
         id="use11726"
         transform="matrix(0.80901699,-0.58778525,0.58778525,0.80901699,-121.21125,-14.457256)"
         width="100%"
         height="100%" />
      <use
         x="0"
         y="0"
         xlink:href="#g10663-3-4-2"
         id="use11728"
         transform="matrix(-0.30901699,-0.95105651,0.95105651,-0.30901699,-693.59894,846.71916)"
         width="100%"
         height="100%" />
      <use
         x="0"
         y="0"
         xlink:href="#g10663-3-4-2"
         id="use11730"
         transform="matrix(-1,0,0,-1,-51.445222,1657.2221)"
         width="100%"
         height="100%" />
      <use
         x="0"
         y="0"
         xlink:href="#g10663-3-4-2"
         id="use11732"
         transform="matrix(0.80901699,0.58778525,-0.58778525,0.80901699,874.70376,263.805)"
         width="100%"
         height="100%" />
      <use
         x="0"
         y="0"
         xlink:href="#g10663-3-4-2"
         id="use11738"
         transform="matrix(-0.30901699,0.95105651,-0.95105651,-0.30901699,917.82539,1296.9569)"
         width="100%"
         height="100%" />
      <use
         x="0"
         y="0"
         xlink:href="#g10524-2-1-4-6"
         id="use11740"
         transform="translate(385.16002,-87.7425)"
         width="100%"
         height="100%" />
      <use
         x="0"
         y="0"
         xlink:href="#g10524-2-1-4-6"
         id="use11742"
         transform="translate(348.37121,-114.49854)"
         width="100%"
         height="100%" />
      <use
         x="0"
         y="0"
         xlink:href="#g10524-2-1-4-6"
         id="use11744"
         transform="matrix(0.309017,0.95105652,-0.95105652,0.309017,1004.5855,652.78081)"
         width="100%"
         height="100%" />
      <use
         x="0"
         y="0"
         xlink:href="#g10524-2-1-4-6"
         id="use11746"
         transform="matrix(0.30901699,0.95105651,-0.95105651,0.30901699,1018.6456,609.54358)"
         width="100%"
         height="100%" />
      <use
         x="0"
         y="0"
         xlink:href="#g10663-3-4-2"
         id="use11748"
         transform="matrix(-0.80901699,-0.58778525,0.58778525,-0.80901699,-526.93143,1348.9077)"
         width="100%"
         height="100%" />
      <use
         x="0"
         y="0"
         xlink:href="#g10663-3-4-2"
         id="use11750"
         transform="matrix(-0.80901699,0.58778525,-0.58778525,-0.80901699,454.93074,1583.9269)"
         width="100%"
         height="100%" />
      <use
         x="0"
         y="0"
         xlink:href="#g10663-3-4-2"
         id="use11752"
         transform="matrix(0.30901699,-0.95105651,0.95105651,0.30901699,-606.82915,342.47527)"
         width="100%"
         height="100%" />
      <use
         x="0"
         y="0"
         xlink:href="#g10663-3-4-2"
         id="use11754"
         transform="translate(325.65473,-44.514465)"
         width="100%"
         height="100%" />
      <use
         x="0"
         y="0"
         xlink:href="#g10663-3-4-2"
         id="use11756"
         transform="matrix(0.30901699,0.95105651,-0.95105651,0.30901699,981.85919,722.74524)"
         width="100%"
         height="100%" />
      <use
         x="0"
         y="0"
         xlink:href="#g10524-2-1-4-6"
         id="use11758"
         transform="matrix(-0.80901699,0.58778525,-0.58778525,-0.80901699,454.95244,1583.9366)"
         width="100%"
         height="100%" />
      <use
         x="0"
         y="0"
         xlink:href="#g10524-2-1-4-6"
         id="use11760"
         transform="matrix(-0.80901699,-0.58778525,0.58778525,-0.80901699,-526.93145,1348.9078)"
         width="100%"
         height="100%" />
      <use
         style="display:inline"
         x="0"
         y="0"
         xlink:href="#g10663-3-4-2"
         id="use11748-9"
         transform="matrix(-0.80901699,-0.58778525,0.58778525,-0.80901699,-563.71943,1235.719)"
         width="100%"
         height="100%" />
      <use
         style="display:inline"
         x="0"
         y="0"
         xlink:href="#g10663-3-4-2"
         id="use11750-1"
         transform="matrix(-0.80901699,0.58778525,-0.58778525,-0.80901699,418.14284,1470.7382)"
         width="100%"
         height="100%" />
      <use
         style="display:inline"
         x="0"
         y="0"
         xlink:href="#g10663-3-4-2"
         id="use11752-7"
         transform="matrix(0.30901699,-0.95105651,0.95105651,0.30901699,-643.61723,229.28645)"
         width="100%"
         height="100%" />
      <use
         style="display:inline"
         x="0"
         y="0"
         xlink:href="#g10663-3-4-2"
         id="use11754-7"
         transform="translate(288.86667,-157.70329)"
         width="100%"
         height="100%" />
      <use
         style="display:inline"
         x="0"
         y="0"
         xlink:href="#g10663-3-4-2"
         id="use11756-1"
         transform="matrix(0.30901699,0.95105651,-0.95105651,0.30901699,945.07129,609.55647)"
         width="100%"
         height="100%" />
      <use
         style="display:inline"
         x="0"
         y="0"
         xlink:href="#g10524-2-1-4-6"
         id="use11758-1"
         transform="matrix(-0.80901699,0.58778525,-0.58778525,-0.80901699,418.1645,1470.7478)"
         width="100%"
         height="100%" />
      <use
         style="display:inline"
         x="0"
         y="0"
         xlink:href="#g10524-2-1-4-6"
         id="use11760-5"
         transform="matrix(-0.80901699,-0.58778525,0.58778525,-0.80901699,-563.71941,1235.7191)"
         width="100%"
         height="100%" />
      <use
         x="0"
         y="0"
         xlink:href="#g10524-2-1-4-6"
         id="use11810"
         transform="matrix(0.30901699,-0.95105651,0.95105651,0.30901699,-643.62505,229.26981)"
         width="100%"
         height="100%" />
      <use
         x="0"
         y="0"
         xlink:href="#g10663-3-4-2"
         id="use11812"
         transform="matrix(0.80901699,-0.58778525,0.58778525,0.80901699,-217.5104,-84.433446)"
         width="100%"
         height="100%" />
      <use
         x="0"
         y="0"
         xlink:href="#g10663-3-4-2"
         id="use11814"
         transform="matrix(0.80901699,0.58778525,-0.58778525,0.80901699,778.4366,193.84272)"
         width="100%"
         height="100%" />
      <use
         x="0"
         y="0"
         xlink:href="#g10663-3-4-2"
         id="use11816"
         transform="matrix(-0.30901699,-0.95105651,0.95105651,-0.30901699,-789.8981,776.74304)"
         width="100%"
         height="100%" />
      <use
         x="0"
         y="0"
         xlink:href="#g10663-3-4-2"
         id="use11818"
         transform="matrix(-0.30901699,0.95105651,-0.95105651,-0.30901699,821.55202,1226.9902)"
         width="100%"
         height="100%" />
      <use
         x="0"
         y="0"
         xlink:href="#g10524-2-1-4-6"
         id="use11820"
         transform="translate(288.86661,-157.70331)"
         width="100%"
         height="100%" />
      <use
         x="0"
         y="0"
         xlink:href="#g10524-2-1-4-6"
         id="use11822"
         transform="matrix(0.30901699,0.95105651,-0.95105651,0.30901699,981.86462,722.73648)"
         width="100%"
         height="100%" />
      <use
         x="0"
         y="0"
         xlink:href="#g10524-2-1-4-6"
         id="use11824"
         transform="matrix(0.80901699,-0.58778525,0.58778525,0.80901699,-262.9706,-84.440697)"
         width="100%"
         height="100%" />
      <use
         x="0"
         y="0"
         xlink:href="#g10524-2-1-4-6"
         id="use11826"
         transform="matrix(-0.30901699,0.95105651,-0.95105651,-0.30901699,821.5519,1226.99)"
         width="100%"
         height="100%" />
      <use
         x="0"
         y="0"
         xlink:href="#g10524-2-1-4-6"
         id="use11828"
         transform="matrix(0.30901699,-0.95105651,0.95105651,0.30901699,-606.82914,342.47527)"
         width="100%"
         height="100%" />
      <use
         x="0"
         y="0"
         xlink:href="#g10663-3-4-2"
         id="use11830"
         transform="matrix(-0.80901699,0.58778525,-0.58778525,-0.80901699,477.66767,1653.8968)"
         width="100%"
         height="100%" />
      <use
         x="0"
         y="0"
         xlink:href="#g10663-3-4-2"
         id="use11832"
         transform="matrix(0.30901699,0.95105651,-0.95105651,0.30901699,1004.5961,792.71518)"
         width="100%"
         height="100%" />
      <use
         x="0"
         y="0"
         xlink:href="#g10663-3-4-2"
         id="use11834"
         transform="matrix(-0.80901699,-0.58778525,0.58778525,-0.80901699,-504.19449,1418.8776)"
         width="100%"
         height="100%" />
      <use
         x="0"
         y="0"
         xlink:href="#g10524-2-1-4-6"
         id="use11836"
         transform="matrix(-0.80901699,0.58778525,-0.58778525,-0.80901699,477.66759,1653.8966)"
         width="100%"
         height="100%" />
      <use
         x="0"
         y="0"
         xlink:href="#g10524-2-1-4-6"
         id="use11838"
         transform="matrix(-0.80901699,-0.58778525,0.58778525,-0.80901699,-504.18011,1418.8615)"
         width="100%"
         height="100%" />
      <use
         x="0"
         y="0"
         xlink:href="#g10524-2-1-4-6"
         id="use11840"
         transform="translate(325.64293,-44.53538)"
         width="100%"
         height="100%" />
      <use
         x="0"
         y="0"
         xlink:href="#g10524-2-1-4-6"
         id="use11842"
         transform="matrix(0.30901699,0.95105651,-0.95105651,0.30901699,945.07656,609.54768)"
         width="100%"
         height="100%" />
      <use
         x="0"
         y="0"
         xlink:href="#g10663-3-4-2"
         id="use11844"
         transform="translate(266.13343,-87.768043)"
         width="100%"
         height="100%" />
      <use
         x="0"
         y="0"
         xlink:href="#g10663-3-4-2"
         id="use11846"
         transform="matrix(0.80901699,0.58778525,-0.58778525,0.80901699,741.61963,220.54635)"
         width="100%"
         height="100%" />
      <use
         style="display:inline"
         x="0"
         y="0"
         xlink:href="#g10524-2-1-4-6"
         id="use11824-9"
         transform="matrix(0.80901699,0.58778525,-0.58778525,0.80901699,741.6167,220.54355)"
         width="100%"
         height="100%" />
      <use
         style="display:inline"
         x="0"
         y="0"
         xlink:href="#g10524-2-1-4-6"
         id="use11826-7"
         transform="matrix(-1,0,0,-1,-170.49217,1657.2401)"
         width="100%"
         height="100%" />
      <use
         style="display:inline"
         x="0"
         y="0"
         xlink:href="#g10663-3-4-2"
         id="use11844-7"
         transform="matrix(0.30901699,0.95105651,-0.95105651,0.30901699,908.28336,722.72317)"
         width="100%"
         height="100%" />
      <use
         style="display:inline"
         x="0"
         y="0"
         xlink:href="#g10663-3-4-2"
         id="use11846-6"
         transform="matrix(-0.30901699,0.95105651,-0.95105651,-0.30901699,761.99225,1270.2119)"
         width="100%"
         height="100%" />
      <use
         style="display:inline"
         x="0"
         y="0"
         xlink:href="#g10524-2-1-4-6"
         id="use11824-7"
         transform="matrix(-0.30901699,0.95105651,-0.95105651,-0.30901699,761.994,1270.2082)"
         width="100%"
         height="100%" />
      <use
         style="display:inline"
         x="0"
         y="0"
         xlink:href="#g10524-2-1-4-6"
         id="use11826-3"
         transform="matrix(-0.30901699,-0.95105651,0.95105651,-0.30901699,-886.24276,846.70475)"
         width="100%"
         height="100%" />
      <use
         style="display:inline"
         x="0"
         y="0"
         xlink:href="#g10663-3-4-2"
         id="use11844-6"
         transform="matrix(-0.80901699,0.58778525,-0.58778525,-0.80901699,335.89565,1583.8997)"
         width="100%"
         height="100%" />
      <use
         style="display:inline"
         x="0"
         y="0"
         xlink:href="#g10663-3-4-2"
         id="use11846-5"
         transform="matrix(-1,0,0,-1,-230.00347,1613.9518)"
         width="100%"
         height="100%" />
      <use
         style="display:inline"
         x="0"
         y="0"
         xlink:href="#g10524-2-1-4-6"
         id="use11824-6"
         transform="matrix(-1,0,0,-1,-229.99943,1613.9523)"
         width="100%"
         height="100%" />
      <use
         style="display:inline"
         x="0"
         y="0"
         xlink:href="#g10524-2-1-4-6"
         id="use11826-39"
         transform="matrix(0.80901699,-0.58778525,0.58778525,0.80901699,-336.55687,-84.48361)"
         width="100%"
         height="100%" />
      <use
         style="display:inline"
         x="0"
         y="0"
         xlink:href="#g10663-3-4-2"
         id="use11844-4"
         transform="matrix(-0.80901699,-0.58778525,0.58778525,-0.80901699,-660.00934,1305.6446)"
         width="100%"
         height="100%" />
      <use
         style="display:inline"
         x="0"
         y="0"
         xlink:href="#g10663-3-4-2"
         id="use11846-8"
         transform="matrix(-0.30901699,-0.95105651,0.95105651,-0.30901699,-863.46309,776.72934)"
         width="100%"
         height="100%" />
      <use
         style="display:inline"
         x="0"
         y="0"
         xlink:href="#g10524-2-1-4-6"
         id="use11824-1"
         transform="matrix(-0.30901699,-0.95105651,0.95105651,-0.30901699,-863.46245,776.73339)"
         width="100%"
         height="100%" />
      <use
         style="display:inline"
         x="0"
         y="0"
         xlink:href="#g10524-2-1-4-6"
         id="use11826-2"
         transform="matrix(0.80901699,0.58778525,-0.58778525,0.80901699,718.91818,150.54556)"
         width="100%"
         height="100%" />
      <use
         style="display:inline"
         x="0"
         y="0"
         xlink:href="#g10663-3-4-2"
         id="use11844-9"
         transform="matrix(0.30901699,-0.95105651,0.95105651,0.30901699,-703.12476,272.49728)"
         width="100%"
         height="100%" />
      <use
         style="display:inline"
         x="0"
         y="0"
         xlink:href="#g10663-3-4-2"
         id="use11846-3"
         transform="matrix(0.80901699,-0.58778525,0.58778525,0.80901699,-262.9671,-84.442496)"
         width="100%"
         height="100%" />
      <use
         style="display:inline"
         x="0"
         y="0"
         xlink:href="#g10663-3-4-2"
         id="use11812-9"
         transform="matrix(0.80901699,0.58778525,-0.58778525,0.80901699,755.66258,263.78219)"
         width="100%"
         height="100%" />
      <use
         style="display:inline"
         x="0"
         y="0"
         xlink:href="#g10663-3-4-2"
         id="use11814-0"
         transform="matrix(-0.30901699,0.95105651,-0.95105651,-0.30901699,798.77076,1296.9761)"
         width="100%"
         height="100%" />
      <use
         style="display:inline"
         x="0"
         y="0"
         xlink:href="#g10663-3-4-2"
         id="use11816-8"
         transform="matrix(0.80901699,-0.58778525,0.58778525,0.80901699,-240.24253,-14.472676)"
         width="100%"
         height="100%" />
      <use
         style="display:inline"
         x="0"
         y="0"
         xlink:href="#g10663-3-4-2"
         id="use11818-8"
         transform="matrix(-1,0,0,-1,-170.48739,1657.2413)"
         width="100%"
         height="100%" />
      <use
         style="display:inline"
         x="0"
         y="0"
         xlink:href="#g10663-3-4-2"
         id="use11812-5"
         transform="matrix(-0.30901699,0.95105651,-0.95105651,-0.30901699,725.2463,1296.912)"
         width="100%"
         height="100%" />
      <use
         style="display:inline"
         x="0"
         y="0"
         xlink:href="#g10663-3-4-2"
         id="use11816-6"
         transform="matrix(0.80901699,0.58778525,-0.58778525,0.80901699,682.13084,263.76446)"
         width="100%"
         height="100%" />
      <use
         style="display:inline"
         x="0"
         y="0"
         xlink:href="#g10663-3-4-2"
         id="use11818-3"
         transform="matrix(-0.30901699,-0.95105651,0.95105651,-0.30901699,-886.20825,846.69356)"
         width="100%"
         height="100%" />
      <use
         style="display:inline"
         x="0"
         y="0"
         xlink:href="#g10663-3-4-2"
         id="use11814-5"
         transform="matrix(-0.30901699,-0.95105651,0.95105651,-0.30901699,-908.92229,776.72424)"
         width="100%"
         height="100%" />
      <use
         style="display:inline"
         x="0"
         y="0"
         xlink:href="#g10663-3-4-2"
         id="use11816-61"
         transform="matrix(-0.30901699,0.95105651,-0.95105651,-0.30901699,702.50732,1226.992)"
         width="100%"
         height="100%" />
      <use
         style="display:inline"
         x="0"
         y="0"
         xlink:href="#g10663-3-4-2"
         id="use11818-1"
         transform="matrix(0.80901699,-0.58778525,0.58778525,0.80901699,-336.53463,-84.452146)"
         width="100%"
         height="100%" />
      <use
         style="display:inline"
         x="0"
         y="0"
         xlink:href="#g10663-3-4-2"
         id="use11812-59"
         transform="matrix(-0.30901699,-0.95105651,0.95105651,-0.30901699,-849.40832,733.49632)"
         width="100%"
         height="100%" />
      <use
         style="display:inline"
         x="0"
         y="0"
         xlink:href="#g10663-3-4-2"
         id="use11814-8"
         transform="matrix(0.80901699,-0.58778525,0.58778525,0.80901699,-276.98755,-127.71338)"
         width="100%"
         height="100%" />
      <use
         style="display:inline"
         x="0"
         y="0"
         xlink:href="#g10663-3-4-2"
         id="use11816-4"
         transform="matrix(-1,0,0,-1,-207.25831,1543.9876)"
         width="100%"
         height="100%" />
      <use
         style="display:inline"
         x="0"
         y="0"
         xlink:href="#g10663-3-4-2"
         id="use11818-81"
         transform="matrix(0.80901699,0.58778525,-0.58778525,0.80901699,718.91747,150.54156)"
         width="100%"
         height="100%" />
      <use
         x="0"
         y="0"
         xlink:href="#g10524-2-1-4-6"
         id="use11990"
         transform="matrix(-0.80901699,0.58778525,-0.58778525,-0.80901699,358.64683,1653.8586)"
         width="100%"
         height="100%" />
      <use
         x="0"
         y="0"
         xlink:href="#g10524-2-1-4-6"
         id="use11992"
         transform="matrix(-0.80901699,0.58778525,-0.58778525,-0.80901699,432.16857,1653.8664)"
         width="100%"
         height="100%" />
      <use
         x="0"
         y="0"
         xlink:href="#g10663-3-4-2"
         id="use11994"
         transform="matrix(-0.80901699,0.58778525,-0.58778525,-0.80901699,432.14672,1653.8564)"
         width="100%"
         height="100%" />
      <use
         x="0"
         y="0"
         xlink:href="#g10663-3-4-2"
         id="use11996"
         transform="matrix(0.30901699,0.95105651,-0.95105651,0.30901699,959.08747,792.67987)"
         width="100%"
         height="100%" />
      <use
         x="0"
         y="0"
         xlink:href="#g10663-3-4-2"
         id="use11998"
         transform="translate(302.88269,25.421605)"
         width="100%"
         height="100%" />
      <use
         x="0"
         y="0"
         xlink:href="#g10524-2-1-4-6"
         id="use12000"
         transform="matrix(0.30901699,0.95105651,-0.95105651,0.30901699,959.10371,792.66218)"
         width="100%"
         height="100%" />
      <use
         x="0"
         y="0"
         xlink:href="#g10524-2-1-4-6"
         id="use12002"
         transform="matrix(-0.80901699,-0.58778525,0.58778525,-0.80901699,-623.24919,1418.887)"
         width="100%"
         height="100%" />
      <use
         x="0"
         y="0"
         xlink:href="#g10663-3-4-2"
         id="use12004"
         transform="matrix(-0.80901699,-0.58778525,0.58778525,-0.80901699,-623.24655,1418.8632)"
         width="100%"
         height="100%" />
      <use
         x="0"
         y="0"
         xlink:href="#g10663-3-4-2"
         id="use12006"
         transform="matrix(-0.80901699,0.58778525,-0.58778525,-0.80901699,358.62498,1653.8486)"
         width="100%"
         height="100%" />
      <use
         x="0"
         y="0"
         xlink:href="#g10524-2-1-4-6"
         id="use12008"
         transform="matrix(-0.30901699,0.95105651,-0.95105651,-0.30901699,858.24507,1340.165)"
         width="100%"
         height="100%" />
      <use
         x="0"
         y="0"
         xlink:href="#g10524-2-1-4-6"
         id="use12010"
         transform="matrix(-1,0,0,-1,-74.184695,1727.1857)"
         width="100%"
         height="100%" />
      <use
         x="0"
         y="0"
         xlink:href="#g10663-3-4-2"
         id="use12012"
         transform="matrix(0.30901699,0.95105651,0.95105651,-0.30901699,-606.88817,1340.1651)"
         width="100%"
         height="100%" />
      <use
         x="0"
         y="0"
         xlink:href="#g10663-3-4-2"
         id="use12014"
         transform="matrix(0.80901699,0.58778525,-0.58778525,0.80901699,778.33873,333.73535)"
         width="100%"
         height="100%" />
      <use
         x="0"
         y="0"
         xlink:href="#g10663-3-4-2"
         id="use12016"
         transform="matrix(-1,0,0,-1,-74.178581,1727.192)"
         width="100%"
         height="100%" />
      <use
         x="0"
         y="0"
         xlink:href="#g10663-3-4-2"
         id="use12018"
         transform="matrix(-0.30901699,-0.95105651,0.95105651,-0.30901699,-730.38337,959.93383)"
         width="100%"
         height="100%" />
      <use
         x="0"
         y="0"
         xlink:href="#g10663-3-4-2"
         id="use12020"
         transform="matrix(0.30901699,0.95105651,-0.95105651,0.30901699,885.56573,792.67206)"
         width="100%"
         height="100%" />
      <use
         x="0"
         y="0"
         xlink:href="#g10524-2-1-4-6"
         id="use12022"
         transform="matrix(0.30901699,0.95105651,-0.95105651,0.30901699,885.58197,792.65437)"
         width="100%"
         height="100%" />
      <use
         x="0"
         y="0"
         xlink:href="#g10663-3-4-2"
         id="use12024"
         transform="matrix(0.80901699,0.58778525,-0.58778525,0.80901699,645.35056,290.4807)"
         width="100%"
         height="100%" />
      <use
         x="0"
         y="0"
         xlink:href="#g10524-2-1-4-6"
         id="use12026"
         transform="matrix(-0.30901699,0.95105651,-0.95105651,-0.30901699,725.26979,1296.9072)"
         width="100%"
         height="100%" />
      <use
         x="0"
         y="0"
         xlink:href="#g10524-2-1-4-6"
         id="use12028"
         transform="matrix(0.80901699,-0.58778525,0.58778525,0.80901699,-359.20657,-14.51431)"
         width="100%"
         height="100%" />
      <use
         x="0"
         y="0"
         xlink:href="#g10663-3-4-2"
         id="use12030"
         transform="translate(169.89734,-17.841835)"
         width="100%"
         height="100%" />
      <use
         x="0"
         y="0"
         xlink:href="#g10524-2-1-4-6"
         id="use12032"
         transform="translate(133.11112,-44.56854)"
         width="100%"
         height="100%" />
      <use
         x="0"
         y="0"
         xlink:href="#g10524-2-1-4-6"
         id="use12034"
         transform="matrix(0.30901699,0.95105651,-0.95105651,0.30901699,789.31593,722.68972)"
         width="100%"
         height="100%" />
      <use
         x="0"
         y="0"
         xlink:href="#g10524-2-1-4-6"
         id="use12036"
         transform="matrix(0.80901699,0.58778525,-0.58778525,0.80901699,622.65727,220.50301)"
         width="100%"
         height="100%" />
      <use
         x="0"
         y="0"
         xlink:href="#g10524-2-1-4-6"
         id="use12038"
         transform="matrix(0.80901699,-0.58778525,0.58778525,0.80901699,-381.9947,-84.45931)"
         width="100%"
         height="100%" />
      <use
         x="0"
         y="0"
         xlink:href="#g10524-2-1-4-6"
         id="use12040"
         transform="matrix(-0.30901699,0.95105651,-0.95105651,-0.30901699,702.50201,1226.962)"
         width="100%"
         height="100%" />
      <use
         x="0"
         y="0"
         xlink:href="#g10663-3-4-2"
         id="use12042"
         transform="translate(133.11112,-44.568545)"
         width="100%"
         height="100%" />
      <use
         x="0"
         y="0"
         xlink:href="#g10663-3-4-2"
         id="use12044"
         transform="matrix(0.30901699,0.95105651,-0.95105651,0.30901699,789.29973,722.70739)"
         width="100%"
         height="100%" />
      <use
         x="0"
         y="0"
         xlink:href="#g10663-3-4-2"
         id="use12046"
         transform="matrix(0.30901699,-0.95105651,0.95105651,0.30901699,-799.37276,342.42119)"
         width="100%"
         height="100%" />
      <use
         x="0"
         y="0"
         xlink:href="#g10663-3-4-2"
         id="use12048"
         transform="matrix(0.80901699,-0.58778525,0.58778525,0.80901699,-359.2066,-14.505436)"
         width="100%"
         height="100%" />
      <use
         x="0"
         y="0"
         xlink:href="#g10663-3-4-2"
         id="use12050"
         transform="matrix(0.80901699,0.58778525,-0.58778525,0.80901699,622.65557,220.51358)"
         width="100%"
         height="100%" />
      <use
         x="0"
         y="0"
         xlink:href="#g10663-3-4-2"
         id="use12052"
         transform="translate(147.11809,-87.784913)"
         width="100%"
         height="100%" />
      <use
         x="0"
         y="0"
         xlink:href="#g10663-3-4-2"
         id="use12054"
         transform="matrix(0.80901699,0.58778525,-0.58778525,0.80901699,563.12702,263.74586)"
         width="100%"
         height="100%" />
      <use
         x="0"
         y="0"
         xlink:href="#g10663-3-4-2"
         id="use12056"
         transform="matrix(0.80901699,-0.58778525,0.58778525,0.80901699,-432.77998,-14.524566)"
         width="100%"
         height="100%" />
      <use
         x="0"
         y="0"
         xlink:href="#g10663-3-4-2"
         id="use12096"
         transform="matrix(0.80901699,-0.58778525,0.58778525,0.80901699,-381.97295,-84.449436)"
         width="100%"
         height="100%" />
      <use
         x="0"
         y="0"
         xlink:href="#g10663-3-4-2"
         id="use12098"
         transform="matrix(0.30901699,-0.95105651,0.95105651,0.30901699,-762.63121,229.23561)"
         width="100%"
         height="100%" />
      <use
         x="0"
         y="0"
         xlink:href="#g10524-2-1-4-6"
         id="use12100"
         transform="translate(169.85856,-157.74625)"
         width="100%"
         height="100%" />
      <use
         x="0"
         y="0"
         xlink:href="#g10524-2-1-4-6"
         id="use12104"
         transform="matrix(0.30901699,-0.95105651,0.95105651,0.30901699,-762.63117,229.23567)"
         width="100%"
         height="100%" />
      <use
         x="0"
         y="0"
         xlink:href="#g10663-3-4-2"
         id="use12106"
         transform="matrix(-0.80901699,-0.58778525,0.58778525,-0.80901699,-682.72495,1235.6652)"
         width="100%"
         height="100%" />
      <use
         x="0"
         y="0"
         xlink:href="#g10663-3-4-2"
         id="use12108"
         transform="matrix(-0.80901699,0.58778525,-0.58778525,-0.80901699,299.13722,1470.6843)"
         width="100%"
         height="100%" />
      <use
         x="0"
         y="0"
         xlink:href="#g10663-3-4-2"
         id="use12110"
         transform="translate(229.34627,-200.94747)"
         width="100%"
         height="100%" />
      <use
         x="0"
         y="0"
         xlink:href="#g10524-2-1-4-6"
         id="use12112"
         transform="translate(229.39021,-201.01027)"
         width="100%"
         height="100%" />
      <use
         x="0"
         y="0"
         xlink:href="#g10524-2-1-4-6"
         id="use12114"
         transform="matrix(-0.80901699,-0.58778525,0.58778525,-0.80901699,-682.74163,1235.6758)"
         width="100%"
         height="100%" />
      <use
         x="0"
         y="0"
         xlink:href="#g10663-3-4-2"
         id="use12116"
         transform="matrix(0.30901699,-0.95105651,0.95105651,0.30901699,-703.13761,186.04227)"
         width="100%"
         height="100%" />
      <use
         x="0"
         y="0"
         xlink:href="#g10663-3-4-2"
         id="use12118"
         transform="matrix(-0.80901699,-0.58778525,0.58778525,-0.80901699,-623.24188,1192.4735)"
         width="100%"
         height="100%" />
      <use
         x="0"
         y="0"
         xlink:href="#g10524-2-1-4-6"
         id="use12120"
         transform="matrix(0.30901699,-0.95105651,0.95105651,0.30901699,-703.1481,186.04397)"
         width="100%"
         height="100%" />
      <use
         x="0"
         y="0"
         xlink:href="#g10524-2-1-4-6"
         id="use12122"
         transform="matrix(0.80901699,-0.58778525,0.58778525,0.80901699,-299.75777,-197.62041)"
         width="100%"
         height="100%" />
    </g>
  </g>
</svg>
