<?xml version="1.0" encoding="UTF-8" standalone="no"?>
<!-- Created with Inkscape (http://www.inkscape.org/) -->

<svg
   xmlns:dc="http://purl.org/dc/elements/1.1/"
   xmlns:cc="http://creativecommons.org/ns#"
   xmlns:rdf="http://www.w3.org/1999/02/22-rdf-syntax-ns#"
   xmlns:svg="http://www.w3.org/2000/svg"
   xmlns="http://www.w3.org/2000/svg"
   xmlns:xlink="http://www.w3.org/1999/xlink"
   xmlns:sodipodi="http://sodipodi.sourceforge.net/DTD/sodipodi-0.dtd"
   xmlns:inkscape="http://www.inkscape.org/namespaces/inkscape"
   width="210mm"
   height="297mm"
   viewBox="0 0 744.09448819 1052.3622047"
   id="svg50520"
   version="1.1"
   inkscape:version="0.91 r13725"
   sodipodi:docname="penrose-other-line.svg">
  <defs
     id="defs50522" />
  <sodipodi:namedview
     id="base"
     pagecolor="#ffffff"
     bordercolor="#666666"
     borderopacity="1.0"
     inkscape:pageopacity="0.0"
     inkscape:pageshadow="2"
     inkscape:zoom="0.98994949"
     inkscape:cx="370.33369"
     inkscape:cy="693.87961"
     inkscape:document-units="px"
     inkscape:current-layer="layer1"
     showgrid="false"
     inkscape:object-nodes="true"
     inkscape:window-width="1912"
     inkscape:window-height="1057"
     inkscape:window-x="0"
     inkscape:window-y="0"
     inkscape:window-maximized="1" />
  <metadata
     id="metadata50525">
    <rdf:RDF>
      <cc:Work
         rdf:about="">
        <dc:format>image/svg+xml</dc:format>
        <dc:type
           rdf:resource="http://purl.org/dc/dcmitype/StillImage" />
        <dc:title></dc:title>
      </cc:Work>
    </rdf:RDF>
  </metadata>
  <g
     inkscape:label="Calque 1"
     inkscape:groupmode="layer"
     id="layer1">
    <g
       id="g10663-3-4-2"
       style="display:inline;opacity:1"
       transform="matrix(-0.95105651,-0.30901699,0.30901699,-0.95105651,264.35498,1174.1844)">
      <path
         transform="translate(0,27.6378)"
         style="display:inline;opacity:0.2;fill:#a0e6a7;fill-opacity:1;fill-rule:evenodd;stroke:#000000;stroke-width:0.2179307px;stroke-linecap:butt;stroke-linejoin:bevel;stroke-opacity:1"
         d="m 185.23701,708.79457 14.05103,-19.33962 22.73515,7.38707 -14.05112,19.33963 z"
         id="path10114-6-7-9-6"
         inkscape:connector-curvature="0" />
      <path
         style="color:#000000;font-style:normal;font-variant:normal;font-weight:normal;font-stretch:normal;font-size:medium;line-height:normal;font-family:sans-serif;text-indent:0;text-align:start;text-decoration:none;text-decoration-line:none;text-decoration-style:solid;text-decoration-color:#000000;letter-spacing:normal;word-spacing:normal;text-transform:none;direction:ltr;block-progression:tb;writing-mode:lr-tb;baseline-shift:baseline;text-anchor:start;white-space:normal;clip-rule:nonzero;display:inline;overflow:visible;visibility:visible;opacity:1;isolation:auto;mix-blend-mode:normal;color-interpolation:sRGB;color-interpolation-filters:linearRGB;solid-color:#000000;solid-opacity:1;fill:none;fill-opacity:1;fill-rule:evenodd;stroke:#ff0000;stroke-width:1;stroke-linecap:butt;stroke-linejoin:bevel;stroke-miterlimit:4;stroke-dasharray:none;stroke-dashoffset:0;stroke-opacity:1;color-rendering:auto;image-rendering:auto;shape-rendering:auto;text-rendering:auto;enable-background:accumulate"
         d="m 200.0533,719.44291 -11.57963,15.93814 18.73479,6.08838 2.96621,-4.0817 c -3.49364,-3.2089 -5.70079,-7.79827 -5.70085,-12.90721 0,-1.19382 0.123,-2.36027 0.35104,-3.48764 l -4.77156,-1.54997 -11.57963,15.93814 m 22.87409,0.39152 7.44033,-10.24134 -12.04048,-3.91221 c -0.17248,0.92871 -0.27277,1.8817 -0.27277,2.86102 3e-5,4.4568 1.8768,8.46017 4.87292,11.29253 l 7.44033,-10.24134"
         id="path10114-6-7-9-6-5-2-3-9-3-22-3"
         inkscape:connector-curvature="0"
         sodipodi:nodetypes="ccccsccccccscc" />
    </g>
    <g
       id="g10524-2-1-4-6"
       style="display:inline;opacity:1;stroke-linejoin:bevel"
       transform="matrix(-0.95105651,-0.30901699,-0.30901699,0.95105651,730.29448,-214.35903)">
      <path
         style="display:inline;opacity:1;fill:none;fill-opacity:1;fill-rule:evenodd;stroke:#000000;stroke-width:0.21799999;stroke-linecap:butt;stroke-linejoin:bevel;stroke-miterlimit:4;stroke-dasharray:none;stroke-opacity:1"
         d="m 236.07436,740.08678 10e-6,-23.90509 -14.05108,-19.33964 1e-5,23.90511 z"
         id="path10106-2-6-8-9-8-1"
         inkscape:connector-curvature="0" />
      <path
         id="path10106-2-6-8-9-8-1-6-2"
         style="color:#000000;font-style:normal;font-variant:normal;font-weight:normal;font-stretch:normal;font-size:medium;line-height:normal;font-family:sans-serif;text-indent:0;text-align:start;text-decoration:none;text-decoration-line:none;text-decoration-style:solid;text-decoration-color:#000000;letter-spacing:normal;word-spacing:normal;text-transform:none;direction:ltr;block-progression:tb;writing-mode:lr-tb;baseline-shift:baseline;text-anchor:start;white-space:normal;clip-rule:nonzero;display:inline;overflow:visible;visibility:visible;opacity:1;isolation:auto;mix-blend-mode:normal;color-interpolation:sRGB;color-interpolation-filters:linearRGB;solid-color:#000000;solid-opacity:1;fill:none;fill-opacity:1;fill-rule:evenodd;stroke:#ff0000;stroke-width:1;stroke-linecap:butt;stroke-linejoin:bevel;stroke-miterlimit:4;stroke-dasharray:none;stroke-dashoffset:0;stroke-opacity:1;color-rendering:auto;image-rendering:auto;shape-rendering:auto;text-rendering:auto;enable-background:accumulate"
         d="m 224.02321,702.99828 10.0522,13.83374 -1.9e-4,17.09967 -5.6699,-7.80351 c 1.22994,-1.45545 1.97518,-3.33235 1.97518,-5.3802 0,-3.91325 -2.71554,-7.20287 -6.3566,-8.10441 l -6.9e-4,-9.64529 10.0522,13.83374 m -10.05237,3.26592 -0.001,-5.38459 c 0.5586,0.1837 1.08318,0.43766 1.56056,0.7596 1.6905,1.14009 2.79876,3.07392 2.79877,5.2757 1e-5,1.38739 -0.4449,2.66322 -1.1931,3.70565 l -3.16521,-4.35636 -10e-4,-5.38462 c 0.55859,0.1837 1.08317,0.43766 1.56055,0.7596 1.6905,1.14009 2.79877,3.07392 2.79877,5.2757 1e-5,1.3874 -0.4449,2.66322 -1.1931,3.70565 l -3.16493,-4.35637 -0.001,-5.3846"
         inkscape:connector-curvature="0"
         sodipodi:nodetypes="ccccsccccccsccccsccc" />
    </g>
    <use
       x="0"
       y="0"
       xlink:href="#g10663-3-4-2"
       id="use51377"
       transform="translate(163.75718,-13.778103)"
       width="100%"
       height="100%" />
    <use
       x="0"
       y="0"
       xlink:href="#g10524-2-1-4-6"
       id="use51379"
       transform="translate(163.75714,-13.778142)"
       width="100%"
       height="100%" />
    <use
       x="0"
       y="0"
       xlink:href="#g10524-2-1-4-6"
       id="use51379-3"
       transform="matrix(0.30901699,-0.95105651,0.95105651,0.30901699,-14.228742,574.35399)"
       width="100%"
       height="100%" />
    <use
       x="0"
       y="0"
       xlink:href="#g10663-3-4-2"
       id="use51377-56"
       transform="translate(144.41758,-73.299348)"
       width="100%"
       height="100%" />
    <use
       x="0"
       y="0"
       xlink:href="#g10663-3-4-2"
       id="use51377-7-2"
       transform="matrix(0.30901699,0.95105651,-0.95105651,0.30901699,758.76503,-85.767549)"
       width="100%"
       height="100%" />
    <use
       x="0"
       y="0"
       xlink:href="#g10663-3-4-2"
       id="use51377-5-9"
       transform="matrix(0.30901699,-0.95105651,0.95105651,0.30901699,-33.568261,514.83269)"
       width="100%"
       height="100%" />
    <use
       x="0"
       y="0"
       xlink:href="#g10524-2-1-4-6"
       id="use51379-2"
       transform="matrix(-0.30901699,0.95105651,-0.95105651,-0.30901699,922.61977,148.94204)"
       width="100%"
       height="100%" />
    <use
       x="0"
       y="0"
       xlink:href="#g10663-3-4-2"
       id="use51377-7-2-0"
       transform="matrix(-1,0,0,-1,756.58644,700.28795)"
       width="100%"
       height="100%" />
    <use
       x="0"
       y="0"
       xlink:href="#g10663-3-4-2"
       id="use51377-7-2-0-9"
       transform="matrix(-0.30901699,0.95105651,-0.95105651,-0.30901699,934.57224,112.15591)"
       width="100%"
       height="100%" />
    <use
       x="0"
       y="0"
       xlink:href="#g10524-2-1-4-6"
       id="use51379-2-3"
       transform="translate(156.37005,-155.55571)"
       width="100%"
       height="100%" />
    <use
       x="0"
       y="0"
       xlink:href="#g10663-3-4-2"
       id="use51377-7-2-0-9-6"
       transform="translate(144.41757,-192.3418)"
       width="100%"
       height="100%" />
    <use
       x="0"
       y="0"
       xlink:href="#g10663-3-4-2"
       id="use51377-7-2-0-9-0"
       transform="matrix(0.30901699,0.95105651,0.95105651,-0.30901699,-33.568263,52.634687)"
       width="100%"
       height="100%" />
    <use
       x="0"
       y="0"
       xlink:href="#g10663-3-4-2"
       id="use51377-7-2-0-9-0-6"
       transform="matrix(0.99999999,0,0,-0.99999999,171.14429,603.98054)"
       width="100%"
       height="100%" />
    <use
       x="0"
       y="0"
       xlink:href="#g10663-3-4-2"
       id="use51377-7-2-0-9-0-6-2"
       transform="matrix(0.30901699,-0.95105652,-0.95105652,-0.30901699,758.765,579.66257)"
       width="100%"
       height="100%" />
    <use
       x="0"
       y="0"
       xlink:href="#g10663-3-4-2"
       id="use51377-7-2-0-9-6-6"
       transform="translate(144.41755,-265.91416)"
       width="100%"
       height="100%" />
    <use
       x="0"
       y="0"
       xlink:href="#g10663-3-4-2"
       id="use51377-7-2-0-9-0-6-2-1"
       transform="matrix(0.30901699,0.95105651,-0.95105651,0.30901699,758.765,-278.38236)"
       width="100%"
       height="100%" />
    <use
       x="0"
       y="0"
       xlink:href="#g10524-2-1-4-6"
       id="use51379-2-3-8"
       transform="matrix(0.99999999,0,0,-0.99999999,163.75712,507.6732)"
       width="100%"
       height="100%" />
    <use
       x="0"
       y="0"
       xlink:href="#g10663-3-4-2"
       id="use51377-7-2-0-9-6-6-7"
       transform="translate(163.75721,-325.43538)"
       width="100%"
       height="100%" />
    <use
       x="0"
       y="0"
       xlink:href="#g10524-2-1-4-6"
       id="use51379-2-3-8-9"
       transform="matrix(0.30901699,0.95105651,0.95105651,-0.30901699,-14.228735,-80.458944)"
       width="100%"
       height="100%" />
    <use
       x="0"
       y="0"
       xlink:href="#g10663-3-4-2"
       id="use51377-7-2-0-9-6-6-7-2"
       transform="matrix(-0.30901699,0.95105652,0.95105652,0.30901699,149.62601,-360.63871)"
       width="100%"
       height="100%" />
    <use
       x="0"
       y="0"
       xlink:href="#g10663-3-4-2"
       id="use51377-7-2-0-9-6-6-7-2-0"
       transform="matrix(-1,0,0,-1,737.24674,448.15183)"
       width="100%"
       height="100%" />
    <use
       x="0"
       y="0"
       xlink:href="#g10663-3-4-2"
       id="use51377-7-2-0-9-6-6-7-2-0-2"
       transform="matrix(-0.30901699,-0.95105651,0.95105651,-0.30901699,149.62602,423.83385)"
       width="100%"
       height="100%" />
    <use
       x="0"
       y="0"
       xlink:href="#g10663-3-4-2"
       id="use51377-7-2-0-9-6-3"
       transform="matrix(-1,0,0,1,737.24671,119.31558)"
       width="100%"
       height="100%" />
    <use
       x="0"
       y="0"
       xlink:href="#g10663-3-4-2"
       id="use51377-7-2-0-9-0-7"
       transform="matrix(-0.30901699,-0.95105651,-0.95105651,0.30901699,941.95922,670.66145)"
       width="100%"
       height="100%" />
    <use
       x="0"
       y="0"
       xlink:href="#g10663-3-4-2"
       id="use51377-7-2-0-9-0-6-5"
       transform="matrix(-1,0,0,-1,763.97343,915.63791)"
       width="100%"
       height="100%" />
    <use
       x="0"
       y="0"
       xlink:href="#g10663-3-4-2"
       id="use51377-7-2-0-9-0-6-2-9"
       transform="matrix(-0.30901699,0.95105652,0.95105652,0.30901699,149.62606,70.061221)"
       width="100%"
       height="100%" />
    <use
       x="0"
       y="0"
       xlink:href="#g10663-3-4-2"
       id="use51377-7-2-0-9-6-6-2"
       transform="matrix(-1,0,0,1,737.24669,45.743223)"
       width="100%"
       height="100%" />
    <use
       x="0"
       y="0"
       xlink:href="#g10663-3-4-2"
       id="use51377-7-2-0-9-0-6-2-1-2"
       transform="matrix(-0.30901699,-0.95105651,0.95105651,-0.30901699,149.62606,854.53374)"
       width="100%"
       height="100%" />
    <use
       x="0"
       y="0"
       xlink:href="#g10663-3-4-2"
       id="use51377-7-2-0-9-0-6-2-9-8"
       transform="matrix(-0.30901699,0.95105652,0.95105652,0.30901699,149.626,143.63358)"
       width="100%"
       height="100%" />
    <use
       x="0"
       y="0"
       xlink:href="#g10524-2-1-4-6"
       id="use51379-3-9"
       transform="translate(163.75708,178.83679)"
       width="100%"
       height="100%" />
    <use
       x="0"
       y="0"
       xlink:href="#g10663-3-4-2"
       id="use51377-7-2-0-9-6-3-7"
       transform="translate(163.75716,178.8369)"
       width="100%"
       height="100%" />
    <use
       x="0"
       y="0"
       xlink:href="#g10524-2-1-4-6"
       id="use51379-3-9-3"
       transform="matrix(1,0,0,-1,163.75708,1011.9454)"
       width="100%"
       height="100%" />
    <use
       x="0"
       y="0"
       xlink:href="#g10663-3-4-2"
       id="use51377-7-2-0-9-0-7-6"
       transform="matrix(-0.30901699,-0.95105651,-0.95105651,0.30901699,941.95921,789.70395)"
       width="100%"
       height="100%" />
    <use
       x="0"
       y="0"
       xlink:href="#g10663-3-4-2"
       id="use51377-7-2-0-9-6-3-1"
       transform="matrix(-1,0,0,1,737.24673,238.35806)"
       width="100%"
       height="100%" />
    <use
       x="0"
       y="0"
       xlink:href="#g10663-3-4-2"
       id="use51377-7-2-0-9-0-6-2-9-8-2"
       transform="matrix(-0.30901699,0.95105652,0.95105652,0.30901699,149.62602,262.67606)"
       width="100%"
       height="100%" />
    <use
       x="0"
       y="0"
       xlink:href="#g10524-2-1-4-6"
       id="use51379-3-9-3-9"
       transform="translate(163.75707,297.87931)"
       width="100%"
       height="100%" />
    <use
       x="0"
       y="0"
       xlink:href="#g10663-3-4-2"
       id="use51377-7-2-0-9-6-3-1-3"
       transform="translate(163.75715,297.87942)"
       width="100%"
       height="100%" />
    <use
       x="0"
       y="0"
       xlink:href="#g10663-3-4-2"
       id="use51377-7-2-0-9-6-3-1-3-1"
       transform="matrix(0.30901699,0.95105651,-0.95105651,0.30901699,751.37783,322.19738)"
       width="100%"
       height="100%" />
  </g>
</svg>
