<?xml version="1.0" encoding="UTF-8" standalone="no"?>
<!-- Created with Inkscape (http://www.inkscape.org/) -->

<svg
   xmlns:dc="http://purl.org/dc/elements/1.1/"
   xmlns:cc="http://creativecommons.org/ns#"
   xmlns:rdf="http://www.w3.org/1999/02/22-rdf-syntax-ns#"
   xmlns:svg="http://www.w3.org/2000/svg"
   xmlns="http://www.w3.org/2000/svg"
   xmlns:xlink="http://www.w3.org/1999/xlink"
   xmlns:sodipodi="http://sodipodi.sourceforge.net/DTD/sodipodi-0.dtd"
   xmlns:inkscape="http://www.inkscape.org/namespaces/inkscape"
   width="6in"
   height="8in"
   viewBox="0 0 540 720"
   id="svg4136"
   version="1.1"
   inkscape:version="0.91 r13725"
   sodipodi:docname="penrose-clone-try-choose-shape1c.svg">
  <defs
     id="defs4138" />
  <sodipodi:namedview
     id="base"
     pagecolor="#ffffff"
     bordercolor="#666666"
     borderopacity="1.0"
     inkscape:pageopacity="0.0"
     inkscape:pageshadow="2"
     inkscape:zoom="1"
     inkscape:cx="212.16597"
     inkscape:cy="431.4981"
     inkscape:document-units="px"
     inkscape:current-layer="g10524-2-1-4-6"
     showgrid="false"
     units="in"
     height="12in"
     width="8in"
     inkscape:object-paths="true"
     inkscape:snap-intersection-paths="true"
     inkscape:object-nodes="true"
     inkscape:snap-smooth-nodes="true"
     inkscape:snap-object-midpoints="true"
     inkscape:snap-center="true"
     inkscape:snap-global="true"
     inkscape:window-width="1912"
     inkscape:window-height="1057"
     inkscape:window-x="0"
     inkscape:window-y="0"
     inkscape:window-maximized="1" />
  <metadata
     id="metadata4141">
    <rdf:RDF>
      <cc:Work
         rdf:about="">
        <dc:format>image/svg+xml</dc:format>
        <dc:type
           rdf:resource="http://purl.org/dc/dcmitype/StillImage" />
        <dc:title></dc:title>
      </cc:Work>
    </rdf:RDF>
  </metadata>
  <g
     inkscape:label="Calque 1"
     inkscape:groupmode="layer"
     id="layer1"
     transform="translate(0,-332.3622)"
     style="display:inline">
    <use
       x="0"
       y="0"
       xlink:href="#g11011"
       inkscape:transform-center-x="561.91671"
       inkscape:transform-center-y="79.971077"
       id="use11642"
       transform="matrix(0.30901699,0.95105652,-0.95105652,0.30901699,825.55754,190.69458)"
       width="100%"
       height="100%"
       style="opacity:1" />
    <use
       x="0"
       y="0"
       xlink:href="#g11011"
       inkscape:transform-center-x="204.06451"
       inkscape:transform-center-y="-438.72823"
       id="use11644"
       transform="matrix(-0.809017,0.58778525,-0.58778525,-0.809017,899.30751,1034.7743)"
       width="100%"
       height="100%"
       style="opacity:1" />
    <use
       x="0"
       y="0"
       xlink:href="#g11011"
       inkscape:transform-center-x="-300.37416"
       inkscape:transform-center-y="-378.41175"
       id="use11646"
       transform="matrix(-0.80901699,-0.58778526,0.58778526,-0.80901699,119.33,1365.7497)"
       width="100%"
       height="100%"
       style="opacity:1" />
    <use
       x="0"
       y="0"
       xlink:href="#g11011"
       inkscape:transform-center-x="-532.14816"
       inkscape:transform-center-y="196.88025"
       id="use11648"
       transform="matrix(0.309017,-0.95105651,0.95105651,0.309017,-436.47259,726.22403)"
       width="100%"
       height="100%"
       style="opacity:1" />
    <g
       id="g11011"
       inkscape:label="#g11667"
       transform="matrix(1,0,0,-1,0,1340.991)"
       style="opacity:1">
      <g
         id="g10524-2-1-4-6"
         style="display:inline;stroke-linejoin:bevel"
         transform="matrix(-0.80901699,0.58778525,-0.58778525,-0.80901699,389.2963,1307.1576)">
        <path
           style="color:#000000;font-style:normal;font-variant:normal;font-weight:normal;font-stretch:normal;font-size:medium;line-height:normal;font-family:sans-serif;text-indent:0;text-align:start;text-decoration:none;text-decoration-line:none;text-decoration-style:solid;text-decoration-color:#000000;letter-spacing:normal;word-spacing:normal;text-transform:none;direction:ltr;block-progression:tb;writing-mode:lr-tb;baseline-shift:baseline;text-anchor:start;white-space:normal;clip-rule:nonzero;display:inline;overflow:visible;visibility:visible;opacity:1;isolation:auto;mix-blend-mode:normal;color-interpolation:sRGB;color-interpolation-filters:linearRGB;solid-color:#000000;solid-opacity:1;fill:none;fill-opacity:1;fill-rule:evenodd;stroke:#ff0000;stroke-width:1;stroke-linecap:butt;stroke-linejoin:bevel;stroke-miterlimit:4;stroke-dasharray:none;stroke-dashoffset:0;stroke-opacity:1;color-rendering:auto;image-rendering:auto;shape-rendering:auto;text-rendering:auto;enable-background:accumulate"
           d="M -205.1543 138.53125 L -214.33008 141.51172 C -214.22549 142.96349 -214.49418 144.44797 -215.16406 145.80664 C -213.71797 145.59723 -212.21936 145.76946 -210.82422 146.33398 L -205.1543 138.53125 z M -216.29492 142.15039 L -221.41797 143.81445 L -224.58203 148.16992 C -222.03985 148.9859 -219.16929 148.13374 -217.50977 145.84961 C -216.6944 144.72736 -216.30272 143.4334 -216.29492 142.15039 z M -213.74805 147.70703 C -215.78582 147.63571 -217.81912 148.54881 -219.11328 150.33008 C -219.92865 151.45233 -220.31875 152.74629 -220.32617 154.0293 L -215.20508 152.36523 L -212.04297 148.01172 C -212.60103 147.833 -213.17446 147.72711 -213.74805 147.70703 z M -225.79883 149.8457 L -231.46875 157.64844 L -222.29102 154.66797 C -222.39562 153.2165 -222.12693 151.73168 -221.45703 150.37305 C -222.90387 150.58261 -224.40315 150.4109 -225.79883 149.8457 z "
           transform="matrix(-0.809017,-0.58778526,-0.58778526,0.809017,139.4765,470.3375)"
           id="path10106-2-6-8-9-8-1-6" />
      </g>
      <use
         x="0"
         y="0"
         xlink:href="#g10524-2-1-4-6"
         id="use9651"
         transform="matrix(-0.30901699,0.95105651,-0.95105651,-0.30901699,555.38382,1314.7469)"
         width="100%"
         height="100%"
         style="stroke-width:2.00000001;stroke-miterlimit:4;stroke-dasharray:none" />
      <g
         id="g10663-3-4-2"
         style="display:inline"
         transform="matrix(-0.80901699,0.58778525,0.58778525,0.80901699,-482.92203,130.55747)">
        <path
           style="color:#000000;font-style:normal;font-variant:normal;font-weight:normal;font-stretch:normal;font-size:medium;line-height:normal;font-family:sans-serif;text-indent:0;text-align:start;text-decoration:none;text-decoration-line:none;text-decoration-style:solid;text-decoration-color:#000000;letter-spacing:normal;word-spacing:normal;text-transform:none;direction:ltr;block-progression:tb;writing-mode:lr-tb;baseline-shift:baseline;text-anchor:start;white-space:normal;clip-rule:nonzero;display:inline;overflow:visible;visibility:visible;opacity:1;isolation:auto;mix-blend-mode:normal;color-interpolation:sRGB;color-interpolation-filters:linearRGB;solid-color:#000000;solid-opacity:1;fill:none;fill-opacity:1;fill-rule:evenodd;stroke:#ff0000;stroke-width:1;stroke-linecap:butt;stroke-linejoin:bevel;stroke-miterlimit:4;stroke-dasharray:none;stroke-dashoffset:0;stroke-opacity:1;color-rendering:auto;image-rendering:auto;shape-rendering:auto;text-rendering:auto;enable-background:accumulate"
           d="M -214.73242 156.41602 L -219.53125 157.97461 C -218.59101 162.62418 -219.50288 167.63434 -222.50586 171.76758 C -223.20757 172.7334 -223.9927 173.60478 -224.83984 174.38281 L -221.89062 178.44141 L -208.24414 174.00781 C -208.38343 172.10703 -207.88339 170.1509 -206.67969 168.49414 C -206.55979 168.32912 -206.42833 168.17704 -206.29883 168.02344 L -214.73242 156.41602 z M -221.42969 158.5918 L -233.46875 162.50391 L -226.02734 172.74609 C -225.34192 172.09612 -224.70063 171.38408 -224.125 170.5918 C -221.50535 166.98616 -220.67059 162.64428 -221.42969 158.5918 z M -205.08008 169.70117 C -205.88031 170.81585 -206.26732 172.09609 -206.27539 173.36719 L -203.1543 172.35352 L -205.08008 169.70117 z "
           transform="matrix(-0.809017,0.58778526,-0.58778526,-0.809017,125.42525,994.22908)"
           id="path10114-6-7-9-6-5" />
      </g>
      <use
         height="100%"
         width="100%"
         transform="translate(481.46231,-157.72089)"
         id="use10954"
         xlink:href="#g10663-3-4-2"
         y="0"
         x="0"
         style="" />
      <use
         height="100%"
         width="100%"
         transform="translate(481.45052,-157.74184)"
         id="use10956"
         xlink:href="#g10524-2-1-4-6"
         y="0"
         x="0" />
      <use
         height="100%"
         width="100%"
         transform="matrix(0.80901699,0.58778525,-0.58778525,0.80901699,911.4783,150.59342)"
         id="use10973"
         xlink:href="#g10663-3-4-2"
         y="0"
         x="0"
         style="" />
      <use
         height="100%"
         width="100%"
         transform="matrix(0.80901699,-0.58778525,0.58778525,0.80901699,-70.385542,-84.414996)"
         id="use10975"
         xlink:href="#g10663-3-4-2"
         y="0"
         x="0"
         style="" />
      <use
         height="100%"
         width="100%"
         transform="matrix(-0.30901699,-0.95105651,0.95105651,-0.30901699,-597.32495,776.73884)"
         id="use10977"
         xlink:href="#g10663-3-4-2"
         y="0"
         x="0"
         style="" />
      <use
         height="100%"
         width="100%"
         transform="matrix(-0.80901699,-0.58778525,0.58778525,-0.80901699,-467.4318,1243.0905)"
         id="use10987"
         xlink:href="#g10524-2-1-4-6"
         y="0"
         x="0" />
      <use
         height="100%"
         width="100%"
         transform="matrix(-0.80901699,-0.58778525,0.58778525,-0.80901699,-453.3807,1286.3353)"
         id="use10989"
         xlink:href="#g10524-2-1-4-6"
         y="0"
         x="0" />
      <use
         height="100%"
         width="100%"
         transform="matrix(0.30901699,-0.95105651,0.95105651,0.30901699,-510.5417,272.50447)"
         id="use10991"
         xlink:href="#g10663-3-4-2"
         y="0"
         x="0"
         style="" />
      <use
         height="100%"
         width="100%"
         transform="matrix(-0.30901699,-0.95105651,0.95105651,-0.30901699,-670.87946,776.74029)"
         id="use10993"
         xlink:href="#g10524-2-1-4-6"
         y="0"
         x="0" />
      <use
         height="100%"
         width="100%"
         transform="translate(421.93459,-177.08004)"
         id="use10995"
         xlink:href="#g10524-2-1-4-6"
         y="0"
         x="0" />
      <use
         height="100%"
         width="100%"
         transform="matrix(-1,0,0,-1,-14.680712,1544.0268)"
         id="use10997"
         xlink:href="#g10663-3-4-2"
         y="0"
         x="0"
         style="" />
      <use
         height="100%"
         width="100%"
         transform="matrix(-0.30901699,0.95105651,-0.95105651,-0.30901699,917.81609,1157.035)"
         id="use10999"
         xlink:href="#g10663-3-4-2"
         y="0"
         x="0"
         style="" />
      <use
         height="100%"
         width="100%"
         transform="matrix(0.80901699,0.58778525,-0.58778525,0.80901699,837.9185,150.60255)"
         id="use11001"
         xlink:href="#g10663-3-4-2"
         y="0"
         x="0"
         style="" />
      <use
         height="100%"
         width="100%"
         transform="matrix(0.80901699,-0.58778525,0.58778525,0.80901699,-143.94367,-84.416456)"
         id="use11003"
         xlink:href="#g10663-3-4-2"
         y="0"
         x="0"
         style="" />
      <use
         height="100%"
         width="100%"
         transform="matrix(-0.30901699,-0.95105651,0.95105651,-0.30901699,-670.8712,776.76714)"
         id="use11005"
         xlink:href="#g10663-3-4-2"
         y="0"
         x="0"
         style="" />
      <use
         height="100%"
         width="100%"
         transform="matrix(0.30901699,-0.95105651,0.95105651,0.30901699,-584.09467,209.93767)"
         id="use11007"
         xlink:href="#g10524-2-1-4-6"
         y="0"
         x="0" />
      <use
         height="100%"
         width="100%"
         transform="matrix(0.80901699,-0.58778525,0.58778525,0.80901699,-143.95234,-84.419337)"
         id="use11009"
         xlink:href="#g10524-2-1-4-6"
         y="0"
         x="0" />
      <use
         x="0"
         y="0"
         xlink:href="#g10663-3-4-2"
         id="use11696"
         transform="matrix(0.30901699,0.95105651,-0.95105651,0.30901699,1064.0936,609.52804)"
         width="100%"
         height="100%"
         style="" />
      <use
         x="0"
         y="0"
         xlink:href="#g10663-3-4-2"
         id="use11698"
         transform="matrix(0.30901699,-0.95105651,0.95105651,0.30901699,-547.3238,299.24726)"
         width="100%"
         height="100%"
         style="" />
      <use
         x="0"
         y="0"
         xlink:href="#g10663-3-4-2"
         id="use11702"
         transform="matrix(0.30901699,0.95105651,-0.95105651,0.30901699,1018.6456,609.54362)"
         width="100%"
         height="100%"
         style="" />
      <use
         x="0"
         y="0"
         xlink:href="#g10663-3-4-2"
         id="use11706"
         transform="matrix(-0.80901699,-0.58778525,0.58778525,-0.80901699,-467.42807,1305.6785)"
         width="100%"
         height="100%"
         style="" />
      <use
         x="0"
         y="0"
         xlink:href="#g10663-3-4-2"
         id="use11720"
         transform="matrix(-0.80901699,0.58778525,-0.58778525,-0.80901699,491.71724,1470.7253)"
         width="100%"
         height="100%"
         style="" />
      <use
         x="0"
         y="0"
         xlink:href="#g10524-2-1-4-6"
         id="use11722"
         transform="matrix(-0.30901699,0.95105651,-0.95105651,-0.30901699,954.5937,1246.3406)"
         width="100%"
         height="100%" />
      <use
         x="0"
         y="0"
         xlink:href="#g10524-2-1-4-6"
         id="use11724"
         transform="matrix(0.30901699,0.95105651,-0.95105651,0.30901699,1100.8846,722.75702)"
         width="100%"
         height="100%" />
      <use
         x="0"
         y="0"
         xlink:href="#g10663-3-4-2"
         id="use11726"
         transform="matrix(0.80901699,-0.58778525,0.58778525,0.80901699,-121.21125,-14.457256)"
         width="100%"
         height="100%"
         style="opacity:1" />
      <use
         x="0"
         y="0"
         xlink:href="#g10663-3-4-2"
         id="use11830"
         transform="matrix(-0.80901699,0.58778525,-0.58778525,-0.80901699,477.66767,1653.8968)"
         width="100%"
         height="100%"
         style="opacity:1" />
    </g>
  </g>
</svg>
