<?xml version="1.0" encoding="UTF-8" standalone="no"?>
<!-- Created with Inkscape (http://www.inkscape.org/) -->

<svg
   xmlns:dc="http://purl.org/dc/elements/1.1/"
   xmlns:cc="http://creativecommons.org/ns#"
   xmlns:rdf="http://www.w3.org/1999/02/22-rdf-syntax-ns#"
   xmlns:svg="http://www.w3.org/2000/svg"
   xmlns="http://www.w3.org/2000/svg"
   xmlns:xlink="http://www.w3.org/1999/xlink"
   xmlns:sodipodi="http://sodipodi.sourceforge.net/DTD/sodipodi-0.dtd"
   xmlns:inkscape="http://www.inkscape.org/namespaces/inkscape"
   width="6in"
   height="8in"
   viewBox="0 0 540 720"
   id="svg4136"
   version="1.1"
   inkscape:version="0.91 r13725"
   sodipodi:docname="penrose-clone-star-no-arcs.svg">
  <defs
     id="defs4138" />
  <sodipodi:namedview
     id="base"
     pagecolor="#ffffff"
     bordercolor="#666666"
     borderopacity="1.0"
     inkscape:pageopacity="0.0"
     inkscape:pageshadow="2"
     inkscape:zoom="2"
     inkscape:cx="144.82629"
     inkscape:cy="455.66592"
     inkscape:document-units="px"
     inkscape:current-layer="g11011"
     showgrid="false"
     units="in"
     height="12in"
     width="8in"
     inkscape:object-paths="true"
     inkscape:snap-intersection-paths="true"
     inkscape:object-nodes="true"
     inkscape:snap-smooth-nodes="true"
     inkscape:snap-object-midpoints="true"
     inkscape:snap-center="true"
     inkscape:snap-global="true"
     inkscape:window-width="1912"
     inkscape:window-height="1057"
     inkscape:window-x="0"
     inkscape:window-y="0"
     inkscape:window-maximized="1" />
  <metadata
     id="metadata4141">
    <rdf:RDF>
      <cc:Work
         rdf:about="">
        <dc:format>image/svg+xml</dc:format>
        <dc:type
           rdf:resource="http://purl.org/dc/dcmitype/StillImage" />
        <dc:title></dc:title>
      </cc:Work>
    </rdf:RDF>
  </metadata>
  <g
     inkscape:label="Calque 1"
     inkscape:groupmode="layer"
     id="layer1"
     transform="translate(0,-332.3622)"
     style="display:inline">
    <use
       x="0"
       y="0"
       xlink:href="#g11011"
       inkscape:transform-center-x="281.45429"
       inkscape:transform-center-y="-87.519422"
       id="use11642"
       transform="matrix(0.30901699,0.95105652,-0.95105652,0.30901699,801.67727,185.69511)"
       width="100%"
       height="100%"
       style="opacity:1" />
    <use
       x="0"
       y="0"
       xlink:href="#g11011"
       inkscape:transform-center-x="-10.226892"
       inkscape:transform-center-y="-256.32922"
       id="use11644"
       transform="matrix(-0.809017,0.58778525,-0.58778525,-0.809017,872.80262,1005.5184)"
       width="100%"
       height="100%"
       style="opacity:1" />
    <use
       x="0"
       y="0"
       xlink:href="#g11011"
       inkscape:transform-center-x="-239.5089"
       inkscape:transform-center-y="-99.047785"
       id="use11646"
       transform="matrix(-0.80901699,-0.58778526,0.58778526,-0.80901699,115.08324,1326.502)"
       width="100%"
       height="100%"
       style="opacity:1" />
    <use
       x="0"
       y="0"
       xlink:href="#g11011"
       inkscape:transform-center-x="-206.3308"
       inkscape:transform-center-y="213.89234"
       id="use11648"
       transform="matrix(0.309017,-0.95105651,0.95105651,0.309017,-424.33843,705.05745)"
       width="100%"
       height="100%"
       style="opacity:1" />
    <g
       id="g11011"
       inkscape:label="#g11667"
       transform="matrix(0.5,0,0,-0.5,132.2727,983.30584)"
       style="opacity:1">
      <g
         id="g10663-3-4-2"
         style="display:inline;opacity:1"
         transform="matrix(-0.64721359,0.4702282,0.4702282,0.64721359,-429.99981,272.6859)">
        <path
           transform="translate(0,27.6378)"
           style="display:inline;fill:#a0e6a7;fill-opacity:1;fill-rule:evenodd;stroke:#000000;stroke-width:0.2179307px;stroke-linecap:butt;stroke-linejoin:bevel;stroke-opacity:1"
           d="m 185.23701,708.79457 14.05103,-19.33962 22.73515,7.38707 -14.05112,19.33963 z"
           id="path10114-6-7-9-6"
           inkscape:connector-curvature="0" />
      </g>
      <g
         id="g10524-2-1-4-6"
         style="display:inline;opacity:1;stroke-linejoin:bevel"
         transform="matrix(-0.64721359,0.4702282,-0.4702282,-0.64721359,230.94633,1170.6394)">
        <path
           style="display:inline;fill:#a0e6a7;fill-opacity:1;fill-rule:evenodd;stroke:#000000;stroke-width:0.2179307px;stroke-linecap:butt;stroke-linejoin:bevel;stroke-opacity:1"
           d="m 236.07436,740.08678 10e-6,-23.90509 -14.05108,-19.33964 1e-5,23.90511 z"
           id="path10106-2-6-8-9-8-1"
           inkscape:connector-curvature="0" />
      </g>
      <use
         height="100%"
         width="100%"
         transform="translate(481.46231,-157.72089)"
         id="use10954"
         xlink:href="#g10663-3-4-2"
         y="0"
         x="0"
         style="opacity:1" />
      <use
         height="100%"
         width="100%"
         transform="translate(518.27905,-110.54731)"
         id="use10956"
         xlink:href="#g10524-2-1-4-6"
         y="0"
         x="0"
         style="opacity:1" />
      <use
         height="100%"
         width="100%"
         transform="matrix(0.80901699,0.58778525,-0.58778525,0.80901699,911.4783,150.59342)"
         id="use10973"
         xlink:href="#g10663-3-4-2"
         y="0"
         x="0"
         style="opacity:1" />
      <use
         height="100%"
         width="100%"
         transform="matrix(0.80901699,-0.58778525,0.58778525,0.80901699,-70.385542,-84.414996)"
         id="use10975"
         xlink:href="#g10663-3-4-2"
         y="0"
         x="0"
         style="opacity:1" />
      <use
         height="100%"
         width="100%"
         transform="matrix(-0.30901699,-0.95105651,0.95105651,-0.30901699,-597.32495,776.73884)"
         id="use10977"
         xlink:href="#g10663-3-4-2"
         y="0"
         x="0"
         style="opacity:1" />
      <use
         height="100%"
         width="100%"
         transform="matrix(-0.80901699,-0.58778525,0.58778525,-0.80901699,-469.48646,1183.2621)"
         id="use10987"
         xlink:href="#g10524-2-1-4-6"
         y="0"
         x="0"
         style="opacity:1" />
      <use
         height="100%"
         width="100%"
         transform="matrix(-0.80901699,-0.58778525,0.58778525,-0.80901699,-455.43536,1226.5069)"
         id="use10989"
         xlink:href="#g10524-2-1-4-6"
         y="0"
         x="0"
         style="opacity:1" />
      <use
         height="100%"
         width="100%"
         transform="matrix(0.30901699,-0.95105651,0.95105651,0.30901699,-510.5417,272.50447)"
         id="use10991"
         xlink:href="#g10663-3-4-2"
         y="0"
         x="0"
         style="opacity:1" />
      <use
         height="100%"
         width="100%"
         transform="matrix(-0.30901699,-0.95105651,0.95105651,-0.30901699,-637.37543,727.13036)"
         id="use10993"
         xlink:href="#g10524-2-1-4-6"
         y="0"
         x="0"
         style="opacity:1" />
      <use
         height="100%"
         width="100%"
         transform="translate(458.76312,-129.88551)"
         id="use10995"
         xlink:href="#g10524-2-1-4-6"
         y="0"
         x="0"
         style="opacity:1" />
      <use
         height="100%"
         width="100%"
         transform="matrix(-1,0,0,-1,-14.680712,1544.0268)"
         id="use10997"
         xlink:href="#g10663-3-4-2"
         y="0"
         x="0"
         style="opacity:1" />
      <use
         height="100%"
         width="100%"
         transform="matrix(-0.30901699,0.95105651,-0.95105651,-0.30901699,917.81609,1157.035)"
         id="use10999"
         xlink:href="#g10663-3-4-2"
         y="0"
         x="0"
         style="opacity:1" />
      <use
         height="100%"
         width="100%"
         transform="matrix(0.80901699,0.58778525,-0.58778525,0.80901699,837.9185,150.60255)"
         id="use11001"
         xlink:href="#g10663-3-4-2"
         y="0"
         x="0"
         style="opacity:1" />
      <use
         height="100%"
         width="100%"
         transform="matrix(0.80901699,-0.58778525,0.58778525,0.80901699,-143.94367,-84.416456)"
         id="use11003"
         xlink:href="#g10663-3-4-2"
         y="0"
         x="0"
         style="opacity:1" />
      <use
         height="100%"
         width="100%"
         transform="matrix(-0.30901699,-0.95105651,0.95105651,-0.30901699,-670.8712,776.76714)"
         id="use11005"
         xlink:href="#g10663-3-4-2"
         y="0"
         x="0"
         style="opacity:1" />
      <use
         height="100%"
         width="100%"
         transform="matrix(0.30901699,-0.95105651,0.95105651,0.30901699,-527.82936,189.49557)"
         id="use11007"
         xlink:href="#g10524-2-1-4-6"
         y="0"
         x="0"
         style="opacity:1" />
      <use
         height="100%"
         width="100%"
         transform="matrix(0.80901699,-0.58778525,0.58778525,0.80901699,-86.417176,-67.885426)"
         id="use11009"
         xlink:href="#g10524-2-1-4-6"
         y="0"
         x="0"
         style="opacity:1" />
      <use
         x="0"
         y="0"
         xlink:href="#g10524-2-1-4-6"
         id="use11694"
         transform="matrix(-0.809017,-0.58778525,0.58778525,-0.809017,-528.99348,1226.5055)"
         width="100%"
         height="100%"
         style="opacity:1" />
      <use
         x="0"
         y="0"
         xlink:href="#g10663-3-4-2"
         id="use11696"
         transform="matrix(0.30901699,0.95105651,-0.95105651,0.30901699,1064.0936,609.52804)"
         width="100%"
         height="100%"
         style="opacity:1" />
      <use
         x="0"
         y="0"
         xlink:href="#g10663-3-4-2"
         id="use11698"
         transform="matrix(0.30901699,-0.95105651,0.95105651,0.30901699,-547.3238,299.24726)"
         width="100%"
         height="100%"
         style="opacity:1" />
      <use
         x="0"
         y="0"
         xlink:href="#g10663-3-4-2"
         id="use11700"
         transform="translate(348.38301,-114.47764)"
         width="100%"
         height="100%"
         style="opacity:1" />
      <use
         x="0"
         y="0"
         xlink:href="#g10663-3-4-2"
         id="use11702"
         transform="matrix(0.30901699,0.95105651,-0.95105651,0.30901699,1018.6456,609.54362)"
         width="100%"
         height="100%"
         style="opacity:1" />
      <use
         x="0"
         y="0"
         xlink:href="#g10663-3-4-2"
         id="use11704"
         transform="translate(385.16007,-87.742473)"
         width="100%"
         height="100%"
         style="opacity:1" />
      <use
         x="0"
         y="0"
         xlink:href="#g10663-3-4-2"
         id="use11706"
         transform="matrix(-0.80901699,-0.58778525,0.58778525,-0.80901699,-467.42807,1305.6785)"
         width="100%"
         height="100%"
         style="opacity:1" />
      <use
         style="display:inline;opacity:1"
         x="0"
         y="0"
         xlink:href="#g10663-3-4-2"
         id="use10954-9"
         transform="matrix(-0.30901699,-0.95105651,-0.95105651,0.30901699,881.02876,272.5122)"
         width="100%"
         height="100%" />
      <use
         x="0"
         y="0"
         xlink:href="#g10663-3-4-2"
         id="use11716"
         transform="matrix(0.30901699,0.95105651,-0.95105651,0.30901699,1004.5854,652.78084)"
         width="100%"
         height="100%"
         style="opacity:1" />
      <use
         x="0"
         y="0"
         xlink:href="#g10663-3-4-2"
         id="use11718"
         transform="translate(362.44322,-157.71486)"
         width="100%"
         height="100%"
         style="opacity:1" />
      <use
         x="0"
         y="0"
         xlink:href="#g10663-3-4-2"
         id="use11720"
         transform="matrix(-0.80901699,0.58778525,-0.58778525,-0.80901699,491.71724,1470.7253)"
         width="100%"
         height="100%"
         style="opacity:1" />
      <use
         x="0"
         y="0"
         xlink:href="#g10524-2-1-4-6"
         id="use11722"
         transform="matrix(-0.30901699,0.95105651,-0.95105651,-0.30901699,898.32839,1266.7827)"
         width="100%"
         height="100%"
         style="opacity:1" />
      <use
         x="0"
         y="0"
         xlink:href="#g10524-2-1-4-6"
         id="use11724"
         transform="matrix(0.30901699,0.95105651,-0.95105651,0.30901699,1067.3806,772.36695)"
         width="100%"
         height="100%"
         style="opacity:1" />
      <use
         x="0"
         y="0"
         xlink:href="#g10663-3-4-2"
         id="use11726"
         transform="matrix(0.80901699,-0.58778525,0.58778525,0.80901699,-121.21125,-14.457256)"
         width="100%"
         height="100%"
         style="opacity:1" />
      <use
         x="0"
         y="0"
         xlink:href="#g10663-3-4-2"
         id="use11728"
         transform="matrix(-0.30901699,-0.95105651,0.95105651,-0.30901699,-693.59894,846.71916)"
         width="100%"
         height="100%"
         style="opacity:1" />
      <use
         x="0"
         y="0"
         xlink:href="#g10663-3-4-2"
         id="use11730"
         transform="matrix(-1,0,0,-1,-51.445222,1657.2221)"
         width="100%"
         height="100%"
         style="opacity:1" />
      <use
         x="0"
         y="0"
         xlink:href="#g10663-3-4-2"
         id="use11732"
         transform="matrix(0.80901699,0.58778525,-0.58778525,0.80901699,874.70376,263.805)"
         width="100%"
         height="100%"
         style="opacity:1" />
      <use
         x="0"
         y="0"
         xlink:href="#g10663-3-4-2"
         id="use11738"
         transform="matrix(-0.30901699,0.95105651,-0.95105651,-0.30901699,917.82539,1296.9569)"
         width="100%"
         height="100%"
         style="opacity:1" />
      <use
         x="0"
         y="0"
         xlink:href="#g10524-2-1-4-6"
         id="use11740"
         transform="translate(421.98855,-40.547965)"
         width="100%"
         height="100%"
         style="opacity:1" />
      <use
         x="0"
         y="0"
         xlink:href="#g10524-2-1-4-6"
         id="use11742"
         transform="translate(385.19974,-67.304005)"
         width="100%"
         height="100%"
         style="opacity:1" />
      <use
         x="0"
         y="0"
         xlink:href="#g10524-2-1-4-6"
         id="use11744"
         transform="matrix(0.309017,0.95105652,-0.95105652,0.309017,971.08152,702.39074)"
         width="100%"
         height="100%"
         style="opacity:1" />
      <use
         x="0"
         y="0"
         xlink:href="#g10524-2-1-4-6"
         id="use11746"
         transform="matrix(-0.30901699,-0.95105651,0.95105651,-0.30901699,-719.61678,676.52416)"
         width="100%"
         height="100%"
         style="opacity:1" />
      <use
         x="0"
         y="0"
         xlink:href="#g10663-3-4-2"
         id="use11748"
         transform="matrix(-0.80901699,-0.58778525,0.58778525,-0.80901699,-526.93143,1348.9077)"
         width="100%"
         height="100%"
         style="opacity:1" />
      <use
         x="0"
         y="0"
         xlink:href="#g10663-3-4-2"
         id="use11750"
         transform="matrix(-0.80901699,0.58778525,-0.58778525,-0.80901699,454.93074,1583.9269)"
         width="100%"
         height="100%"
         style="opacity:1" />
      <use
         x="0"
         y="0"
         xlink:href="#g10663-3-4-2"
         id="use11752"
         transform="matrix(0.30901699,-0.95105651,0.95105651,0.30901699,-606.82915,342.47527)"
         width="100%"
         height="100%"
         style="opacity:1" />
      <use
         x="0"
         y="0"
         xlink:href="#g10663-3-4-2"
         id="use11754"
         transform="translate(325.65473,-44.514465)"
         width="100%"
         height="100%"
         style="opacity:1" />
      <use
         x="0"
         y="0"
         xlink:href="#g10663-3-4-2"
         id="use11756"
         transform="matrix(0.30901699,0.95105651,-0.95105651,0.30901699,981.85919,722.74524)"
         width="100%"
         height="100%"
         style="opacity:1" />
      <use
         x="0"
         y="0"
         xlink:href="#g10524-2-1-4-6"
         id="use11758"
         transform="matrix(0.80901699,-0.58778525,0.58778525,0.80901699,-145.90248,-48.551006)"
         width="100%"
         height="100%"
         style="opacity:1" />
      <use
         x="0"
         y="0"
         xlink:href="#g10524-2-1-4-6"
         id="use11760"
         transform="matrix(-0.80901699,-0.58778525,0.58778525,-0.80901699,-528.98611,1289.0794)"
         width="100%"
         height="100%"
         style="opacity:1" />
      <use
         style="display:inline;opacity:1"
         x="0"
         y="0"
         xlink:href="#g10663-3-4-2"
         id="use11748-9"
         transform="matrix(-0.80901699,-0.58778525,0.58778525,-0.80901699,-563.71943,1235.719)"
         width="100%"
         height="100%" />
      <use
         style="display:inline;opacity:1"
         x="0"
         y="0"
         xlink:href="#g10663-3-4-2"
         id="use11750-1"
         transform="matrix(-0.80901699,0.58778525,-0.58778525,-0.80901699,418.14284,1470.7382)"
         width="100%"
         height="100%" />
      <use
         style="display:inline;opacity:1"
         x="0"
         y="0"
         xlink:href="#g10663-3-4-2"
         id="use11752-7"
         transform="matrix(0.30901699,-0.95105651,0.95105651,0.30901699,-643.61723,229.28645)"
         width="100%"
         height="100%" />
      <use
         style="display:inline;opacity:1"
         x="0"
         y="0"
         xlink:href="#g10663-3-4-2"
         id="use11754-7"
         transform="translate(288.86667,-157.70329)"
         width="100%"
         height="100%" />
      <use
         style="display:inline;opacity:1"
         x="0"
         y="0"
         xlink:href="#g10663-3-4-2"
         id="use11756-1"
         transform="matrix(0.30901699,0.95105651,-0.95105651,0.30901699,945.07129,609.55647)"
         width="100%"
         height="100%" />
      <use
         style="display:inline;opacity:1"
         x="0"
         y="0"
         xlink:href="#g10524-2-1-4-6"
         id="use11758-1"
         transform="matrix(0.80901699,-0.58778525,0.58778525,0.80901699,-182.69042,-161.73977)"
         width="100%"
         height="100%" />
      <use
         style="display:inline;opacity:1"
         x="0"
         y="0"
         xlink:href="#g10524-2-1-4-6"
         id="use11760-5"
         transform="matrix(-0.80901699,-0.58778525,0.58778525,-0.80901699,-565.77407,1175.8907)"
         width="100%"
         height="100%" />
      <use
         x="0"
         y="0"
         xlink:href="#g10524-2-1-4-6"
         id="use11810"
         transform="matrix(0.30901699,-0.95105651,0.95105651,0.30901699,-587.35974,208.82771)"
         width="100%"
         height="100%"
         style="opacity:1" />
      <use
         x="0"
         y="0"
         xlink:href="#g10663-3-4-2"
         id="use11812"
         transform="matrix(0.80901699,-0.58778525,0.58778525,0.80901699,-217.5104,-84.433446)"
         width="100%"
         height="100%"
         style="opacity:1" />
      <use
         x="0"
         y="0"
         xlink:href="#g10663-3-4-2"
         id="use11814"
         transform="matrix(0.80901699,0.58778525,-0.58778525,0.80901699,778.4366,193.84272)"
         width="100%"
         height="100%"
         style="opacity:1" />
      <use
         x="0"
         y="0"
         xlink:href="#g10663-3-4-2"
         id="use11816"
         transform="matrix(-0.30901699,-0.95105651,0.95105651,-0.30901699,-789.8981,776.74304)"
         width="100%"
         height="100%"
         style="opacity:1" />
      <use
         x="0"
         y="0"
         xlink:href="#g10663-3-4-2"
         id="use11818"
         transform="matrix(-0.30901699,0.95105651,-0.95105651,-0.30901699,821.55202,1226.9902)"
         width="100%"
         height="100%"
         style="opacity:1" />
      <use
         x="0"
         y="0"
         xlink:href="#g10524-2-1-4-6"
         id="use11820"
         transform="translate(325.69514,-110.50878)"
         width="100%"
         height="100%"
         style="opacity:1" />
      <use
         x="0"
         y="0"
         xlink:href="#g10524-2-1-4-6"
         id="use11822"
         transform="matrix(-0.30901699,-0.95105651,0.95105651,-0.30901699,-756.39772,789.71706)"
         width="100%"
         height="100%"
         style="opacity:1" />
      <use
         x="0"
         y="0"
         xlink:href="#g10524-2-1-4-6"
         id="use11824"
         transform="matrix(0.80901699,-0.58778525,0.58778525,0.80901699,-205.43544,-67.906786)"
         width="100%"
         height="100%"
         style="opacity:1" />
      <use
         x="0"
         y="0"
         xlink:href="#g10524-2-1-4-6"
         id="use11826"
         transform="matrix(0.30901699,-0.95105651,0.95105651,0.30901699,-624.10207,259.45352)"
         width="100%"
         height="100%"
         style="opacity:1" />
      <use
         x="0"
         y="0"
         xlink:href="#g10524-2-1-4-6"
         id="use11828"
         transform="matrix(0.30901699,-0.95105651,0.95105651,0.30901699,-550.56383,322.03317)"
         width="100%"
         height="100%"
         style="opacity:1" />
      <use
         x="0"
         y="0"
         xlink:href="#g10663-3-4-2"
         id="use11830"
         transform="matrix(-0.80901699,0.58778525,-0.58778525,-0.80901699,477.66767,1653.8968)"
         width="100%"
         height="100%"
         style="opacity:1" />
      <use
         x="0"
         y="0"
         xlink:href="#g10663-3-4-2"
         id="use11832"
         transform="matrix(0.30901699,0.95105651,-0.95105651,0.30901699,1004.5961,792.71518)"
         width="100%"
         height="100%"
         style="opacity:1" />
      <use
         x="0"
         y="0"
         xlink:href="#g10663-3-4-2"
         id="use11834"
         transform="matrix(-0.80901699,-0.58778525,0.58778525,-0.80901699,-504.19449,1418.8776)"
         width="100%"
         height="100%"
         style="opacity:1" />
      <use
         x="0"
         y="0"
         xlink:href="#g10524-2-1-4-6"
         id="use11836"
         transform="matrix(0.80901699,-0.58778525,0.58778525,0.80901699,-123.18733,21.408974)"
         width="100%"
         height="100%"
         style="opacity:1" />
      <use
         x="0"
         y="0"
         xlink:href="#g10524-2-1-4-6"
         id="use11838"
         transform="matrix(-0.80901699,-0.58778525,0.58778525,-0.80901699,-506.23477,1359.0331)"
         width="100%"
         height="100%"
         style="opacity:1" />
      <use
         x="0"
         y="0"
         xlink:href="#g10524-2-1-4-6"
         id="use11840"
         transform="translate(362.47146,2.6591547)"
         width="100%"
         height="100%"
         style="opacity:1" />
      <use
         x="0"
         y="0"
         xlink:href="#g10524-2-1-4-6"
         id="use11842"
         transform="matrix(-0.30901699,-0.95105651,0.95105651,-0.30901699,-793.18578,676.52826)"
         width="100%"
         height="100%"
         style="opacity:1" />
      <use
         x="0"
         y="0"
         xlink:href="#g10663-3-4-2"
         id="use11844"
         transform="translate(266.13343,-87.768043)"
         width="100%"
         height="100%"
         style="opacity:1" />
      <use
         x="0"
         y="0"
         xlink:href="#g10663-3-4-2"
         id="use11846"
         transform="matrix(0.80901699,0.58778525,-0.58778525,0.80901699,741.61963,220.54635)"
         width="100%"
         height="100%"
         style="opacity:1" />
      <use
         style="display:inline;opacity:1"
         x="0"
         y="0"
         xlink:href="#g10524-2-1-4-6"
         id="use11824-9"
         transform="matrix(0.80901699,0.58778525,-0.58778525,0.80901699,743.67136,280.372)"
         width="100%"
         height="100%" />
      <use
         style="display:inline;opacity:1"
         x="0"
         y="0"
         xlink:href="#g10524-2-1-4-6"
         id="use11826-7"
         transform="translate(302.95811,-16.643735)"
         width="100%"
         height="100%" />
      <use
         style="display:inline;opacity:1"
         x="0"
         y="0"
         xlink:href="#g10663-3-4-2"
         id="use11844-7"
         transform="matrix(0.30901699,0.95105651,-0.95105651,0.30901699,908.28336,722.72317)"
         width="100%"
         height="100%" />
      <use
         style="display:inline;opacity:1"
         x="0"
         y="0"
         xlink:href="#g10663-3-4-2"
         id="use11846-6"
         transform="matrix(-0.30901699,0.95105651,-0.95105651,-0.30901699,761.99225,1270.2119)"
         width="100%"
         height="100%" />
      <use
         style="display:inline;opacity:1"
         x="0"
         y="0"
         xlink:href="#g10524-2-1-4-6"
         id="use11824-7"
         transform="matrix(-0.30901699,0.95105651,-0.95105651,-0.30901699,705.72869,1290.6503)"
         width="100%"
         height="100%" />
      <use
         style="display:inline;opacity:1"
         x="0"
         y="0"
         xlink:href="#g10524-2-1-4-6"
         id="use11826-3"
         transform="matrix(0.30901699,0.95105651,-0.95105651,0.30901699,852.01958,779.72417)"
         width="100%"
         height="100%" />
      <use
         style="display:inline;opacity:1"
         x="0"
         y="0"
         xlink:href="#g10663-3-4-2"
         id="use11844-6"
         transform="matrix(-0.80901699,0.58778525,-0.58778525,-0.80901699,335.89565,1583.8997)"
         width="100%"
         height="100%" />
      <use
         style="display:inline;opacity:1"
         x="0"
         y="0"
         xlink:href="#g10663-3-4-2"
         id="use11846-5"
         transform="matrix(-1,0,0,-1,-230.00347,1613.9518)"
         width="100%"
         height="100%" />
      <use
         style="display:inline;opacity:1"
         x="0"
         y="0"
         xlink:href="#g10524-2-1-4-6"
         id="use11824-6"
         transform="matrix(-1,0,0,-1,-266.82796,1566.7578)"
         width="100%"
         height="100%" />
      <use
         style="display:inline;opacity:1"
         x="0"
         y="0"
         xlink:href="#g10524-2-1-4-6"
         id="use11826-39"
         transform="matrix(-0.80901699,0.58778525,-0.58778525,-0.80901699,264.29805,1548.004)"
         width="100%"
         height="100%" />
      <use
         style="display:inline;opacity:1"
         x="0"
         y="0"
         xlink:href="#g10663-3-4-2"
         id="use11844-4"
         transform="matrix(-0.80901699,-0.58778525,0.58778525,-0.80901699,-660.00934,1305.6446)"
         width="100%"
         height="100%" />
      <use
         style="display:inline;opacity:1"
         x="0"
         y="0"
         xlink:href="#g10663-3-4-2"
         id="use11846-8"
         transform="matrix(-0.30901699,-0.95105651,0.95105651,-0.30901699,-863.46309,776.72934)"
         width="100%"
         height="100%" />
      <use
         style="display:inline;opacity:1"
         x="0"
         y="0"
         xlink:href="#g10524-2-1-4-6"
         id="use11824-1"
         transform="matrix(-0.30901699,-0.95105651,0.95105651,-0.30901699,-829.95842,727.12346)"
         width="100%"
         height="100%" />
      <use
         style="display:inline;opacity:1"
         x="0"
         y="0"
         xlink:href="#g10524-2-1-4-6"
         id="use11826-2"
         transform="matrix(-0.80901699,-0.58778525,0.58778525,-0.80901699,-647.99541,1226.459)"
         width="100%"
         height="100%" />
      <use
         style="display:inline;opacity:1"
         x="0"
         y="0"
         xlink:href="#g10663-3-4-2"
         id="use11844-9"
         transform="matrix(0.30901699,-0.95105651,0.95105651,0.30901699,-703.12476,272.49728)"
         width="100%"
         height="100%" />
      <use
         style="display:inline;opacity:1"
         x="0"
         y="0"
         xlink:href="#g10663-3-4-2"
         id="use11846-3"
         transform="matrix(0.80901699,-0.58778525,0.58778525,0.80901699,-262.9671,-84.442496)"
         width="100%"
         height="100%" />
      <use
         style="display:inline;opacity:1"
         x="0"
         y="0"
         xlink:href="#g10663-3-4-2"
         id="use11812-9"
         transform="matrix(0.80901699,0.58778525,-0.58778525,0.80901699,755.66258,263.78219)"
         width="100%"
         height="100%" />
      <use
         style="display:inline;opacity:1"
         x="0"
         y="0"
         xlink:href="#g10663-3-4-2"
         id="use11814-0"
         transform="matrix(-0.30901699,0.95105651,-0.95105651,-0.30901699,798.77076,1296.9761)"
         width="100%"
         height="100%" />
      <use
         style="display:inline;opacity:1"
         x="0"
         y="0"
         xlink:href="#g10663-3-4-2"
         id="use11816-8"
         transform="matrix(0.80901699,-0.58778525,0.58778525,0.80901699,-240.24253,-14.472676)"
         width="100%"
         height="100%" />
      <use
         style="display:inline;opacity:1"
         x="0"
         y="0"
         xlink:href="#g10663-3-4-2"
         id="use11818-8"
         transform="matrix(-1,0,0,-1,-170.48739,1657.2413)"
         width="100%"
         height="100%" />
      <use
         style="display:inline;opacity:1"
         x="0"
         y="0"
         xlink:href="#g10663-3-4-2"
         id="use11812-5"
         transform="matrix(-0.30901699,0.95105651,-0.95105651,-0.30901699,725.2463,1296.912)"
         width="100%"
         height="100%" />
      <use
         style="display:inline;opacity:1"
         x="0"
         y="0"
         xlink:href="#g10663-3-4-2"
         id="use11816-6"
         transform="matrix(0.80901699,0.58778525,-0.58778525,0.80901699,682.13084,263.76446)"
         width="100%"
         height="100%" />
      <use
         style="display:inline;opacity:1"
         x="0"
         y="0"
         xlink:href="#g10663-3-4-2"
         id="use11818-3"
         transform="matrix(-0.30901699,-0.95105651,0.95105651,-0.30901699,-886.20825,846.69356)"
         width="100%"
         height="100%" />
      <use
         style="display:inline;opacity:1"
         x="0"
         y="0"
         xlink:href="#g10663-3-4-2"
         id="use11814-5"
         transform="matrix(-0.30901699,-0.95105651,0.95105651,-0.30901699,-908.92229,776.72424)"
         width="100%"
         height="100%" />
      <use
         style="display:inline;opacity:1"
         x="0"
         y="0"
         xlink:href="#g10663-3-4-2"
         id="use11816-61"
         transform="matrix(-0.30901699,0.95105651,-0.95105651,-0.30901699,702.50732,1226.992)"
         width="100%"
         height="100%" />
      <use
         style="display:inline;opacity:1"
         x="0"
         y="0"
         xlink:href="#g10663-3-4-2"
         id="use11818-1"
         transform="matrix(0.80901699,-0.58778525,0.58778525,0.80901699,-336.53463,-84.452146)"
         width="100%"
         height="100%" />
      <use
         style="display:inline;opacity:1"
         x="0"
         y="0"
         xlink:href="#g10663-3-4-2"
         id="use11812-59"
         transform="matrix(-0.30901699,-0.95105651,0.95105651,-0.30901699,-849.40832,733.49632)"
         width="100%"
         height="100%" />
      <use
         style="display:inline;opacity:1"
         x="0"
         y="0"
         xlink:href="#g10663-3-4-2"
         id="use11814-8"
         transform="matrix(0.80901699,-0.58778525,0.58778525,0.80901699,-276.98755,-127.71338)"
         width="100%"
         height="100%" />
      <use
         style="display:inline;opacity:1"
         x="0"
         y="0"
         xlink:href="#g10663-3-4-2"
         id="use11816-4"
         transform="matrix(-1,0,0,-1,-207.25831,1543.9876)"
         width="100%"
         height="100%" />
      <use
         style="display:inline;opacity:1"
         x="0"
         y="0"
         xlink:href="#g10663-3-4-2"
         id="use11818-81"
         transform="matrix(0.80901699,0.58778525,-0.58778525,0.80901699,718.91747,150.54156)"
         width="100%"
         height="100%" />
      <use
         x="0"
         y="0"
         xlink:href="#g10524-2-1-4-6"
         id="use11990"
         transform="matrix(-0.80901699,0.58778525,-0.58778525,-0.80901699,301.11167,1637.3247)"
         width="100%"
         height="100%"
         style="opacity:1" />
      <use
         x="0"
         y="0"
         xlink:href="#g10524-2-1-4-6"
         id="use11992"
         transform="matrix(-0.80901699,0.58778525,-0.58778525,-0.80901699,374.63341,1637.3325)"
         width="100%"
         height="100%"
         style="opacity:1" />
      <use
         x="0"
         y="0"
         xlink:href="#g10663-3-4-2"
         id="use11994"
         transform="matrix(-0.80901699,0.58778525,-0.58778525,-0.80901699,432.14672,1653.8564)"
         width="100%"
         height="100%"
         style="opacity:1" />
      <use
         x="0"
         y="0"
         xlink:href="#g10663-3-4-2"
         id="use11996"
         transform="matrix(0.30901699,0.95105651,-0.95105651,0.30901699,959.08747,792.67987)"
         width="100%"
         height="100%"
         style="opacity:1" />
      <use
         x="0"
         y="0"
         xlink:href="#g10663-3-4-2"
         id="use11998"
         transform="translate(302.88269,25.421605)"
         width="100%"
         height="100%"
         style="opacity:1" />
      <use
         x="0"
         y="0"
         xlink:href="#g10524-2-1-4-6"
         id="use12000"
         transform="matrix(0.30901699,0.95105651,-0.95105651,0.30901699,925.59968,842.27211)"
         width="100%"
         height="100%"
         style="opacity:1" />
      <use
         x="0"
         y="0"
         xlink:href="#g10524-2-1-4-6"
         id="use12002"
         transform="matrix(0.80901699,0.58778525,-0.58778525,0.80901699,743.6644,342.97359)"
         width="100%"
         height="100%"
         style="opacity:1" />
      <use
         x="0"
         y="0"
         xlink:href="#g10663-3-4-2"
         id="use12004"
         transform="matrix(-0.80901699,-0.58778525,0.58778525,-0.80901699,-623.24655,1418.8632)"
         width="100%"
         height="100%"
         style="opacity:1" />
      <use
         x="0"
         y="0"
         xlink:href="#g10663-3-4-2"
         id="use12006"
         transform="matrix(-0.80901699,0.58778525,-0.58778525,-0.80901699,358.62498,1653.8486)"
         width="100%"
         height="100%"
         style="opacity:1" />
      <use
         x="0"
         y="0"
         xlink:href="#g10524-2-1-4-6"
         id="use12008"
         transform="matrix(-0.30901699,0.95105651,-0.95105651,-0.30901699,801.97976,1360.6071)"
         width="100%"
         height="100%"
         style="opacity:1" />
      <use
         x="0"
         y="0"
         xlink:href="#g10524-2-1-4-6"
         id="use12010"
         transform="matrix(-1,0,0,-1,-111.01323,1679.9912)"
         width="100%"
         height="100%"
         style="opacity:1" />
      <use
         x="0"
         y="0"
         xlink:href="#g10663-3-4-2"
         id="use12012"
         transform="matrix(0.30901699,0.95105651,0.95105651,-0.30901699,-606.88817,1340.1651)"
         width="100%"
         height="100%"
         style="opacity:1" />
      <use
         x="0"
         y="0"
         xlink:href="#g10663-3-4-2"
         id="use12014"
         transform="matrix(0.80901699,0.58778525,-0.58778525,0.80901699,778.33873,333.73535)"
         width="100%"
         height="100%"
         style="opacity:1" />
      <use
         x="0"
         y="0"
         xlink:href="#g10663-3-4-2"
         id="use12016"
         transform="matrix(-1,0,0,-1,-74.178581,1727.192)"
         width="100%"
         height="100%"
         style="opacity:1" />
      <use
         x="0"
         y="0"
         xlink:href="#g10663-3-4-2"
         id="use12018"
         transform="matrix(-0.30901699,-0.95105651,0.95105651,-0.30901699,-730.38337,959.93383)"
         width="100%"
         height="100%"
         style="opacity:1" />
      <use
         x="0"
         y="0"
         xlink:href="#g10663-3-4-2"
         id="use12020"
         transform="matrix(0.30901699,0.95105651,-0.95105651,0.30901699,885.56573,792.67206)"
         width="100%"
         height="100%"
         style="opacity:1" />
      <use
         x="0"
         y="0"
         xlink:href="#g10524-2-1-4-6"
         id="use12022"
         transform="matrix(0.30901699,0.95105651,-0.95105651,0.30901699,852.07794,842.2643)"
         width="100%"
         height="100%"
         style="opacity:1" />
      <use
         x="0"
         y="0"
         xlink:href="#g10663-3-4-2"
         id="use12024"
         transform="matrix(0.80901699,0.58778525,-0.58778525,0.80901699,645.35056,290.4807)"
         width="100%"
         height="100%"
         style="opacity:1" />
      <use
         x="0"
         y="0"
         xlink:href="#g10524-2-1-4-6"
         id="use12026"
         transform="matrix(-0.30901699,0.95105651,-0.95105651,-0.30901699,669.00448,1317.3493)"
         width="100%"
         height="100%"
         style="opacity:1" />
      <use
         x="0"
         y="0"
         xlink:href="#g10524-2-1-4-6"
         id="use12028"
         transform="matrix(-0.80901699,0.58778525,-0.58778525,-0.80901699,241.64835,1617.9733)"
         width="100%"
         height="100%"
         style="opacity:1" />
      <use
         x="0"
         y="0"
         xlink:href="#g10663-3-4-2"
         id="use12030"
         transform="translate(169.89734,-17.841835)"
         width="100%"
         height="100%"
         style="opacity:1" />
      <use
         x="0"
         y="0"
         xlink:href="#g10524-2-1-4-6"
         id="use12032"
         transform="translate(169.93965,2.6259947)"
         width="100%"
         height="100%"
         style="opacity:1" />
      <use
         x="0"
         y="0"
         xlink:href="#g10524-2-1-4-6"
         id="use12034"
         transform="matrix(0.30901699,0.95105651,-0.95105651,0.30901699,755.8119,772.29965)"
         width="100%"
         height="100%"
         style="opacity:1" />
      <use
         x="0"
         y="0"
         xlink:href="#g10524-2-1-4-6"
         id="use12036"
         transform="matrix(0.80901699,0.58778525,-0.58778525,0.80901699,624.71193,280.33146)"
         width="100%"
         height="100%"
         style="opacity:1" />
      <use
         x="0"
         y="0"
         xlink:href="#g10524-2-1-4-6"
         id="use12038"
         transform="matrix(-0.80901699,0.58778525,-0.58778525,-0.80901699,218.86022,1548.0283)"
         width="100%"
         height="100%"
         style="opacity:1" />
      <use
         x="0"
         y="0"
         xlink:href="#g10524-2-1-4-6"
         id="use12040"
         transform="matrix(-0.30901699,0.95105651,-0.95105651,-0.30901699,646.2367,1247.4041)"
         width="100%"
         height="100%"
         style="opacity:1" />
      <use
         x="0"
         y="0"
         xlink:href="#g10663-3-4-2"
         id="use12042"
         transform="translate(133.11112,-44.568545)"
         width="100%"
         height="100%"
         style="opacity:1" />
      <use
         x="0"
         y="0"
         xlink:href="#g10663-3-4-2"
         id="use12044"
         transform="matrix(0.30901699,0.95105651,-0.95105651,0.30901699,789.29973,722.70739)"
         width="100%"
         height="100%"
         style="opacity:1" />
      <use
         x="0"
         y="0"
         xlink:href="#g10663-3-4-2"
         id="use12046"
         transform="matrix(0.30901699,-0.95105651,0.95105651,0.30901699,-799.37276,342.42119)"
         width="100%"
         height="100%"
         style="opacity:1" />
      <use
         x="0"
         y="0"
         xlink:href="#g10663-3-4-2"
         id="use12048"
         transform="matrix(0.80901699,-0.58778525,0.58778525,0.80901699,-359.2066,-14.505436)"
         width="100%"
         height="100%"
         style="opacity:1" />
      <use
         x="0"
         y="0"
         xlink:href="#g10663-3-4-2"
         id="use12050"
         transform="matrix(0.80901699,0.58778525,-0.58778525,0.80901699,622.65557,220.51358)"
         width="100%"
         height="100%"
         style="opacity:1" />
      <use
         x="0"
         y="0"
         xlink:href="#g10663-3-4-2"
         id="use12052"
         transform="translate(147.11809,-87.784913)"
         width="100%"
         height="100%"
         style="opacity:1" />
      <use
         x="0"
         y="0"
         xlink:href="#g10663-3-4-2"
         id="use12054"
         transform="matrix(0.80901699,0.58778525,-0.58778525,0.80901699,563.12702,263.74586)"
         width="100%"
         height="100%"
         style="opacity:1" />
      <use
         x="0"
         y="0"
         xlink:href="#g10663-3-4-2"
         id="use12056"
         transform="matrix(0.80901699,-0.58778525,0.58778525,0.80901699,-432.77998,-14.524566)"
         width="100%"
         height="100%"
         style="opacity:1" />
      <use
         x="0"
         y="0"
         xlink:href="#g10663-3-4-2"
         id="use12096"
         transform="matrix(0.80901699,-0.58778525,0.58778525,0.80901699,-381.97295,-84.449436)"
         width="100%"
         height="100%"
         style="opacity:1" />
      <use
         x="0"
         y="0"
         xlink:href="#g10663-3-4-2"
         id="use12098"
         transform="matrix(0.30901699,-0.95105651,0.95105651,0.30901699,-762.63121,229.23561)"
         width="100%"
         height="100%"
         style="opacity:1" />
      <use
         x="0"
         y="0"
         xlink:href="#g10524-2-1-4-6"
         id="use12100"
         transform="translate(206.68709,-110.55172)"
         width="100%"
         height="100%"
         style="opacity:1" />
      <use
         x="0"
         y="0"
         xlink:href="#g10524-2-1-4-6"
         id="use12104"
         transform="matrix(-0.30901699,0.95105651,-0.95105651,-0.30901699,683.0228,1196.7722)"
         width="100%"
         height="100%"
         style="opacity:1" />
      <use
         x="0"
         y="0"
         xlink:href="#g10663-3-4-2"
         id="use12106"
         transform="matrix(-0.80901699,-0.58778525,0.58778525,-0.80901699,-682.72495,1235.6652)"
         width="100%"
         height="100%"
         style="opacity:1" />
      <use
         x="0"
         y="0"
         xlink:href="#g10663-3-4-2"
         id="use12108"
         transform="matrix(-0.80901699,0.58778525,-0.58778525,-0.80901699,299.13722,1470.6843)"
         width="100%"
         height="100%"
         style="opacity:1" />
      <use
         x="0"
         y="0"
         xlink:href="#g10663-3-4-2"
         id="use12110"
         transform="translate(229.34627,-200.94747)"
         width="100%"
         height="100%"
         style="opacity:1" />
      <use
         x="0"
         y="0"
         xlink:href="#g10524-2-1-4-6"
         id="use12112"
         transform="translate(266.21874,-153.81574)"
         width="100%"
         height="100%"
         style="opacity:1" />
      <use
         x="0"
         y="0"
         xlink:href="#g10524-2-1-4-6"
         id="use12114"
         transform="matrix(0.80901699,0.58778525,-0.58778525,0.80901699,684.17196,159.76243)"
         width="100%"
         height="100%"
         style="opacity:1" />
      <use
         x="0"
         y="0"
         xlink:href="#g10663-3-4-2"
         id="use12116"
         transform="matrix(0.30901699,-0.95105651,0.95105651,0.30901699,-703.13761,186.04227)"
         width="100%"
         height="100%"
         style="opacity:1" />
      <use
         x="0"
         y="0"
         xlink:href="#g10663-3-4-2"
         id="use12118"
         transform="matrix(-0.80901699,-0.58778525,0.58778525,-0.80901699,-623.24188,1192.4735)"
         width="100%"
         height="100%"
         style="opacity:1" />
      <use
         x="0"
         y="0"
         xlink:href="#g10524-2-1-4-6"
         id="use12120"
         transform="matrix(-0.30901699,0.95105651,-0.95105651,-0.30901699,742.50587,1153.5805)"
         width="100%"
         height="100%"
         style="opacity:1" />
      <use
         x="0"
         y="0"
         xlink:href="#g10524-2-1-4-6"
         id="use12122"
         transform="matrix(-0.80901699,0.58778525,-0.58778525,-0.80901699,301.09715,1434.8672)"
         width="100%"
         height="100%"
         style="opacity:1" />
    </g>
  </g>
</svg>
