<?xml version="1.0" encoding="UTF-8" standalone="no"?>
<!-- Created with Inkscape (http://www.inkscape.org/) -->

<svg
   xmlns:dc="http://purl.org/dc/elements/1.1/"
   xmlns:cc="http://creativecommons.org/ns#"
   xmlns:rdf="http://www.w3.org/1999/02/22-rdf-syntax-ns#"
   xmlns:svg="http://www.w3.org/2000/svg"
   xmlns="http://www.w3.org/2000/svg"
   xmlns:xlink="http://www.w3.org/1999/xlink"
   xmlns:sodipodi="http://sodipodi.sourceforge.net/DTD/sodipodi-0.dtd"
   xmlns:inkscape="http://www.inkscape.org/namespaces/inkscape"
   width="6in"
   height="8in"
   viewBox="0 0 540 720"
   id="svg4136"
   version="1.1"
   inkscape:version="0.91 r13725"
   sodipodi:docname="penrose-clone-try-choose-shape2.svg">
  <defs
     id="defs4138" />
  <sodipodi:namedview
     id="base"
     pagecolor="#ffffff"
     bordercolor="#666666"
     borderopacity="1.0"
     inkscape:pageopacity="0.0"
     inkscape:pageshadow="2"
     inkscape:zoom="1.4142136"
     inkscape:cx="119.76385"
     inkscape:cy="370.18937"
     inkscape:document-units="px"
     inkscape:current-layer="layer1"
     showgrid="false"
     units="in"
     height="12in"
     width="8in"
     inkscape:object-paths="true"
     inkscape:snap-intersection-paths="true"
     inkscape:object-nodes="true"
     inkscape:snap-smooth-nodes="true"
     inkscape:snap-object-midpoints="true"
     inkscape:snap-center="true"
     inkscape:snap-global="true"
     inkscape:window-width="1912"
     inkscape:window-height="1057"
     inkscape:window-x="0"
     inkscape:window-y="0"
     inkscape:window-maximized="1" />
  <metadata
     id="metadata4141">
    <rdf:RDF>
      <cc:Work
         rdf:about="">
        <dc:format>image/svg+xml</dc:format>
        <dc:type
           rdf:resource="http://purl.org/dc/dcmitype/StillImage" />
        <dc:title />
      </cc:Work>
    </rdf:RDF>
  </metadata>
  <g
     inkscape:label="Calque 1"
     inkscape:groupmode="layer"
     id="layer1"
     transform="translate(0,-332.3622)"
     style="display:inline">
    <use
       x="0"
       y="0"
       xlink:href="#g11011"
       inkscape:transform-center-x="561.91671"
       inkscape:transform-center-y="79.971077"
       id="use11642"
       transform="matrix(0.30901699,0.95105652,-0.95105652,0.30901699,825.55754,190.69458)"
       width="100%"
       height="100%"
       style="opacity:1" />
    <use
       x="0"
       y="0"
       xlink:href="#g11011"
       inkscape:transform-center-x="204.06451"
       inkscape:transform-center-y="-438.72823"
       id="use11644"
       transform="matrix(-0.809017,0.58778525,-0.58778525,-0.809017,899.30751,1034.7743)"
       width="100%"
       height="100%"
       style="opacity:1" />
    <use
       x="0"
       y="0"
       xlink:href="#g11011"
       inkscape:transform-center-x="-300.37416"
       inkscape:transform-center-y="-378.41175"
       id="use11646"
       transform="matrix(-0.80901699,-0.58778526,0.58778526,-0.80901699,119.33,1365.7497)"
       width="100%"
       height="100%"
       style="opacity:1" />
    <use
       x="0"
       y="0"
       xlink:href="#g11011"
       inkscape:transform-center-x="-532.14816"
       inkscape:transform-center-y="196.88025"
       id="use11648"
       transform="matrix(0.309017,-0.95105651,0.95105651,0.309017,-436.47259,726.22403)"
       width="100%"
       height="100%"
       style="opacity:1" />
    <g
       id="g11011"
       inkscape:label="#g11667"
       transform="matrix(1,0,0,-1,0,1340.991)"
       style="opacity:1">
      <g
         id="g10663-3-4-2"
         style="display:inline"
         transform="matrix(-0.80901699,0.58778525,0.58778525,0.80901699,-482.92203,130.55747)">
        <path
           transform="translate(0,27.6378)"
           style="display:inline;fill:#a0e6a7;fill-opacity:1;fill-rule:evenodd;stroke:#000000;stroke-width:0.2179307px;stroke-linecap:butt;stroke-linejoin:bevel;stroke-opacity:1"
           d="m 185.23701,708.79457 14.05103,-19.33962 22.73515,7.38707 -14.05112,19.33963 z"
           id="path10114-6-7-9-6"
           inkscape:connector-curvature="0" />
        <path
           transform="translate(0,27.6378)"
           inkscape:connector-curvature="0"
           style="display:inline;opacity:1;fill:none;fill-opacity:1;fill-rule:evenodd;stroke:#ff0000;stroke-width:1.5;stroke-linejoin:bevel;stroke-miterlimit:4;stroke-dasharray:none;stroke-opacity:1"
           d="m 188.762,703.94123 c 2.10165,1.52708 2.98111,4.23377 2.17832,6.70454"
           id="path10368-5-4-5-1"
           sodipodi:nodetypes="cc" />
        <path
           inkscape:connector-curvature="0"
           style="display:inline;opacity:1;fill:none;fill-opacity:1;fill-rule:evenodd;stroke:#ff0000;stroke-width:1.5;stroke-linejoin:bevel;stroke-miterlimit:4;stroke-dasharray:none;stroke-opacity:1"
           d="m 211.49397,738.95482 c -6.2723,-4.55721 -8.8969,-12.63492 -6.50105,-20.00851"
           id="path10626-5-0-0" />
      </g>
      <g
         id="g10524-2-1-4-6"
         style="display:inline;stroke-linejoin:bevel"
         transform="matrix(-0.80901699,0.58778525,-0.58778525,-0.80901699,352.46777,1259.9631)">
        <path
           style="display:inline;fill:#a0e6a7;fill-opacity:1;fill-rule:evenodd;stroke:#000000;stroke-width:0.2179307px;stroke-linecap:butt;stroke-linejoin:bevel;stroke-opacity:1"
           d="m 236.07436,740.08678 10e-6,-23.90509 -14.05108,-19.33964 1e-5,23.90511 z"
           id="path10106-2-6-8-9-8-1"
           inkscape:connector-curvature="0" />
        <path
           inkscape:connector-curvature="0"
           style="display:inline;opacity:1;fill:none;fill-opacity:1;fill-rule:evenodd;stroke:#ff0000;stroke-width:1.5;stroke-linejoin:bevel;stroke-miterlimit:4;stroke-dasharray:none;stroke-opacity:1"
           d="m 225.54791,725.58799 c 2.67938,-1.94669 3.27337,-5.69691 1.73589,-7.81308 -1.53749,-2.11617 -3.34103,-3.03512 -5.2605,-3.03521"
           id="path10376-1-9-4-7-5" />
        <path
           inkscape:connector-curvature="0"
           style="display:inline;opacity:1;fill:none;fill-opacity:1;fill-rule:evenodd;stroke:#ff0000;stroke-width:1.5;stroke-linejoin:bevel;stroke-miterlimit:4;stroke-dasharray:none;stroke-opacity:1"
           d="m 232.54975,711.34084 c -2.67938,1.94669 -3.27337,5.69691 -1.73589,7.81308 1.53749,2.11617 3.34103,3.03512 5.2605,3.03521"
           id="path10376-1-3-7-7-1-9" />
      </g>
      <use
         height="100%"
         width="100%"
         transform="translate(481.46231,-157.72089)"
         id="use10954"
         xlink:href="#g10663-3-4-2"
         y="0"
         x="0"
         style="" />
      <use
         height="100%"
         width="100%"
         transform="translate(518.27905,-110.54731)"
         id="use10956"
         xlink:href="#g10524-2-1-4-6"
         y="0"
         x="0"
         style="" />
      <use
         height="100%"
         width="100%"
         transform="matrix(0.80901699,0.58778525,-0.58778525,0.80901699,911.4783,150.59342)"
         id="use10973"
         xlink:href="#g10663-3-4-2"
         y="0"
         x="0"
         style="" />
      <use
         height="100%"
         width="100%"
         transform="matrix(0.80901699,-0.58778525,0.58778525,0.80901699,-70.385542,-84.414996)"
         id="use10975"
         xlink:href="#g10663-3-4-2"
         y="0"
         x="0"
         style="" />
      <use
         height="100%"
         width="100%"
         transform="matrix(-0.30901699,-0.95105651,0.95105651,-0.30901699,-597.32495,776.73884)"
         id="use10977"
         xlink:href="#g10663-3-4-2"
         y="0"
         x="0"
         style="" />
      <use
         height="100%"
         width="100%"
         transform="matrix(-0.80901699,-0.58778525,0.58778525,-0.80901699,-469.48646,1183.2621)"
         id="use10987"
         xlink:href="#g10524-2-1-4-6"
         y="0"
         x="0"
         style="" />
      <use
         height="100%"
         width="100%"
         transform="matrix(-0.80901699,-0.58778525,0.58778525,-0.80901699,-455.43536,1226.5069)"
         id="use10989"
         xlink:href="#g10524-2-1-4-6"
         y="0"
         x="0"
         style="" />
      <use
         height="100%"
         width="100%"
         transform="matrix(0.30901699,-0.95105651,0.95105651,0.30901699,-510.5417,272.50447)"
         id="use10991"
         xlink:href="#g10663-3-4-2"
         y="0"
         x="0"
         style="" />
      <use
         height="100%"
         width="100%"
         transform="matrix(-0.30901699,-0.95105651,0.95105651,-0.30901699,-637.37543,727.13036)"
         id="use10993"
         xlink:href="#g10524-2-1-4-6"
         y="0"
         x="0"
         style="" />
      <use
         height="100%"
         width="100%"
         transform="translate(458.76312,-129.88551)"
         id="use10995"
         xlink:href="#g10524-2-1-4-6"
         y="0"
         x="0"
         style="" />
      <use
         height="100%"
         width="100%"
         transform="matrix(-1,0,0,-1,-14.680712,1544.0268)"
         id="use10997"
         xlink:href="#g10663-3-4-2"
         y="0"
         x="0"
         style="" />
      <use
         height="100%"
         width="100%"
         transform="matrix(-0.30901699,0.95105651,-0.95105651,-0.30901699,917.81609,1157.035)"
         id="use10999"
         xlink:href="#g10663-3-4-2"
         y="0"
         x="0"
         style="" />
      <use
         height="100%"
         width="100%"
         transform="matrix(0.80901699,0.58778525,-0.58778525,0.80901699,837.9185,150.60255)"
         id="use11001"
         xlink:href="#g10663-3-4-2"
         y="0"
         x="0"
         style="" />
      <use
         height="100%"
         width="100%"
         transform="matrix(0.80901699,-0.58778525,0.58778525,0.80901699,-143.94367,-84.416456)"
         id="use11003"
         xlink:href="#g10663-3-4-2"
         y="0"
         x="0"
         style="" />
      <use
         height="100%"
         width="100%"
         transform="matrix(-0.30901699,-0.95105651,0.95105651,-0.30901699,-670.8712,776.76714)"
         id="use11005"
         xlink:href="#g10663-3-4-2"
         y="0"
         x="0"
         style="" />
      <use
         height="100%"
         width="100%"
         transform="matrix(0.30901699,-0.95105651,0.95105651,0.30901699,-527.82936,189.49557)"
         id="use11007"
         xlink:href="#g10524-2-1-4-6"
         y="0"
         x="0"
         style="" />
      <use
         height="100%"
         width="100%"
         transform="matrix(0.80901699,-0.58778525,0.58778525,0.80901699,-86.417176,-67.885426)"
         id="use11009"
         xlink:href="#g10524-2-1-4-6"
         y="0"
         x="0"
         style="" />
      <use
         x="0"
         y="0"
         xlink:href="#g10663-3-4-2"
         id="use11696"
         transform="matrix(0.30901699,0.95105651,-0.95105651,0.30901699,1064.0936,609.52804)"
         width="100%"
         height="100%"
         style="" />
      <use
         x="0"
         y="0"
         xlink:href="#g10663-3-4-2"
         id="use11698"
         transform="matrix(0.30901699,-0.95105651,0.95105651,0.30901699,-547.3238,299.24726)"
         width="100%"
         height="100%"
         style="" />
      <use
         x="0"
         y="0"
         xlink:href="#g10663-3-4-2"
         id="use11702"
         transform="matrix(0.30901699,0.95105651,-0.95105651,0.30901699,1018.6456,609.54362)"
         width="100%"
         height="100%"
         style="" />
      <use
         x="0"
         y="0"
         xlink:href="#g10663-3-4-2"
         id="use11706"
         transform="matrix(-0.80901699,-0.58778525,0.58778525,-0.80901699,-467.42807,1305.6785)"
         width="100%"
         height="100%"
         style="" />
      <use
         x="0"
         y="0"
         xlink:href="#g10663-3-4-2"
         id="use11720"
         transform="matrix(-0.80901699,0.58778525,-0.58778525,-0.80901699,491.71724,1470.7253)"
         width="100%"
         height="100%"
         style="" />
      <use
         x="0"
         y="0"
         xlink:href="#g10524-2-1-4-6"
         id="use11722"
         transform="matrix(-0.30901699,0.95105651,-0.95105651,-0.30901699,898.32839,1266.7827)"
         width="100%"
         height="100%"
         style="" />
      <use
         x="0"
         y="0"
         xlink:href="#g10524-2-1-4-6"
         id="use11724"
         transform="matrix(0.30901699,0.95105651,-0.95105651,0.30901699,1067.3806,772.36695)"
         width="100%"
         height="100%"
         style="" />
      <use
         x="0"
         y="0"
         xlink:href="#g10663-3-4-2"
         id="use11726"
         transform="matrix(0.80901699,-0.58778525,0.58778525,0.80901699,-121.21125,-14.457256)"
         width="100%"
         height="100%"
         style="opacity:1" />
      <use
         x="0"
         y="0"
         xlink:href="#g10663-3-4-2"
         id="use11728"
         transform="matrix(-0.30901699,-0.95105651,0.95105651,-0.30901699,-693.59894,846.71916)"
         width="100%"
         height="100%"
         style="opacity:1" />
      <use
         x="0"
         y="0"
         xlink:href="#g10663-3-4-2"
         id="use11730"
         transform="matrix(-1,0,0,-1,-51.445222,1657.2221)"
         width="100%"
         height="100%"
         style="opacity:1" />
      <use
         x="0"
         y="0"
         xlink:href="#g10663-3-4-2"
         id="use11732"
         transform="matrix(0.80901699,0.58778525,-0.58778525,0.80901699,874.70376,263.805)"
         width="100%"
         height="100%"
         style="opacity:1" />
      <use
         x="0"
         y="0"
         xlink:href="#g10663-3-4-2"
         id="use11738"
         transform="matrix(-0.30901699,0.95105651,-0.95105651,-0.30901699,917.82539,1296.9569)"
         width="100%"
         height="100%"
         style="opacity:1" />
      <use
         x="0"
         y="0"
         xlink:href="#g10663-3-4-2"
         id="use11830"
         transform="matrix(-0.80901699,0.58778525,-0.58778525,-0.80901699,477.66767,1653.8968)"
         width="100%"
         height="100%"
         style="opacity:1" />
    </g>
  </g>
</svg>
