<?xml version="1.0" encoding="UTF-8" standalone="no"?>
<!-- Created with Inkscape (http://www.inkscape.org/) -->

<svg
   xmlns:dc="http://purl.org/dc/elements/1.1/"
   xmlns:cc="http://creativecommons.org/ns#"
   xmlns:rdf="http://www.w3.org/1999/02/22-rdf-syntax-ns#"
   xmlns:svg="http://www.w3.org/2000/svg"
   xmlns="http://www.w3.org/2000/svg"
   xmlns:xlink="http://www.w3.org/1999/xlink"
   xmlns:sodipodi="http://sodipodi.sourceforge.net/DTD/sodipodi-0.dtd"
   xmlns:inkscape="http://www.inkscape.org/namespaces/inkscape"
   width="6in"
   height="8in"
   viewBox="0 0 540 720"
   id="svg4136"
   version="1.1"
   inkscape:version="0.91 r13725"
   sodipodi:docname="penrose-curves-b2-clean.svg">
  <defs
     id="defs4138" />
  <sodipodi:namedview
     id="base"
     pagecolor="#ffffff"
     bordercolor="#666666"
     borderopacity="1.0"
     inkscape:pageopacity="0.0"
     inkscape:pageshadow="2"
     inkscape:zoom="0.7"
     inkscape:cx="434.05821"
     inkscape:cy="326.90787"
     inkscape:document-units="px"
     inkscape:current-layer="layer1"
     showgrid="false"
     units="in"
     height="12in"
     width="8in"
     inkscape:object-paths="true"
     inkscape:snap-intersection-paths="true"
     inkscape:object-nodes="true"
     inkscape:snap-smooth-nodes="true"
     inkscape:snap-object-midpoints="true"
     inkscape:snap-center="true"
     inkscape:snap-global="true"
     inkscape:window-width="1912"
     inkscape:window-height="1057"
     inkscape:window-x="0"
     inkscape:window-y="0"
     inkscape:window-maximized="1" />
  <metadata
     id="metadata4141">
    <rdf:RDF>
      <cc:Work
         rdf:about="">
        <dc:format>image/svg+xml</dc:format>
        <dc:type
           rdf:resource="http://purl.org/dc/dcmitype/StillImage" />
        <dc:title />
      </cc:Work>
    </rdf:RDF>
  </metadata>
  <g
     inkscape:label="Calque 1"
     inkscape:groupmode="layer"
     id="layer1"
     transform="translate(0,-332.3622)"
     style="display:inline">
    <use
       x="0"
       y="0"
       xlink:href="#g11011"
       inkscape:transform-center-x="561.91671"
       inkscape:transform-center-y="79.971077"
       id="use11642"
       transform="matrix(0.30901699,0.95105652,-0.95105652,0.30901699,825.55754,190.69458)"
       width="100%"
       height="100%"
       style="opacity:1" />
    <use
       x="0"
       y="0"
       xlink:href="#g11011"
       inkscape:transform-center-x="204.06451"
       inkscape:transform-center-y="-438.72823"
       id="use11644"
       transform="matrix(-0.809017,0.58778525,-0.58778525,-0.809017,899.30751,1034.7743)"
       width="100%"
       height="100%"
       style="opacity:1" />
    <use
       x="0"
       y="0"
       xlink:href="#g11011"
       inkscape:transform-center-x="-300.37416"
       inkscape:transform-center-y="-378.41175"
       id="use11646"
       transform="matrix(-0.80901699,-0.58778526,0.58778526,-0.80901699,119.33,1365.7497)"
       width="100%"
       height="100%"
       style="opacity:1" />
    <use
       x="0"
       y="0"
       xlink:href="#g11011"
       inkscape:transform-center-x="-532.14816"
       inkscape:transform-center-y="196.88025"
       id="use11648"
       transform="matrix(0.309017,-0.95105651,0.95105651,0.309017,-436.47259,726.22403)"
       width="100%"
       height="100%"
       style="opacity:1" />
    <g
       id="g11011"
       inkscape:label="#g11667"
       transform="matrix(1,0,0,-1,0,1340.991)"
       style="opacity:1">
      <g
         id="g10663-3-4-2"
         style="display:inline;opacity:1"
         transform="matrix(-0.80901699,0.58778525,0.58778525,0.80901699,-482.92203,130.55747)">
        <path
           style="color:#000000;font-style:normal;font-variant:normal;font-weight:normal;font-stretch:normal;font-size:medium;line-height:normal;font-family:sans-serif;text-indent:0;text-align:start;text-decoration:none;text-decoration-line:none;text-decoration-style:solid;text-decoration-color:#000000;letter-spacing:normal;word-spacing:normal;text-transform:none;direction:ltr;block-progression:tb;writing-mode:lr-tb;baseline-shift:baseline;text-anchor:start;white-space:normal;clip-rule:nonzero;display:inline;overflow:visible;visibility:visible;opacity:1;isolation:auto;mix-blend-mode:normal;color-interpolation:sRGB;color-interpolation-filters:linearRGB;solid-color:#000000;solid-opacity:1;fill:none;fill-opacity:1;fill-rule:evenodd;stroke:#ff0000;stroke-width:1;stroke-linecap:butt;stroke-linejoin:bevel;stroke-miterlimit:4;stroke-dasharray:none;stroke-dashoffset:0;stroke-opacity:1;color-rendering:auto;image-rendering:auto;shape-rendering:auto;text-rendering:auto;enable-background:accumulate"
           d="M -214.73242 156.41602 L -219.53125 157.97461 C -218.59101 162.62418 -219.50291 167.63433 -222.50586 171.76758 C -223.20757 172.7334 -223.9927 173.60478 -224.83984 174.38281 L -221.89062 178.44141 L -203.1543 172.35352 L -214.73242 156.41602 z M -221.42969 158.5918 L -233.46875 162.50391 L -226.02734 172.74609 C -225.34192 172.09612 -224.70063 171.38409 -224.125 170.5918 C -221.50538 166.98616 -220.6706 162.64428 -221.42969 158.5918 z "
           transform="matrix(-0.809017,0.58778526,-0.58778526,-0.809017,125.42525,994.22908)"
           id="path10114-6-7-9-6-5-2-3-9-3-22" />
      </g>
      <g
         id="g10524-2-1-4-6"
         style="display:inline;stroke-linejoin:bevel;opacity:1"
         transform="matrix(-0.80901699,0.58778525,-0.58778525,-0.80901699,389.2963,1307.1576)">
        <path
           style="color:#000000;font-style:normal;font-variant:normal;font-weight:normal;font-stretch:normal;font-size:medium;line-height:normal;font-family:sans-serif;text-indent:0;text-align:start;text-decoration:none;text-decoration-line:none;text-decoration-style:solid;text-decoration-color:#000000;letter-spacing:normal;word-spacing:normal;text-transform:none;direction:ltr;block-progression:tb;writing-mode:lr-tb;baseline-shift:baseline;text-anchor:start;white-space:normal;clip-rule:nonzero;display:inline;overflow:visible;visibility:visible;opacity:1;isolation:auto;mix-blend-mode:normal;color-interpolation:sRGB;color-interpolation-filters:linearRGB;solid-color:#000000;solid-opacity:1;fill:none;fill-opacity:1;fill-rule:evenodd;stroke:#ff0000;stroke-width:1;stroke-linecap:butt;stroke-linejoin:bevel;stroke-miterlimit:4;stroke-dasharray:none;stroke-dashoffset:0;stroke-opacity:1;color-rendering:auto;image-rendering:auto;shape-rendering:auto;text-rendering:auto;enable-background:accumulate"
           d="M -205.1543 138.53125 L -221.41797 143.81445 L -231.46875 157.64844 L -222.29492 154.66797 C -222.43446 152.76753 -221.93417 150.81105 -220.73047 149.1543 C -218.43031 145.98838 -214.2998 144.92319 -210.82422 146.33398 L -205.1543 138.53125 z M -213.74805 147.70703 C -215.78582 147.63571 -217.81911 148.54881 -219.11328 150.33008 C -219.92877 151.4525 -220.31875 152.74618 -220.32617 154.0293 L -215.20508 152.36523 L -212.03906 148.00977 C -212.59894 147.83005 -213.17261 147.72717 -213.74805 147.70703 z "
           transform="matrix(-0.809017,-0.58778526,-0.58778526,0.809017,139.4765,470.3375)"
           id="path10106-2-6-8-9-8-1-6" />
      </g>
      <use
         height="100%"
         width="100%"
         transform="translate(481.45052,-157.74184)"
         id="use10956"
         xlink:href="#g10524-2-1-4-6"
         y="0"
         x="0"
         style="opacity:1" />
      <use
         height="100%"
         width="100%"
         transform="matrix(0.80901699,0.58778525,-0.58778525,0.80901699,911.47829,150.59342)"
         id="use10973"
         xlink:href="#g10663-3-4-2"
         y="0"
         x="0"
         style="opacity:1" />
      <use
         height="100%"
         width="100%"
         transform="matrix(0.80901699,-0.58778525,0.58778525,0.80901699,-70.385542,-84.414996)"
         id="use10975"
         xlink:href="#g10663-3-4-2"
         y="0"
         x="0"
         style="opacity:1" />
      <use
         height="100%"
         width="100%"
         transform="matrix(-0.30901699,-0.95105651,0.95105651,-0.30901699,-597.32495,776.73884)"
         id="use10977"
         xlink:href="#g10663-3-4-2"
         y="0"
         x="0"
         style="opacity:1" />
      <use
         height="100%"
         width="100%"
         transform="matrix(0.80901699,0.58778525,-0.58778525,0.80901699,897.42713,107.34866)"
         id="use10987"
         xlink:href="#g10524-2-1-4-6"
         y="0"
         x="0"
         style="opacity:1" />
      <use
         height="100%"
         width="100%"
         transform="matrix(0.80901699,0.58778525,-0.58778525,0.80901699,911.47823,150.59346)"
         id="use10989"
         xlink:href="#g10524-2-1-4-6"
         y="0"
         x="0"
         style="opacity:1" />
      <use
         height="100%"
         width="100%"
         transform="matrix(0.30901699,-0.95105651,0.95105651,0.30901699,-510.5417,272.50447)"
         id="use10991"
         xlink:href="#g10663-3-4-2"
         y="0"
         x="0"
         style="opacity:1" />
      <use
         height="100%"
         width="100%"
         transform="matrix(-0.30901699,-0.95105651,0.95105651,-0.30901699,-670.87946,776.74029)"
         id="use10993"
         xlink:href="#g10524-2-1-4-6"
         y="0"
         x="0"
         style="opacity:1" />
      <use
         height="100%"
         width="100%"
         transform="matrix(-1,0,0,-1,-14.687164,1543.9984)"
         id="use10995"
         xlink:href="#g10524-2-1-4-6"
         y="0"
         x="0"
         style="opacity:1" />
      <use
         height="100%"
         width="100%"
         transform="matrix(-0.30901699,0.95105651,-0.95105651,-0.30901699,917.82461,1157.0321)"
         id="use11007"
         xlink:href="#g10524-2-1-4-6"
         y="0"
         x="0"
         style="opacity:1" />
      <use
         height="100%"
         width="100%"
         transform="matrix(0.80901699,-0.58778525,0.58778525,0.80901699,-143.95234,-84.419337)"
         id="use11009"
         xlink:href="#g10524-2-1-4-6"
         y="0"
         x="0"
         style="opacity:1" />
      <use
         x="0"
         y="0"
         xlink:href="#g10663-3-4-2"
         id="use11696"
         transform="matrix(0.30901699,0.95105651,-0.95105651,0.30901699,1064.0936,609.52804)"
         width="100%"
         height="100%"
         style="opacity:1" />
      <use
         x="0"
         y="0"
         xlink:href="#g10663-3-4-2"
         id="use11698"
         transform="matrix(0.30901699,-0.95105651,0.95105651,0.30901699,-547.3238,299.24726)"
         width="100%"
         height="100%"
         style="opacity:1" />
      <use
         x="0"
         y="0"
         xlink:href="#g10663-3-4-2"
         id="use11702"
         transform="matrix(0.30901699,0.95105651,-0.95105651,0.30901699,1018.6456,609.54362)"
         width="100%"
         height="100%"
         style="opacity:1" />
      <use
         x="0"
         y="0"
         xlink:href="#g10663-3-4-2"
         id="use11706"
         transform="matrix(-0.80901699,-0.58778525,0.58778525,-0.80901699,-467.42808,1305.6785)"
         width="100%"
         height="100%"
         style="opacity:1" />
      <use
         x="0"
         y="0"
         xlink:href="#g10663-3-4-2"
         id="use11720"
         transform="matrix(-0.80901699,0.58778525,-0.58778525,-0.80901699,491.71723,1470.7253)"
         width="100%"
         height="100%"
         style="opacity:1" />
      <use
         x="0"
         y="0"
         xlink:href="#g10524-2-1-4-6"
         id="use11722"
         transform="matrix(0.30901699,-0.95105651,0.95105651,0.30901699,-547.32558,299.24617)"
         width="100%"
         height="100%"
         style="opacity:1" />
      <use
         x="0"
         y="0"
         xlink:href="#g10524-2-1-4-6"
         id="use11724"
         transform="matrix(0.30901699,0.95105651,-0.95105651,0.30901699,1100.8846,722.75702)"
         width="100%"
         height="100%"
         style="opacity:1" />
      <use
         x="0"
         y="0"
         xlink:href="#g10663-3-4-2"
         id="use11726"
         transform="matrix(0.80901699,-0.58778525,0.58778525,0.80901699,-121.21124,-14.457256)"
         width="100%"
         height="100%"
         style="opacity:1" />
      <use
         x="0"
         y="0"
         xlink:href="#g10663-3-4-2"
         id="use11728"
         transform="matrix(-0.30901699,-0.95105651,0.95105651,-0.30901699,-693.59894,846.71916)"
         width="100%"
         height="100%"
         style="opacity:1" />
      <use
         x="0"
         y="0"
         xlink:href="#g10663-3-4-2"
         id="use11730"
         transform="matrix(-1,0,0,-1,-51.445222,1657.2221)"
         width="100%"
         height="100%"
         style="opacity:1" />
      <use
         x="0"
         y="0"
         xlink:href="#g10663-3-4-2"
         id="use11732"
         transform="matrix(0.80901699,0.58778525,-0.58778525,0.80901699,874.70375,263.805)"
         width="100%"
         height="100%"
         style="opacity:1" />
      <use
         x="0"
         y="0"
         xlink:href="#g10663-3-4-2"
         id="use11738"
         transform="matrix(-0.30901699,0.95105651,-0.95105651,-0.30901699,917.82539,1296.9569)"
         width="100%"
         height="100%"
         style="opacity:1" />
      <use
         x="0"
         y="0"
         xlink:href="#g10663-3-4-2"
         id="use11830"
         transform="matrix(-0.80901699,0.58778525,-0.58778525,-0.80901699,477.66766,1653.8968)"
         width="100%"
         height="100%"
         style="opacity:1" />
      <g
         id="g10663-3-4-2-5-3"
         style="display:inline;opacity:1"
         transform="matrix(-0.80901699,0.58778525,0.58778525,0.80901699,-602.45879,35.030976)">
        <path
           transform="translate(0,27.6378)"
           style="display:inline;fill:#a0e6a7;fill-opacity:1;fill-rule:evenodd;stroke:#000000;stroke-width:0.2179307px;stroke-linecap:butt;stroke-linejoin:bevel;stroke-opacity:1"
           d="m 185.23701,708.79457 14.05103,-19.33962 22.73515,7.38707 -14.05112,19.33963 z"
           id="path10114-6-7-9-6-9-6"
           inkscape:connector-curvature="0" />
        <path
           inkscape:connector-curvature="0"
           style="display:inline;opacity:1;fill:none;fill-opacity:1;fill-rule:evenodd;stroke:#0000ff;stroke-width:1.5;stroke-linejoin:bevel;stroke-miterlimit:4;stroke-dasharray:none;stroke-opacity:1"
           d="m 188.762,731.57903 c 2.10165,1.52708 2.98111,4.23377 2.17832,6.70454"
           id="path10368-5-4-5-1-2-1"
           sodipodi:nodetypes="cc" />
        <path
           inkscape:connector-curvature="0"
           style="display:inline;opacity:1;fill:none;fill-opacity:1;fill-rule:evenodd;stroke:#ff0000;stroke-width:1.5;stroke-linejoin:bevel;stroke-miterlimit:4;stroke-dasharray:none;stroke-opacity:1"
           d="m 211.49397,738.95482 c -6.2723,-4.55721 -8.8969,-12.63492 -6.50105,-20.00851"
           id="path10626-5-0-0-2-2" />
        <path
           style="display:inline;opacity:1;fill:none;fill-opacity:1;fill-rule:evenodd;stroke:#ff0000;stroke-width:1;stroke-linejoin:bevel;stroke-miterlimit:4;stroke-dasharray:none;stroke-opacity:1"
           d="m 177.87845,736.43307 a 7.3571907,7.3571907 0 0 1 7.35718,-7.3572 7.3571907,7.3571907 0 0 1 7.35718,7.3572 7.3571907,7.3571907 0 0 1 -7.35718,7.3572 7.3571907,7.3571907 0 0 1 -7.35718,-7.3572 z"
           id="path9649-2-8-9"
           inkscape:connector-curvature="0" />
        <path
           style="color:#000000;font-style:normal;font-variant:normal;font-weight:normal;font-stretch:normal;font-size:medium;line-height:normal;font-family:sans-serif;text-indent:0;text-align:start;text-decoration:none;text-decoration-line:none;text-decoration-style:solid;text-decoration-color:#000000;letter-spacing:normal;word-spacing:normal;text-transform:none;direction:ltr;block-progression:tb;writing-mode:lr-tb;baseline-shift:baseline;text-anchor:start;white-space:normal;clip-rule:nonzero;display:inline;overflow:visible;visibility:visible;opacity:1;isolation:auto;mix-blend-mode:normal;color-interpolation:sRGB;color-interpolation-filters:linearRGB;solid-color:#000000;solid-opacity:1;fill:none;fill-opacity:1;fill-rule:evenodd;stroke:#ff0000;stroke-width:1;stroke-linecap:butt;stroke-linejoin:bevel;stroke-miterlimit:4;stroke-dasharray:none;stroke-dashoffset:0;stroke-opacity:1;color-rendering:auto;image-rendering:auto;shape-rendering:auto;text-rendering:auto;enable-background:accumulate"
           d="m 200.05136,719.44404 18.73439,6.08789 -11.57813,15.93754 -18.73438,-6.0879 z"
           id="path10114-6-7-9-6-5-2-3-9-3"
           inkscape:connector-curvature="0"
           sodipodi:nodetypes="ccccc" />
        <path
           style="display:inline;opacity:1;fill:none;fill-opacity:1;fill-rule:evenodd;stroke:#ff0000;stroke-width:1;stroke-linejoin:bevel;stroke-miterlimit:4;stroke-dasharray:none;stroke-opacity:1"
           d="m 205.47399,724.48061 a 16.547771,16.547771 0 0 1 16.54776,-16.54777 16.547771,16.547771 0 0 1 16.54775,16.54777 16.547771,16.547771 0 0 1 -16.54775,16.54776 16.547771,16.547771 0 0 1 -16.54776,-16.54776 z"
           id="path9649-5-2-7-7-1"
           inkscape:connector-curvature="0" />
      </g>
      <use
         x="0"
         y="0"
         xlink:href="#g10663-3-4-2-5"
         id="use17548"
         transform="translate(491.66648,-70.545853)"
         width="100%"
         height="100%"
         style="opacity:1" />
      <use
         x="0"
         y="0"
         xlink:href="#g10663-3-4-2-5"
         id="use17562"
         transform="matrix(0.80901699,0.58778525,-0.58778525,0.80901699,794.90888,227.14453)"
         width="100%"
         height="100%"
         style="opacity:1" />
      <use
         x="0"
         y="0"
         xlink:href="#g10663-3-4-2-5"
         id="use17564"
         transform="matrix(-0.30901699,0.95105651,-0.95105651,-0.30901699,831.71848,1139.7442)"
         width="100%"
         height="100%"
         style="opacity:1" />
      <use
         x="0"
         y="0"
         xlink:href="#g10663-3-4-2-5"
         id="use17566"
         transform="matrix(-1,0,0,-1,-24.886706,1456.7848)"
         width="100%"
         height="100%"
         style="opacity:1" />
      <use
         x="0"
         y="0"
         xlink:href="#g10663-3-4-2-5"
         id="use17568"
         transform="matrix(-0.30901699,-0.95105651,0.95105651,-0.30901699,-591.10251,740.1071)"
         width="100%"
         height="100%"
         style="opacity:1" />
      <use
         x="0"
         y="0"
         xlink:href="#g10663-3-4-2-5"
         id="use17570"
         transform="matrix(0.80901699,-0.58778525,0.58778525,0.80901699,-84.454047,-19.87548)"
         width="100%"
         height="100%"
         style="opacity:1" />
      <g
         id="g10663-3-4-2-5-37"
         style="display:inline;opacity:1;fill:none"
         transform="matrix(-0.80901699,0.58778525,0.58778525,0.80901699,-499.25397,0.12952099)">
        <path
           transform="translate(0,27.6378)"
           style="display:inline;fill:none;fill-opacity:1;fill-rule:evenodd;stroke:#808080;stroke-width:0.2179307px;stroke-linecap:butt;stroke-linejoin:bevel;stroke-opacity:1"
           d="m 185.23701,708.79457 14.05103,-19.33962 22.73515,7.38707 -14.05112,19.33963 z"
           id="path10114-6-7-9-6-9-4"
           inkscape:connector-curvature="0" />
        <path
           inkscape:connector-curvature="0"
           id="path9649-2-8-9-7-1-1"
           d="m 177.87983,736.43237 a 7.3571907,7.3571907 0 0 1 7.35718,-7.3572 7.3571907,7.3571907 0 0 1 7.35718,7.3572 7.3571907,7.3571907 0 0 1 -7.35718,7.3572 7.3571907,7.3571907 0 0 1 -7.35718,-7.3572 z"
           style="display:inline;opacity:0.1;fill:none;fill-opacity:1;fill-rule:evenodd;stroke:#ff0000;stroke-width:2;stroke-linejoin:bevel;stroke-miterlimit:4;stroke-dasharray:none;stroke-opacity:1" />
        <path
           inkscape:connector-curvature="0"
           id="path9649-5-2-7-7-1-6-6-7"
           d="m 205.47537,724.47997 a 16.547771,16.547771 0 0 1 16.54776,-16.5478 16.547771,16.547771 0 0 1 16.54775,16.5478 16.547771,16.547771 0 0 1 -16.54775,16.5477 16.547771,16.547771 0 0 1 -16.54776,-16.5477 z"
           style="display:inline;opacity:0.1;fill:none;fill-opacity:1;fill-rule:evenodd;stroke:#ff0000;stroke-width:2;stroke-linejoin:bevel;stroke-miterlimit:4;stroke-dasharray:none;stroke-opacity:1" />
        <path
           style="color:#000000;font-style:normal;font-variant:normal;font-weight:normal;font-stretch:normal;font-size:medium;line-height:normal;font-family:sans-serif;text-indent:0;text-align:start;text-decoration:none;text-decoration-line:none;text-decoration-style:solid;text-decoration-color:#000000;letter-spacing:normal;word-spacing:normal;text-transform:none;direction:ltr;block-progression:tb;writing-mode:lr-tb;baseline-shift:baseline;text-anchor:start;white-space:normal;clip-rule:nonzero;display:inline;overflow:visible;visibility:visible;opacity:1;isolation:auto;mix-blend-mode:normal;color-interpolation:sRGB;color-interpolation-filters:linearRGB;solid-color:#000000;solid-opacity:1;fill:none;fill-opacity:1;fill-rule:evenodd;stroke:#ff0000;stroke-width:1;stroke-linecap:butt;stroke-linejoin:bevel;stroke-miterlimit:4;stroke-dasharray:none;stroke-dashoffset:0;stroke-opacity:1;color-rendering:auto;image-rendering:auto;shape-rendering:auto;text-rendering:auto;enable-background:accumulate"
           d="m 200.05195,719.44336 18.73439,6.0879 -11.57812,15.9375 -18.73439,-6.0879 z"
           id="path10114-6-7-9-6-5-2-3-9-3-22-0-7"
           inkscape:connector-curvature="0"
           sodipodi:nodetypes="ccccc" />
      </g>
      <g
         id="g10524-2-1-4-6-6"
         style="display:inline;opacity:1;fill:none;stroke-linejoin:bevel"
         transform="matrix(-0.80901699,0.58778525,-0.58778525,-0.80901699,363.15026,1115.0646)">
        <path
           style="color:#000000;font-style:normal;font-variant:normal;font-weight:normal;font-stretch:normal;font-size:medium;line-height:normal;font-family:sans-serif;text-indent:0;text-align:start;text-decoration:none;text-decoration-line:none;text-decoration-style:solid;text-decoration-color:#000000;letter-spacing:normal;word-spacing:normal;text-transform:none;direction:ltr;block-progression:tb;writing-mode:lr-tb;baseline-shift:baseline;text-anchor:start;white-space:normal;clip-rule:nonzero;display:inline;overflow:visible;visibility:visible;opacity:1;isolation:auto;mix-blend-mode:normal;color-interpolation:sRGB;color-interpolation-filters:linearRGB;solid-color:#000000;solid-opacity:1;fill:none;fill-opacity:1;fill-rule:evenodd;stroke:#ff0000;stroke-width:1;stroke-linecap:butt;stroke-linejoin:bevel;stroke-miterlimit:4;stroke-dasharray:none;stroke-dashoffset:0;stroke-opacity:1;color-rendering:auto;image-rendering:auto;shape-rendering:auto;text-rendering:auto;enable-background:accumulate"
           d="m 224.02383,712.64441 c 3.64119,0.90145 6.3566,4.19105 6.35659,8.10444 0,2.04794 -0.74516,3.92472 -1.97518,5.38022 l 1.19105,1.6403 c 1.72003,-1.85155 2.78357,-4.31766 2.78357,-7.02119 1e-5,-5.0004 -3.61606,-9.21511 -8.35557,-10.15792 z"
           id="path44281"
           inkscape:connector-curvature="0"
           sodipodi:nodetypes="csccscc" />
        <path
           style="color:#000000;font-style:normal;font-variant:normal;font-weight:normal;font-stretch:normal;font-size:medium;line-height:normal;font-family:sans-serif;text-indent:0;text-align:start;text-decoration:none;text-decoration-line:none;text-decoration-style:solid;text-decoration-color:#000000;letter-spacing:normal;word-spacing:normal;text-transform:none;direction:ltr;block-progression:tb;writing-mode:lr-tb;baseline-shift:baseline;text-anchor:start;white-space:normal;clip-rule:nonzero;display:inline;overflow:visible;visibility:visible;opacity:1;isolation:auto;mix-blend-mode:normal;color-interpolation:sRGB;color-interpolation-filters:linearRGB;solid-color:#000000;solid-opacity:1;fill:none;fill-opacity:1;fill-rule:evenodd;stroke:#ff0000;stroke-width:1;stroke-linecap:butt;stroke-linejoin:bevel;stroke-miterlimit:4;stroke-dasharray:none;stroke-dashoffset:0;stroke-opacity:1;color-rendering:auto;image-rendering:auto;shape-rendering:auto;text-rendering:auto;enable-background:accumulate"
           d="m 225.5822,715.47382 c 1.69051,1.14007 2.79993,3.07235 2.79993,5.27412 0,1.38718 -0.44511,2.66331 -1.19309,3.70564 l -3.16495,-4.35636 3e-4,-5.38343 c 0.55776,0.18364 1.08107,0.43851 1.55781,0.76003 z"
           id="path10106-2-6-8-9-8-1-6-1-9" />
      </g>
      <use
         x="0"
         y="0"
         xlink:href="#g10524-2-1-4-6-6"
         id="use40101"
         transform="matrix(0.80901699,0.58778525,-0.58778525,0.80901699,746.16034,321.3646)"
         width="100%"
         height="100%"
         style="opacity:1" />
      <g
         id="g10663-3-4-2-5"
         style="display:inline;opacity:1"
         transform="matrix(-0.80901699,0.58778525,0.58778525,0.80901699,-493.10978,43.364737)">
        <path
           style="color:#000000;font-style:normal;font-variant:normal;font-weight:normal;font-stretch:normal;font-size:medium;line-height:normal;font-family:sans-serif;text-indent:0;text-align:start;text-decoration:none;text-decoration-line:none;text-decoration-style:solid;text-decoration-color:#000000;letter-spacing:normal;word-spacing:normal;text-transform:none;direction:ltr;block-progression:tb;writing-mode:lr-tb;baseline-shift:baseline;text-anchor:start;white-space:normal;clip-rule:nonzero;display:inline;overflow:visible;visibility:visible;opacity:1;isolation:auto;mix-blend-mode:normal;color-interpolation:sRGB;color-interpolation-filters:linearRGB;solid-color:#000000;solid-opacity:1;fill:none;fill-opacity:1;fill-rule:evenodd;stroke:#ff0000;stroke-width:1;stroke-linecap:butt;stroke-linejoin:bevel;stroke-miterlimit:4;stroke-dasharray:none;stroke-dashoffset:0;stroke-opacity:1;color-rendering:auto;image-rendering:auto;shape-rendering:auto;text-rendering:auto;enable-background:accumulate"
           d="M -216.15835 262.56322 C -216.76428 260.69711 -216.49564 258.5786 -215.24872 256.86237 C -214.84364 256.30483 -214.36628 255.83235 -213.83908 255.44851 "
           id="path9649-2-8-9-7-1-4"
           transform="matrix(-0.809017,0.58778526,-0.58778526,-0.809017,168.43379,1070.7577)" />
        <path
           style="color:#000000;font-style:normal;font-variant:normal;font-weight:normal;font-stretch:normal;font-size:medium;line-height:normal;font-family:sans-serif;text-indent:0;text-align:start;text-decoration:none;text-decoration-line:none;text-decoration-style:solid;text-decoration-color:#000000;letter-spacing:normal;word-spacing:normal;text-transform:none;direction:ltr;block-progression:tb;writing-mode:lr-tb;baseline-shift:baseline;text-anchor:start;white-space:normal;clip-rule:nonzero;display:inline;overflow:visible;visibility:visible;opacity:1;isolation:auto;mix-blend-mode:normal;color-interpolation:sRGB;color-interpolation-filters:linearRGB;solid-color:#000000;solid-opacity:1;fill:none;fill-opacity:1;fill-rule:evenodd;stroke:#ff0000;stroke-width:1;stroke-linecap:butt;stroke-linejoin:bevel;stroke-miterlimit:4;stroke-dasharray:none;stroke-dashoffset:0;stroke-opacity:1;color-rendering:auto;image-rendering:auto;shape-rendering:auto;text-rendering:auto;enable-background:accumulate"
           d="M -224.91992 243.60938 L -229.71875 245.16797 C -228.77851 249.81754 -229.69041 254.82574 -232.69336 258.95898 C -233.39451 259.92404 -234.17902 260.79665 -235.02539 261.57422 L -232.07617 265.63477 L -218.43164 261.20117 C -218.57093 259.30039 -218.0709 257.34426 -216.86719 255.6875 C -216.74729 255.52248 -216.61583 255.3704 -216.48633 255.2168 L -224.91992 243.60938 z M -231.61719 245.78516 L -243.6543 249.69727 L -236.21484 259.9375 C -235.53011 259.28797 -234.88762 258.57675 -234.3125 257.78516 C -231.693 254.17968 -230.85828 249.83748 -231.61719 245.78516 z "
           transform="matrix(-0.809017,0.58778526,-0.58778526,-0.809017,168.43379,1070.7577)"
           id="path10114-6-7-9-6-5-2-3-9-3-22-0" />
      </g>
    </g>
    <text
       xml:space="preserve"
       style="font-style:normal;font-weight:normal;font-size:10px;line-height:125%;font-family:sans-serif;letter-spacing:0px;word-spacing:0px;fill:#000000;fill-opacity:1;stroke:none;stroke-width:1px;stroke-linecap:butt;stroke-linejoin:miter;stroke-opacity:1"
       x="82.94857"
       y="597.2309"
       id="text13119"
       sodipodi:linespacing="125%"><tspan
         sodipodi:role="line"
         id="tspan13121"
         x="82.94857"
         y="597.2309"
         style="font-size:40px">TODO: wrong shapes,</tspan><tspan
         sodipodi:role="line"
         x="82.94857"
         y="647.2309"
         style="font-size:40px"
         id="tspan13123">they don't have the</tspan><tspan
         sodipodi:role="line"
         x="82.94857"
         y="697.2309"
         style="font-size:40px"
         id="tspan13125">doubling!!!</tspan></text>
  </g>
</svg>
