<?xml version="1.0" encoding="UTF-8" standalone="no"?>
<!-- Created with Inkscape (http://www.inkscape.org/) -->

<svg
   xmlns:dc="http://purl.org/dc/elements/1.1/"
   xmlns:cc="http://creativecommons.org/ns#"
   xmlns:rdf="http://www.w3.org/1999/02/22-rdf-syntax-ns#"
   xmlns:svg="http://www.w3.org/2000/svg"
   xmlns="http://www.w3.org/2000/svg"
   xmlns:sodipodi="http://sodipodi.sourceforge.net/DTD/sodipodi-0.dtd"
   xmlns:inkscape="http://www.inkscape.org/namespaces/inkscape"
   width="210mm"
   height="297mm"
   viewBox="0 0 744.09448819 1052.3622047"
   id="svg8608"
   version="1.1"
   inkscape:version="0.91 r13725"
   sodipodi:docname="bird1-logo.svg">
  <defs
     id="defs8610" />
  <sodipodi:namedview
     id="base"
     pagecolor="#ffffff"
     bordercolor="#666666"
     borderopacity="1.0"
     inkscape:pageopacity="0.0"
     inkscape:pageshadow="2"
     inkscape:zoom="0.70710678"
     inkscape:cx="508.07386"
     inkscape:cy="515.73165"
     inkscape:document-units="px"
     inkscape:current-layer="layer1"
     showgrid="false"
     inkscape:object-paths="true"
     inkscape:snap-intersection-paths="true"
     inkscape:object-nodes="true"
     inkscape:snap-midpoints="true"
     inkscape:snap-smooth-nodes="true"
     inkscape:window-width="1912"
     inkscape:window-height="1057"
     inkscape:window-x="0"
     inkscape:window-y="0"
     inkscape:window-maximized="1"
     inkscape:snap-global="true" />
  <metadata
     id="metadata8613">
    <rdf:RDF>
      <cc:Work
         rdf:about="">
        <dc:format>image/svg+xml</dc:format>
        <dc:type
           rdf:resource="http://purl.org/dc/dcmitype/StillImage" />
        <dc:title></dc:title>
      </cc:Work>
    </rdf:RDF>
  </metadata>
  <g
     inkscape:label="Calque 1"
     inkscape:groupmode="layer"
     id="layer1">
    <path
       style="color:#000000;font-style:normal;font-variant:normal;font-weight:normal;font-stretch:normal;font-size:medium;line-height:normal;font-family:sans-serif;text-indent:0;text-align:start;text-decoration:none;text-decoration-line:none;text-decoration-style:solid;text-decoration-color:#000000;letter-spacing:normal;word-spacing:normal;text-transform:none;direction:ltr;block-progression:tb;writing-mode:lr-tb;baseline-shift:baseline;text-anchor:start;white-space:normal;clip-rule:nonzero;display:inline;overflow:visible;visibility:visible;opacity:1;isolation:auto;mix-blend-mode:normal;color-interpolation:sRGB;color-interpolation-filters:linearRGB;solid-color:#000000;solid-opacity:1;fill:#008400;fill-opacity:1;fill-rule:evenodd;stroke:none;stroke-width:2;stroke-linecap:butt;stroke-linejoin:round;stroke-miterlimit:4;stroke-dasharray:none;stroke-dashoffset:0;stroke-opacity:1;color-rendering:auto;image-rendering:auto;shape-rendering:auto;text-rendering:auto;enable-background:accumulate"
       d="m 158.79747,551.87968 c 0.4302,0.072 0.9018,0.072 1.3356,0.144 l -0.3168,-0.4572 c -0.3258,0.126 -0.6984,0.1926 -1.0188,0.3168 z"
       id="path47836"
       inkscape:connector-curvature="0" />
    <g
       id="g4176">
      <path
         inkscape:connector-curvature="0"
         d="M 309.31602,818.60053 327.16066,781.94195 173.56321,570.51236 c -15.13816,-4.50323 -31.29404,-6.90227 -48.86725,-6.04673 m 232.76929,320.4137 c 7.18776,9.90972 21.95674,9.90972 29.14449,0 L 639.52353,536.7624 c 4.58478,-6.30972 4.58478,-14.85431 0,-21.16402 l -9.56249,-13.18355 c -22.00012,14.60771 -34.36196,32.84529 -44.89447,50.73043 -7.2909,12.38093 -13.56245,24.54982 -21.832,34.91007 -4.47192,5.60285 -9.80657,10.58686 -16.03115,14.5195 L 372.02004,843.67613 341.85603,802.15665 317.45147,829.7994 M 101.14136,525.65317 c -0.126,3.97817 1.0764,7.88489 3.4101,11.10923 l 7.75565,10.77947 c 12.89897,-0.5814 26.66032,-5.63616 37.91193,-9.16146 l -8.85941,-12.1993 162.42176,-223.55834 -20.95307,-19.591 56.17993,-28.92399 33.01179,-45.42188 123.89046,170.50771 c 12.6709,-2.47211 25.20231,2.44278 36.84362,10.08971 12.16421,7.99056 24.38565,19.10518 37.12496,30.48045 L 386.60974,167.48286 c -7.18775,-9.90971 -21.95673,-9.90971 -29.14449,0 L 104.55146,515.59964 c -2.12166,2.93255 -3.31002,6.43661 -3.4101,10.05479 z"
         style="color:#000000;font-style:normal;font-variant:normal;font-weight:normal;font-stretch:normal;font-size:medium;line-height:normal;font-family:sans-serif;text-indent:0;text-align:start;text-decoration:none;text-decoration-line:none;text-decoration-style:solid;text-decoration-color:#000000;letter-spacing:normal;word-spacing:normal;text-transform:none;direction:ltr;block-progression:tb;writing-mode:lr-tb;baseline-shift:baseline;text-anchor:start;white-space:normal;clip-rule:nonzero;display:inline;overflow:visible;visibility:visible;opacity:1;isolation:auto;mix-blend-mode:normal;color-interpolation:sRGB;color-interpolation-filters:linearRGB;solid-color:#000000;solid-opacity:1;fill:#000000;fill-opacity:1;fill-rule:evenodd;stroke:none;stroke-width:2;stroke-linecap:butt;stroke-linejoin:round;stroke-miterlimit:4;stroke-dasharray:none;stroke-dashoffset:0;stroke-opacity:1;color-rendering:auto;image-rendering:auto;shape-rendering:auto;text-rendering:auto;enable-background:accumulate"
         id="path47838" />
      <path
         inkscape:connector-curvature="0"
         d="m 461.71935,507.58281 c -4.5,-59.06245 -7.31249,-106.3124 33.18747,-119.24989 40.49996,-12.93748 94.58594,89.0263 161.99983,90.56241 -89.76213,32.55189 -79.3864,112.56487 -129.37487,122.06238 -57.3231,10.89107 -65.81243,-93.3749 -65.81243,-93.3749 z M 312.657,277.80188 l 17.43748,17.43748 41.06246,-47.5313 z M 436.19195,413.89848 459.48861,383.78325 448.1245,368.44168 295.87904,282.88057 Z M 368.1837,632.6987 c -47.34733,55.04845 -97.19451,-38.04674 -184.1202,-68.44583 -19.19464,-6.71273 -40.19701,-10.36835 -63.37974,-8.69687 22.02515,-3.88278 40.96833,-10.88819 57.58771,-19.75084 83.12481,-44.32766 108.11509,-135.11687 169.82281,-114.04375 36.58641,12.49433 -13.25896,67.90169 -11.65175,101.65166 1.6074,33.74997 52.02265,85.70529 31.74117,109.28563 z m 42.18728,-16.87498 -44.99995,-94.01769 46.60717,-108.48211 12.05351,27.32145 36.96422,-13.66072 -82.7677,89.99991 105.26768,85.17861 -53.03551,-9.64295 z m -86.13243,192.67108 83.72187,-171.77814 78.74992,-12.05369 z"
         style="fill:#000000;fill-opacity:1;fill-rule:evenodd;stroke:none;stroke-width:1;stroke-linecap:butt;stroke-linejoin:miter;stroke-miterlimit:4;stroke-dasharray:none;stroke-opacity:1"
         id="path9183" />
    </g>
  </g>
</svg>
