<?xml version="1.0" encoding="UTF-8" standalone="no"?>
<svg
   xmlns:dc="http://purl.org/dc/elements/1.1/"
   xmlns:cc="http://creativecommons.org/ns#"
   xmlns:rdf="http://www.w3.org/1999/02/22-rdf-syntax-ns#"
   xmlns:svg="http://www.w3.org/2000/svg"
   xmlns="http://www.w3.org/2000/svg"
   xmlns:sodipodi="http://sodipodi.sourceforge.net/DTD/sodipodi-0.dtd"
   xmlns:inkscape="http://www.inkscape.org/namespaces/inkscape"
   version="1.1"
   width="203mm"
   height="307mm"
   viewBox="0 0 203 307.00002"
   id="svg18857"
   inkscape:version="0.91 r13725"
   sodipodi:docname="Box13j-no-flap.10-freecad-203x307-20mm_thick-3.5mm_tabs.svg">
  <defs
     id="defs66317" />
  <metadata
     id="metadata18878">
    <rdf:RDF>
      <cc:Work
         rdf:about="">
        <dc:format>image/svg+xml</dc:format>
        <dc:type
           rdf:resource="http://purl.org/dc/dcmitype/StillImage" />
        <dc:title />
      </cc:Work>
    </rdf:RDF>
  </metadata>
  <sodipodi:namedview
     pagecolor="#ffffff"
     bordercolor="#666666"
     borderopacity="1"
     objecttolerance="10"
     gridtolerance="10"
     guidetolerance="10"
     inkscape:pageopacity="0"
     inkscape:pageshadow="2"
     inkscape:window-width="1912"
     inkscape:window-height="1057"
     id="namedview18876"
     showgrid="false"
     inkscape:zoom="1.2685914"
     inkscape:cx="-17.468397"
     inkscape:cy="231.25205"
     inkscape:window-x="0"
     inkscape:window-y="0"
     inkscape:window-maximized="1"
     inkscape:current-layer="svg18857"
     units="mm"
     inkscape:document-units="px" />
  <!-- Working space 0 0 203 307 -->
  <g
     id="ViewEdge"
     transform="rotate(0.0,0.0,0.0) translate(0.0,0.0) scale(1.0,-1.0)" />
  <g
     id="ViewEdge001"
     transform="rotate(0.0,0.0,0.0) translate(0.0,0.0) scale(1.0,-1.0)" />
  <g
     id="ViewEdge002"
     transform="rotate(0.0,0.0,0.0) translate(0.0,0.0) scale(1.0,-1.0)" />
  <g
     id="ViewEdge003"
     transform="rotate(0.0,0.0,0.0) translate(0.0,0.0) scale(1.0,-1.0)" />
  <g
     id="ViewEdge004"
     transform="rotate(0.0,0.0,0.0) translate(0.0,0.0) scale(1.0,-1.0)" />
  <g
     id="ViewEdge005"
     transform="rotate(0.0,0.0,0.0) translate(0.0,0.0) scale(1.0,-1.0)" />
  <g
     id="ViewEdge006"
     transform="rotate(0.0,0.0,0.0) translate(0.0,0.0) scale(1.0,-1.0)" />
  <g
     id="ViewEdge007"
     transform="rotate(0.0,0.0,0.0) translate(0.0,0.0) scale(1.0,-1.0)" />
  <g
     id="ViewEdge008"
     transform="rotate(0.0,0.0,0.0) translate(0.0,0.0) scale(1.0,-1.0)" />
  <g
     id="ViewEdge009"
     transform="rotate(0.0,0.0,0.0) translate(0.0,0.0) scale(1.0,-1.0)" />
  <g
     id="ViewEdge010"
     transform="rotate(0.0,0.0,0.0) translate(0.0,0.0) scale(1.0,-1.0)" />
  <g
     id="ViewEdge011"
     transform="rotate(0.0,0.0,0.0) translate(0.0,0.0) scale(1.0,-1.0)" />
  <g
     id="ViewEdge012"
     transform="rotate(0.0,0.0,0.0) translate(0.0,0.0) scale(1.0,-1.0)" />
  <g
     id="ViewEdge013"
     transform="rotate(0.0,0.0,0.0) translate(0.0,0.0) scale(1.0,-1.0)" />
  <g
     id="ViewEdge014"
     transform="rotate(0.0,0.0,0.0) translate(0.0,0.0) scale(1.0,-1.0)" />
  <g
     id="ViewEdge015"
     transform="rotate(0.0,0.0,0.0) translate(0.0,0.0) scale(1.0,-1.0)" />
  <g
     id="ViewEdge016"
     transform="rotate(0.0,0.0,0.0) translate(0.0,0.0) scale(1.0,-1.0)" />
  <g
     id="ViewEdge017"
     transform="rotate(0.0,0.0,0.0) translate(0.0,0.0) scale(1.0,-1.0)" />
  <g
     id="ViewEdge018"
     transform="rotate(0.0,0.0,0.0) translate(0.0,0.0) scale(1.0,-1.0)" />
  <g
     id="ViewEdge019"
     transform="rotate(0.0,0.0,0.0) translate(0.0,0.0) scale(1.0,-1.0)" />
  <g
     id="ViewEdge020"
     transform="rotate(0.0,0.0,0.0) translate(0.0,0.0) scale(1.0,-1.0)" />
  <g
     id="ViewEdge021"
     transform="rotate(0.0,0.0,0.0) translate(0.0,0.0) scale(1.0,-1.0)" />
  <g
     id="ViewEdge022"
     transform="rotate(0.0,0.0,0.0) translate(0.0,0.0) scale(1.0,-1.0)" />
  <g
     id="ViewEdge023"
     transform="rotate(0.0,0.0,0.0) translate(0.0,0.0) scale(1.0,-1.0)" />
  <g
     id="ViewEdge024"
     transform="rotate(0.0,0.0,0.0) translate(0.0,0.0) scale(1.0,-1.0)" />
  <g
     id="ViewEdge025"
     transform="rotate(0.0,0.0,0.0) translate(0.0,0.0) scale(1.0,-1.0)" />
  <g
     id="ViewEdge026"
     transform="rotate(0.0,0.0,0.0) translate(0.0,0.0) scale(1.0,-1.0)" />
  <g
     id="ViewEdge027"
     transform="rotate(0.0,0.0,0.0) translate(0.0,0.0) scale(1.0,-1.0)" />
  <g
     id="ViewEdge028"
     transform="rotate(0.0,0.0,0.0) translate(0.0,0.0) scale(1.0,-1.0)" />
  <g
     id="ViewEdge029"
     transform="rotate(0.0,0.0,0.0) translate(0.0,0.0) scale(1.0,-1.0)" />
  <g
     id="ViewEdge030"
     transform="rotate(0.0,0.0,0.0) translate(0.0,0.0) scale(1.0,-1.0)" />
  <g
     id="ViewEdge031"
     transform="rotate(0.0,0.0,0.0) translate(0.0,0.0) scale(1.0,-1.0)" />
  <g
     id="ViewEdge032"
     transform="rotate(0.0,0.0,0.0) translate(0.0,0.0) scale(1.0,-1.0)" />
  <g
     id="ViewEdge033"
     transform="rotate(0.0,0.0,0.0) translate(0.0,0.0) scale(1.0,-1.0)" />
  <g
     id="ViewEdge034"
     transform="rotate(0.0,0.0,0.0) translate(0.0,0.0) scale(1.0,-1.0)" />
  <g
     id="ViewEdge035"
     transform="rotate(0.0,0.0,0.0) translate(0.0,0.0) scale(1.0,-1.0)" />
  <g
     id="ViewEdge036"
     transform="rotate(0.0,0.0,0.0) translate(0.0,0.0) scale(1.0,-1.0)" />
  <g
     id="ViewEdge037"
     transform="rotate(0.0,0.0,0.0) translate(0.0,0.0) scale(1.0,-1.0)" />
  <g
     id="ViewEdge038"
     transform="rotate(0.0,0.0,0.0) translate(0.0,0.0) scale(1.0,-1.0)" />
  <g
     id="ViewEdge039"
     transform="rotate(0.0,0.0,0.0) translate(0.0,0.0) scale(1.0,-1.0)" />
  <g
     id="ViewEdge040"
     transform="rotate(0.0,0.0,0.0) translate(0.0,0.0) scale(1.0,-1.0)" />
  <g
     id="ViewEdge041"
     transform="rotate(0.0,0.0,0.0) translate(0.0,0.0) scale(1.0,-1.0)" />
  <g
     id="ViewEdge042"
     transform="rotate(0.0,0.0,0.0) translate(0.0,0.0) scale(1.0,-1.0)" />
  <g
     id="ViewEdge043"
     transform="rotate(0.0,0.0,0.0) translate(0.0,0.0) scale(1.0,-1.0)" />
  <g
     id="ViewEdge044"
     transform="rotate(0.0,0.0,0.0) translate(0.0,0.0) scale(1.0,-1.0)" />
  <g
     id="ViewEdge045"
     transform="rotate(0.0,0.0,0.0) translate(0.0,0.0) scale(1.0,-1.0)" />
  <g
     id="ViewEdge046"
     transform="rotate(0.0,0.0,0.0) translate(0.0,0.0) scale(1.0,-1.0)" />
  <g
     id="ViewEdge047"
     transform="rotate(0.0,0.0,0.0) translate(0.0,0.0) scale(1.0,-1.0)" />
  <g
     id="ViewEdge048"
     transform="rotate(0.0,0.0,0.0) translate(0.0,0.0) scale(1.0,-1.0)" />
  <g
     id="ViewEdge049"
     transform="rotate(0.0,0.0,0.0) translate(0.0,0.0) scale(1.0,-1.0)" />
  <g
     id="ViewEdge050"
     transform="rotate(0.0,0.0,0.0) translate(0.0,0.0) scale(1.0,-1.0)" />
  <g
     id="ViewEdge051"
     transform="rotate(0.0,0.0,0.0) translate(0.0,0.0) scale(1.0,-1.0)" />
  <g
     id="ViewEdge052"
     transform="rotate(0.0,0.0,0.0) translate(0.0,0.0) scale(1.0,-1.0)" />
  <g
     id="ViewEdge053"
     transform="rotate(0.0,0.0,0.0) translate(0.0,0.0) scale(1.0,-1.0)" />
  <g
     id="ViewEdge054"
     transform="rotate(0.0,0.0,0.0) translate(0.0,0.0) scale(1.0,-1.0)" />
  <g
     id="ViewEdge055"
     transform="rotate(0.0,0.0,0.0) translate(0.0,0.0) scale(1.0,-1.0)" />
  <g
     id="ViewEdge056"
     transform="rotate(0.0,0.0,0.0) translate(0.0,0.0) scale(1.0,-1.0)" />
  <g
     id="ViewEdge057"
     transform="rotate(0.0,0.0,0.0) translate(0.0,0.0) scale(1.0,-1.0)" />
  <g
     id="ViewEdge058"
     transform="rotate(0.0,0.0,0.0) translate(0.0,0.0) scale(1.0,-1.0)" />
  <g
     id="ViewEdge059"
     transform="rotate(0.0,0.0,0.0) translate(0.0,0.0) scale(1.0,-1.0)" />
  <g
     id="ViewEdge060"
     transform="rotate(0.0,0.0,0.0) translate(0.0,0.0) scale(1.0,-1.0)" />
  <g
     id="ViewEdge061"
     transform="rotate(0.0,0.0,0.0) translate(0.0,0.0) scale(1.0,-1.0)" />
  <g
     id="ViewEdge062"
     transform="rotate(0.0,0.0,0.0) translate(0.0,0.0) scale(1.0,-1.0)" />
  <g
     id="ViewEdge063"
     transform="rotate(0.0,0.0,0.0) translate(0.0,0.0) scale(1.0,-1.0)" />
  <g
     id="ViewEdge064"
     transform="rotate(0.0,0.0,0.0) translate(0.0,0.0) scale(1.0,-1.0)" />
  <g
     id="ViewEdge065"
     transform="rotate(0.0,0.0,0.0) translate(0.0,0.0) scale(1.0,-1.0)" />
  <g
     id="ViewEdge066"
     transform="rotate(0.0,0.0,0.0) translate(0.0,0.0) scale(1.0,-1.0)" />
  <g
     id="ViewEdge067"
     transform="rotate(0.0,0.0,0.0) translate(0.0,0.0) scale(1.0,-1.0)" />
  <g
     id="ViewEdge068"
     transform="rotate(0.0,0.0,0.0) translate(0.0,0.0) scale(1.0,-1.0)" />
  <g
     id="ViewEdge069"
     transform="rotate(0.0,0.0,0.0) translate(0.0,0.0) scale(1.0,-1.0)" />
  <g
     id="ViewEdge070"
     transform="rotate(0.0,0.0,0.0) translate(0.0,0.0) scale(1.0,-1.0)" />
  <g
     id="ViewEdge071"
     transform="rotate(0.0,0.0,0.0) translate(0.0,0.0) scale(1.0,-1.0)" />
  <g
     id="ViewEdge072"
     transform="rotate(0.0,0.0,0.0) translate(0.0,0.0) scale(1.0,-1.0)" />
  <g
     id="ViewEdge073"
     transform="rotate(0.0,0.0,0.0) translate(0.0,0.0) scale(1.0,-1.0)" />
  <g
     id="ViewEdge074"
     transform="rotate(0.0,0.0,0.0) translate(0.0,0.0) scale(1.0,-1.0)" />
  <g
     id="ViewEdge075"
     transform="rotate(0.0,0.0,0.0) translate(0.0,0.0) scale(1.0,-1.0)" />
  <g
     id="ViewEdge076"
     transform="rotate(0.0,0.0,0.0) translate(0.0,0.0) scale(1.0,-1.0)" />
  <g
     id="ViewEdge077"
     transform="rotate(0.0,0.0,0.0) translate(0.0,0.0) scale(1.0,-1.0)" />
  <g
     id="ViewEdge078"
     transform="rotate(0.0,0.0,0.0) translate(0.0,0.0) scale(1.0,-1.0)" />
  <g
     id="ViewEdge079"
     transform="rotate(0.0,0.0,0.0) translate(0.0,0.0) scale(1.0,-1.0)" />
  <g
     id="ViewEdge080"
     transform="rotate(0.0,0.0,0.0) translate(0.0,0.0) scale(1.0,-1.0)" />
  <g
     id="ViewEdge081"
     transform="rotate(0.0,0.0,0.0) translate(0.0,0.0) scale(1.0,-1.0)" />
  <g
     id="ViewEdge082"
     transform="rotate(0.0,0.0,0.0) translate(0.0,0.0) scale(1.0,-1.0)" />
  <g
     id="ViewEdge083"
     transform="rotate(0.0,0.0,0.0) translate(0.0,0.0) scale(1.0,-1.0)" />
  <g
     id="ViewEdge084"
     transform="rotate(0.0,0.0,0.0) translate(0.0,0.0) scale(1.0,-1.0)" />
  <g
     id="ViewEdge085"
     transform="rotate(0.0,0.0,0.0) translate(0.0,0.0) scale(1.0,-1.0)" />
  <g
     id="ViewEdge086"
     transform="rotate(0.0,0.0,0.0) translate(0.0,0.0) scale(1.0,-1.0)" />
  <g
     id="ViewEdge087"
     transform="rotate(0.0,0.0,0.0) translate(0.0,0.0) scale(1.0,-1.0)" />
  <g
     id="ViewEdge088"
     transform="rotate(0.0,0.0,0.0) translate(0.0,0.0) scale(1.0,-1.0)" />
  <g
     id="ViewEdge089"
     transform="rotate(0.0,0.0,0.0) translate(0.0,0.0) scale(1.0,-1.0)" />
  <g
     id="ViewEdge090"
     transform="rotate(0.0,0.0,0.0) translate(0.0,0.0) scale(1.0,-1.0)" />
  <g
     id="ViewEdge091"
     transform="rotate(0.0,0.0,0.0) translate(0.0,0.0) scale(1.0,-1.0)" />
  <g
     id="ViewEdge092"
     transform="rotate(0.0,0.0,0.0) translate(0.0,0.0) scale(1.0,-1.0)" />
  <g
     id="ViewEdge093"
     transform="rotate(0.0,0.0,0.0) translate(0.0,0.0) scale(1.0,-1.0)" />
  <g
     id="ViewEdge094"
     transform="rotate(0.0,0.0,0.0) translate(0.0,0.0) scale(1.0,-1.0)" />
  <g
     id="ViewEdge095"
     transform="rotate(0.0,0.0,0.0) translate(0.0,0.0) scale(1.0,-1.0)" />
  <g
     id="ViewEdge096"
     transform="rotate(0.0,0.0,0.0) translate(0.0,0.0) scale(1.0,-1.0)" />
  <g
     id="ViewEdge097"
     transform="rotate(0.0,0.0,0.0) translate(0.0,0.0) scale(1.0,-1.0)" />
  <g
     id="ViewEdge098"
     transform="rotate(0.0,0.0,0.0) translate(0.0,0.0) scale(1.0,-1.0)" />
  <g
     id="ViewEdge099"
     transform="rotate(0.0,0.0,0.0) translate(0.0,0.0) scale(1.0,-1.0)" />
  <g
     id="ViewEdge100"
     transform="rotate(0.0,0.0,0.0) translate(0.0,0.0) scale(1.0,-1.0)" />
  <g
     id="ViewEdge101"
     transform="rotate(0.0,0.0,0.0) translate(0.0,0.0) scale(1.0,-1.0)" />
  <g
     id="ViewEdge102"
     transform="rotate(0.0,0.0,0.0) translate(0.0,0.0) scale(1.0,-1.0)" />
  <g
     id="ViewEdge103"
     transform="rotate(0.0,0.0,0.0) translate(0.0,0.0) scale(1.0,-1.0)" />
  <g
     id="ViewEdge104"
     transform="rotate(0.0,0.0,0.0) translate(0.0,0.0) scale(1.0,-1.0)" />
  <g
     id="ViewEdge105"
     transform="rotate(0.0,0.0,0.0) translate(0.0,0.0) scale(1.0,-1.0)" />
  <g
     id="ViewEdge107"
     transform="rotate(0.0,0.0,0.0) translate(0.0,0.0) scale(1.0,-1.0)">
    <path
       id="Edge107_nwe0000"
       d="M 94.75 -293.499 L 94.75 -228.4995 "
       style="stroke-width:0.35;stroke-miterlimit:4;stroke-dasharray:none;fill:none;fill-rule: evenodd "
       stroke-width="0.35 px"
       stroke="#191919" />
  </g>
  <g
     id="ViewEdge108"
     transform="rotate(0.0,0.0,0.0) translate(0.0,0.0) scale(1.0,-1.0)">
    <path
       id="Edge108_nwe0000"
       d="M 94.75 -78.5005 L 94.75 -13.501 "
       style="stroke-width:0.35;stroke-miterlimit:4;stroke-dasharray:none;fill:none;fill-rule: evenodd "
       stroke-width="0.35 px"
       stroke="#191919" />
  </g>
  <g
     id="ViewEdge109"
     transform="rotate(0.0,0.0,0.0) translate(0.0,0.0) scale(1.0,-1.0)" />
  <g
     id="ViewEdge110"
     transform="rotate(0.0,0.0,0.0) translate(0.0,0.0) scale(1.0,-1.0)" />
  <g
     id="ViewEdge111"
     transform="rotate(0.0,0.0,0.0) translate(0.0,0.0) scale(1.0,-1.0)" />
  <g
     id="ViewEdge112"
     transform="rotate(0.0,0.0,0.0) translate(0.0,0.0) scale(1.0,-1.0)" />
  <g
     id="ViewEdge113"
     transform="rotate(0.0,0.0,0.0) translate(0.0,0.0) scale(1.0,-1.0)" />
  <g
     id="ViewEdge114"
     transform="rotate(0.0,0.0,0.0) translate(0.0,0.0) scale(1.0,-1.0)" />
  <g
     id="ViewEdge115"
     transform="rotate(0.0,0.0,0.0) translate(0.0,0.0) scale(1.0,-1.0)" />
  <g
     id="g31297">
    <path
       sodipodi:nodetypes="ccccccccccccccccccccccccccccccccccccccccccccccccccccccccccccccccccccccccccccccccccccccccccccccccccccccccccccssssssssssccc"
       inkscape:connector-curvature="0"
       d="m 73.333667,0.001 -3.5,3.5 -0.25,0.25 m 46.582663,-3.75 3.5,3.5 0.25,0.25 m 49.33267,0 0.25,-0.25 3.5,-3.5 m -156.498,0 3.5,3.5 0.25,0.25 m 178.998,26 0.25,0.25 3.5,3.5 m 0,25.333 -3.5,3.5 -0.25,0.25 m 3.75,113.916 -3.5,3.5 -0.25,0.25 m 3.75,35.583 -3.5,-3.5 -0.25,-0.25 m 3.75,29.083 -3.5,3.5 -0.25,0.25 m 3.75,35.583 -3.5,-3.5 -0.25,-0.25 m 0,-182.332 0.25,0.25 3.5,3.5 m 0,25.333 -3.5,3.5 -0.25,0.25 m -76.08267,179.749 -3.5,-3.5 -0.25,-0.25 m -53.082663,3.75 3.5,-3.5 0.25,-0.25 m -46.582667,3.75 -3.5,-3.5 -0.25,-0.25 m 146.248,3.75 3.5,-3.5 0.25,-0.25 m 26.41667,-9.75 3.58333,3.58333 m 3.25,0.75 -3.5,3.5 m -10,-1.16666 3.33333,-3.33334 m 0,0 0,6.83334 m 0,0 -3.33333,3.33333 m 0,-6.83333 0,-6.66667 m 6.66667,0 6.83333,0 m -13.5,-279.998 0,-6.6666667 m 6.66667,6.6666667 6.83333,0 m -13.5,-6.6666667 3.33333,3.3333337 m 0,0 0,-6.8333337 M 189.499,0.001 192.83233,3.3343333 M 196.16567,13.501 199.749,9.9176667 m 3.25,287.9146633 0,-2.16666 0,-2.16667 0,-129.999 0,-3 -3.5,-3.5 3.5,-3.5 -3.5,-3.5 3.5,-3.5 0,-3 0,-129.999 0,-2.166667 0,-2.1666663 -3.5,-3.5 3.5,-3.5 0,-2.16666670214 -13.5,-2.15e-9 -16.5,0 -56.83267,0 -42.832663,0 -56.832667,0 -16.5,0 0,13.50000000429 0,129.999 0,10 0,10 0,129.999 0,13.5 189.498,0 13.5,0 0,-2.16667 -3.5,-3.5 m -10,-147.83233 13.5,0 M 10.001,81.500006 l 0,-6 c 0,-2.666666 -4,-2.666666 -4,0 l 0,6 c 0,2.666666 4,2.666666 4,0 z m -4,149.999014 c 0,2.66667 4,2.66667 4,0 l 0,-6 c 0,-2.66667 -4,-2.66667 -4,0 z M 189.499,143.5 l 0,10 0,10"
       style="fill:none;fill-rule:evenodd;stroke:#ff0000;stroke-width:0.28222224;stroke-miterlimit:4;stroke-dasharray:none;stroke-opacity:1"
       id="Edge116_nwe0000" />
    <g
       id="text31261"
       style="font-style:normal;font-weight:normal;font-size:11.28888988px;line-height:125%;font-family:sans-serif;letter-spacing:0px;word-spacing:0px;fill:#000000;fill-opacity:1;stroke:none;stroke-width:1px;stroke-linecap:butt;stroke-linejoin:miter;stroke-opacity:1">
      <path
         id="path31285"
         style=""
         d="m -82.316826,-16.395617 0,3.015147 1.785938,0 q 0.898481,0 1.328429,-0.369314 0.43546,-0.374826 0.43546,-1.141016 0,-0.771701 -0.43546,-1.135503 -0.429948,-0.369314 -1.328429,-0.369314 l -1.785938,0 z m 0,-3.384463 0,2.480469 1.648134,0 q 0.815799,0 1.212674,-0.303168 0.402387,-0.308681 0.402387,-0.937066 0,-0.622873 -0.402387,-0.931554 -0.396875,-0.308681 -1.212674,-0.308681 l -1.648134,0 z m -1.113454,-0.915017 2.844271,0 q 1.273307,0 1.962326,0.529167 0.689019,0.529166 0.689019,1.504818 0,0.755165 -0.352777,1.201649 -0.352778,0.446484 -1.036285,0.556727 0.821311,0.176389 1.273307,0.738629 0.457509,0.556727 0.457509,1.394575 0,1.10243 -0.749653,1.703255 -0.749653,0.600825 -2.133203,0.600825 l -2.954514,0 0,-8.229645 z" />
      <path
         id="path31287"
         style=""
         d="m -73.34304,-17.927996 q -0.815799,0 -1.289844,0.63941 -0.474045,0.633897 -0.474045,1.74184 0,1.107943 0.468533,1.747353 0.474045,0.633897 1.295356,0.633897 0.810287,0 1.284332,-0.639409 0.474045,-0.63941 0.474045,-1.741841 0,-1.096918 -0.474045,-1.736328 -0.474045,-0.644922 -1.284332,-0.644922 z m 0,-0.859896 q 1.322917,0 2.078082,0.859896 0.755165,0.859896 0.755165,2.38125 0,1.515842 -0.755165,2.38125 -0.755165,0.859896 -2.078082,0.859896 -1.328429,0 -2.083594,-0.859896 -0.749653,-0.865408 -0.749653,-2.38125 0,-1.521354 0.749653,-2.38125 0.755165,-0.859896 2.083594,-0.859896 z" />
      <path
         id="path31289"
         style=""
         d="m -64.055062,-18.639064 -2.232422,3.004124 2.348178,3.169488 -1.196138,0 -1.796962,-2.425348 -1.796962,2.425348 -1.196137,0 2.397787,-3.230122 -2.193837,-2.94349 1.196137,0 1.63711,2.199349 1.637109,-2.199349 1.196137,0 z" />
      <path
         id="path31291"
         style=""
         d="m -54.469427,-18.402041 0,0.94809 q -0.429948,-0.237022 -0.865408,-0.352778 -0.429948,-0.121267 -0.870921,-0.121267 -0.986675,0 -1.532378,0.628385 -0.545703,0.622874 -0.545703,1.752865 0,1.129992 0.545703,1.758377 0.545703,0.622873 1.532378,0.622873 0.440973,0 0.870921,-0.115755 0.43546,-0.121267 0.865408,-0.35829 l 0,0.937066 q -0.424436,0.198438 -0.881945,0.297656 -0.451996,0.09922 -0.964627,0.09922 -1.394575,0 -2.215885,-0.876432 -0.821311,-0.876432 -0.821311,-2.364714 0,-1.51033 0.826823,-2.375738 0.832335,-0.865408 2.276519,-0.865408 0.468533,0 0.915018,0.09922 0.446484,0.09371 0.865408,0.286632 z" />
      <path
         id="path31293"
         style=""
         d="m -52.799243,-14.901824 0,-3.73724 1.014236,0 0,3.698655 q 0,0.876432 0.341753,1.317405 0.341754,0.43546 1.025261,0.43546 0.821311,0 1.295356,-0.523655 0.479557,-0.523654 0.479557,-1.427648 l 0,-3.500217 1.014236,0 0,6.173612 -1.014236,0 0,-0.948091 q -0.369314,0.56224 -0.859896,0.837848 -0.485069,0.270095 -1.129991,0.270095 -1.063846,0 -1.615061,-0.661458 -0.551215,-0.661459 -0.551215,-1.934766 z m 2.552127,-3.886068 0,0 z" />
      <path
         id="path31295"
         style=""
         d="m -44.525502,-20.391929 0,1.752865 2.089106,0 0,0.788238 -2.089106,0 0,3.351389 q 0,0.755165 0.203949,0.970139 0.209462,0.214974 0.84336,0.214974 l 1.041797,0 0,0.848872 -1.041797,0 q -1.174089,0 -1.620573,-0.43546 -0.446485,-0.440973 -0.446485,-1.598525 l 0,-3.351389 -0.74414,0 0,-0.788238 0.74414,0 0,-1.752865 1.019749,0 z" />
    </g>
  </g>
  <g
     id="g31307">
    <path
       sodipodi:nodetypes="cccccccccccccccccccccccccccccccccccccccccccccccccccc"
       inkscape:connector-curvature="0"
       d="m 189.499,6.8343333 0,-6.8333333 m 6.66667,13.5 -6.66667,0 -189.498,0 m 189.498,149.999 0,129.999 m -189.498,0 189.498,0 6.66667,0 M 68.559771,0.001 l 1.273896,3.5 m 49.832663,0 1.2739,-3.5 m 48.55877,3.5 -1.2739,-3.5 m 21.2739,300.16467 0,6.83333 M 0.001,163.5 l 189.498,0 13.5,0 m -202.998,-20 189.498,0 13.5,0 m -13.5,0 0,-129.999 m -169.498,-10 1.273896,-3.5 m 178.224104,30 3.5,-1.273896 m -3.5,33.606896 3.5,1.273896 M 199.499,180 l 3.5,1.2739 m -3.5,31.0591 3.5,-1.2739 m -3.5,33.6069 3.5,1.2739 m -3.5,31.0591 3.5,-1.2739 m -3.5,-181.0581 3.5,-1.273896 M 199.499,127 l 3.5,1.2739 m -83.33267,175.2251 -1.27389,3.5 m -48.558773,-3.5 1.273895,3.5 m -51.106562,-3.5 -1.273896,3.5 m 150.771896,-3.5 1.2739,3.5"
       style="fill:none;fill-rule:evenodd;stroke:#008000;stroke-width:0.28222224;stroke-miterlimit:4;stroke-dasharray:none;stroke-opacity:1"
       id="path22646" />
    <g
       id="text31265"
       style="font-style:normal;font-weight:normal;font-size:11.28888988px;line-height:125%;font-family:sans-serif;letter-spacing:0px;word-spacing:0px;fill:#000000;fill-opacity:1;stroke:none;stroke-width:1px;stroke-linecap:butt;stroke-linejoin:miter;stroke-opacity:1">
      <path
         id="path31270"
         style=""
         d="m -84.09658,0.95696403 0,3.01514787 1.785938,0 q 0.89848,0 1.328428,-0.3693143 0.435461,-0.3748264 0.435461,-1.1410157 0,-0.7717015 -0.435461,-1.1355036 -0.429948,-0.36931427 -1.328428,-0.36931427 l -1.785938,0 z m 0,-3.38446213 0,2.48046899 1.648134,0 q 0.815798,0 1.212673,-0.30316843 0.402388,-0.30868058 0.402388,-0.93706606 0,-0.6228733 -0.402388,-0.9315539 -0.396875,-0.3086806 -1.212673,-0.3086806 l -1.648134,0 z m -1.113455,-0.9150174 2.844271,0 q 1.273307,0 1.962327,0.5291667 0.689019,0.5291667 0.689019,1.5048178 0,0.75516504 -0.352778,1.20164945 -0.352778,0.44648441 -1.036285,0.55672748 0.821311,0.1763889 1.273307,0.73862857 0.457509,0.5567274 0.457509,1.3945747 0,1.1024307 -0.749653,1.7032554 -0.749652,0.6008247 -2.133203,0.6008247 l -2.954514,0 0,-8.2296448 z" />
      <path
         id="path31272"
         style=""
         d="m -75.122795,-0.57541458 q -0.815798,0 -1.289843,0.63940978 -0.474046,0.63389763 -0.474046,1.7418404 0,1.1079428 0.468533,1.7473526 0.474046,0.6338976 1.295356,0.6338976 0.810287,0 1.284332,-0.6394097 0.474045,-0.6394098 0.474045,-1.7418405 0,-1.09691847 -0.474045,-1.73632825 -0.474045,-0.64492193 -1.284332,-0.64492193 z m 0,-0.85989592 q 1.322917,0 2.078082,0.85989592 0.755165,0.85989591 0.755165,2.38125018 0,1.5158422 -0.755165,2.3812502 -0.755165,0.859896 -2.078082,0.859896 -1.328428,0 -2.083593,-0.859896 -0.749653,-0.865408 -0.749653,-2.3812502 0,-1.52135427 0.749653,-2.38125018 0.755165,-0.85989592 2.083593,-0.85989592 z" />
      <path
         id="path31274"
         style=""
         d="m -65.834816,-1.2864823 -2.232422,3.0041235 2.348177,3.1694881 -1.196137,0 -1.796962,-2.4253474 -1.796962,2.4253474 -1.196138,0 2.397787,-3.2301218 -2.193837,-2.9434898 1.196137,0 1.63711,2.1993491 1.637109,-2.1993491 1.196138,0 z" />
      <path
         id="path31276"
         style=""
         d="m -57.566587,-3.6897812 0,0.8433595 -0.970139,0 q -0.545703,0 -0.760677,0.2204861 -0.209462,0.2204861 -0.209462,0.7937501 l 0,0.5457032 1.670183,0 0,0.78823787 -1.670183,0 0,5.38537373 -1.019748,0 0,-5.38537373 -0.970139,0 0,-0.78823787 0.970139,0 0,-0.429948 q 0,-1.0307727 0.479557,-1.4993057 0.479558,-0.4740452 1.521355,-0.4740452 l 0.959114,0 z" />
      <path
         id="path31278"
         style=""
         d="m -54.330953,-0.57541458 q -0.815799,0 -1.289844,0.63940978 -0.474045,0.63389763 -0.474045,1.7418404 0,1.1079428 0.468533,1.7473526 0.474045,0.6338976 1.295356,0.6338976 0.810286,0 1.284332,-0.6394097 0.474045,-0.6394098 0.474045,-1.7418405 0,-1.09691847 -0.474045,-1.73632825 -0.474046,-0.64492193 -1.284332,-0.64492193 z m 0,-0.85989592 q 1.322917,0 2.078082,0.85989592 0.755165,0.85989591 0.755165,2.38125018 0,1.5158422 -0.755165,2.3812502 -0.755165,0.859896 -2.078082,0.859896 -1.328429,0 -2.083594,-0.859896 -0.749653,-0.865408 -0.749653,-2.3812502 0,-1.52135427 0.749653,-2.38125018 0.755165,-0.85989592 2.083594,-0.85989592 z" />
      <path
         id="path31280"
         style=""
         d="m -49.822011,-3.6897812 1.014236,0 0,8.5769105 -1.014236,0 0,-8.5769105 z" />
      <path
         id="path31282"
         style=""
         d="m -42.628649,-0.34941629 0,-3.34036491 1.014236,0 0,8.5769105 -1.014236,0 0,-0.9260417 q -0.319705,0.5512153 -0.810286,0.8213108 -0.48507,0.2645834 -1.168577,0.2645834 -1.118967,0 -1.824523,-0.8929689 -0.700043,-0.8929688 -0.700043,-2.3481773 0,-1.45520843 0.700043,-2.34817726 0.705556,-0.89296884 1.824523,-0.89296884 0.683507,0 1.168577,0.2700955 0.490581,0.26458338 0.810286,0.81579871 z m -3.45612,2.15525189 q 0,1.1189671 0.457509,1.7583769 0.463021,0.6338976 1.267795,0.6338976 0.804774,0 1.267795,-0.6338976 0.463021,-0.6394098 0.463021,-1.7583769 0,-1.11896708 -0.463021,-1.75286471 -0.463021,-0.63940977 -1.267795,-0.63940977 -0.804774,0 -1.267795,0.63940977 -0.457509,0.63389763 -0.457509,1.75286471 z" />
    </g>
  </g>
</svg>
